G04 ================== begin FILE IDENTIFICATION RECORD ==================*
G04 Layout Name:  F:/对外部分项目/信号发生器改版V2.0_485/Hardware/Pcb/DDS.brd*
G04 Film Name:    DRILL*
G04 File Format:  Gerber RS274X*
G04 File Origin:  Cadence Allegro 16.6-2015-S066*
G04 Origin Date:  Sat Feb 24 22:19:25 2018*
G04 *
G04 Layer:  MANUFACTURING/NCLEGEND-1-2*
G04 Layer:  MANUFACTURING/NCDRILL_LEGEND*
G04 Layer:  MANUFACTURING/NCDRILL_FIGURE*
G04 Layer:  BOARD GEOMETRY/OUTLINE*
G04 *
G04 Offset:    (0.000 0.000)*
G04 Mirror:    No*
G04 Mode:      Positive*
G04 Rotation:  0*
G04 FullContactRelief:  No*
G04 UndefLineWidth:     1.000*
G04 ================== end FILE IDENTIFICATION RECORD ====================*
%FSLAX25Y25*MOIN*%
%IR0*IPPOS*OFA0.00000B0.00000*MIA0B0*SFA1.00000B1.00000*%
%AMMACRO13*
1,1,.001,.017717,0.0*
20,1,.001,.017717,0.0,.008858,.015343,0.0*
1,1,.001,.008858,.015343*
20,1,.001,.008858,.015343,-.008858,.015343,0.0*
1,1,.001,-.008858,.015343*
20,1,.001,-.008858,.015343,-.017717,0.0,0.0*
1,1,.001,-.017717,0.0*
20,1,.001,-.017717,0.0,-.008858,-.015343,0.0*
1,1,.001,-.008858,-.015343*
20,1,.001,-.008858,-.015343,.008858,-.015343,0.0*
1,1,.001,.008858,-.015343*
20,1,.001,.008858,-.015343,.017717,0.0,0.0*
1,1,.001,.017717,0.0*
1,1,.001,-.007382,-.008858*
20,1,.001,-.007382,-.008858,0.0,.008858,0.0*
1,1,.001,0.0,.008858*
20,1,.001,0.0,.008858,.007382,-.008858,0.0*
1,1,.001,.007382,-.008858*
1,1,.001,.004724,-.002658*
20,1,.001,.004724,-.002658,-.004725,-.002658,0.0*
1,1,.001,-.004725,-.002658*
%
%ADD13MACRO13*%
%AMMACRO17*
1,1,.001,.023622,0.0*
20,1,.001,.023622,0.0,.011811,.020457,0.0*
1,1,.001,.011811,.020457*
20,1,.001,.011811,.020457,-.011811,.020457,0.0*
1,1,.001,-.011811,.020457*
20,1,.001,-.011811,.020457,-.023622,0.0,0.0*
1,1,.001,-.023622,0.0*
20,1,.001,-.023622,0.0,-.011811,-.020457,0.0*
1,1,.001,-.011811,-.020457*
20,1,.001,-.011811,-.020457,.011811,-.020457,0.0*
1,1,.001,.011811,-.020457*
20,1,.001,.011811,-.020457,.023622,0.0,0.0*
1,1,.001,.023622,0.0*
1,1,.001,-.009843,-.011811*
20,1,.001,-.009843,-.011811,0.0,.011811,0.0*
1,1,.001,0.0,.011811*
20,1,.001,0.0,.011811,.009843,-.011811,0.0*
1,1,.001,.009843,-.011811*
1,1,.001,.006299,-.003544*
20,1,.001,.006299,-.003544,-.0063,-.003544,0.0*
1,1,.001,-.0063,-.003544*
%
%ADD17MACRO17*%
%AMMACRO15*
1,1,.001,.019685,0.0*
20,1,.001,.019685,0.0,.009843,.017048,0.0*
1,1,.001,.009843,.017048*
20,1,.001,.009843,.017048,-.009842,.017048,0.0*
1,1,.001,-.009842,.017048*
20,1,.001,-.009842,.017048,-.019685,0.0,0.0*
1,1,.001,-.019685,0.0*
20,1,.001,-.019685,0.0,-.009843,-.017048,0.0*
1,1,.001,-.009843,-.017048*
20,1,.001,-.009843,-.017048,.009842,-.017048,0.0*
1,1,.001,.009842,-.017048*
20,1,.001,.009842,-.017048,.019685,0.0,0.0*
1,1,.001,.019685,0.0*
1,1,.001,-.008202,-.009842*
20,1,.001,-.008202,-.009842,0.0,.009843,0.0*
1,1,.001,0.0,.009843*
20,1,.001,0.0,.009843,.008203,-.009842,0.0*
1,1,.001,.008203,-.009842*
1,1,.001,.00525,-.002953*
20,1,.001,.00525,-.002953,-.005249,-.002953,0.0*
1,1,.001,-.005249,-.002953*
%
%ADD15MACRO15*%
%AMMACRO16*
1,1,.001,.07874,0.0*
20,1,.001,.07874,0.0,.03937,.068191,0.0*
1,1,.001,.03937,.068191*
20,1,.001,.03937,.068191,-.03937,.068191,0.0*
1,1,.001,-.03937,.068191*
20,1,.001,-.03937,.068191,-.07874,0.0,0.0*
1,1,.001,-.07874,0.0*
20,1,.001,-.07874,0.0,-.03937,-.068191,0.0*
1,1,.001,-.03937,-.068191*
20,1,.001,-.03937,-.068191,.03937,-.068191,0.0*
1,1,.001,.03937,-.068191*
20,1,.001,.03937,-.068191,.07874,0.0,0.0*
1,1,.001,.07874,0.0*
1,1,.001,-.03281,-.03937*
20,1,.001,-.03281,-.03937,-.000001,.03937,0.0*
1,1,.001,-.000001,.03937*
20,1,.001,-.000001,.03937,.03281,-.03937,0.0*
1,1,.001,.03281,-.03937*
1,1,.001,.020996,-.011812*
20,1,.001,.020996,-.011812,-.020999,-.011812,0.0*
1,1,.001,-.020999,-.011812*
%
%ADD16MACRO16*%
%AMMACRO14*
1,1,.001,.029528,0.0*
20,1,.001,.029528,0.0,.014764,.025572,0.0*
1,1,.001,.014764,.025572*
20,1,.001,.014764,.025572,-.014764,.025572,0.0*
1,1,.001,-.014764,.025572*
20,1,.001,-.014764,.025572,-.029528,0.0,0.0*
1,1,.001,-.029528,0.0*
20,1,.001,-.029528,0.0,-.014764,-.025572,0.0*
1,1,.001,-.014764,-.025572*
20,1,.001,-.014764,-.025572,.014764,-.025572,0.0*
1,1,.001,.014764,-.025572*
20,1,.001,.014764,-.025572,.029528,0.0,0.0*
1,1,.001,.029528,0.0*
1,1,.001,-.012303,-.014763*
20,1,.001,-.012303,-.014763,0.0,.014764,0.0*
1,1,.001,0.0,.014764*
20,1,.001,0.0,.014764,.012304,-.014763,0.0*
1,1,.001,.012304,-.014763*
1,1,.001,.007874,-.004429*
20,1,.001,.007874,-.004429,-.007874,-.004429,0.0*
1,1,.001,-.007874,-.004429*
%
%ADD14MACRO14*%
%AMMACRO11*
1,1,.001,0.0,.062992*
20,1,.001,0.0,.062992,.010938,.062035,0.0*
1,1,.001,.010938,.062035*
20,1,.001,.010938,.062035,.021545,.059193,0.0*
1,1,.001,.021545,.059193*
20,1,.001,.021545,.059193,.031496,.054553,0.0*
1,1,.001,.031496,.054553*
20,1,.001,.031496,.054553,.04049,.048255,0.0*
1,1,.001,.04049,.048255*
20,1,.001,.04049,.048255,.048255,.04049,0.0*
1,1,.001,.048255,.04049*
20,1,.001,.048255,.04049,.054553,.031496,0.0*
1,1,.001,.054553,.031496*
20,1,.001,.054553,.031496,.059193,.021545,0.0*
1,1,.001,.059193,.021545*
20,1,.001,.059193,.021545,.062035,.010938,0.0*
1,1,.001,.062035,.010938*
20,1,.001,.062035,.010938,.062992,0.0,0.0*
1,1,.001,.062992,0.0*
20,1,.001,.062992,0.0,.062035,-.010938,0.0*
1,1,.001,.062035,-.010938*
20,1,.001,.062035,-.010938,.059193,-.021545,0.0*
1,1,.001,.059193,-.021545*
20,1,.001,.059193,-.021545,.054553,-.031496,0.0*
1,1,.001,.054553,-.031496*
20,1,.001,.054553,-.031496,.048255,-.04049,0.0*
1,1,.001,.048255,-.04049*
20,1,.001,.048255,-.04049,.04049,-.048255,0.0*
1,1,.001,.04049,-.048255*
20,1,.001,.04049,-.048255,.031496,-.054553,0.0*
1,1,.001,.031496,-.054553*
20,1,.001,.031496,-.054553,.021545,-.059193,0.0*
1,1,.001,.021545,-.059193*
20,1,.001,.021545,-.059193,.010938,-.062035,0.0*
1,1,.001,.010938,-.062035*
20,1,.001,.010938,-.062035,0.0,-.062992,0.0*
1,1,.001,0.0,-.062992*
20,1,.001,0.0,-.062992,-.010938,-.062035,0.0*
1,1,.001,-.010938,-.062035*
20,1,.001,-.010938,-.062035,-.021545,-.059193,0.0*
1,1,.001,-.021545,-.059193*
20,1,.001,-.021545,-.059193,-.031496,-.054553,0.0*
1,1,.001,-.031496,-.054553*
20,1,.001,-.031496,-.054553,-.04049,-.048255,0.0*
1,1,.001,-.04049,-.048255*
20,1,.001,-.04049,-.048255,-.048255,-.04049,0.0*
1,1,.001,-.048255,-.04049*
20,1,.001,-.048255,-.04049,-.054553,-.031496,0.0*
1,1,.001,-.054553,-.031496*
20,1,.001,-.054553,-.031496,-.059193,-.021545,0.0*
1,1,.001,-.059193,-.021545*
20,1,.001,-.059193,-.021545,-.062035,-.010938,0.0*
1,1,.001,-.062035,-.010938*
20,1,.001,-.062035,-.010938,-.062992,0.0,0.0*
1,1,.001,-.062992,0.0*
20,1,.001,-.062992,0.0,-.062035,.010938,0.0*
1,1,.001,-.062035,.010938*
20,1,.001,-.062035,.010938,-.059193,.021545,0.0*
1,1,.001,-.059193,.021545*
20,1,.001,-.059193,.021545,-.054553,.031496,0.0*
1,1,.001,-.054553,.031496*
20,1,.001,-.054553,.031496,-.048255,.04049,0.0*
1,1,.001,-.048255,.04049*
20,1,.001,-.048255,.04049,-.04049,.048255,0.0*
1,1,.001,-.04049,.048255*
20,1,.001,-.04049,.048255,-.031496,.054553,0.0*
1,1,.001,-.031496,.054553*
20,1,.001,-.031496,.054553,-.021545,.059193,0.0*
1,1,.001,-.021545,.059193*
20,1,.001,-.021545,.059193,-.010938,.062035,0.0*
1,1,.001,-.010938,.062035*
20,1,.001,-.010938,.062035,0.0,.062992,0.0*
1,1,.001,0.0,.062992*
1,1,.001,-.026248,-.031496*
20,1,.001,-.026248,-.031496,-.000001,.031496,0.0*
1,1,.001,-.000001,.031496*
20,1,.001,-.000001,.031496,.026248,-.031496,0.0*
1,1,.001,.026248,-.031496*
1,1,.001,.016797,-.00945*
20,1,.001,.016797,-.00945,-.016799,-.00945,0.0*
1,1,.001,-.016799,-.00945*
%
%ADD11MACRO11*%
%AMMACRO10*
1,1,.001,.006,0.0*
20,1,.001,.006,0.0,.003,.005196,0.0*
1,1,.001,.003,.005196*
20,1,.001,.003,.005196,-.003,.005196,0.0*
1,1,.001,-.003,.005196*
20,1,.001,-.003,.005196,-.006,0.0,0.0*
1,1,.001,-.006,0.0*
20,1,.001,-.006,0.0,-.003,-.005196,0.0*
1,1,.001,-.003,-.005196*
20,1,.001,-.003,-.005196,.003,-.005196,0.0*
1,1,.001,.003,-.005196*
20,1,.001,.003,-.005196,.006,0.0,0.0*
1,1,.001,.006,0.0*
1,1,.001,-.0025,-.003*
20,1,.001,-.0025,-.003,0.0,.003,0.0*
1,1,.001,0.0,.003*
20,1,.001,0.0,.003,.0025,-.003,0.0*
1,1,.001,.0025,-.003*
1,1,.001,.0016,-.0009*
20,1,.001,.0016,-.0009,-.0016,-.0009,0.0*
1,1,.001,-.0016,-.0009*
%
%ADD10MACRO10*%
%AMMACRO12*
1,1,.001,.009,0.0*
20,1,.001,.009,0.0,.0045,.007794,0.0*
1,1,.001,.0045,.007794*
20,1,.001,.0045,.007794,-.0045,.007794,0.0*
1,1,.001,-.0045,.007794*
20,1,.001,-.0045,.007794,-.009,0.0,0.0*
1,1,.001,-.009,0.0*
20,1,.001,-.009,0.0,-.0045,-.007794,0.0*
1,1,.001,-.0045,-.007794*
20,1,.001,-.0045,-.007794,.0045,-.007794,0.0*
1,1,.001,.0045,-.007794*
20,1,.001,.0045,-.007794,.009,0.0,0.0*
1,1,.001,.009,0.0*
1,1,.001,-.00375,-.0045*
20,1,.001,-.00375,-.0045,0.0,.0045,0.0*
1,1,.001,0.0,.0045*
20,1,.001,0.0,.0045,.00375,-.0045,0.0*
1,1,.001,.00375,-.0045*
1,1,.001,.0024,-.00135*
20,1,.001,.0024,-.00135,-.0024,-.00135,0.0*
1,1,.001,-.0024,-.00135*
%
%ADD12MACRO12*%
%ADD18C,.003937*%
%ADD19C,.001*%
G75*
%LPD*%
G75*
G54D10*
X0Y194100D03*
X5400Y137500D03*
X8800Y165900D03*
X3844Y169244D03*
X2600Y200600D03*
X10221Y179100D03*
X10100Y194100D03*
X24600Y140800D03*
X22344Y163044D03*
X22000Y176870D03*
X28842Y81248D03*
X29540Y87363D03*
X29540Y93478D03*
X29541Y99593D03*
X29540Y105708D03*
X29624Y111824D03*
X29540Y117939D03*
X29540Y124054D03*
X29741Y130169D03*
X32377Y133300D03*
X31600Y179200D03*
X32700Y184200D03*
X32900Y208300D03*
X41660Y81248D03*
X40526Y87363D03*
X40526Y99593D03*
X40525Y93547D03*
X40800Y105757D03*
X40729Y111824D03*
X40525Y124054D03*
X41385Y117939D03*
X40800Y130196D03*
X34900Y141200D03*
X34600Y189600D03*
X54505Y90878D03*
X59200Y95500D03*
X53300Y127100D03*
X57155Y145156D03*
X62900Y39500D03*
X64100Y57700D03*
X66200Y96900D03*
X65315Y111289D03*
X62515D03*
X59715D03*
Y137389D03*
X67400Y206400D03*
X66422Y413221D03*
X69085Y86676D03*
X69600Y95100D03*
X73715Y111289D03*
X70915D03*
X68115D03*
X75800Y65900D03*
X80200Y71900D03*
X77000Y68900D03*
X78784Y81773D03*
X78400Y86900D03*
X79315Y111289D03*
X76515D03*
X82746Y136895D03*
X78900Y192500D03*
X90300Y94000D03*
X89200Y127700D03*
X87744Y137744D03*
X90900Y170800D03*
X97700Y17900D03*
X96353Y59147D03*
X96960Y65840D03*
X96566Y72534D03*
X100108Y95532D03*
X100400Y111600D03*
X94174Y110726D03*
X97726Y145902D03*
X100285Y148595D03*
X97274Y157549D03*
X98882Y154546D03*
X99600Y179400D03*
X94874Y183946D03*
X101510Y35321D03*
X108553Y52453D03*
X105404Y109000D03*
X102844Y127700D03*
X107055Y154879D03*
X108400Y178400D03*
X110300Y71040D03*
X112800Y68241D03*
X109583Y95532D03*
X125000Y17700D03*
X120758Y127542D03*
X123317Y147004D03*
X123345Y157547D03*
X127400Y40500D03*
X127044Y35144D03*
X129181Y58781D03*
Y51181D03*
X125600Y65910D03*
X126099Y63117D03*
X128300Y73500D03*
X132619Y132799D03*
X136944Y40656D03*
X138379Y54900D03*
X141295Y73795D03*
X141400Y132500D03*
X136590Y128363D03*
X141400Y143192D03*
X135377Y160184D03*
X144628Y18924D03*
X144400Y39000D03*
X144854Y71040D03*
X146677Y68453D03*
X144555Y82845D03*
X146535Y80865D03*
X148646Y78528D03*
X145952Y89548D03*
Y86748D03*
Y97948D03*
Y100748D03*
X146400Y111800D03*
X146500Y108900D03*
X144900Y130700D03*
X146000Y133600D03*
X145700Y147500D03*
X142600Y161406D03*
X153900Y51100D03*
X153025Y63041D03*
X152508Y77704D03*
X152527Y87308D03*
X151910Y109074D03*
X153000Y143100D03*
X156492Y141772D03*
X152998Y175861D03*
X164797Y7801D03*
X162700Y90600D03*
X164600Y111500D03*
X163800Y124400D03*
X170000Y34300D03*
X170350Y45550D03*
X169478Y60022D03*
X172600Y98600D03*
X168452Y96174D03*
X168500Y131000D03*
X172200Y125900D03*
X170800Y128700D03*
X175200Y44600D03*
X175295Y62548D03*
X175246Y59500D03*
X179400D03*
X176500Y81700D03*
X179379Y104900D03*
X181900Y102600D03*
X182200Y132500D03*
X179600Y125500D03*
X186943Y58271D03*
X184500Y96300D03*
X187250Y116150D03*
X186020Y113591D03*
X185291Y118203D03*
X189316Y130046D03*
X187464Y166933D03*
X187238Y169960D03*
Y172760D03*
X186300Y175900D03*
X195200Y28700D03*
X198700Y32900D03*
X192800Y111291D03*
X194900Y129800D03*
X192963Y132700D03*
X195000Y146500D03*
X197911Y164600D03*
X193099Y164326D03*
X191335Y167217D03*
X205100Y37400D03*
X206742Y58320D03*
X206045Y65406D03*
X204400Y74284D03*
Y125200D03*
X205200Y159900D03*
X215394Y38152D03*
X214468Y61882D03*
X212700Y78800D03*
X213100Y95600D03*
X209426Y131574D03*
X214616Y145700D03*
X213900Y197700D03*
X212300Y209600D03*
X218393Y58202D03*
X219800Y86663D03*
X223200Y143100D03*
X218400Y157800D03*
X229955Y41822D03*
X224128Y43559D03*
X226900Y101700D03*
X228262Y115349D03*
X226400Y117649D03*
X228800Y153000D03*
X236700Y11700D03*
X239012Y38152D03*
X232300Y72200D03*
X236248Y92149D03*
X233671Y88376D03*
X235484Y107183D03*
X235813Y112539D03*
X232333Y124433D03*
X236300Y117900D03*
X240400Y55800D03*
X248100Y110239D03*
X256200Y6900D03*
X249910Y38152D03*
X255094Y57977D03*
X255427Y75146D03*
X250666Y92569D03*
X249165Y98509D03*
X255427Y123100D03*
X251200Y118700D03*
X261317Y38152D03*
X262767Y44257D03*
X263404Y59241D03*
X259720Y58143D03*
X259220Y75656D03*
X262885Y75999D03*
X259911Y100553D03*
X264500Y144700D03*
X272058Y66767D03*
X272100Y126100D03*
X280500Y12000D03*
X277203Y61182D03*
X277544Y76242D03*
X277016Y83398D03*
X278986Y98627D03*
X277900Y126000D03*
X278100Y147900D03*
X282103Y49715D03*
X285818Y57859D03*
X289360Y68712D03*
X288896Y76242D03*
X288532Y83614D03*
X284500Y95600D03*
X285700Y192000D03*
X290844Y46186D03*
X297440Y61182D03*
X297224Y74686D03*
X297538Y67934D03*
X297215Y81438D03*
X299500Y10800D03*
X302210Y39190D03*
X301654Y50088D03*
X305517Y57759D03*
X303700Y85800D03*
X301400Y104741D03*
X298200Y145000D03*
X298800Y149400D03*
X314065Y45835D03*
X308465Y67934D03*
X310297Y143900D03*
X312400Y156300D03*
X319500Y9700D03*
X317481Y50764D03*
X316518Y60946D03*
X316413Y82104D03*
X316404Y104741D03*
X316700Y218500D03*
X326400Y38100D03*
X329337Y50200D03*
X323030Y50100D03*
X327879Y61182D03*
X325029Y86338D03*
X322922Y143900D03*
X334768Y51087D03*
X338786Y66983D03*
X339060Y60172D03*
X338678Y74265D03*
X334700Y75400D03*
X336728Y101989D03*
X346900Y37900D03*
X341863Y83378D03*
X346884Y94491D03*
X340971Y112896D03*
X350400Y37500D03*
X352974Y49726D03*
X348800Y49500D03*
X350418Y67218D03*
X351340Y60172D03*
X350958Y74265D03*
X350722Y83957D03*
Y92306D03*
X354300Y111600D03*
X358415Y50362D03*
X361373Y61473D03*
X358484Y79752D03*
X360500Y111400D03*
X355800Y124900D03*
X359850Y125050D03*
X361100Y131700D03*
X363747Y133747D03*
X364813Y50213D03*
X371238Y65562D03*
X366885Y69615D03*
X367660Y89491D03*
X367940Y94491D03*
X367989Y99491D03*
X368130Y104491D03*
X364747Y124800D03*
X367700Y138400D03*
X365500Y136100D03*
X370900Y142700D03*
X373694Y46442D03*
X372700Y113126D03*
X376028Y118272D03*
X380000Y127000D03*
X372900Y127100D03*
X382900Y9100D03*
X382124Y42276D03*
X385700Y60300D03*
X400900Y64800D03*
X408263Y100112D03*
X409917Y106917D03*
X419014Y49975D03*
X418670Y61225D03*
X419234Y98078D03*
X418999Y94227D03*
X428405Y30295D03*
X429740Y67032D03*
X434407Y66858D03*
X432817Y94187D03*
X433154Y99121D03*
X433514Y119315D03*
X435600Y193700D03*
X443356Y108344D03*
X453907Y108293D03*
X453000Y135600D03*
X459000Y166100D03*
X463913Y76587D03*
Y88587D03*
X465078Y103379D03*
X466400Y213200D03*
X473064Y60634D03*
X472200Y71300D03*
X475700Y136700D03*
X477300Y218100D03*
X479700Y175000D03*
X490000Y53900D03*
X493800Y169300D03*
X504400Y27400D03*
G54D11*
X17087Y11811D03*
Y208661D03*
X66422Y263221D03*
X489528Y11811D03*
Y208661D03*
G54D12*
X7600Y24800D03*
X52100Y169700D03*
X66422Y388221D03*
X189800Y100600D03*
X238200Y207000D03*
X325000Y149200D03*
X407900Y82600D03*
X416556Y74400D03*
X424778Y66178D03*
X429300Y83900D03*
X441574Y64326D03*
X465600Y118500D03*
X467900Y185400D03*
X489528Y11811D03*
X501200Y4700D03*
X502500Y212800D03*
G54D13*
X5191Y79163D03*
Y87037D03*
Y94911D03*
Y112063D03*
Y119937D03*
Y127811D03*
Y144963D03*
Y152837D03*
Y160711D03*
X66422Y363221D03*
X162758Y154202D03*
X172758D03*
X182758D03*
X192758D03*
X202758D03*
X212758D03*
X335980Y146941D03*
Y156941D03*
X345980Y146941D03*
Y156941D03*
X355980Y146941D03*
Y156941D03*
X365980Y146941D03*
Y156941D03*
X375980Y146941D03*
Y156941D03*
X385980Y146941D03*
Y156941D03*
X391430Y37218D03*
Y47218D03*
X395980Y146941D03*
Y156941D03*
X401430Y37218D03*
Y47218D03*
X405980Y146941D03*
Y156941D03*
X415980Y146941D03*
Y156941D03*
X425980Y146941D03*
Y156941D03*
X435980Y146941D03*
Y156941D03*
X445980Y146941D03*
Y156941D03*
X455980Y146941D03*
Y156941D03*
X465980Y146941D03*
Y156941D03*
X475980Y146941D03*
Y156941D03*
G54D14*
X14878Y39131D03*
Y59131D03*
X49124Y8640D03*
X69124D03*
X66422Y288221D03*
X93061Y8640D03*
X113061D03*
X136999D03*
X156999D03*
X180935D03*
X200935D03*
X225659D03*
X245659D03*
X265659D03*
X289597D03*
X309596D03*
X329596D03*
X353534D03*
X373534D03*
X393534D03*
X417471D03*
X437470D03*
X457470D03*
G54D15*
X39358Y38150D03*
Y68150D03*
X49358Y38150D03*
Y68150D03*
X66422Y338221D03*
X89358Y38150D03*
Y68150D03*
G54D16*
X51299Y191127D03*
X66422Y238221D03*
X236496Y191127D03*
X270098Y191166D03*
X455295D03*
G54D17*
X66422Y313221D03*
X78465Y186127D03*
X83917Y196127D03*
X89370Y186127D03*
X100276D03*
X94823Y196127D03*
X111181Y186127D03*
X105728Y196127D03*
X116634D03*
X122087Y186127D03*
X127539Y196127D03*
X132992Y186127D03*
X143898D03*
X138445Y196127D03*
X149350D03*
X154803Y186127D03*
X160256Y196127D03*
X165709Y186127D03*
X176614D03*
X171161Y196127D03*
X182067D03*
X187520Y186127D03*
X192972Y196127D03*
X198425Y186127D03*
X209331D03*
X203878Y196127D03*
X297264Y186166D03*
X308169D03*
X302716Y196166D03*
X313622D03*
X319075Y186166D03*
X324528Y196166D03*
X329980Y186166D03*
X340886D03*
X335433Y196166D03*
X346339D03*
X351791Y186166D03*
X357244Y196166D03*
X362697Y186166D03*
X373602D03*
X368150Y196166D03*
X379055D03*
X384508Y186166D03*
X389961Y196166D03*
X395413Y186166D03*
X406319D03*
X400866Y196166D03*
X411772D03*
X417224Y186166D03*
X422677Y196166D03*
X428130Y186166D03*
G54D18*
G01X17087Y-7874D02*
X489528D01*
G03X509213Y11811I0J19685D01*
G01Y208661D01*
G03X489528Y228346I-19685J0D01*
G01X17087D01*
G03X-2598Y208661I0J-19685D01*
G01Y11811D01*
G03X17087Y-7874I19685J0D01*
G54D19*
G01X21472Y225721D02*
Y500721D01*
X505072D01*
Y225721D01*
X21472D01*
G01Y250721D02*
X505072D01*
G01X21472Y275721D02*
X505072D01*
G01X21472Y300721D02*
X505072D01*
G01X21472Y325721D02*
X505072D01*
G01X21472Y350721D02*
X505072D01*
G01X21472Y375721D02*
X505072D01*
G01X21472Y400721D02*
X505072D01*
G01X21472Y425721D02*
X505072D01*
G01X21472Y450721D02*
X505072D01*
G01X21472Y475721D02*
X505072D01*
G01X32477Y431971D02*
Y444471D01*
X38367D01*
G01X36197Y438430D02*
X32477D01*
G01X45962Y444471D02*
X49681D01*
G01X47822D02*
Y431971D01*
G01X45962D02*
X49681D01*
G01X61152Y438221D02*
X64252D01*
Y434471D01*
X63322Y433221D01*
X62237Y432388D01*
X60687Y431971D01*
X59137Y432388D01*
X58052Y433221D01*
X57122Y434471D01*
X56502Y435930D01*
X56192Y437596D01*
Y439055D01*
X56502Y440304D01*
X57122Y441763D01*
X58052Y443013D01*
X58982Y443846D01*
X60222Y444471D01*
X61307D01*
X62547Y444055D01*
X63477Y443221D01*
G01X69212Y444471D02*
Y435513D01*
X69832Y433638D01*
X71072Y432388D01*
X72622Y431971D01*
X74172Y432388D01*
X75412Y433638D01*
X76032Y435513D01*
Y444471D01*
G01X81922Y431971D02*
Y444471D01*
X85797D01*
X87037Y443846D01*
X87812Y443013D01*
X88122Y441346D01*
X87812Y439680D01*
X86882Y438638D01*
X85797Y438013D01*
X81922D01*
G01X85797D02*
X88122Y431971D01*
G01X100522D02*
X94322D01*
Y444471D01*
X100522D01*
G01X98042Y438430D02*
X94322D01*
G01X104862Y481971D02*
Y494471D01*
X107962D01*
X109202Y493846D01*
X110132Y493013D01*
X110907Y491763D01*
X111527Y490304D01*
X111682Y488221D01*
X111527Y486138D01*
X110907Y484679D01*
X110132Y483429D01*
X109202Y482596D01*
X107962Y481971D01*
X104862D01*
G01X117572D02*
Y494471D01*
X121447D01*
X122687Y493846D01*
X123462Y493013D01*
X123772Y491346D01*
X123462Y489680D01*
X122532Y488638D01*
X121447Y488013D01*
X117572D01*
G01X121447D02*
X123772Y481971D01*
G01X131212Y494471D02*
X134931D01*
G01X133072D02*
Y481971D01*
G01X131212D02*
X134931D01*
G01X142372Y494471D02*
Y481971D01*
X148572D01*
G01X154772Y494471D02*
Y481971D01*
X160972D01*
G01X186082Y493430D02*
X185152Y494055D01*
X184067Y494471D01*
X182827D01*
X181432Y493846D01*
X180347Y492805D01*
X179572Y491554D01*
X178952Y489471D01*
X178796Y487596D01*
X179107Y485721D01*
X179572Y484471D01*
X180502Y483221D01*
X181587Y482388D01*
X182672Y481971D01*
X183757D01*
X184842Y482388D01*
X185772Y483013D01*
X186547Y483846D01*
G01X191817Y481971D02*
Y494471D01*
G01X198327D02*
Y481971D01*
G01Y488221D02*
X191817D01*
G01X203596Y481971D02*
X207472Y494471D01*
X211347Y481971D01*
G01X209952Y486346D02*
X204992D01*
G01X216772Y481971D02*
Y494471D01*
X220647D01*
X221887Y493846D01*
X222662Y493013D01*
X222972Y491346D01*
X222662Y489680D01*
X221732Y488638D01*
X220647Y488013D01*
X216772D01*
G01X220647D02*
X222972Y481971D01*
G01X232272Y494471D02*
Y481971D01*
G01X228707Y494471D02*
X235837D01*
G01X244672Y481555D02*
X244362Y481763D01*
Y482180D01*
X244672Y482388D01*
X244982Y482180D01*
Y481763D01*
X244672Y481555D01*
G01Y487179D02*
X244362Y487388D01*
Y487804D01*
X244672Y488013D01*
X244982Y487804D01*
Y487388D01*
X244672Y487179D01*
G01X269472Y494471D02*
Y481971D01*
G01X265907Y494471D02*
X273037D01*
G01X281872Y481971D02*
X280632Y482180D01*
X279547Y483013D01*
X278617Y484263D01*
X277996Y485721D01*
X277687Y487388D01*
Y489055D01*
X277996Y490721D01*
X278617Y492180D01*
X279547Y493430D01*
X280632Y494263D01*
X281872Y494471D01*
X283112Y494263D01*
X284197Y493430D01*
X285127Y492180D01*
X285747Y490721D01*
X286057Y489055D01*
Y487388D01*
X285747Y485721D01*
X285127Y484263D01*
X284197Y483013D01*
X283112Y482180D01*
X281872Y481971D01*
G01X291172D02*
Y494471D01*
X294892D01*
X296132Y493846D01*
X297062Y492388D01*
X297372Y490721D01*
X297062Y489055D01*
X296287Y487804D01*
X294892Y487179D01*
X291172D01*
G01X319072Y494471D02*
Y481971D01*
G01X316902Y490304D02*
X321242D01*
G01X331472Y481971D02*
X330542Y482180D01*
X329612Y483013D01*
X328992Y484471D01*
X328682Y486138D01*
X328992Y487804D01*
X329612Y489263D01*
X330542Y490096D01*
X331472Y490304D01*
X332402Y490096D01*
X333332Y489263D01*
X333952Y487804D01*
X334107Y486138D01*
X333952Y484471D01*
X333332Y483013D01*
X332402Y482180D01*
X331472Y481971D01*
G01X357512Y488638D02*
X358132Y489263D01*
X358597Y490304D01*
X358907Y491763D01*
X358597Y493013D01*
X357977Y493846D01*
X356892Y494471D01*
X352707D01*
Y481971D01*
X357822D01*
X358907Y482805D01*
X359527Y484055D01*
X359837Y485513D01*
X359527Y486971D01*
X358597Y488221D01*
X357512Y488638D01*
X352707D01*
G01X368672Y481971D02*
X367432Y482180D01*
X366347Y483013D01*
X365417Y484263D01*
X364796Y485721D01*
X364487Y487388D01*
Y489055D01*
X364796Y490721D01*
X365417Y492180D01*
X366347Y493430D01*
X367432Y494263D01*
X368672Y494471D01*
X369912Y494263D01*
X370997Y493430D01*
X371927Y492180D01*
X372547Y490721D01*
X372857Y489055D01*
Y487388D01*
X372547Y485721D01*
X371927Y484263D01*
X370997Y483013D01*
X369912Y482180D01*
X368672Y481971D01*
G01X381072Y494471D02*
Y481971D01*
G01X377507Y494471D02*
X384637D01*
G01X393472D02*
Y481971D01*
G01X389907Y494471D02*
X397037D01*
G01X405872Y481971D02*
X404632Y482180D01*
X403547Y483013D01*
X402617Y484263D01*
X401996Y485721D01*
X401687Y487388D01*
Y489055D01*
X401996Y490721D01*
X402617Y492180D01*
X403547Y493430D01*
X404632Y494263D01*
X405872Y494471D01*
X407112Y494263D01*
X408197Y493430D01*
X409127Y492180D01*
X409747Y490721D01*
X410057Y489055D01*
Y487388D01*
X409747Y485721D01*
X409127Y484263D01*
X408197Y483013D01*
X407112Y482180D01*
X405872Y481971D01*
G01X414242D02*
Y494471D01*
X418272Y484055D01*
X422302Y494471D01*
Y481971D01*
G01X111372Y450721D02*
Y225721D01*
G01X135396Y456971D02*
X139272Y469471D01*
X143147Y456971D01*
G01X141752Y461346D02*
X136792D01*
G01X148572Y469471D02*
Y456971D01*
X154772D01*
G01X160972Y469471D02*
Y456971D01*
X167172D01*
G01X185462Y469471D02*
Y460513D01*
X186082Y458638D01*
X187322Y457388D01*
X188872Y456971D01*
X190422Y457388D01*
X191662Y458638D01*
X192282Y460513D01*
Y469471D01*
G01X197707Y456971D02*
Y469471D01*
X204837Y456971D01*
Y469471D01*
G01X211812D02*
X215531D01*
G01X213672D02*
Y456971D01*
G01X211812D02*
X215531D01*
G01X226072Y469471D02*
Y456971D01*
G01X222507Y469471D02*
X229637D01*
G01X235217Y458638D02*
X236457Y457596D01*
X237852Y456971D01*
X239092D01*
X240332Y457596D01*
X241262Y458638D01*
X241727Y460096D01*
X241417Y461554D01*
X240642Y462804D01*
X239247Y463638D01*
X237387Y464055D01*
X236302Y464888D01*
X235837Y466346D01*
X236147Y467805D01*
X236922Y468846D01*
X238007Y469471D01*
X239092D01*
X240177Y469055D01*
X241107Y468013D01*
G01X259397Y456971D02*
X263272Y469471D01*
X267147Y456971D01*
G01X265752Y461346D02*
X260792D01*
G01X272572Y456971D02*
Y469471D01*
X276447D01*
X277687Y468846D01*
X278462Y468013D01*
X278772Y466346D01*
X278462Y464680D01*
X277532Y463638D01*
X276447Y463013D01*
X272572D01*
G01X276447D02*
X278772Y456971D01*
G01X291172D02*
X284972D01*
Y469471D01*
X291172D01*
G01X288692Y463430D02*
X284972D01*
G01X311012Y469471D02*
X314731D01*
G01X312872D02*
Y456971D01*
G01X311012D02*
X314731D01*
G01X321707D02*
Y469471D01*
X328837Y456971D01*
Y469471D01*
G01X346042Y456971D02*
Y469471D01*
X350072Y459055D01*
X354102Y469471D01*
Y456971D01*
G01X360612Y469471D02*
X364331D01*
G01X362472D02*
Y456971D01*
G01X360612D02*
X364331D01*
G01X371772Y469471D02*
Y456971D01*
X377972D01*
G01X384017Y458638D02*
X385257Y457596D01*
X386652Y456971D01*
X387892D01*
X389132Y457596D01*
X390062Y458638D01*
X390527Y460096D01*
X390217Y461554D01*
X389442Y462804D01*
X388047Y463638D01*
X386187Y464055D01*
X385102Y464888D01*
X384637Y466346D01*
X384947Y467805D01*
X385722Y468846D01*
X386807Y469471D01*
X387892D01*
X388977Y469055D01*
X389907Y468013D01*
G01X168722Y256971D02*
Y269471D01*
X166862Y266972D01*
G01Y256971D02*
X170581D01*
G01X178177Y267388D02*
X179107Y268638D01*
X180192Y269263D01*
X181432Y269471D01*
X182982Y269055D01*
X184067Y268013D01*
X184377Y266763D01*
X184222Y265513D01*
X183602Y264471D01*
X180502Y262388D01*
X179107Y260930D01*
X178177Y258846D01*
X177867Y256971D01*
X184377D01*
G01X190112Y258846D02*
X191042Y257804D01*
X192127Y257180D01*
X193522Y256971D01*
X194917Y257388D01*
X196002Y258221D01*
X196777Y259679D01*
X196932Y261346D01*
X196622Y263013D01*
X195847Y264055D01*
X194762Y264888D01*
X193677Y265096D01*
X192592Y264888D01*
X191197Y264055D01*
X191662Y269471D01*
X195847D01*
G01X205922Y256555D02*
X205612Y256763D01*
Y257180D01*
X205922Y257388D01*
X206232Y257180D01*
Y256763D01*
X205922Y256555D01*
G01X215687Y258429D02*
X216772Y257388D01*
X218012Y256971D01*
X219252Y257388D01*
X220337Y258638D01*
X221112Y260513D01*
X221422Y262388D01*
Y264680D01*
X221112Y266554D01*
X220337Y268221D01*
X219407Y269055D01*
X218322Y269471D01*
X217082Y269055D01*
X216152Y268221D01*
X215532Y266972D01*
X215222Y265304D01*
X215532Y263846D01*
X216307Y262388D01*
X217237Y261554D01*
X218322Y261346D01*
X219562Y261763D01*
X220492Y262804D01*
X221422Y264680D01*
G01X230722Y256971D02*
X231807Y257180D01*
X233047Y257804D01*
X233822Y258846D01*
X234132Y260305D01*
X233822Y261763D01*
X232892Y263013D01*
X231497Y263638D01*
X229947D01*
X229017Y264055D01*
X228242Y265096D01*
X227932Y266554D01*
X228397Y268013D01*
X229482Y269055D01*
X230722Y269471D01*
X231962Y269055D01*
X233047Y268013D01*
X233512Y266554D01*
X233202Y265096D01*
X232427Y264055D01*
X231497Y263638D01*
X229947D01*
X228552Y263013D01*
X227622Y261763D01*
X227312Y260305D01*
X227622Y258846D01*
X228397Y257804D01*
X229637Y257180D01*
X230722Y256971D01*
G01X244982D02*
Y269471D01*
X239246Y260513D01*
X246997D01*
G01X174922Y231971D02*
Y244471D01*
X173062Y241972D01*
G01Y231971D02*
X176781D01*
G01X183912Y233846D02*
X184842Y232804D01*
X185927Y232180D01*
X187322Y231971D01*
X188717Y232388D01*
X189802Y233221D01*
X190577Y234679D01*
X190732Y236346D01*
X190422Y238013D01*
X189647Y239055D01*
X188562Y239888D01*
X187477Y240096D01*
X186392Y239888D01*
X184997Y239055D01*
X185462Y244471D01*
X189647D01*
G01X199412Y231971D02*
X199722Y234679D01*
X200187Y236971D01*
X200807Y239055D01*
X201582Y241346D01*
X202822Y244471D01*
X196622D01*
G01X212122Y231555D02*
X211812Y231763D01*
Y232180D01*
X212122Y232388D01*
X212432Y232180D01*
Y231763D01*
X212122Y231555D01*
G01X226382Y231971D02*
Y244471D01*
X220646Y235513D01*
X228397D01*
G01X236922Y231971D02*
X238007Y232180D01*
X239247Y232804D01*
X240022Y233846D01*
X240332Y235305D01*
X240022Y236763D01*
X239092Y238013D01*
X237697Y238638D01*
X236147D01*
X235217Y239055D01*
X234442Y240096D01*
X234132Y241555D01*
X234597Y243013D01*
X235682Y244055D01*
X236922Y244471D01*
X238162Y244055D01*
X239247Y243013D01*
X239712Y241555D01*
X239402Y240096D01*
X238627Y239055D01*
X237697Y238638D01*
X236147D01*
X234752Y238013D01*
X233822Y236763D01*
X233512Y235305D01*
X233822Y233846D01*
X234597Y232804D01*
X235837Y232180D01*
X236922Y231971D01*
G01X171512Y283846D02*
X172442Y282804D01*
X173527Y282180D01*
X174922Y281971D01*
X176317Y282388D01*
X177402Y283221D01*
X178177Y284679D01*
X178332Y286346D01*
X178022Y288013D01*
X177247Y289055D01*
X176162Y289888D01*
X175077Y290096D01*
X173992Y289888D01*
X172597Y289055D01*
X173062Y294471D01*
X177247D01*
G01X184687Y283429D02*
X185772Y282388D01*
X187012Y281971D01*
X188252Y282388D01*
X189337Y283638D01*
X190112Y285513D01*
X190422Y287388D01*
Y289680D01*
X190112Y291554D01*
X189337Y293221D01*
X188407Y294055D01*
X187322Y294471D01*
X186082Y294055D01*
X185152Y293221D01*
X184532Y291972D01*
X184222Y290304D01*
X184532Y288846D01*
X185307Y287388D01*
X186237Y286554D01*
X187322Y286346D01*
X188562Y286763D01*
X189492Y287804D01*
X190422Y289680D01*
G01X199722Y281555D02*
X199412Y281763D01*
Y282180D01*
X199722Y282388D01*
X200032Y282180D01*
Y281763D01*
X199722Y281555D01*
G01X212122Y294471D02*
X210882Y294055D01*
X209952Y293013D01*
X209332Y291763D01*
X208867Y290096D01*
X208712Y288221D01*
X208867Y286346D01*
X209332Y284679D01*
X209952Y283429D01*
X210882Y282388D01*
X212122Y281971D01*
X213362Y282388D01*
X214292Y283429D01*
X214912Y284679D01*
X215377Y286346D01*
X215532Y288221D01*
X215377Y290096D01*
X214912Y291763D01*
X214292Y293013D01*
X213362Y294055D01*
X212122Y294471D01*
G01X221112Y283846D02*
X222042Y282804D01*
X223127Y282180D01*
X224522Y281971D01*
X225917Y282388D01*
X227002Y283221D01*
X227777Y284679D01*
X227932Y286346D01*
X227622Y288013D01*
X226847Y289055D01*
X225762Y289888D01*
X224677Y290096D01*
X223592Y289888D01*
X222197Y289055D01*
X222662Y294471D01*
X226847D01*
G01X233512Y283846D02*
X234442Y282804D01*
X235527Y282180D01*
X236922Y281971D01*
X238317Y282388D01*
X239402Y283221D01*
X240177Y284679D01*
X240332Y286346D01*
X240022Y288013D01*
X239247Y289055D01*
X238162Y289888D01*
X237077Y290096D01*
X235992Y289888D01*
X234597Y289055D01*
X235062Y294471D01*
X239247D01*
G01X176782Y306971D02*
Y319471D01*
X171046Y310513D01*
X178797D01*
G01X187012Y306971D02*
X187322Y309679D01*
X187787Y311971D01*
X188407Y314055D01*
X189182Y316346D01*
X190422Y319471D01*
X184222D01*
G01X199722Y306555D02*
X199412Y306763D01*
Y307180D01*
X199722Y307388D01*
X200032Y307180D01*
Y306763D01*
X199722Y306555D01*
G01X209177Y317388D02*
X210107Y318638D01*
X211192Y319263D01*
X212432Y319471D01*
X213982Y319055D01*
X215067Y318013D01*
X215377Y316763D01*
X215222Y315513D01*
X214602Y314471D01*
X211502Y312388D01*
X210107Y310930D01*
X209177Y308846D01*
X208867Y306971D01*
X215377D01*
G01X226382D02*
Y319471D01*
X220646Y310513D01*
X228397D01*
G01X238782Y306971D02*
Y319471D01*
X233047Y310513D01*
X240797D01*
G01X171512Y359471D02*
X172442Y358013D01*
X173682Y357180D01*
X175077Y356971D01*
X176317Y357180D01*
X177557Y358221D01*
X178332Y359471D01*
X178487Y360721D01*
X178177Y362179D01*
X177092Y363221D01*
X176007Y363638D01*
X174612D01*
G01X176007D02*
X176937Y364263D01*
X177712Y365304D01*
X178022Y366554D01*
X177712Y367805D01*
X176937Y368846D01*
X175542Y369471D01*
X174147Y369263D01*
X172752Y368430D01*
G01X183912Y358846D02*
X184842Y357805D01*
X185927Y357180D01*
X187322Y356971D01*
X188717Y357388D01*
X189802Y358221D01*
X190577Y359679D01*
X190732Y361346D01*
X190422Y363013D01*
X189647Y364055D01*
X188562Y364888D01*
X187477Y365096D01*
X186392Y364888D01*
X184997Y364055D01*
X185462Y369471D01*
X189647D01*
G01X199722Y356555D02*
X199412Y356763D01*
Y357180D01*
X199722Y357388D01*
X200032Y357180D01*
Y356763D01*
X199722Y356555D01*
G01X213982Y356971D02*
Y369471D01*
X208246Y360513D01*
X215997D01*
G01X221112Y359471D02*
X222042Y358013D01*
X223282Y357180D01*
X224677Y356971D01*
X225917Y357180D01*
X227157Y358221D01*
X227932Y359471D01*
X228087Y360721D01*
X227777Y362179D01*
X226692Y363221D01*
X225607Y363638D01*
X224212D01*
G01X225607D02*
X226537Y364263D01*
X227312Y365304D01*
X227622Y366554D01*
X227312Y367805D01*
X226537Y368846D01*
X225142Y369471D01*
X223747Y369263D01*
X222352Y368430D01*
G01X233512Y359471D02*
X234442Y358013D01*
X235682Y357180D01*
X237077Y356971D01*
X238317Y357180D01*
X239557Y358221D01*
X240332Y359471D01*
X240487Y360721D01*
X240177Y362179D01*
X239092Y363221D01*
X238007Y363638D01*
X236612D01*
G01X238007D02*
X238937Y364263D01*
X239712Y365304D01*
X240022Y366554D01*
X239712Y367805D01*
X238937Y368846D01*
X237542Y369471D01*
X236147Y369263D01*
X234752Y368430D01*
G01X177712Y334471D02*
X178642Y333013D01*
X179882Y332180D01*
X181277Y331971D01*
X182517Y332180D01*
X183757Y333221D01*
X184532Y334471D01*
X184687Y335721D01*
X184377Y337179D01*
X183292Y338221D01*
X182207Y338638D01*
X180812D01*
G01X182207D02*
X183137Y339263D01*
X183912Y340304D01*
X184222Y341554D01*
X183912Y342805D01*
X183137Y343846D01*
X181742Y344471D01*
X180347Y344263D01*
X178952Y343430D01*
G01X190887Y333429D02*
X191972Y332388D01*
X193212Y331971D01*
X194452Y332388D01*
X195537Y333638D01*
X196312Y335513D01*
X196622Y337388D01*
Y339680D01*
X196312Y341554D01*
X195537Y343221D01*
X194607Y344055D01*
X193522Y344471D01*
X192282Y344055D01*
X191352Y343221D01*
X190732Y341972D01*
X190422Y340304D01*
X190732Y338846D01*
X191507Y337388D01*
X192437Y336554D01*
X193522Y336346D01*
X194762Y336763D01*
X195692Y337804D01*
X196622Y339680D01*
G01X205922Y331555D02*
X205612Y331763D01*
Y332180D01*
X205922Y332388D01*
X206232Y332180D01*
Y331763D01*
X205922Y331555D01*
G01X214912Y334471D02*
X215842Y333013D01*
X217082Y332180D01*
X218477Y331971D01*
X219717Y332180D01*
X220957Y333221D01*
X221732Y334471D01*
X221887Y335721D01*
X221577Y337179D01*
X220492Y338221D01*
X219407Y338638D01*
X218012D01*
G01X219407D02*
X220337Y339263D01*
X221112Y340304D01*
X221422Y341554D01*
X221112Y342805D01*
X220337Y343846D01*
X218942Y344471D01*
X217547Y344263D01*
X216152Y343430D01*
G01X230412Y331971D02*
X230722Y334679D01*
X231187Y336971D01*
X231807Y339055D01*
X232582Y341346D01*
X233822Y344471D01*
X227622D01*
G01X187322Y381971D02*
Y394471D01*
X185462Y391972D01*
G01Y381971D02*
X189181D01*
G01X199722D02*
X200807Y382180D01*
X202047Y382805D01*
X202822Y383846D01*
X203132Y385305D01*
X202822Y386763D01*
X201892Y388013D01*
X200497Y388638D01*
X198947D01*
X198017Y389055D01*
X197242Y390096D01*
X196932Y391554D01*
X197397Y393013D01*
X198482Y394055D01*
X199722Y394471D01*
X200962Y394055D01*
X202047Y393013D01*
X202512Y391554D01*
X202202Y390096D01*
X201427Y389055D01*
X200497Y388638D01*
X198947D01*
X197552Y388013D01*
X196622Y386763D01*
X196312Y385305D01*
X196622Y383846D01*
X197397Y382805D01*
X198637Y382180D01*
X199722Y381971D01*
G01X212122Y381555D02*
X211812Y381763D01*
Y382180D01*
X212122Y382388D01*
X212432Y382180D01*
Y381763D01*
X212122Y381555D01*
G01X224522Y394471D02*
X223282Y394055D01*
X222352Y393013D01*
X221732Y391763D01*
X221267Y390096D01*
X221112Y388221D01*
X221267Y386346D01*
X221732Y384679D01*
X222352Y383429D01*
X223282Y382388D01*
X224522Y381971D01*
X225762Y382388D01*
X226692Y383429D01*
X227312Y384679D01*
X227777Y386346D01*
X227932Y388221D01*
X227777Y390096D01*
X227312Y391763D01*
X226692Y393013D01*
X225762Y394055D01*
X224522Y394471D01*
G01X187322Y406971D02*
Y419471D01*
X185462Y416972D01*
G01Y406971D02*
X189181D01*
G01X196777Y417388D02*
X197707Y418638D01*
X198792Y419263D01*
X200032Y419471D01*
X201582Y419055D01*
X202667Y418013D01*
X202977Y416763D01*
X202822Y415513D01*
X202202Y414471D01*
X199102Y412388D01*
X197707Y410930D01*
X196777Y408846D01*
X196467Y406971D01*
X202977D01*
G01X212122Y406555D02*
X211812Y406763D01*
Y407180D01*
X212122Y407388D01*
X212432Y407180D01*
Y406763D01*
X212122Y406555D01*
G01X224522Y419471D02*
X223282Y419055D01*
X222352Y418013D01*
X221732Y416763D01*
X221267Y415096D01*
X221112Y413221D01*
X221267Y411346D01*
X221732Y409679D01*
X222352Y408429D01*
X223282Y407388D01*
X224522Y406971D01*
X225762Y407388D01*
X226692Y408429D01*
X227312Y409679D01*
X227777Y411346D01*
X227932Y413221D01*
X227777Y415096D01*
X227312Y416763D01*
X226692Y418013D01*
X225762Y419055D01*
X224522Y419471D01*
G01X184067Y433638D02*
X185307Y432596D01*
X186702Y431971D01*
X187942D01*
X189182Y432596D01*
X190112Y433638D01*
X190577Y435096D01*
X190267Y436554D01*
X189492Y437804D01*
X188097Y438638D01*
X186237Y439055D01*
X185152Y439888D01*
X184687Y441346D01*
X184997Y442805D01*
X185772Y443846D01*
X186857Y444471D01*
X187942D01*
X189027Y444055D01*
X189957Y443013D01*
G01X197862Y444471D02*
X201581D01*
G01X199722D02*
Y431971D01*
G01X197862D02*
X201581D01*
G01X209177Y444471D02*
X215067D01*
X209177Y431971D01*
X215067D01*
G01X227622D02*
X221422D01*
Y444471D01*
X227622D01*
G01X225142Y438430D02*
X221422D01*
G01X300472Y450721D02*
Y225721D01*
G01X329922Y231971D02*
Y244471D01*
X333642D01*
X334882Y243846D01*
X335812Y242388D01*
X336122Y240721D01*
X335812Y239055D01*
X335037Y237805D01*
X333642Y237179D01*
X329922D01*
G01X342322Y244471D02*
Y231971D01*
X348522D01*
G01X353947D02*
X357822Y244471D01*
X361697Y231971D01*
G01X360302Y236346D02*
X355342D01*
G01X370222Y244471D02*
Y231971D01*
G01X366657Y244471D02*
X373787D01*
G01X385722Y231971D02*
X379522D01*
Y244471D01*
X385722D01*
G01X383242Y238430D02*
X379522D01*
G01X391612Y231971D02*
Y244471D01*
X394712D01*
X395952Y243846D01*
X396882Y243013D01*
X397657Y241763D01*
X398277Y240304D01*
X398432Y238221D01*
X398277Y236138D01*
X397657Y234679D01*
X396882Y233429D01*
X395952Y232596D01*
X394712Y231971D01*
X391612D01*
G01X329922Y256971D02*
Y269471D01*
X333642D01*
X334882Y268846D01*
X335812Y267388D01*
X336122Y265721D01*
X335812Y264055D01*
X335037Y262804D01*
X333642Y262179D01*
X329922D01*
G01X342322Y269471D02*
Y256971D01*
X348522D01*
G01X353947D02*
X357822Y269471D01*
X361697Y256971D01*
G01X360302Y261346D02*
X355342D01*
G01X370222Y269471D02*
Y256971D01*
G01X366657Y269471D02*
X373787D01*
G01X385722Y256971D02*
X379522D01*
Y269471D01*
X385722D01*
G01X383242Y263430D02*
X379522D01*
G01X391612Y256971D02*
Y269471D01*
X394712D01*
X395952Y268846D01*
X396882Y268013D01*
X397657Y266763D01*
X398277Y265304D01*
X398432Y263221D01*
X398277Y261138D01*
X397657Y259679D01*
X396882Y258429D01*
X395952Y257596D01*
X394712Y256971D01*
X391612D01*
G01X329922Y281971D02*
Y294471D01*
X333642D01*
X334882Y293846D01*
X335812Y292388D01*
X336122Y290721D01*
X335812Y289055D01*
X335037Y287804D01*
X333642Y287179D01*
X329922D01*
G01X342322Y294471D02*
Y281971D01*
X348522D01*
G01X353947D02*
X357822Y294471D01*
X361697Y281971D01*
G01X360302Y286346D02*
X355342D01*
G01X370222Y294471D02*
Y281971D01*
G01X366657Y294471D02*
X373787D01*
G01X385722Y281971D02*
X379522D01*
Y294471D01*
X385722D01*
G01X383242Y288430D02*
X379522D01*
G01X391612Y281971D02*
Y294471D01*
X394712D01*
X395952Y293846D01*
X396882Y293013D01*
X397657Y291763D01*
X398277Y290304D01*
X398432Y288221D01*
X398277Y286138D01*
X397657Y284679D01*
X396882Y283429D01*
X395952Y282596D01*
X394712Y281971D01*
X391612D01*
G01X329922Y306971D02*
Y319471D01*
X333642D01*
X334882Y318846D01*
X335812Y317388D01*
X336122Y315721D01*
X335812Y314055D01*
X335037Y312804D01*
X333642Y312179D01*
X329922D01*
G01X342322Y319471D02*
Y306971D01*
X348522D01*
G01X353947D02*
X357822Y319471D01*
X361697Y306971D01*
G01X360302Y311346D02*
X355342D01*
G01X370222Y319471D02*
Y306971D01*
G01X366657Y319471D02*
X373787D01*
G01X385722Y306971D02*
X379522D01*
Y319471D01*
X385722D01*
G01X383242Y313430D02*
X379522D01*
G01X391612Y306971D02*
Y319471D01*
X394712D01*
X395952Y318846D01*
X396882Y318013D01*
X397657Y316763D01*
X398277Y315304D01*
X398432Y313221D01*
X398277Y311138D01*
X397657Y309679D01*
X396882Y308429D01*
X395952Y307596D01*
X394712Y306971D01*
X391612D01*
G01X329922Y331971D02*
Y344471D01*
X333642D01*
X334882Y343846D01*
X335812Y342388D01*
X336122Y340721D01*
X335812Y339055D01*
X335037Y337804D01*
X333642Y337179D01*
X329922D01*
G01X342322Y344471D02*
Y331971D01*
X348522D01*
G01X353947D02*
X357822Y344471D01*
X361697Y331971D01*
G01X360302Y336346D02*
X355342D01*
G01X370222Y344471D02*
Y331971D01*
G01X366657Y344471D02*
X373787D01*
G01X385722Y331971D02*
X379522D01*
Y344471D01*
X385722D01*
G01X383242Y338430D02*
X379522D01*
G01X391612Y331971D02*
Y344471D01*
X394712D01*
X395952Y343846D01*
X396882Y343013D01*
X397657Y341763D01*
X398277Y340304D01*
X398432Y338221D01*
X398277Y336138D01*
X397657Y334679D01*
X396882Y333429D01*
X395952Y332596D01*
X394712Y331971D01*
X391612D01*
G01X329922Y356971D02*
Y369471D01*
X333642D01*
X334882Y368846D01*
X335812Y367388D01*
X336122Y365721D01*
X335812Y364055D01*
X335037Y362804D01*
X333642Y362179D01*
X329922D01*
G01X342322Y369471D02*
Y356971D01*
X348522D01*
G01X353947D02*
X357822Y369471D01*
X361697Y356971D01*
G01X360302Y361346D02*
X355342D01*
G01X370222Y369471D02*
Y356971D01*
G01X366657Y369471D02*
X373787D01*
G01X385722Y356971D02*
X379522D01*
Y369471D01*
X385722D01*
G01X383242Y363430D02*
X379522D01*
G01X391612Y356971D02*
Y369471D01*
X394712D01*
X395952Y368846D01*
X396882Y368013D01*
X397657Y366763D01*
X398277Y365304D01*
X398432Y363221D01*
X398277Y361138D01*
X397657Y359679D01*
X396882Y358429D01*
X395952Y357596D01*
X394712Y356971D01*
X391612D01*
G01X329922Y381971D02*
Y394471D01*
X333642D01*
X334882Y393846D01*
X335812Y392388D01*
X336122Y390721D01*
X335812Y389055D01*
X335037Y387804D01*
X333642Y387179D01*
X329922D01*
G01X342322Y394471D02*
Y381971D01*
X348522D01*
G01X353947D02*
X357822Y394471D01*
X361697Y381971D01*
G01X360302Y386346D02*
X355342D01*
G01X370222Y394471D02*
Y381971D01*
G01X366657Y394471D02*
X373787D01*
G01X385722Y381971D02*
X379522D01*
Y394471D01*
X385722D01*
G01X383242Y388430D02*
X379522D01*
G01X391612Y381971D02*
Y394471D01*
X394712D01*
X395952Y393846D01*
X396882Y393013D01*
X397657Y391763D01*
X398277Y390304D01*
X398432Y388221D01*
X398277Y386138D01*
X397657Y384679D01*
X396882Y383429D01*
X395952Y382596D01*
X394712Y381971D01*
X391612D01*
G01X329922Y406971D02*
Y419471D01*
X333642D01*
X334882Y418846D01*
X335812Y417388D01*
X336122Y415721D01*
X335812Y414055D01*
X335037Y412804D01*
X333642Y412179D01*
X329922D01*
G01X342322Y419471D02*
Y406971D01*
X348522D01*
G01X353947D02*
X357822Y419471D01*
X361697Y406971D01*
G01X360302Y411346D02*
X355342D01*
G01X370222Y419471D02*
Y406971D01*
G01X366657Y419471D02*
X373787D01*
G01X385722Y406971D02*
X379522D01*
Y419471D01*
X385722D01*
G01X383242Y413430D02*
X379522D01*
G01X391612Y406971D02*
Y419471D01*
X394712D01*
X395952Y418846D01*
X396882Y418013D01*
X397657Y416763D01*
X398277Y415304D01*
X398432Y413221D01*
X398277Y411138D01*
X397657Y409679D01*
X396882Y408429D01*
X395952Y407596D01*
X394712Y406971D01*
X391612D01*
G01X329922Y431971D02*
Y444471D01*
X333642D01*
X334882Y443846D01*
X335812Y442388D01*
X336122Y440721D01*
X335812Y439055D01*
X335037Y437804D01*
X333642Y437179D01*
X329922D01*
G01X342322Y444471D02*
Y431971D01*
X348522D01*
G01X353947D02*
X357822Y444471D01*
X361697Y431971D01*
G01X360302Y436346D02*
X355342D01*
G01X370222Y444471D02*
Y431971D01*
G01X366657Y444471D02*
X373787D01*
G01X385722Y431971D02*
X379522D01*
Y444471D01*
X385722D01*
G01X383242Y438430D02*
X379522D01*
G01X391612Y431971D02*
Y444471D01*
X394712D01*
X395952Y443846D01*
X396882Y443013D01*
X397657Y441763D01*
X398277Y440304D01*
X398432Y438221D01*
X398277Y436138D01*
X397657Y434679D01*
X396882Y433429D01*
X395952Y432596D01*
X394712Y431971D01*
X391612D01*
G01X427572Y450721D02*
Y225721D01*
G01X450512Y409471D02*
X451441Y408013D01*
X452682Y407180D01*
X454077Y406971D01*
X455317Y407180D01*
X456557Y408221D01*
X457332Y409471D01*
X457487Y410721D01*
X457177Y412179D01*
X456092Y413221D01*
X455007Y413638D01*
X453612D01*
G01X455007D02*
X455937Y414263D01*
X456712Y415304D01*
X457022Y416554D01*
X456712Y417805D01*
X455937Y418846D01*
X454542Y419471D01*
X453147Y419263D01*
X451752Y418430D01*
G01X468182Y406971D02*
Y419471D01*
X462446Y410513D01*
X470197D01*
G01X475777Y417388D02*
X476707Y418638D01*
X477792Y419263D01*
X479032Y419471D01*
X480582Y419055D01*
X481667Y418013D01*
X481977Y416763D01*
X481822Y415513D01*
X481202Y414471D01*
X478102Y412388D01*
X476707Y410930D01*
X475777Y408846D01*
X475467Y406971D01*
X481977D01*
G01X453922Y431971D02*
X452682Y432180D01*
X451597Y433013D01*
X450667Y434263D01*
X450046Y435721D01*
X449737Y437388D01*
Y439055D01*
X450046Y440721D01*
X450667Y442180D01*
X451597Y443430D01*
X452682Y444263D01*
X453922Y444471D01*
X455162Y444263D01*
X456247Y443430D01*
X457177Y442180D01*
X457797Y440721D01*
X458107Y439055D01*
Y437388D01*
X457797Y435721D01*
X457177Y434263D01*
X456247Y433013D01*
X455162Y432180D01*
X453922Y431971D01*
G01X455162Y435305D02*
X457022Y431971D01*
G01X466322Y444471D02*
Y431971D01*
G01X462757Y444471D02*
X469887D01*
G01X478722Y431971D02*
Y437596D01*
X475622Y444471D01*
G01X481822D02*
X478722Y437596D01*
G01X457177Y292388D02*
X458107Y293638D01*
X459192Y294263D01*
X460432Y294471D01*
X461982Y294055D01*
X463067Y293013D01*
X463377Y291763D01*
X463222Y290513D01*
X462602Y289471D01*
X459502Y287388D01*
X458107Y285930D01*
X457177Y283846D01*
X456867Y281971D01*
X463377D01*
G01X469577Y292388D02*
X470507Y293638D01*
X471592Y294263D01*
X472832Y294471D01*
X474382Y294055D01*
X475467Y293013D01*
X475777Y291763D01*
X475622Y290513D01*
X475002Y289471D01*
X471902Y287388D01*
X470507Y285930D01*
X469577Y283846D01*
X469267Y281971D01*
X475777D01*
G01X456712Y308846D02*
X457642Y307804D01*
X458727Y307180D01*
X460122Y306971D01*
X461517Y307388D01*
X462602Y308221D01*
X463377Y309679D01*
X463532Y311346D01*
X463222Y313013D01*
X462447Y314055D01*
X461362Y314888D01*
X460277Y315096D01*
X459192Y314888D01*
X457797Y314055D01*
X458262Y319471D01*
X462447D01*
G01X472522D02*
X471282Y319055D01*
X470352Y318013D01*
X469732Y316763D01*
X469267Y315096D01*
X469112Y313221D01*
X469267Y311346D01*
X469732Y309679D01*
X470352Y308429D01*
X471282Y307388D01*
X472522Y306971D01*
X473762Y307388D01*
X474692Y308429D01*
X475312Y309679D01*
X475777Y311346D01*
X475932Y313221D01*
X475777Y315096D01*
X475312Y316763D01*
X474692Y318013D01*
X473762Y319055D01*
X472522Y319471D01*
G01X461982Y356971D02*
Y369471D01*
X456247Y360513D01*
X463997D01*
G01X469887Y358429D02*
X470972Y357388D01*
X472212Y356971D01*
X473452Y357388D01*
X474537Y358638D01*
X475312Y360513D01*
X475622Y362388D01*
Y364680D01*
X475312Y366554D01*
X474537Y368221D01*
X473607Y369055D01*
X472522Y369471D01*
X471282Y369055D01*
X470352Y368221D01*
X469732Y366972D01*
X469422Y365304D01*
X469732Y363846D01*
X470507Y362388D01*
X471437Y361554D01*
X472522Y361346D01*
X473762Y361763D01*
X474692Y362804D01*
X475622Y364680D01*
G01X460122Y381971D02*
Y394471D01*
X458262Y391972D01*
G01Y381971D02*
X461981D01*
G01X469112Y383846D02*
X470042Y382805D01*
X471127Y382180D01*
X472522Y381971D01*
X473917Y382388D01*
X475002Y383221D01*
X475777Y384679D01*
X475932Y386346D01*
X475622Y388013D01*
X474847Y389055D01*
X473762Y389888D01*
X472677Y390096D01*
X471592Y389888D01*
X470197Y389055D01*
X470662Y394471D01*
X474847D01*
G01X468182Y231971D02*
Y244471D01*
X462446Y235513D01*
X470197D01*
G01X468182Y256971D02*
Y269471D01*
X462446Y260513D01*
X470197D01*
G01X463377Y337179D02*
X464462Y338638D01*
X465392Y339471D01*
X466632Y339888D01*
X467717Y339471D01*
X468492Y338638D01*
X469112Y337388D01*
X469267Y335930D01*
X469112Y334679D01*
X468492Y333429D01*
X467562Y332388D01*
X466477Y331971D01*
X465237Y332388D01*
X464152Y333638D01*
X463532Y335513D01*
X463377Y337596D01*
X463687Y340304D01*
X464152Y341763D01*
X464927Y343221D01*
X466012Y344263D01*
X467097Y344471D01*
X468182Y344055D01*
X468957Y343013D01*
M02*
