G04 ================== begin FILE IDENTIFICATION RECORD ==================*
G04 Layout Name:  F:/对外部分项目/信号发生器改版V2.0_485/Hardware/Pcb/DDS.brd*
G04 Film Name:    SILKSCREEN_TOP*
G04 File Format:  Gerber RS274X*
G04 File Origin:  Cadence Allegro 16.6-2015-S066*
G04 Origin Date:  Sat Feb 24 22:19:25 2018*
G04 *
G04 Layer:  REF DES/SILKSCREEN_TOP*
G04 Layer:  PACKAGE GEOMETRY/SILKSCREEN_TOP*
G04 Layer:  BOARD GEOMETRY/SILKSCREEN_TOP*
G04 Layer:  BOARD GEOMETRY/OUTLINE*
G04 *
G04 Offset:    (0.000 0.000)*
G04 Mirror:    No*
G04 Mode:      Positive*
G04 Rotation:  0*
G04 FullContactRelief:  No*
G04 UndefLineWidth:     6.000*
G04 ================== end FILE IDENTIFICATION RECORD ====================*
%FSLAX25Y25*MOIN*%
%IR0*IPPOS*OFA0.00000B0.00000*MIA0B0*SFA1.00000B1.00000*%
%ADD10C,.004*%
%ADD11C,.006*%
%ADD12C,.003937*%
%ADD13C,.009843*%
%ADD14C,.007874*%
%ADD15C,.01*%
%ADD16C,.019685*%
G75*
%LPD*%
G75*
G36*
G01X1554054Y5042530D02*
X1553640Y5041868D01*
X1554426Y5040793D01*
X1555831Y5038147D01*
X1556203Y5036989D01*
X1556906Y5033765D01*
X1558229D01*
X1559345Y5034922D01*
X1560172Y5037486D01*
X1559676Y5038395D01*
X1557650Y5040256D01*
X1554054Y5042530D01*
G37*
G36*
G01X1588782Y5038809D02*
X1586839Y5036824D01*
X1576999D01*
X1591841Y5035749D01*
X1588782Y5038809D01*
G37*
G36*
G01X1643189Y5038147D02*
X1639882Y5035088D01*
X1630084D01*
X1628347D01*
X1612389D01*
X1614332Y5033103D01*
X1616399Y5033558D01*
X1619583Y5033765D01*
X1647117D01*
X1643189Y5038147D01*
G37*
G36*
G01X1624626Y5042943D02*
X1624172Y5042530D01*
X1625949Y5040462D01*
X1627479Y5037816D01*
X1628347Y5035088D01*
X1630084D01*
X1631241Y5036700D01*
X1631159Y5039222D01*
X1630539Y5039884D01*
X1628223Y5041372D01*
X1624626Y5042943D01*
G37*
G36*
G01X1691437Y5042075D02*
X1689494Y5039884D01*
X1670476D01*
X1694951Y5039222D01*
X1691437Y5042075D01*
G37*
G54D10*
G01X3203Y20193D02*
X3358Y20040D01*
X3617Y19925D01*
X3978Y19848D01*
X4288Y19925D01*
X4495Y20078D01*
X4650Y20347D01*
Y21382D01*
X1550D01*
Y20117D01*
X1757Y19848D01*
X2067Y19695D01*
X2428Y19618D01*
X2790Y19695D01*
X3100Y19925D01*
X3203Y20193D01*
Y21382D01*
G01X1550Y11458D02*
X4650Y10500D01*
X1550Y9542D01*
G01X2635Y9887D02*
Y11113D01*
G01X9223Y118509D02*
Y121609D01*
G01X10833D02*
Y118509D01*
G01Y120059D02*
X9223D01*
G01X11684Y119129D02*
X11914Y118767D01*
X12221Y118561D01*
X12566Y118509D01*
X12873Y118561D01*
X13179Y118819D01*
X13371Y119129D01*
X13409Y119439D01*
X13333Y119801D01*
X13064Y120059D01*
X12796Y120162D01*
X12451D01*
G01X12796D02*
X13026Y120317D01*
X13218Y120576D01*
X13294Y120886D01*
X13218Y121196D01*
X13026Y121454D01*
X12681Y121609D01*
X12336Y121557D01*
X11991Y121351D01*
G01X3033Y166750D02*
Y169850D01*
X3992D01*
X4298Y169695D01*
X4490Y169488D01*
X4567Y169075D01*
X4490Y168662D01*
X4260Y168403D01*
X3992Y168248D01*
X3033D01*
G01X3992D02*
X4567Y166750D01*
G01X5572Y168042D02*
X5840Y168403D01*
X6070Y168610D01*
X6377Y168713D01*
X6645Y168610D01*
X6837Y168403D01*
X6990Y168093D01*
X7028Y167732D01*
X6990Y167422D01*
X6837Y167112D01*
X6607Y166853D01*
X6338Y166750D01*
X6032Y166853D01*
X5763Y167163D01*
X5610Y167628D01*
X5572Y168145D01*
X5648Y168817D01*
X5763Y169178D01*
X5955Y169540D01*
X6223Y169798D01*
X6492Y169850D01*
X6760Y169747D01*
X6952Y169488D01*
G01X8072Y169333D02*
X8302Y169643D01*
X8570Y169798D01*
X8877Y169850D01*
X9260Y169747D01*
X9528Y169488D01*
X9605Y169178D01*
X9567Y168868D01*
X9413Y168610D01*
X8647Y168093D01*
X8302Y167732D01*
X8072Y167215D01*
X7995Y166750D01*
X9605D01*
G01X11895Y47450D02*
Y50550D01*
G01X13505D02*
Y47450D01*
G01Y49000D02*
X11895D01*
G01X15200Y47450D02*
Y50550D01*
X14740Y49930D01*
G01Y47450D02*
X15660D01*
G01X16972Y50033D02*
X17202Y50343D01*
X17470Y50498D01*
X17777Y50550D01*
X18160Y50447D01*
X18428Y50188D01*
X18505Y49878D01*
X18467Y49568D01*
X18313Y49310D01*
X17547Y48793D01*
X17202Y48432D01*
X16972Y47915D01*
X16895Y47450D01*
X18505D01*
G01X10325Y85315D02*
Y88415D01*
G01X11935D02*
Y85315D01*
G01Y86865D02*
X10325D01*
G01X13630Y85315D02*
Y88415D01*
X13170Y87795D01*
G01Y85315D02*
X14090D01*
G01X10532Y151341D02*
Y154441D01*
G01X12142D02*
Y151341D01*
G01Y152891D02*
X10532D01*
G01X13108Y153924D02*
X13338Y154234D01*
X13607Y154389D01*
X13913Y154441D01*
X14297Y154338D01*
X14565Y154079D01*
X14642Y153769D01*
X14603Y153459D01*
X14450Y153201D01*
X13683Y152684D01*
X13338Y152322D01*
X13108Y151806D01*
X13032Y151341D01*
X14642D01*
G01X12533Y167050D02*
Y170150D01*
X13492D01*
X13798Y169995D01*
X13990Y169788D01*
X14067Y169375D01*
X13990Y168962D01*
X13760Y168703D01*
X13492Y168548D01*
X12533D01*
G01X13492D02*
X14067Y167050D01*
G01X15072Y168342D02*
X15340Y168703D01*
X15570Y168910D01*
X15877Y169013D01*
X16145Y168910D01*
X16337Y168703D01*
X16490Y168393D01*
X16528Y168032D01*
X16490Y167722D01*
X16337Y167412D01*
X16107Y167153D01*
X15838Y167050D01*
X15532Y167153D01*
X15263Y167463D01*
X15110Y167928D01*
X15072Y168445D01*
X15148Y169117D01*
X15263Y169478D01*
X15455Y169840D01*
X15723Y170098D01*
X15992Y170150D01*
X16260Y170047D01*
X16452Y169788D01*
G01X17457Y167670D02*
X17687Y167308D01*
X17993Y167102D01*
X18338Y167050D01*
X18645Y167102D01*
X18952Y167360D01*
X19143Y167670D01*
X19182Y167980D01*
X19105Y168342D01*
X18837Y168600D01*
X18568Y168703D01*
X18223D01*
G01X18568D02*
X18798Y168858D01*
X18990Y169117D01*
X19067Y169427D01*
X18990Y169737D01*
X18798Y169995D01*
X18453Y170150D01*
X18108Y170098D01*
X17763Y169892D01*
G01X12557Y189050D02*
Y186828D01*
X12710Y186363D01*
X13017Y186053D01*
X13400Y185950D01*
X13783Y186053D01*
X14090Y186363D01*
X14243Y186828D01*
Y189050D01*
G01X15900Y185950D02*
Y189050D01*
X15440Y188430D01*
G01Y185950D02*
X16360D01*
G01X18400D02*
X18668Y186002D01*
X18975Y186157D01*
X19167Y186415D01*
X19243Y186777D01*
X19167Y187138D01*
X18937Y187448D01*
X18592Y187603D01*
X18208D01*
X17978Y187707D01*
X17787Y187965D01*
X17710Y188327D01*
X17825Y188688D01*
X18093Y188947D01*
X18400Y189050D01*
X18707Y188947D01*
X18975Y188688D01*
X19090Y188327D01*
X19013Y187965D01*
X18822Y187707D01*
X18592Y187603D01*
X18208D01*
X17863Y187448D01*
X17633Y187138D01*
X17557Y186777D01*
X17633Y186415D01*
X17825Y186157D01*
X18132Y186002D01*
X18400Y185950D01*
G01X31743Y168492D02*
X31513Y168647D01*
X31245Y168750D01*
X30938D01*
X30593Y168595D01*
X30325Y168337D01*
X30133Y168027D01*
X29980Y167510D01*
X29942Y167045D01*
X30018Y166580D01*
X30133Y166270D01*
X30363Y165960D01*
X30632Y165753D01*
X30900Y165650D01*
X31168D01*
X31437Y165753D01*
X31667Y165908D01*
X31858Y166115D01*
G01X33400Y165650D02*
X33668Y165702D01*
X33975Y165857D01*
X34167Y166115D01*
X34243Y166477D01*
X34167Y166838D01*
X33937Y167148D01*
X33592Y167303D01*
X33208D01*
X32978Y167407D01*
X32787Y167665D01*
X32710Y168027D01*
X32825Y168388D01*
X33093Y168647D01*
X33400Y168750D01*
X33707Y168647D01*
X33975Y168388D01*
X34090Y168027D01*
X34013Y167665D01*
X33822Y167407D01*
X33592Y167303D01*
X33208D01*
X32863Y167148D01*
X32633Y166838D01*
X32557Y166477D01*
X32633Y166115D01*
X32825Y165857D01*
X33132Y165702D01*
X33400Y165650D01*
G01X35248Y166012D02*
X35517Y165753D01*
X35823Y165650D01*
X36130Y165753D01*
X36398Y166063D01*
X36590Y166528D01*
X36667Y166993D01*
Y167562D01*
X36590Y168027D01*
X36398Y168440D01*
X36168Y168647D01*
X35900Y168750D01*
X35593Y168647D01*
X35363Y168440D01*
X35210Y168130D01*
X35133Y167717D01*
X35210Y167355D01*
X35402Y166993D01*
X35632Y166787D01*
X35900Y166735D01*
X36207Y166838D01*
X36437Y167097D01*
X36667Y167562D01*
G01X29933Y171650D02*
Y174750D01*
X30892D01*
X31198Y174595D01*
X31390Y174388D01*
X31467Y173975D01*
X31390Y173562D01*
X31160Y173303D01*
X30892Y173148D01*
X29933D01*
G01X30892D02*
X31467Y171650D01*
G01X32472Y172942D02*
X32740Y173303D01*
X32970Y173510D01*
X33277Y173613D01*
X33545Y173510D01*
X33737Y173303D01*
X33890Y172993D01*
X33928Y172632D01*
X33890Y172322D01*
X33737Y172012D01*
X33507Y171753D01*
X33238Y171650D01*
X32932Y171753D01*
X32663Y172063D01*
X32510Y172528D01*
X32472Y173045D01*
X32548Y173717D01*
X32663Y174078D01*
X32855Y174440D01*
X33123Y174698D01*
X33392Y174750D01*
X33660Y174647D01*
X33852Y174388D01*
G01X35700Y171650D02*
Y174750D01*
X35240Y174130D01*
G01Y171650D02*
X36160D01*
G01X42140Y82774D02*
X41910Y82930D01*
X41641Y83033D01*
X41335D01*
X40990Y82878D01*
X40721Y82620D01*
X40530Y82309D01*
X40376Y81793D01*
X40338Y81328D01*
X40414Y80863D01*
X40530Y80553D01*
X40760Y80243D01*
X41028Y80036D01*
X41296Y79933D01*
X41564D01*
X41833Y80036D01*
X42063Y80191D01*
X42255Y80398D01*
G01X44256Y79933D02*
Y83033D01*
X42838Y80811D01*
X44755D01*
G01X45568Y81224D02*
X45836Y81586D01*
X46066Y81793D01*
X46373Y81896D01*
X46641Y81793D01*
X46833Y81586D01*
X46986Y81276D01*
X47025Y80914D01*
X46986Y80604D01*
X46833Y80294D01*
X46603Y80036D01*
X46335Y79933D01*
X46028Y80036D01*
X45760Y80346D01*
X45606Y80811D01*
X45568Y81328D01*
X45644Y81999D01*
X45760Y82361D01*
X45951Y82723D01*
X46220Y82981D01*
X46488Y83033D01*
X46756Y82930D01*
X46948Y82671D01*
G01X42140Y94985D02*
X41910Y95140D01*
X41641Y95244D01*
X41335D01*
X40990Y95088D01*
X40721Y94830D01*
X40530Y94520D01*
X40376Y94004D01*
X40338Y93539D01*
X40414Y93074D01*
X40530Y92764D01*
X40760Y92454D01*
X41028Y92247D01*
X41296Y92144D01*
X41564D01*
X41833Y92247D01*
X42063Y92402D01*
X42255Y92608D01*
G01X42953Y92764D02*
X43183Y92402D01*
X43490Y92195D01*
X43835Y92144D01*
X44141Y92195D01*
X44448Y92454D01*
X44640Y92764D01*
X44678Y93074D01*
X44601Y93435D01*
X44333Y93694D01*
X44064Y93797D01*
X43720D01*
G01X44064D02*
X44294Y93952D01*
X44486Y94210D01*
X44563Y94520D01*
X44486Y94830D01*
X44294Y95088D01*
X43950Y95244D01*
X43604Y95192D01*
X43260Y94985D01*
G01X45644Y92505D02*
X45913Y92247D01*
X46220Y92144D01*
X46526Y92247D01*
X46794Y92557D01*
X46986Y93022D01*
X47063Y93487D01*
Y94055D01*
X46986Y94520D01*
X46794Y94934D01*
X46564Y95140D01*
X46296Y95244D01*
X45990Y95140D01*
X45760Y94934D01*
X45606Y94624D01*
X45530Y94210D01*
X45606Y93849D01*
X45798Y93487D01*
X46028Y93280D01*
X46296Y93229D01*
X46603Y93332D01*
X46833Y93590D01*
X47063Y94055D01*
G01X40530Y86038D02*
Y89138D01*
X41488D01*
X41794Y88983D01*
X41986Y88776D01*
X42063Y88363D01*
X41986Y87950D01*
X41756Y87692D01*
X41488Y87536D01*
X40530D01*
G01X41488D02*
X42063Y86038D01*
G01X42953Y86503D02*
X43183Y86245D01*
X43451Y86090D01*
X43796Y86038D01*
X44141Y86142D01*
X44410Y86348D01*
X44601Y86710D01*
X44640Y87123D01*
X44563Y87536D01*
X44371Y87795D01*
X44103Y88002D01*
X43835Y88053D01*
X43566Y88002D01*
X43221Y87795D01*
X43336Y89138D01*
X44371D01*
G01X45568Y87330D02*
X45836Y87692D01*
X46066Y87898D01*
X46373Y88002D01*
X46641Y87898D01*
X46833Y87692D01*
X46986Y87382D01*
X47025Y87020D01*
X46986Y86710D01*
X46833Y86400D01*
X46603Y86142D01*
X46335Y86038D01*
X46028Y86142D01*
X45760Y86451D01*
X45606Y86916D01*
X45568Y87433D01*
X45644Y88105D01*
X45760Y88467D01*
X45951Y88828D01*
X46220Y89086D01*
X46488Y89138D01*
X46756Y89035D01*
X46948Y88776D01*
G01X40530Y98249D02*
Y101349D01*
X41488D01*
X41794Y101194D01*
X41986Y100987D01*
X42063Y100574D01*
X41986Y100161D01*
X41756Y99902D01*
X41488Y99747D01*
X40530D01*
G01X41488D02*
X42063Y98249D01*
G01X42953Y98869D02*
X43183Y98507D01*
X43490Y98301D01*
X43835Y98249D01*
X44141Y98301D01*
X44448Y98559D01*
X44640Y98869D01*
X44678Y99179D01*
X44601Y99541D01*
X44333Y99799D01*
X44064Y99902D01*
X43720D01*
G01X44064D02*
X44294Y100057D01*
X44486Y100316D01*
X44563Y100626D01*
X44486Y100936D01*
X44294Y101194D01*
X43950Y101349D01*
X43604Y101297D01*
X43260Y101091D01*
G01X45453Y98869D02*
X45683Y98507D01*
X45990Y98301D01*
X46335Y98249D01*
X46641Y98301D01*
X46948Y98559D01*
X47140Y98869D01*
X47178Y99179D01*
X47101Y99541D01*
X46833Y99799D01*
X46564Y99902D01*
X46220D01*
G01X46564D02*
X46794Y100057D01*
X46986Y100316D01*
X47063Y100626D01*
X46986Y100936D01*
X46794Y101194D01*
X46450Y101349D01*
X46105Y101297D01*
X45760Y101091D01*
G01X42140Y107196D02*
X41910Y107351D01*
X41641Y107454D01*
X41335D01*
X40990Y107299D01*
X40721Y107041D01*
X40530Y106731D01*
X40376Y106214D01*
X40338Y105749D01*
X40414Y105284D01*
X40530Y104974D01*
X40760Y104664D01*
X41028Y104458D01*
X41296Y104354D01*
X41564D01*
X41833Y104458D01*
X42063Y104613D01*
X42255Y104819D01*
G01X42953Y104974D02*
X43183Y104613D01*
X43490Y104406D01*
X43835Y104354D01*
X44141Y104406D01*
X44448Y104664D01*
X44640Y104974D01*
X44678Y105284D01*
X44601Y105646D01*
X44333Y105904D01*
X44064Y106008D01*
X43720D01*
G01X44064D02*
X44294Y106163D01*
X44486Y106421D01*
X44563Y106731D01*
X44486Y107041D01*
X44294Y107299D01*
X43950Y107454D01*
X43604Y107403D01*
X43260Y107196D01*
G01X46296Y104354D02*
X46564Y104406D01*
X46871Y104561D01*
X47063Y104819D01*
X47140Y105181D01*
X47063Y105543D01*
X46833Y105853D01*
X46488Y106008D01*
X46105D01*
X45874Y106111D01*
X45683Y106369D01*
X45606Y106731D01*
X45721Y107093D01*
X45990Y107351D01*
X46296Y107454D01*
X46603Y107351D01*
X46871Y107093D01*
X46986Y106731D01*
X46910Y106369D01*
X46718Y106111D01*
X46488Y106008D01*
X46105D01*
X45760Y105853D01*
X45530Y105543D01*
X45453Y105181D01*
X45530Y104819D01*
X45721Y104561D01*
X46028Y104406D01*
X46296Y104354D01*
G01X42140Y113301D02*
X41910Y113456D01*
X41641Y113560D01*
X41335D01*
X40990Y113405D01*
X40721Y113146D01*
X40530Y112836D01*
X40376Y112320D01*
X40338Y111855D01*
X40414Y111390D01*
X40530Y111080D01*
X40760Y110770D01*
X41028Y110563D01*
X41296Y110460D01*
X41564D01*
X41833Y110563D01*
X42063Y110718D01*
X42255Y110925D01*
G01X44256Y110460D02*
Y113560D01*
X42838Y111338D01*
X44755D01*
G01X45453Y110925D02*
X45683Y110666D01*
X45951Y110512D01*
X46296Y110460D01*
X46641Y110563D01*
X46910Y110770D01*
X47101Y111131D01*
X47140Y111545D01*
X47063Y111958D01*
X46871Y112217D01*
X46603Y112423D01*
X46335Y112475D01*
X46066Y112423D01*
X45721Y112217D01*
X45836Y113560D01*
X46871D01*
G01X40530Y116565D02*
Y119665D01*
X41488D01*
X41794Y119510D01*
X41986Y119304D01*
X42063Y118890D01*
X41986Y118477D01*
X41756Y118219D01*
X41488Y118064D01*
X40530D01*
G01X41488D02*
X42063Y116565D01*
G01X42953Y117030D02*
X43183Y116772D01*
X43451Y116617D01*
X43796Y116565D01*
X44141Y116668D01*
X44410Y116875D01*
X44601Y117237D01*
X44640Y117650D01*
X44563Y118064D01*
X44371Y118322D01*
X44103Y118529D01*
X43835Y118580D01*
X43566Y118529D01*
X43221Y118322D01*
X43336Y119665D01*
X44371D01*
G01X45453Y117030D02*
X45683Y116772D01*
X45951Y116617D01*
X46296Y116565D01*
X46641Y116668D01*
X46910Y116875D01*
X47101Y117237D01*
X47140Y117650D01*
X47063Y118064D01*
X46871Y118322D01*
X46603Y118529D01*
X46335Y118580D01*
X46066Y118529D01*
X45721Y118322D01*
X45836Y119665D01*
X46871D01*
G01X42140Y125512D02*
X41910Y125667D01*
X41641Y125771D01*
X41335D01*
X40990Y125615D01*
X40721Y125357D01*
X40530Y125047D01*
X40376Y124531D01*
X40338Y124066D01*
X40414Y123601D01*
X40530Y123291D01*
X40760Y122980D01*
X41028Y122774D01*
X41296Y122671D01*
X41564D01*
X41833Y122774D01*
X42063Y122929D01*
X42255Y123136D01*
G01X42953Y123291D02*
X43183Y122929D01*
X43490Y122722D01*
X43835Y122671D01*
X44141Y122722D01*
X44448Y122980D01*
X44640Y123291D01*
X44678Y123601D01*
X44601Y123962D01*
X44333Y124221D01*
X44064Y124324D01*
X43720D01*
G01X44064D02*
X44294Y124479D01*
X44486Y124737D01*
X44563Y125047D01*
X44486Y125357D01*
X44294Y125615D01*
X43950Y125771D01*
X43604Y125719D01*
X43260Y125512D01*
G01X46220Y122671D02*
X46296Y123342D01*
X46411Y123911D01*
X46564Y124427D01*
X46756Y124996D01*
X47063Y125771D01*
X45530D01*
G01X40530Y128776D02*
Y131876D01*
X41488D01*
X41794Y131721D01*
X41986Y131514D01*
X42063Y131101D01*
X41986Y130688D01*
X41756Y130429D01*
X41488Y130274D01*
X40530D01*
G01X41488D02*
X42063Y128776D01*
G01X42953Y129396D02*
X43183Y129034D01*
X43490Y128828D01*
X43835Y128776D01*
X44141Y128828D01*
X44448Y129086D01*
X44640Y129396D01*
X44678Y129706D01*
X44601Y130068D01*
X44333Y130326D01*
X44064Y130429D01*
X43720D01*
G01X44064D02*
X44294Y130584D01*
X44486Y130843D01*
X44563Y131153D01*
X44486Y131463D01*
X44294Y131721D01*
X43950Y131876D01*
X43604Y131824D01*
X43260Y131618D01*
G01X45568Y131359D02*
X45798Y131669D01*
X46066Y131824D01*
X46373Y131876D01*
X46756Y131773D01*
X47025Y131514D01*
X47101Y131204D01*
X47063Y130894D01*
X46910Y130636D01*
X46143Y130119D01*
X45798Y129758D01*
X45568Y129241D01*
X45491Y128776D01*
X47101D01*
G01X42140Y137723D02*
X41910Y137878D01*
X41641Y137981D01*
X41335D01*
X40990Y137826D01*
X40721Y137568D01*
X40530Y137258D01*
X40376Y136741D01*
X40338Y136276D01*
X40414Y135811D01*
X40530Y135501D01*
X40760Y135191D01*
X41028Y134985D01*
X41296Y134881D01*
X41564D01*
X41833Y134985D01*
X42063Y135140D01*
X42255Y135346D01*
G01X42953Y135501D02*
X43183Y135140D01*
X43490Y134933D01*
X43835Y134881D01*
X44141Y134933D01*
X44448Y135191D01*
X44640Y135501D01*
X44678Y135811D01*
X44601Y136173D01*
X44333Y136431D01*
X44064Y136535D01*
X43720D01*
G01X44064D02*
X44294Y136690D01*
X44486Y136948D01*
X44563Y137258D01*
X44486Y137568D01*
X44294Y137826D01*
X43950Y137981D01*
X43604Y137930D01*
X43260Y137723D01*
G01X45568Y136173D02*
X45836Y136535D01*
X46066Y136741D01*
X46373Y136845D01*
X46641Y136741D01*
X46833Y136535D01*
X46986Y136225D01*
X47025Y135863D01*
X46986Y135553D01*
X46833Y135243D01*
X46603Y134985D01*
X46335Y134881D01*
X46028Y134985D01*
X45760Y135295D01*
X45606Y135760D01*
X45568Y136276D01*
X45644Y136948D01*
X45760Y137310D01*
X45951Y137671D01*
X46220Y137930D01*
X46488Y137981D01*
X46756Y137878D01*
X46948Y137620D01*
G01X48170Y146964D02*
Y150064D01*
X49129D01*
X49435Y149909D01*
X49627Y149702D01*
X49704Y149289D01*
X49627Y148875D01*
X49397Y148617D01*
X49129Y148462D01*
X48170D01*
G01X49129D02*
X49704Y146964D01*
G01X50709Y149547D02*
X50939Y149857D01*
X51207Y150012D01*
X51514Y150064D01*
X51897Y149960D01*
X52165Y149702D01*
X52242Y149392D01*
X52204Y149082D01*
X52050Y148824D01*
X51284Y148307D01*
X50939Y147945D01*
X50709Y147429D01*
X50632Y146964D01*
X52242D01*
G01X53937Y150064D02*
X53630Y149960D01*
X53400Y149702D01*
X53247Y149392D01*
X53132Y148979D01*
X53094Y148514D01*
X53132Y148049D01*
X53247Y147635D01*
X53400Y147325D01*
X53630Y147067D01*
X53937Y146964D01*
X54244Y147067D01*
X54474Y147325D01*
X54627Y147635D01*
X54742Y148049D01*
X54780Y148514D01*
X54742Y148979D01*
X54627Y149392D01*
X54474Y149702D01*
X54244Y149960D01*
X53937Y150064D01*
G01X58624Y17554D02*
Y20654D01*
G01X60234D02*
Y17554D01*
G01Y19104D02*
X58624D01*
G01X61852Y17554D02*
X61929Y18226D01*
X62044Y18794D01*
X62197Y19311D01*
X62389Y19879D01*
X62696Y20654D01*
X61162D01*
G01X58821Y84821D02*
Y87920D01*
X59779D01*
X60086Y87765D01*
X60277Y87559D01*
X60354Y87146D01*
X60277Y86732D01*
X60047Y86474D01*
X59779Y86319D01*
X58821D01*
G01X59779D02*
X60354Y84821D01*
G01X62547D02*
Y87920D01*
X61129Y85699D01*
X63046D01*
G01X53493Y92092D02*
X53263Y92247D01*
X52995Y92350D01*
X52688D01*
X52343Y92195D01*
X52075Y91937D01*
X51883Y91627D01*
X51730Y91110D01*
X51692Y90645D01*
X51768Y90180D01*
X51883Y89870D01*
X52113Y89560D01*
X52382Y89353D01*
X52650Y89250D01*
X52918D01*
X53187Y89353D01*
X53417Y89508D01*
X53608Y89715D01*
G01X54307Y89870D02*
X54537Y89508D01*
X54843Y89302D01*
X55188Y89250D01*
X55495Y89302D01*
X55802Y89560D01*
X55993Y89870D01*
X56032Y90180D01*
X55955Y90542D01*
X55687Y90800D01*
X55418Y90903D01*
X55073D01*
G01X55418D02*
X55648Y91058D01*
X55840Y91317D01*
X55917Y91627D01*
X55840Y91937D01*
X55648Y92195D01*
X55303Y92350D01*
X54958Y92298D01*
X54613Y92092D01*
G01X58693Y110692D02*
X58463Y110847D01*
X58195Y110950D01*
X57888D01*
X57543Y110795D01*
X57275Y110537D01*
X57083Y110227D01*
X56930Y109710D01*
X56892Y109245D01*
X56968Y108780D01*
X57083Y108470D01*
X57313Y108160D01*
X57582Y107953D01*
X57850Y107850D01*
X58118D01*
X58387Y107953D01*
X58617Y108108D01*
X58808Y108315D01*
G01X59622Y110433D02*
X59852Y110743D01*
X60120Y110898D01*
X60427Y110950D01*
X60810Y110847D01*
X61078Y110588D01*
X61155Y110278D01*
X61117Y109968D01*
X60963Y109710D01*
X60197Y109193D01*
X59852Y108832D01*
X59622Y108315D01*
X59545Y107850D01*
X61155D01*
G01X54066Y159503D02*
Y162603D01*
X55024D01*
X55331Y162448D01*
X55523Y162241D01*
X55599Y161828D01*
X55523Y161415D01*
X55293Y161156D01*
X55024Y161001D01*
X54066D01*
G01X55024D02*
X55599Y159503D01*
G01X56604Y162086D02*
X56834Y162396D01*
X57103Y162551D01*
X57409Y162603D01*
X57793Y162500D01*
X58061Y162241D01*
X58138Y161932D01*
X58099Y161621D01*
X57946Y161363D01*
X57179Y160846D01*
X56834Y160485D01*
X56604Y159968D01*
X56528Y159503D01*
X58138D01*
G01X60293D02*
Y162603D01*
X58874Y160381D01*
X60791D01*
G01X60312Y53486D02*
Y51264D01*
X60465Y50799D01*
X60772Y50490D01*
X61155Y50386D01*
X61539Y50490D01*
X61846Y50799D01*
X61999Y51264D01*
Y53486D01*
G01X63004Y50748D02*
X63272Y50490D01*
X63579Y50386D01*
X63886Y50490D01*
X64154Y50799D01*
X64346Y51264D01*
X64422Y51729D01*
Y52298D01*
X64346Y52763D01*
X64154Y53176D01*
X63924Y53383D01*
X63656Y53486D01*
X63349Y53383D01*
X63119Y53176D01*
X62966Y52866D01*
X62889Y52453D01*
X62966Y52091D01*
X63157Y51729D01*
X63387Y51523D01*
X63656Y51471D01*
X63962Y51574D01*
X64192Y51833D01*
X64422Y52298D01*
G01X65893Y110392D02*
X65663Y110547D01*
X65395Y110650D01*
X65088D01*
X64743Y110495D01*
X64475Y110237D01*
X64283Y109927D01*
X64130Y109410D01*
X64092Y108945D01*
X64168Y108480D01*
X64283Y108170D01*
X64513Y107860D01*
X64782Y107653D01*
X65050Y107550D01*
X65318D01*
X65587Y107653D01*
X65817Y107808D01*
X66008Y108015D01*
G01X67550Y107550D02*
Y110650D01*
X67090Y110030D01*
G01Y107550D02*
X68010D01*
G01X60296Y146964D02*
Y150064D01*
X61255D01*
X61561Y149909D01*
X61753Y149702D01*
X61830Y149289D01*
X61753Y148875D01*
X61523Y148617D01*
X61255Y148462D01*
X60296D01*
G01X61255D02*
X61830Y146964D01*
G01X62835Y149547D02*
X63065Y149857D01*
X63333Y150012D01*
X63640Y150064D01*
X64023Y149960D01*
X64291Y149702D01*
X64368Y149392D01*
X64330Y149082D01*
X64176Y148824D01*
X63410Y148307D01*
X63065Y147945D01*
X62835Y147429D01*
X62758Y146964D01*
X64368D01*
G01X66063D02*
Y150064D01*
X65603Y149444D01*
G01Y146964D02*
X66523D01*
G01X65956Y159503D02*
Y162603D01*
X66914D01*
X67221Y162448D01*
X67412Y162241D01*
X67489Y161828D01*
X67412Y161415D01*
X67182Y161156D01*
X66914Y161001D01*
X65956D01*
G01X66914D02*
X67489Y159503D01*
G01X68494Y162086D02*
X68724Y162396D01*
X68992Y162551D01*
X69299Y162603D01*
X69682Y162500D01*
X69951Y162241D01*
X70027Y161932D01*
X69989Y161621D01*
X69836Y161363D01*
X69069Y160846D01*
X68724Y160485D01*
X68494Y159968D01*
X68417Y159503D01*
X70027D01*
G01X70994Y162086D02*
X71224Y162396D01*
X71492Y162551D01*
X71799Y162603D01*
X72182Y162500D01*
X72451Y162241D01*
X72527Y161932D01*
X72489Y161621D01*
X72336Y161363D01*
X71569Y160846D01*
X71224Y160485D01*
X70994Y159968D01*
X70917Y159503D01*
X72527D01*
G01X71504Y87495D02*
X71274Y87650D01*
X71005Y87753D01*
X70699D01*
X70354Y87598D01*
X70085Y87340D01*
X69894Y87030D01*
X69740Y86513D01*
X69702Y86048D01*
X69778Y85583D01*
X69894Y85273D01*
X70124Y84963D01*
X70392Y84756D01*
X70660Y84653D01*
X70928D01*
X71197Y84756D01*
X71427Y84911D01*
X71619Y85118D01*
G01X73620Y84653D02*
Y87753D01*
X72202Y85531D01*
X74119D01*
G01X69825Y93836D02*
Y96936D01*
X70783D01*
X71090Y96781D01*
X71281Y96575D01*
X71358Y96161D01*
X71281Y95748D01*
X71051Y95490D01*
X70783Y95334D01*
X69825D01*
G01X70783D02*
X71358Y93836D01*
G01X72248Y94301D02*
X72478Y94043D01*
X72746Y93888D01*
X73091Y93836D01*
X73436Y93940D01*
X73705Y94146D01*
X73896Y94508D01*
X73935Y94921D01*
X73858Y95334D01*
X73666Y95593D01*
X73398Y95800D01*
X73130Y95851D01*
X72861Y95800D01*
X72516Y95593D01*
X72631Y96936D01*
X73666D01*
G01X71243Y110392D02*
X71013Y110547D01*
X70745Y110650D01*
X70438D01*
X70093Y110495D01*
X69825Y110237D01*
X69633Y109927D01*
X69480Y109410D01*
X69442Y108945D01*
X69518Y108480D01*
X69633Y108170D01*
X69863Y107860D01*
X70132Y107653D01*
X70400Y107550D01*
X70668D01*
X70937Y107653D01*
X71167Y107808D01*
X71358Y108015D01*
G01X72823Y107550D02*
X72900Y108222D01*
X73015Y108790D01*
X73168Y109307D01*
X73360Y109875D01*
X73667Y110650D01*
X72133D01*
G01X75860Y107550D02*
Y110650D01*
X74442Y108428D01*
X76358D01*
G01X68098Y130687D02*
Y128465D01*
X68251Y128000D01*
X68558Y127690D01*
X68941Y127587D01*
X69325Y127690D01*
X69631Y128000D01*
X69785Y128465D01*
Y130687D01*
G01X71901Y127587D02*
Y130687D01*
X70483Y128465D01*
X72400D01*
G01X71920Y146964D02*
Y150064D01*
X72879D01*
X73185Y149909D01*
X73377Y149702D01*
X73454Y149289D01*
X73377Y148875D01*
X73147Y148617D01*
X72879Y148462D01*
X71920D01*
G01X72879D02*
X73454Y146964D01*
G01X74459Y149547D02*
X74689Y149857D01*
X74957Y150012D01*
X75264Y150064D01*
X75647Y149960D01*
X75915Y149702D01*
X75992Y149392D01*
X75954Y149082D01*
X75800Y148824D01*
X75034Y148307D01*
X74689Y147945D01*
X74459Y147429D01*
X74382Y146964D01*
X75992D01*
G01X76844Y147429D02*
X77074Y147170D01*
X77342Y147016D01*
X77687Y146964D01*
X78032Y147067D01*
X78300Y147274D01*
X78492Y147635D01*
X78530Y148049D01*
X78454Y148462D01*
X78262Y148720D01*
X77994Y148927D01*
X77725Y148979D01*
X77457Y148927D01*
X77112Y148720D01*
X77227Y150064D01*
X78262D01*
G01X78023Y159503D02*
Y162603D01*
X78981D01*
X79288Y162448D01*
X79479Y162241D01*
X79556Y161828D01*
X79479Y161415D01*
X79249Y161156D01*
X78981Y161001D01*
X78023D01*
G01X78981D02*
X79556Y159503D01*
G01X80561Y162086D02*
X80791Y162396D01*
X81059Y162551D01*
X81366Y162603D01*
X81749Y162500D01*
X82018Y162241D01*
X82094Y161932D01*
X82056Y161621D01*
X81903Y161363D01*
X81136Y160846D01*
X80791Y160485D01*
X80561Y159968D01*
X80484Y159503D01*
X82094D01*
G01X82946Y160123D02*
X83176Y159761D01*
X83483Y159555D01*
X83828Y159503D01*
X84134Y159555D01*
X84441Y159813D01*
X84633Y160123D01*
X84671Y160433D01*
X84594Y160795D01*
X84326Y161053D01*
X84058Y161156D01*
X83713D01*
G01X84058D02*
X84288Y161311D01*
X84479Y161570D01*
X84556Y161880D01*
X84479Y162190D01*
X84288Y162448D01*
X83943Y162603D01*
X83598Y162551D01*
X83253Y162345D01*
G01X89512Y115199D02*
X89282Y115355D01*
X89014Y115458D01*
X88707D01*
X88362Y115303D01*
X88093Y115045D01*
X87902Y114734D01*
X87748Y114218D01*
X87710Y113753D01*
X87787Y113288D01*
X87902Y112978D01*
X88132Y112668D01*
X88400Y112461D01*
X88668Y112358D01*
X88937D01*
X89205Y112461D01*
X89435Y112616D01*
X89627Y112823D01*
G01X90325Y112978D02*
X90555Y112616D01*
X90862Y112410D01*
X91207Y112358D01*
X91514Y112410D01*
X91820Y112668D01*
X92012Y112978D01*
X92050Y113288D01*
X91974Y113649D01*
X91705Y113908D01*
X91437Y114011D01*
X91092D01*
G01X91437D02*
X91667Y114166D01*
X91859Y114424D01*
X91935Y114734D01*
X91859Y115045D01*
X91667Y115303D01*
X91322Y115458D01*
X90977Y115406D01*
X90632Y115199D01*
G01X93668Y115458D02*
X93362Y115355D01*
X93132Y115096D01*
X92978Y114786D01*
X92864Y114373D01*
X92825Y113908D01*
X92864Y113443D01*
X92978Y113030D01*
X93132Y112720D01*
X93362Y112461D01*
X93668Y112358D01*
X93975Y112461D01*
X94205Y112720D01*
X94358Y113030D01*
X94474Y113443D01*
X94512Y113908D01*
X94474Y114373D01*
X94358Y114786D01*
X94205Y115096D01*
X93975Y115355D01*
X93668Y115458D01*
G01X89543Y135592D02*
X89313Y135747D01*
X89045Y135850D01*
X88738D01*
X88393Y135695D01*
X88125Y135437D01*
X87933Y135127D01*
X87780Y134610D01*
X87742Y134145D01*
X87818Y133680D01*
X87933Y133370D01*
X88163Y133060D01*
X88432Y132853D01*
X88700Y132750D01*
X88968D01*
X89237Y132853D01*
X89467Y133008D01*
X89658Y133215D01*
G01X90357Y133370D02*
X90587Y133008D01*
X90893Y132802D01*
X91238Y132750D01*
X91545Y132802D01*
X91852Y133060D01*
X92043Y133370D01*
X92082Y133680D01*
X92005Y134042D01*
X91737Y134300D01*
X91468Y134403D01*
X91123D01*
G01X91468D02*
X91698Y134558D01*
X91890Y134817D01*
X91967Y135127D01*
X91890Y135437D01*
X91698Y135695D01*
X91353Y135850D01*
X91008Y135798D01*
X90663Y135592D01*
G01X92857Y133370D02*
X93087Y133008D01*
X93393Y132802D01*
X93738Y132750D01*
X94045Y132802D01*
X94352Y133060D01*
X94543Y133370D01*
X94582Y133680D01*
X94505Y134042D01*
X94237Y134300D01*
X93968Y134403D01*
X93623D01*
G01X93968D02*
X94198Y134558D01*
X94390Y134817D01*
X94467Y135127D01*
X94390Y135437D01*
X94198Y135695D01*
X93853Y135850D01*
X93508Y135798D01*
X93163Y135592D01*
G01X83997Y146964D02*
Y150064D01*
X84956D01*
X85262Y149909D01*
X85454Y149702D01*
X85530Y149289D01*
X85454Y148875D01*
X85224Y148617D01*
X84956Y148462D01*
X83997D01*
G01X84956D02*
X85530Y146964D01*
G01X86535Y149547D02*
X86766Y149857D01*
X87034Y150012D01*
X87340Y150064D01*
X87724Y149960D01*
X87992Y149702D01*
X88069Y149392D01*
X88030Y149082D01*
X87877Y148824D01*
X87110Y148307D01*
X86766Y147945D01*
X86535Y147429D01*
X86459Y146964D01*
X88069D01*
G01X89035Y148255D02*
X89304Y148617D01*
X89534Y148824D01*
X89840Y148927D01*
X90109Y148824D01*
X90300Y148617D01*
X90454Y148307D01*
X90492Y147945D01*
X90454Y147635D01*
X90300Y147325D01*
X90070Y147067D01*
X89802Y146964D01*
X89496Y147067D01*
X89227Y147377D01*
X89074Y147842D01*
X89035Y148359D01*
X89112Y149030D01*
X89227Y149392D01*
X89419Y149754D01*
X89687Y150012D01*
X89956Y150064D01*
X90224Y149960D01*
X90416Y149702D01*
G01X90099Y159503D02*
Y162603D01*
X91058D01*
X91364Y162448D01*
X91556Y162241D01*
X91633Y161828D01*
X91556Y161415D01*
X91326Y161156D01*
X91058Y161001D01*
X90099D01*
G01X91058D02*
X91633Y159503D01*
G01X92638Y162086D02*
X92868Y162396D01*
X93136Y162551D01*
X93443Y162603D01*
X93826Y162500D01*
X94094Y162241D01*
X94171Y161932D01*
X94133Y161621D01*
X93979Y161363D01*
X93213Y160846D01*
X92868Y160485D01*
X92638Y159968D01*
X92561Y159503D01*
X94171D01*
G01X95789D02*
X95866Y160175D01*
X95981Y160743D01*
X96134Y161260D01*
X96326Y161828D01*
X96633Y162603D01*
X95099D01*
G01X92641Y99346D02*
Y97124D01*
X92794Y96659D01*
X93101Y96349D01*
X93484Y96246D01*
X93868Y96349D01*
X94174Y96659D01*
X94328Y97124D01*
Y99346D01*
G01X95984Y96246D02*
Y99346D01*
X95524Y98726D01*
G01Y96246D02*
X96444D01*
G01X99995Y159501D02*
Y162601D01*
X100954D01*
X101260Y162446D01*
X101452Y162239D01*
X101528Y161826D01*
X101452Y161412D01*
X101222Y161154D01*
X100954Y160999D01*
X99995D01*
G01X100954D02*
X101528Y159501D01*
G01X102418Y160121D02*
X102648Y159759D01*
X102955Y159552D01*
X103300Y159501D01*
X103607Y159552D01*
X103913Y159811D01*
X104105Y160121D01*
X104143Y160431D01*
X104067Y160792D01*
X103798Y161051D01*
X103530Y161154D01*
X103185D01*
G01X103530D02*
X103760Y161309D01*
X103952Y161567D01*
X104029Y161877D01*
X103952Y162188D01*
X103760Y162446D01*
X103415Y162601D01*
X103070Y162549D01*
X102725Y162342D01*
G01X105762Y162601D02*
X105455Y162497D01*
X105225Y162239D01*
X105072Y161929D01*
X104957Y161516D01*
X104918Y161051D01*
X104957Y160586D01*
X105072Y160172D01*
X105225Y159862D01*
X105455Y159604D01*
X105762Y159501D01*
X106068Y159604D01*
X106298Y159862D01*
X106452Y160172D01*
X106567Y160586D01*
X106605Y161051D01*
X106567Y161516D01*
X106452Y161929D01*
X106298Y162239D01*
X106068Y162497D01*
X105762Y162601D01*
G01X100169Y17554D02*
Y20654D01*
G01X101779D02*
Y17554D01*
G01Y19104D02*
X100169D01*
G01X103474Y17554D02*
X103743Y17606D01*
X104049Y17761D01*
X104241Y18019D01*
X104318Y18381D01*
X104241Y18743D01*
X104011Y19053D01*
X103666Y19208D01*
X103283D01*
X103053Y19311D01*
X102861Y19569D01*
X102784Y19931D01*
X102899Y20293D01*
X103168Y20551D01*
X103474Y20654D01*
X103781Y20551D01*
X104049Y20293D01*
X104164Y19931D01*
X104088Y19569D01*
X103896Y19311D01*
X103666Y19208D01*
X103283D01*
X102938Y19053D01*
X102708Y18743D01*
X102631Y18381D01*
X102708Y18019D01*
X102899Y17761D01*
X103206Y17606D01*
X103474Y17554D01*
G01X103916Y45435D02*
X103686Y45590D01*
X103417Y45693D01*
X103111D01*
X102766Y45538D01*
X102497Y45280D01*
X102306Y44970D01*
X102152Y44453D01*
X102114Y43988D01*
X102191Y43523D01*
X102306Y43213D01*
X102536Y42903D01*
X102804Y42696D01*
X103072Y42593D01*
X103341D01*
X103609Y42696D01*
X103839Y42851D01*
X104031Y43058D01*
G01X104729D02*
X104959Y42800D01*
X105227Y42645D01*
X105572Y42593D01*
X105917Y42696D01*
X106186Y42903D01*
X106377Y43264D01*
X106416Y43678D01*
X106339Y44091D01*
X106147Y44350D01*
X105879Y44556D01*
X105611Y44608D01*
X105342Y44556D01*
X104997Y44350D01*
X105112Y45693D01*
X106147D01*
G01X107344Y45176D02*
X107574Y45486D01*
X107842Y45641D01*
X108149Y45693D01*
X108532Y45590D01*
X108801Y45331D01*
X108877Y45021D01*
X108839Y44711D01*
X108686Y44453D01*
X107919Y43936D01*
X107574Y43574D01*
X107344Y43058D01*
X107267Y42593D01*
X108877D01*
G01X109243Y53292D02*
X109013Y53447D01*
X108745Y53550D01*
X108438D01*
X108093Y53395D01*
X107825Y53137D01*
X107633Y52827D01*
X107480Y52310D01*
X107442Y51845D01*
X107518Y51380D01*
X107633Y51070D01*
X107863Y50760D01*
X108132Y50553D01*
X108400Y50450D01*
X108668D01*
X108937Y50553D01*
X109167Y50708D01*
X109358Y50915D01*
G01X111360Y50450D02*
Y53550D01*
X109942Y51328D01*
X111858D01*
G01X113860Y50450D02*
Y53550D01*
X112442Y51328D01*
X114358D01*
G01X107733Y54650D02*
Y57750D01*
X108692D01*
X108998Y57595D01*
X109190Y57388D01*
X109267Y56975D01*
X109190Y56562D01*
X108960Y56303D01*
X108692Y56148D01*
X107733D01*
G01X108692D02*
X109267Y54650D01*
G01X110157Y55115D02*
X110387Y54857D01*
X110655Y54702D01*
X111000Y54650D01*
X111345Y54753D01*
X111613Y54960D01*
X111805Y55322D01*
X111843Y55735D01*
X111767Y56148D01*
X111575Y56407D01*
X111307Y56613D01*
X111038Y56665D01*
X110770Y56613D01*
X110425Y56407D01*
X110540Y57750D01*
X111575D01*
G01X113960Y54650D02*
Y57750D01*
X112542Y55528D01*
X114458D01*
G01X109551Y67083D02*
X109321Y67238D01*
X109053Y67341D01*
X108746D01*
X108401Y67186D01*
X108133Y66928D01*
X107941Y66618D01*
X107788Y66101D01*
X107750Y65636D01*
X107826Y65171D01*
X107941Y64861D01*
X108171Y64551D01*
X108440Y64345D01*
X108708Y64241D01*
X108976D01*
X109245Y64345D01*
X109475Y64500D01*
X109666Y64706D01*
G01X110365Y64861D02*
X110595Y64500D01*
X110901Y64293D01*
X111246Y64241D01*
X111553Y64293D01*
X111860Y64551D01*
X112051Y64861D01*
X112090Y65171D01*
X112013Y65533D01*
X111745Y65791D01*
X111476Y65895D01*
X111131D01*
G01X111476D02*
X111706Y66050D01*
X111898Y66308D01*
X111975Y66618D01*
X111898Y66928D01*
X111706Y67186D01*
X111361Y67341D01*
X111016Y67290D01*
X110671Y67083D01*
G01X112865Y64706D02*
X113095Y64448D01*
X113363Y64293D01*
X113708Y64241D01*
X114053Y64345D01*
X114321Y64551D01*
X114513Y64913D01*
X114551Y65326D01*
X114475Y65740D01*
X114283Y65998D01*
X114015Y66204D01*
X113746Y66256D01*
X113478Y66204D01*
X113133Y65998D01*
X113248Y67341D01*
X114283D01*
G01X109143Y73892D02*
X108913Y74047D01*
X108645Y74150D01*
X108338D01*
X107993Y73995D01*
X107725Y73737D01*
X107533Y73427D01*
X107380Y72910D01*
X107342Y72445D01*
X107418Y71980D01*
X107533Y71670D01*
X107763Y71360D01*
X108032Y71153D01*
X108300Y71050D01*
X108568D01*
X108837Y71153D01*
X109067Y71308D01*
X109258Y71515D01*
G01X109957Y71670D02*
X110187Y71308D01*
X110493Y71102D01*
X110838Y71050D01*
X111145Y71102D01*
X111452Y71360D01*
X111643Y71670D01*
X111682Y71980D01*
X111605Y72342D01*
X111337Y72600D01*
X111068Y72703D01*
X110723D01*
G01X111068D02*
X111298Y72858D01*
X111490Y73117D01*
X111567Y73427D01*
X111490Y73737D01*
X111298Y73995D01*
X110953Y74150D01*
X110608Y74098D01*
X110263Y73892D01*
G01X113760Y71050D02*
Y74150D01*
X112342Y71928D01*
X114258D01*
G01X107941Y77628D02*
Y80728D01*
X108900D01*
X109206Y80573D01*
X109398Y80366D01*
X109475Y79953D01*
X109398Y79540D01*
X109168Y79281D01*
X108900Y79126D01*
X107941D01*
G01X108900D02*
X109475Y77628D01*
G01X110365Y78248D02*
X110595Y77886D01*
X110901Y77680D01*
X111246Y77628D01*
X111553Y77680D01*
X111860Y77938D01*
X112051Y78248D01*
X112090Y78558D01*
X112013Y78920D01*
X111745Y79178D01*
X111476Y79281D01*
X111131D01*
G01X111476D02*
X111706Y79436D01*
X111898Y79695D01*
X111975Y80005D01*
X111898Y80315D01*
X111706Y80573D01*
X111361Y80728D01*
X111016Y80676D01*
X110671Y80470D01*
G01X113708Y77628D02*
Y80728D01*
X113248Y80108D01*
G01Y77628D02*
X114168D01*
G01X110616Y42642D02*
Y45742D01*
X111574D01*
X111881Y45587D01*
X112073Y45380D01*
X112149Y44967D01*
X112073Y44553D01*
X111843Y44295D01*
X111574Y44140D01*
X110616D01*
G01X111574D02*
X112149Y42642D01*
G01X113039Y43262D02*
X113269Y42900D01*
X113576Y42693D01*
X113921Y42642D01*
X114228Y42693D01*
X114534Y42952D01*
X114726Y43262D01*
X114764Y43572D01*
X114688Y43933D01*
X114419Y44192D01*
X114151Y44295D01*
X113806D01*
G01X114151D02*
X114381Y44450D01*
X114573Y44708D01*
X114649Y45018D01*
X114573Y45328D01*
X114381Y45587D01*
X114036Y45742D01*
X113691Y45690D01*
X113346Y45483D01*
G01X115654Y43933D02*
X115923Y44295D01*
X116153Y44502D01*
X116459Y44605D01*
X116728Y44502D01*
X116919Y44295D01*
X117073Y43985D01*
X117111Y43623D01*
X117073Y43313D01*
X116919Y43003D01*
X116689Y42745D01*
X116421Y42642D01*
X116114Y42745D01*
X115846Y43055D01*
X115693Y43520D01*
X115654Y44037D01*
X115731Y44708D01*
X115846Y45070D01*
X116038Y45432D01*
X116306Y45690D01*
X116574Y45742D01*
X116843Y45638D01*
X117034Y45380D01*
G01X115479Y72826D02*
Y75926D01*
X116438D01*
X116744Y75771D01*
X116936Y75565D01*
X117013Y75151D01*
X116936Y74738D01*
X116706Y74480D01*
X116438Y74325D01*
X115479D01*
G01X116438D02*
X117013Y72826D01*
G01X119206D02*
Y75926D01*
X117788Y73705D01*
X119705D01*
G01X120518Y74118D02*
X120786Y74480D01*
X121016Y74686D01*
X121323Y74790D01*
X121591Y74686D01*
X121783Y74480D01*
X121936Y74170D01*
X121974Y73808D01*
X121936Y73498D01*
X121783Y73188D01*
X121553Y72930D01*
X121284Y72826D01*
X120978Y72930D01*
X120709Y73240D01*
X120556Y73705D01*
X120518Y74221D01*
X120594Y74893D01*
X120709Y75255D01*
X120901Y75616D01*
X121169Y75875D01*
X121438Y75926D01*
X121706Y75823D01*
X121898Y75565D01*
G01X108970Y131018D02*
Y128796D01*
X109123Y128331D01*
X109430Y128021D01*
X109813Y127918D01*
X110197Y128021D01*
X110503Y128331D01*
X110657Y128796D01*
Y131018D01*
G01X111470Y128383D02*
X111700Y128124D01*
X111968Y127969D01*
X112313Y127918D01*
X112658Y128021D01*
X112927Y128228D01*
X113118Y128589D01*
X113157Y129003D01*
X113080Y129416D01*
X112888Y129674D01*
X112620Y129881D01*
X112352Y129933D01*
X112083Y129881D01*
X111738Y129674D01*
X111853Y131018D01*
X112888D01*
G01X108268Y146961D02*
Y150061D01*
X109227D01*
X109533Y149906D01*
X109725Y149700D01*
X109802Y149286D01*
X109725Y148873D01*
X109495Y148615D01*
X109227Y148460D01*
X108268D01*
G01X109227D02*
X109802Y146961D01*
G01X110807Y149545D02*
X111037Y149855D01*
X111305Y150010D01*
X111612Y150061D01*
X111995Y149958D01*
X112263Y149700D01*
X112340Y149390D01*
X112302Y149080D01*
X112148Y148821D01*
X111382Y148305D01*
X111037Y147943D01*
X110807Y147426D01*
X110730Y146961D01*
X112340D01*
G01X113383Y147323D02*
X113652Y147065D01*
X113958Y146961D01*
X114265Y147065D01*
X114533Y147375D01*
X114725Y147840D01*
X114802Y148305D01*
Y148873D01*
X114725Y149338D01*
X114533Y149751D01*
X114303Y149958D01*
X114035Y150061D01*
X113728Y149958D01*
X113498Y149751D01*
X113345Y149441D01*
X113268Y149028D01*
X113345Y148666D01*
X113537Y148305D01*
X113767Y148098D01*
X114035Y148046D01*
X114342Y148150D01*
X114572Y148408D01*
X114802Y148873D01*
G01X116355Y159435D02*
Y162535D01*
X117313D01*
X117620Y162380D01*
X117811Y162173D01*
X117888Y161760D01*
X117811Y161346D01*
X117581Y161088D01*
X117313Y160933D01*
X116355D01*
G01X117313D02*
X117888Y159435D01*
G01X118893Y162018D02*
X119123Y162328D01*
X119391Y162483D01*
X119698Y162535D01*
X120081Y162431D01*
X120350Y162173D01*
X120426Y161863D01*
X120388Y161553D01*
X120235Y161295D01*
X119468Y160778D01*
X119123Y160416D01*
X118893Y159900D01*
X118816Y159435D01*
X120426D01*
G01X122121D02*
X122390Y159486D01*
X122696Y159641D01*
X122888Y159900D01*
X122965Y160261D01*
X122888Y160623D01*
X122658Y160933D01*
X122313Y161088D01*
X121930D01*
X121700Y161191D01*
X121508Y161450D01*
X121431Y161811D01*
X121546Y162173D01*
X121815Y162431D01*
X122121Y162535D01*
X122428Y162431D01*
X122696Y162173D01*
X122811Y161811D01*
X122735Y161450D01*
X122543Y161191D01*
X122313Y161088D01*
X121930D01*
X121585Y160933D01*
X121355Y160623D01*
X121278Y160261D01*
X121355Y159900D01*
X121546Y159641D01*
X121853Y159486D01*
X122121Y159435D01*
G01X122104Y45258D02*
X121874Y45413D01*
X121606Y45517D01*
X121299D01*
X120954Y45361D01*
X120686Y45103D01*
X120494Y44793D01*
X120341Y44276D01*
X120303Y43812D01*
X120379Y43346D01*
X120494Y43036D01*
X120724Y42726D01*
X120993Y42520D01*
X121261Y42416D01*
X121529D01*
X121798Y42520D01*
X122028Y42675D01*
X122219Y42881D01*
G01X122918D02*
X123148Y42623D01*
X123416Y42468D01*
X123761Y42416D01*
X124106Y42520D01*
X124374Y42726D01*
X124566Y43088D01*
X124604Y43502D01*
X124528Y43915D01*
X124336Y44173D01*
X124068Y44380D01*
X123799Y44431D01*
X123531Y44380D01*
X123186Y44173D01*
X123301Y45517D01*
X124336D01*
G01X125418Y43036D02*
X125648Y42675D01*
X125954Y42468D01*
X126299Y42416D01*
X126606Y42468D01*
X126913Y42726D01*
X127104Y43036D01*
X127143Y43346D01*
X127066Y43708D01*
X126798Y43966D01*
X126529Y44070D01*
X126184D01*
G01X126529D02*
X126759Y44225D01*
X126951Y44483D01*
X127028Y44793D01*
X126951Y45103D01*
X126759Y45361D01*
X126414Y45517D01*
X126069Y45465D01*
X125724Y45258D01*
G01X121994Y57895D02*
X121687Y57947D01*
X121419Y58154D01*
X121189Y58464D01*
X121036Y58825D01*
X120959Y59239D01*
Y59652D01*
X121036Y60065D01*
X121189Y60427D01*
X121419Y60737D01*
X121687Y60944D01*
X121994Y60995D01*
X122301Y60944D01*
X122569Y60737D01*
X122799Y60427D01*
X122953Y60065D01*
X123029Y59652D01*
Y59239D01*
X122953Y58825D01*
X122799Y58464D01*
X122569Y58154D01*
X122301Y57947D01*
X121994Y57895D01*
G01X122301Y58722D02*
X122761Y57895D01*
G01X123766Y60479D02*
X123996Y60789D01*
X124264Y60944D01*
X124571Y60995D01*
X124954Y60892D01*
X125222Y60634D01*
X125299Y60324D01*
X125261Y60014D01*
X125107Y59755D01*
X124341Y59239D01*
X123996Y58877D01*
X123766Y58360D01*
X123689Y57895D01*
X125299D01*
G01X122363Y86668D02*
Y89768D01*
X123322D01*
X123628Y89613D01*
X123820Y89407D01*
X123897Y88993D01*
X123820Y88580D01*
X123590Y88322D01*
X123322Y88167D01*
X122363D01*
G01X123322D02*
X123897Y86668D01*
G01X125630D02*
Y89768D01*
X125170Y89149D01*
G01Y86668D02*
X126090D01*
G01X122097Y92889D02*
Y95989D01*
X123056D01*
X123362Y95834D01*
X123554Y95628D01*
X123631Y95214D01*
X123554Y94801D01*
X123324Y94543D01*
X123056Y94388D01*
X122097D01*
G01X123056D02*
X123631Y92889D01*
G01X124521Y93509D02*
X124751Y93148D01*
X125058Y92941D01*
X125403Y92889D01*
X125709Y92941D01*
X126016Y93199D01*
X126208Y93509D01*
X126246Y93819D01*
X126169Y94181D01*
X125901Y94439D01*
X125633Y94543D01*
X125288D01*
G01X125633D02*
X125863Y94698D01*
X126054Y94956D01*
X126131Y95266D01*
X126054Y95576D01*
X125863Y95834D01*
X125518Y95989D01*
X125172Y95938D01*
X124828Y95731D01*
G01X124486Y159435D02*
Y162535D01*
X125444D01*
X125751Y162380D01*
X125943Y162173D01*
X126020Y161760D01*
X125943Y161346D01*
X125713Y161088D01*
X125444Y160933D01*
X124486D01*
G01X125444D02*
X126020Y159435D01*
G01X128213D02*
Y162535D01*
X126794Y160313D01*
X128711D01*
G01X129524Y162018D02*
X129755Y162328D01*
X130023Y162483D01*
X130330Y162535D01*
X130713Y162431D01*
X130981Y162173D01*
X131058Y161863D01*
X131020Y161553D01*
X130866Y161295D01*
X130099Y160778D01*
X129755Y160416D01*
X129524Y159900D01*
X129448Y159435D01*
X131058D01*
G01X128736Y42171D02*
Y45271D01*
X129695D01*
X130001Y45116D01*
X130193Y44910D01*
X130270Y44496D01*
X130193Y44083D01*
X129963Y43825D01*
X129695Y43670D01*
X128736D01*
G01X129695D02*
X130270Y42171D01*
G01X131160Y42791D02*
X131390Y42430D01*
X131696Y42223D01*
X132042Y42171D01*
X132348Y42223D01*
X132655Y42481D01*
X132846Y42791D01*
X132885Y43101D01*
X132808Y43463D01*
X132540Y43721D01*
X132271Y43825D01*
X131926D01*
G01X132271D02*
X132501Y43980D01*
X132693Y44238D01*
X132770Y44548D01*
X132693Y44858D01*
X132501Y45116D01*
X132156Y45271D01*
X131811Y45220D01*
X131466Y45013D01*
G01X134426Y42171D02*
X134503Y42843D01*
X134618Y43411D01*
X134771Y43928D01*
X134963Y44496D01*
X135270Y45271D01*
X133736D01*
G01X131530Y77599D02*
X131223Y77650D01*
X130955Y77857D01*
X130725Y78167D01*
X130572Y78529D01*
X130495Y78942D01*
Y79356D01*
X130572Y79769D01*
X130725Y80130D01*
X130955Y80440D01*
X131223Y80647D01*
X131530Y80699D01*
X131836Y80647D01*
X132105Y80440D01*
X132335Y80130D01*
X132488Y79769D01*
X132565Y79356D01*
Y78942D01*
X132488Y78529D01*
X132335Y78167D01*
X132105Y77857D01*
X131836Y77650D01*
X131530Y77599D01*
G01X131836Y78426D02*
X132297Y77599D01*
G01X134030D02*
Y80699D01*
X133570Y80079D01*
G01Y77599D02*
X134490D01*
G01X131335Y120705D02*
X131105Y120860D01*
X130837Y120963D01*
X130531D01*
X130185Y120808D01*
X129917Y120550D01*
X129725Y120240D01*
X129572Y119723D01*
X129534Y119258D01*
X129610Y118793D01*
X129725Y118483D01*
X129955Y118173D01*
X130224Y117966D01*
X130492Y117863D01*
X130760D01*
X131029Y117966D01*
X131259Y118121D01*
X131450Y118328D01*
G01X132149Y118483D02*
X132379Y118121D01*
X132685Y117915D01*
X133030Y117863D01*
X133337Y117915D01*
X133644Y118173D01*
X133835Y118483D01*
X133874Y118793D01*
X133797Y119155D01*
X133529Y119413D01*
X133260Y119516D01*
X132915D01*
G01X133260D02*
X133490Y119671D01*
X133682Y119930D01*
X133759Y120240D01*
X133682Y120550D01*
X133490Y120808D01*
X133145Y120963D01*
X132800Y120911D01*
X132455Y120705D01*
G01X135492Y117863D02*
Y120963D01*
X135032Y120343D01*
G01Y117863D02*
X135952D01*
G01X131080Y145236D02*
X130850Y145391D01*
X130582Y145494D01*
X130275D01*
X129930Y145339D01*
X129662Y145081D01*
X129470Y144771D01*
X129317Y144255D01*
X129278Y143790D01*
X129355Y143324D01*
X129470Y143014D01*
X129700Y142704D01*
X129968Y142498D01*
X130237Y142394D01*
X130505D01*
X130773Y142498D01*
X131003Y142653D01*
X131195Y142859D01*
G01X131893Y143014D02*
X132123Y142653D01*
X132430Y142446D01*
X132775Y142394D01*
X133082Y142446D01*
X133388Y142704D01*
X133580Y143014D01*
X133618Y143324D01*
X133542Y143686D01*
X133273Y143944D01*
X133005Y144048D01*
X132660D01*
G01X133005D02*
X133235Y144203D01*
X133427Y144461D01*
X133503Y144771D01*
X133427Y145081D01*
X133235Y145339D01*
X132890Y145494D01*
X132545Y145443D01*
X132200Y145236D01*
G01X134508Y144978D02*
X134738Y145288D01*
X135007Y145443D01*
X135313Y145494D01*
X135697Y145391D01*
X135965Y145133D01*
X136042Y144823D01*
X136003Y144513D01*
X135850Y144255D01*
X135083Y143738D01*
X134738Y143376D01*
X134508Y142859D01*
X134432Y142394D01*
X136042D01*
G01X132757Y159435D02*
Y162535D01*
X133716D01*
X134022Y162380D01*
X134214Y162173D01*
X134291Y161760D01*
X134214Y161346D01*
X133984Y161088D01*
X133716Y160933D01*
X132757D01*
G01X133716D02*
X134291Y159435D01*
G01X136484D02*
Y162535D01*
X135066Y160313D01*
X136982D01*
G01X137681Y160055D02*
X137911Y159693D01*
X138217Y159486D01*
X138562Y159435D01*
X138869Y159486D01*
X139176Y159744D01*
X139367Y160055D01*
X139406Y160365D01*
X139329Y160726D01*
X139061Y160985D01*
X138792Y161088D01*
X138447D01*
G01X138792D02*
X139022Y161243D01*
X139214Y161501D01*
X139291Y161811D01*
X139214Y162121D01*
X139022Y162380D01*
X138677Y162535D01*
X138332Y162483D01*
X137987Y162276D01*
G01X139509Y45258D02*
X139279Y45413D01*
X139011Y45517D01*
X138704D01*
X138359Y45361D01*
X138091Y45103D01*
X137899Y44793D01*
X137746Y44276D01*
X137708Y43812D01*
X137784Y43346D01*
X137899Y43036D01*
X138129Y42726D01*
X138398Y42520D01*
X138666Y42416D01*
X138934D01*
X139203Y42520D01*
X139433Y42675D01*
X139624Y42881D01*
G01X140323D02*
X140553Y42623D01*
X140821Y42468D01*
X141166Y42416D01*
X141511Y42520D01*
X141779Y42726D01*
X141971Y43088D01*
X142009Y43502D01*
X141933Y43915D01*
X141741Y44173D01*
X141473Y44380D01*
X141204Y44431D01*
X140936Y44380D01*
X140591Y44173D01*
X140706Y45517D01*
X141741D01*
G01X144126Y42416D02*
Y45517D01*
X142708Y43295D01*
X144624D01*
G01X138209Y56489D02*
X137979Y56644D01*
X137710Y56748D01*
X137404D01*
X137059Y56592D01*
X136790Y56334D01*
X136599Y56024D01*
X136445Y55508D01*
X136407Y55043D01*
X136484Y54578D01*
X136599Y54268D01*
X136829Y53958D01*
X137097Y53751D01*
X137365Y53648D01*
X137634D01*
X137902Y53751D01*
X138132Y53906D01*
X138324Y54112D01*
G01X139022D02*
X139252Y53854D01*
X139520Y53699D01*
X139865Y53648D01*
X140210Y53751D01*
X140479Y53958D01*
X140670Y54319D01*
X140709Y54733D01*
X140632Y55146D01*
X140440Y55404D01*
X140172Y55611D01*
X139904Y55663D01*
X139635Y55611D01*
X139290Y55404D01*
X139405Y56748D01*
X140440D01*
G01X142365Y53648D02*
Y56748D01*
X141905Y56128D01*
G01Y53648D02*
X142825D01*
G01X136599Y60331D02*
Y63431D01*
X137557D01*
X137864Y63276D01*
X138055Y63069D01*
X138132Y62656D01*
X138055Y62243D01*
X137825Y61985D01*
X137557Y61829D01*
X136599D01*
G01X137557D02*
X138132Y60331D01*
G01X139022Y60951D02*
X139252Y60589D01*
X139559Y60383D01*
X139904Y60331D01*
X140210Y60383D01*
X140517Y60641D01*
X140709Y60951D01*
X140747Y61261D01*
X140670Y61623D01*
X140402Y61881D01*
X140134Y61985D01*
X139789D01*
G01X140134D02*
X140364Y62139D01*
X140555Y62398D01*
X140632Y62708D01*
X140555Y63018D01*
X140364Y63276D01*
X140019Y63431D01*
X139674Y63379D01*
X139329Y63173D01*
G01X141714Y60693D02*
X141982Y60434D01*
X142289Y60331D01*
X142595Y60434D01*
X142864Y60744D01*
X143055Y61209D01*
X143132Y61674D01*
Y62243D01*
X143055Y62708D01*
X142864Y63121D01*
X142634Y63328D01*
X142365Y63431D01*
X142059Y63328D01*
X141829Y63121D01*
X141675Y62811D01*
X141599Y62398D01*
X141675Y62036D01*
X141867Y61674D01*
X142097Y61468D01*
X142365Y61416D01*
X142672Y61519D01*
X142902Y61778D01*
X143132Y62243D01*
G01X139297Y120705D02*
X139067Y120860D01*
X138798Y120963D01*
X138492D01*
X138147Y120808D01*
X137879Y120550D01*
X137687Y120240D01*
X137534Y119723D01*
X137495Y119258D01*
X137572Y118793D01*
X137687Y118483D01*
X137917Y118173D01*
X138185Y117966D01*
X138454Y117863D01*
X138722D01*
X138990Y117966D01*
X139220Y118121D01*
X139412Y118328D01*
G01X140954Y117863D02*
Y120963D01*
X140494Y120343D01*
G01Y117863D02*
X141413D01*
G01X142610Y118483D02*
X142840Y118121D01*
X143147Y117915D01*
X143492Y117863D01*
X143798Y117915D01*
X144105Y118173D01*
X144297Y118483D01*
X144335Y118793D01*
X144258Y119155D01*
X143990Y119413D01*
X143722Y119516D01*
X143377D01*
G01X143722D02*
X143952Y119671D01*
X144144Y119930D01*
X144220Y120240D01*
X144144Y120550D01*
X143952Y120808D01*
X143607Y120963D01*
X143262Y120911D01*
X142917Y120705D01*
G01X139371Y145403D02*
X139141Y145558D01*
X138873Y145661D01*
X138566D01*
X138221Y145506D01*
X137953Y145248D01*
X137761Y144938D01*
X137608Y144421D01*
X137569Y143956D01*
X137646Y143491D01*
X137761Y143181D01*
X137991Y142871D01*
X138259Y142665D01*
X138528Y142561D01*
X138796D01*
X139064Y142665D01*
X139294Y142820D01*
X139486Y143026D01*
G01X140184D02*
X140414Y142768D01*
X140683Y142613D01*
X141028Y142561D01*
X141373Y142665D01*
X141641Y142871D01*
X141833Y143233D01*
X141871Y143646D01*
X141794Y144060D01*
X141603Y144318D01*
X141334Y144525D01*
X141066Y144576D01*
X140798Y144525D01*
X140453Y144318D01*
X140568Y145661D01*
X141603D01*
G01X143528Y142561D02*
X143796Y142613D01*
X144103Y142768D01*
X144294Y143026D01*
X144371Y143388D01*
X144294Y143750D01*
X144064Y144060D01*
X143719Y144215D01*
X143336D01*
X143106Y144318D01*
X142914Y144576D01*
X142838Y144938D01*
X142953Y145300D01*
X143221Y145558D01*
X143528Y145661D01*
X143834Y145558D01*
X144103Y145300D01*
X144218Y144938D01*
X144141Y144576D01*
X143949Y144318D01*
X143719Y144215D01*
X143336D01*
X142991Y144060D01*
X142761Y143750D01*
X142684Y143388D01*
X142761Y143026D01*
X142953Y142768D01*
X143259Y142613D01*
X143528Y142561D01*
G01X140627Y159435D02*
Y162535D01*
X141585D01*
X141892Y162380D01*
X142083Y162173D01*
X142160Y161760D01*
X142083Y161346D01*
X141853Y161088D01*
X141585Y160933D01*
X140627D01*
G01X141585D02*
X142160Y159435D01*
G01X144353D02*
Y162535D01*
X142935Y160313D01*
X144852D01*
G01X146393Y162535D02*
X146087Y162431D01*
X145857Y162173D01*
X145703Y161863D01*
X145588Y161450D01*
X145550Y160985D01*
X145588Y160520D01*
X145703Y160106D01*
X145857Y159796D01*
X146087Y159538D01*
X146393Y159435D01*
X146700Y159538D01*
X146930Y159796D01*
X147083Y160106D01*
X147198Y160520D01*
X147237Y160985D01*
X147198Y161450D01*
X147083Y161863D01*
X146930Y162173D01*
X146700Y162431D01*
X146393Y162535D01*
G01X140604Y216148D02*
Y213927D01*
X140758Y213462D01*
X141064Y213152D01*
X141448Y213048D01*
X141831Y213152D01*
X142138Y213462D01*
X142291Y213927D01*
Y216148D01*
G01X143871Y213048D02*
X143948Y213720D01*
X144063Y214288D01*
X144216Y214805D01*
X144408Y215373D01*
X144714Y216148D01*
X143181D01*
G01X144877Y17554D02*
Y20654D01*
G01X146487D02*
Y17554D01*
G01Y19104D02*
X144877D01*
G01X147530Y17916D02*
X147798Y17658D01*
X148105Y17554D01*
X148412Y17658D01*
X148680Y17968D01*
X148872Y18433D01*
X148949Y18898D01*
Y19466D01*
X148872Y19931D01*
X148680Y20344D01*
X148450Y20551D01*
X148182Y20654D01*
X147875Y20551D01*
X147645Y20344D01*
X147492Y20034D01*
X147415Y19621D01*
X147492Y19259D01*
X147684Y18898D01*
X147914Y18691D01*
X148182Y18639D01*
X148488Y18743D01*
X148719Y19001D01*
X148949Y19466D01*
G01X146602Y42416D02*
Y45517D01*
X147560D01*
X147867Y45361D01*
X148058Y45155D01*
X148135Y44742D01*
X148058Y44328D01*
X147828Y44070D01*
X147560Y43915D01*
X146602D01*
G01X147560D02*
X148135Y42416D01*
G01X149025Y43036D02*
X149255Y42675D01*
X149562Y42468D01*
X149907Y42416D01*
X150214Y42468D01*
X150520Y42726D01*
X150712Y43036D01*
X150750Y43346D01*
X150674Y43708D01*
X150405Y43966D01*
X150137Y44070D01*
X149792D01*
G01X150137D02*
X150367Y44225D01*
X150559Y44483D01*
X150635Y44793D01*
X150559Y45103D01*
X150367Y45361D01*
X150022Y45517D01*
X149677Y45465D01*
X149332Y45258D01*
G01X152368Y42416D02*
X152637Y42468D01*
X152944Y42623D01*
X153135Y42881D01*
X153212Y43243D01*
X153135Y43605D01*
X152905Y43915D01*
X152560Y44070D01*
X152177D01*
X151947Y44173D01*
X151755Y44431D01*
X151678Y44793D01*
X151794Y45155D01*
X152062Y45413D01*
X152368Y45517D01*
X152675Y45413D01*
X152944Y45155D01*
X153058Y44793D01*
X152982Y44431D01*
X152790Y44173D01*
X152560Y44070D01*
X152177D01*
X151832Y43915D01*
X151602Y43605D01*
X151525Y43243D01*
X151602Y42881D01*
X151794Y42623D01*
X152100Y42468D01*
X152368Y42416D01*
G01X187965Y17554D02*
Y20654D01*
G01X189575D02*
Y17554D01*
G01Y19104D02*
X187965D01*
G01X191270Y17554D02*
Y20654D01*
X190810Y20034D01*
G01Y17554D02*
X191730D01*
G01X193770Y20654D02*
X193463Y20551D01*
X193233Y20293D01*
X193080Y19983D01*
X192965Y19569D01*
X192926Y19104D01*
X192965Y18639D01*
X193080Y18226D01*
X193233Y17916D01*
X193463Y17658D01*
X193770Y17554D01*
X194076Y17658D01*
X194306Y17916D01*
X194460Y18226D01*
X194575Y18639D01*
X194613Y19104D01*
X194575Y19569D01*
X194460Y19983D01*
X194306Y20293D01*
X194076Y20551D01*
X193770Y20654D01*
G01X185783Y160950D02*
Y158728D01*
X185936Y158263D01*
X186243Y157953D01*
X186626Y157850D01*
X187010Y157953D01*
X187316Y158263D01*
X187470Y158728D01*
Y160950D01*
G01X189126Y157850D02*
X189395Y157901D01*
X189701Y158056D01*
X189893Y158314D01*
X189970Y158676D01*
X189893Y159038D01*
X189663Y159348D01*
X189318Y159503D01*
X188935D01*
X188705Y159606D01*
X188513Y159864D01*
X188436Y160226D01*
X188551Y160588D01*
X188820Y160846D01*
X189126Y160950D01*
X189433Y160846D01*
X189701Y160588D01*
X189816Y160226D01*
X189740Y159864D01*
X189548Y159606D01*
X189318Y159503D01*
X188935D01*
X188590Y159348D01*
X188360Y159038D01*
X188283Y158676D01*
X188360Y158314D01*
X188551Y158056D01*
X188858Y157901D01*
X189126Y157850D01*
G01X197739Y93716D02*
Y91494D01*
X197893Y91029D01*
X198199Y90719D01*
X198583Y90616D01*
X198966Y90719D01*
X199273Y91029D01*
X199426Y91494D01*
Y93716D01*
G01X200239Y91236D02*
X200469Y90874D01*
X200776Y90668D01*
X201121Y90616D01*
X201428Y90668D01*
X201734Y90926D01*
X201926Y91236D01*
X201964Y91546D01*
X201888Y91908D01*
X201619Y92166D01*
X201351Y92270D01*
X201006D01*
G01X201351D02*
X201581Y92424D01*
X201773Y92683D01*
X201849Y92993D01*
X201773Y93303D01*
X201581Y93561D01*
X201236Y93716D01*
X200891Y93664D01*
X200546Y93458D01*
G01X219715Y43651D02*
X219485Y43806D01*
X219217Y43909D01*
X218910D01*
X218565Y43754D01*
X218297Y43496D01*
X218105Y43186D01*
X217952Y42669D01*
X217914Y42204D01*
X217990Y41739D01*
X218105Y41429D01*
X218335Y41119D01*
X218604Y40912D01*
X218872Y40809D01*
X219140D01*
X219409Y40912D01*
X219639Y41067D01*
X219830Y41274D01*
G01X221372Y40809D02*
Y43909D01*
X220912Y43289D01*
G01Y40809D02*
X221832D01*
G01X224332D02*
Y43909D01*
X222914Y41687D01*
X224830D01*
G01X225392Y31950D02*
X226350Y35050D01*
X227308Y31950D01*
G01X226963Y33035D02*
X225737D01*
G01X246657Y33603D02*
X246810Y33758D01*
X246925Y34017D01*
X247002Y34378D01*
X246925Y34688D01*
X246772Y34895D01*
X246503Y35050D01*
X245468D01*
Y31950D01*
X246733D01*
X247002Y32157D01*
X247155Y32467D01*
X247232Y32828D01*
X247155Y33190D01*
X246925Y33500D01*
X246657Y33603D01*
X245468D01*
G01X262892Y35050D02*
X263850Y31950D01*
X264808Y35050D01*
G01X231054Y43651D02*
X230824Y43806D01*
X230556Y43909D01*
X230249D01*
X229904Y43754D01*
X229636Y43496D01*
X229444Y43186D01*
X229291Y42669D01*
X229252Y42204D01*
X229329Y41739D01*
X229444Y41429D01*
X229674Y41119D01*
X229942Y40912D01*
X230211Y40809D01*
X230479D01*
X230747Y40912D01*
X230977Y41067D01*
X231169Y41274D01*
G01X231982Y43392D02*
X232212Y43702D01*
X232481Y43857D01*
X232787Y43909D01*
X233171Y43806D01*
X233439Y43547D01*
X233516Y43238D01*
X233477Y42927D01*
X233324Y42669D01*
X232557Y42152D01*
X232212Y41791D01*
X231982Y41274D01*
X231906Y40809D01*
X233516D01*
G01X234482Y42101D02*
X234751Y42462D01*
X234981Y42669D01*
X235287Y42772D01*
X235556Y42669D01*
X235747Y42462D01*
X235901Y42152D01*
X235939Y41791D01*
X235901Y41481D01*
X235747Y41171D01*
X235517Y40912D01*
X235249Y40809D01*
X234942Y40912D01*
X234674Y41222D01*
X234521Y41687D01*
X234482Y42204D01*
X234559Y42876D01*
X234674Y43238D01*
X234866Y43599D01*
X235134Y43857D01*
X235402Y43909D01*
X235671Y43806D01*
X235862Y43547D01*
G01X243260Y17554D02*
Y20654D01*
G01X244870D02*
Y17554D01*
G01Y19104D02*
X243260D01*
G01X247025Y17554D02*
Y20654D01*
X245607Y18433D01*
X247523D01*
G01X242392Y43651D02*
X242162Y43806D01*
X241894Y43909D01*
X241588D01*
X241243Y43754D01*
X240974Y43496D01*
X240782Y43186D01*
X240629Y42669D01*
X240591Y42204D01*
X240668Y41739D01*
X240782Y41429D01*
X241012Y41119D01*
X241281Y40912D01*
X241549Y40809D01*
X241818D01*
X242086Y40912D01*
X242316Y41067D01*
X242508Y41274D01*
G01X243321Y43392D02*
X243551Y43702D01*
X243819Y43857D01*
X244126Y43909D01*
X244509Y43806D01*
X244778Y43547D01*
X244854Y43238D01*
X244816Y42927D01*
X244662Y42669D01*
X243896Y42152D01*
X243551Y41791D01*
X243321Y41274D01*
X243244Y40809D01*
X244854D01*
G01X246472D02*
X246549Y41481D01*
X246664Y42049D01*
X246818Y42566D01*
X247009Y43134D01*
X247316Y43909D01*
X245782D01*
G01X253732Y43651D02*
X253502Y43806D01*
X253233Y43909D01*
X252927D01*
X252582Y43754D01*
X252313Y43496D01*
X252122Y43186D01*
X251968Y42669D01*
X251930Y42204D01*
X252007Y41739D01*
X252122Y41429D01*
X252351Y41119D01*
X252620Y40912D01*
X252888Y40809D01*
X253156D01*
X253425Y40912D01*
X253655Y41067D01*
X253847Y41274D01*
G01X254660Y43392D02*
X254890Y43702D01*
X255158Y43857D01*
X255465Y43909D01*
X255848Y43806D01*
X256117Y43547D01*
X256193Y43238D01*
X256155Y42927D01*
X256002Y42669D01*
X255235Y42152D01*
X254890Y41791D01*
X254660Y41274D01*
X254583Y40809D01*
X256193D01*
G01X257888D02*
X258156Y40861D01*
X258463Y41016D01*
X258655Y41274D01*
X258732Y41636D01*
X258655Y41997D01*
X258425Y42307D01*
X258080Y42462D01*
X257697D01*
X257466Y42566D01*
X257275Y42824D01*
X257198Y43186D01*
X257313Y43547D01*
X257582Y43806D01*
X257888Y43909D01*
X258195Y43806D01*
X258463Y43547D01*
X258578Y43186D01*
X258501Y42824D01*
X258310Y42566D01*
X258080Y42462D01*
X257697D01*
X257352Y42307D01*
X257122Y41997D01*
X257045Y41636D01*
X257122Y41274D01*
X257313Y41016D01*
X257620Y40861D01*
X257888Y40809D01*
G01X252108Y110322D02*
Y113422D01*
X253066D01*
X253373Y113267D01*
X253565Y113061D01*
X253642Y112647D01*
X253565Y112234D01*
X253335Y111976D01*
X253066Y111821D01*
X252108D01*
G01X253066D02*
X253642Y110322D01*
G01X255375D02*
Y113422D01*
X254915Y112802D01*
G01Y110322D02*
X255835D01*
G01X257032Y110787D02*
X257261Y110529D01*
X257530Y110374D01*
X257875Y110322D01*
X258220Y110426D01*
X258488Y110632D01*
X258680Y110994D01*
X258718Y111407D01*
X258642Y111821D01*
X258450Y112079D01*
X258181Y112286D01*
X257913Y112337D01*
X257645Y112286D01*
X257300Y112079D01*
X257415Y113422D01*
X258450D01*
G01X265070Y43651D02*
X264840Y43806D01*
X264572Y43909D01*
X264265D01*
X263920Y43754D01*
X263652Y43496D01*
X263460Y43186D01*
X263307Y42669D01*
X263268Y42204D01*
X263345Y41739D01*
X263460Y41429D01*
X263690Y41119D01*
X263959Y40912D01*
X264227Y40809D01*
X264495D01*
X264764Y40912D01*
X264994Y41067D01*
X265185Y41274D01*
G01X265998Y43392D02*
X266228Y43702D01*
X266497Y43857D01*
X266804Y43909D01*
X267187Y43806D01*
X267455Y43547D01*
X267532Y43238D01*
X267494Y42927D01*
X267340Y42669D01*
X266574Y42152D01*
X266228Y41791D01*
X265998Y41274D01*
X265922Y40809D01*
X267532D01*
G01X268575Y41171D02*
X268843Y40912D01*
X269150Y40809D01*
X269457Y40912D01*
X269725Y41222D01*
X269917Y41687D01*
X269994Y42152D01*
Y42721D01*
X269917Y43186D01*
X269725Y43599D01*
X269495Y43806D01*
X269227Y43909D01*
X268920Y43806D01*
X268690Y43599D01*
X268537Y43289D01*
X268460Y42876D01*
X268537Y42514D01*
X268728Y42152D01*
X268958Y41946D01*
X269227Y41894D01*
X269533Y41997D01*
X269764Y42256D01*
X269994Y42721D01*
G01X263472Y125388D02*
X263242Y125544D01*
X262974Y125647D01*
X262667D01*
X262322Y125492D01*
X262054Y125234D01*
X261862Y124923D01*
X261709Y124407D01*
X261670Y123942D01*
X261747Y123477D01*
X261862Y123167D01*
X262092Y122857D01*
X262360Y122650D01*
X262629Y122547D01*
X262897D01*
X263165Y122650D01*
X263395Y122805D01*
X263587Y123012D01*
G01X265129Y122547D02*
Y125647D01*
X264669Y125027D01*
G01Y122547D02*
X265589D01*
G01X266900Y123838D02*
X267169Y124200D01*
X267399Y124407D01*
X267705Y124510D01*
X267974Y124407D01*
X268165Y124200D01*
X268319Y123890D01*
X268357Y123529D01*
X268319Y123218D01*
X268165Y122908D01*
X267935Y122650D01*
X267667Y122547D01*
X267360Y122650D01*
X267092Y122960D01*
X266939Y123425D01*
X266900Y123942D01*
X266977Y124614D01*
X267092Y124975D01*
X267284Y125337D01*
X267552Y125595D01*
X267820Y125647D01*
X268089Y125544D01*
X268280Y125285D01*
G01X262077Y172647D02*
X261847Y172802D01*
X261579Y172906D01*
X261272D01*
X260927Y172750D01*
X260659Y172492D01*
X260467Y172182D01*
X260314Y171666D01*
X260276Y171201D01*
X260352Y170736D01*
X260467Y170426D01*
X260697Y170116D01*
X260966Y169909D01*
X261234Y169806D01*
X261502D01*
X261771Y169909D01*
X262001Y170064D01*
X262192Y170270D01*
G01X263657Y169806D02*
X263734Y170477D01*
X263849Y171046D01*
X264002Y171562D01*
X264194Y172131D01*
X264501Y172906D01*
X262967D01*
G01X265582Y170167D02*
X265851Y169909D01*
X266157Y169806D01*
X266464Y169909D01*
X266732Y170219D01*
X266924Y170684D01*
X267001Y171149D01*
Y171717D01*
X266924Y172182D01*
X266732Y172596D01*
X266502Y172802D01*
X266234Y172906D01*
X265927Y172802D01*
X265697Y172596D01*
X265544Y172286D01*
X265467Y171872D01*
X265544Y171511D01*
X265736Y171149D01*
X265966Y170942D01*
X266234Y170891D01*
X266541Y170994D01*
X266771Y171252D01*
X267001Y171717D01*
G01X272301Y92898D02*
X272071Y93053D01*
X271803Y93157D01*
X271496D01*
X271151Y93002D01*
X270882Y92743D01*
X270691Y92433D01*
X270538Y91917D01*
X270499Y91452D01*
X270576Y90987D01*
X270691Y90677D01*
X270921Y90367D01*
X271189Y90160D01*
X271458Y90057D01*
X271726D01*
X271994Y90160D01*
X272224Y90315D01*
X272416Y90522D01*
G01X273958Y90057D02*
Y93157D01*
X273498Y92537D01*
G01Y90057D02*
X274417D01*
G01X275614Y90522D02*
X275844Y90263D01*
X276112Y90108D01*
X276458Y90057D01*
X276802Y90160D01*
X277071Y90367D01*
X277262Y90728D01*
X277301Y91142D01*
X277224Y91555D01*
X277032Y91813D01*
X276764Y92020D01*
X276496Y92072D01*
X276228Y92020D01*
X275882Y91813D01*
X275998Y93157D01*
X277032D01*
G01X267334Y104220D02*
X267027Y104272D01*
X266758Y104478D01*
X266528Y104788D01*
X266375Y105150D01*
X266299Y105563D01*
Y105977D01*
X266375Y106390D01*
X266528Y106752D01*
X266758Y107062D01*
X267027Y107268D01*
X267334Y107320D01*
X267640Y107268D01*
X267908Y107062D01*
X268138Y106752D01*
X268292Y106390D01*
X268368Y105977D01*
Y105563D01*
X268292Y105150D01*
X268138Y104788D01*
X267908Y104478D01*
X267640Y104272D01*
X267334Y104220D01*
G01X269834D02*
Y107320D01*
X269374Y106700D01*
G01Y104220D02*
X270293D01*
G01X270877Y174180D02*
Y171958D01*
X271030Y171493D01*
X271337Y171183D01*
X271720Y171080D01*
X272103Y171183D01*
X272410Y171493D01*
X272563Y171958D01*
Y174180D01*
G01X274220Y171080D02*
Y174180D01*
X273760Y173560D01*
G01Y171080D02*
X274680D01*
G01X275992Y172371D02*
X276260Y172733D01*
X276490Y172940D01*
X276797Y173043D01*
X277065Y172940D01*
X277257Y172733D01*
X277410Y172423D01*
X277448Y172061D01*
X277410Y171751D01*
X277257Y171441D01*
X277027Y171183D01*
X276758Y171080D01*
X276452Y171183D01*
X276183Y171493D01*
X276030Y171958D01*
X275992Y172475D01*
X276068Y173146D01*
X276183Y173508D01*
X276375Y173870D01*
X276643Y174128D01*
X276912Y174180D01*
X277180Y174076D01*
X277372Y173818D01*
G01X273833Y37550D02*
Y40650D01*
X274792D01*
X275098Y40495D01*
X275290Y40288D01*
X275367Y39875D01*
X275290Y39462D01*
X275060Y39203D01*
X274792Y39048D01*
X273833D01*
G01X274792D02*
X275367Y37550D01*
G01X276257Y38170D02*
X276487Y37808D01*
X276793Y37602D01*
X277138Y37550D01*
X277445Y37602D01*
X277752Y37860D01*
X277943Y38170D01*
X277982Y38480D01*
X277905Y38842D01*
X277637Y39100D01*
X277368Y39203D01*
X277023D01*
G01X277368D02*
X277598Y39358D01*
X277790Y39617D01*
X277867Y39927D01*
X277790Y40237D01*
X277598Y40495D01*
X277253Y40650D01*
X276908Y40598D01*
X276563Y40392D01*
G01X280060Y37550D02*
Y40650D01*
X278642Y38428D01*
X280558D01*
G01X280743Y136192D02*
X280513Y136347D01*
X280245Y136450D01*
X279938D01*
X279593Y136295D01*
X279325Y136037D01*
X279133Y135727D01*
X278980Y135210D01*
X278942Y134745D01*
X279018Y134280D01*
X279133Y133970D01*
X279363Y133660D01*
X279632Y133453D01*
X279900Y133350D01*
X280168D01*
X280437Y133453D01*
X280667Y133608D01*
X280858Y133815D01*
G01X282323Y133350D02*
X282400Y134022D01*
X282515Y134590D01*
X282668Y135107D01*
X282860Y135675D01*
X283167Y136450D01*
X281633D01*
G01X284823Y133350D02*
X284900Y134022D01*
X285015Y134590D01*
X285168Y135107D01*
X285360Y135675D01*
X285667Y136450D01*
X284133D01*
G01X280343Y144592D02*
X280113Y144747D01*
X279845Y144850D01*
X279538D01*
X279193Y144695D01*
X278925Y144437D01*
X278733Y144127D01*
X278580Y143610D01*
X278542Y143145D01*
X278618Y142680D01*
X278733Y142370D01*
X278963Y142060D01*
X279232Y141853D01*
X279500Y141750D01*
X279768D01*
X280037Y141853D01*
X280267Y142008D01*
X280458Y142215D01*
G01X281923Y141750D02*
X282000Y142422D01*
X282115Y142990D01*
X282268Y143507D01*
X282460Y144075D01*
X282767Y144850D01*
X281233D01*
G01X284500Y141750D02*
X284768Y141802D01*
X285075Y141957D01*
X285267Y142215D01*
X285343Y142577D01*
X285267Y142938D01*
X285037Y143248D01*
X284692Y143403D01*
X284308D01*
X284078Y143507D01*
X283887Y143765D01*
X283810Y144127D01*
X283925Y144488D01*
X284193Y144747D01*
X284500Y144850D01*
X284807Y144747D01*
X285075Y144488D01*
X285190Y144127D01*
X285113Y143765D01*
X284922Y143507D01*
X284692Y143403D01*
X284308D01*
X283963Y143248D01*
X283733Y142938D01*
X283657Y142577D01*
X283733Y142215D01*
X283925Y141957D01*
X284232Y141802D01*
X284500Y141750D01*
G01X288392Y31950D02*
X289350Y35050D01*
X290308Y31950D01*
G01X289963Y33035D02*
X288737D01*
G01X309657Y33603D02*
X309810Y33758D01*
X309925Y34017D01*
X310002Y34378D01*
X309925Y34688D01*
X309772Y34895D01*
X309503Y35050D01*
X308468D01*
Y31950D01*
X309733D01*
X310002Y32157D01*
X310155Y32467D01*
X310232Y32828D01*
X310155Y33190D01*
X309925Y33500D01*
X309657Y33603D01*
X308468D01*
G01X325892Y35050D02*
X326850Y31950D01*
X327808Y35050D01*
G01X283072Y51820D02*
X282842Y51976D01*
X282574Y52079D01*
X282268D01*
X281922Y51924D01*
X281654Y51666D01*
X281462Y51355D01*
X281309Y50839D01*
X281271Y50374D01*
X281348Y49909D01*
X281462Y49599D01*
X281693Y49289D01*
X281961Y49082D01*
X282229Y48979D01*
X282498D01*
X282766Y49082D01*
X282996Y49237D01*
X283188Y49444D01*
G01X285189Y48979D02*
Y52079D01*
X283771Y49857D01*
X285688D01*
G01X287229Y52079D02*
X286922Y51976D01*
X286692Y51717D01*
X286539Y51407D01*
X286424Y50994D01*
X286386Y50529D01*
X286424Y50064D01*
X286539Y49650D01*
X286692Y49340D01*
X286922Y49082D01*
X287229Y48979D01*
X287536Y49082D01*
X287766Y49340D01*
X287919Y49650D01*
X288034Y50064D01*
X288072Y50529D01*
X288034Y50994D01*
X287919Y51407D01*
X287766Y51717D01*
X287536Y51976D01*
X287229Y52079D01*
G01X290539Y62553D02*
X290309Y62708D01*
X290041Y62811D01*
X289734D01*
X289389Y62656D01*
X289121Y62398D01*
X288929Y62088D01*
X288776Y61571D01*
X288737Y61106D01*
X288814Y60641D01*
X288929Y60331D01*
X289159Y60021D01*
X289427Y59814D01*
X289696Y59711D01*
X289964D01*
X290232Y59814D01*
X290462Y59969D01*
X290654Y60176D01*
G01X291467Y62294D02*
X291697Y62604D01*
X291966Y62759D01*
X292272Y62811D01*
X292656Y62708D01*
X292924Y62449D01*
X293001Y62139D01*
X292962Y61829D01*
X292809Y61571D01*
X292042Y61054D01*
X291697Y60693D01*
X291467Y60176D01*
X291391Y59711D01*
X293001D01*
G01X294696D02*
Y62811D01*
X294236Y62191D01*
G01Y59711D02*
X295156D01*
G01X290539Y70152D02*
X290309Y70307D01*
X290041Y70411D01*
X289734D01*
X289389Y70256D01*
X289121Y69997D01*
X288929Y69687D01*
X288776Y69171D01*
X288737Y68706D01*
X288814Y68241D01*
X288929Y67931D01*
X289159Y67620D01*
X289427Y67414D01*
X289696Y67311D01*
X289964D01*
X290232Y67414D01*
X290462Y67569D01*
X290654Y67776D01*
G01X291467Y69894D02*
X291697Y70204D01*
X291966Y70359D01*
X292272Y70411D01*
X292656Y70307D01*
X292924Y70049D01*
X293001Y69739D01*
X292962Y69429D01*
X292809Y69171D01*
X292042Y68654D01*
X291697Y68292D01*
X291467Y67776D01*
X291391Y67311D01*
X293001D01*
G01X294696Y70411D02*
X294389Y70307D01*
X294159Y70049D01*
X294006Y69739D01*
X293891Y69326D01*
X293852Y68861D01*
X293891Y68396D01*
X294006Y67982D01*
X294159Y67672D01*
X294389Y67414D01*
X294696Y67311D01*
X295002Y67414D01*
X295232Y67672D01*
X295386Y67982D01*
X295501Y68396D01*
X295539Y68861D01*
X295501Y69326D01*
X295386Y69739D01*
X295232Y70049D01*
X295002Y70307D01*
X294696Y70411D01*
G01X290539Y77957D02*
X290309Y78112D01*
X290041Y78216D01*
X289734D01*
X289389Y78061D01*
X289121Y77802D01*
X288929Y77492D01*
X288776Y76976D01*
X288737Y76511D01*
X288814Y76046D01*
X288929Y75736D01*
X289159Y75426D01*
X289427Y75219D01*
X289696Y75116D01*
X289964D01*
X290232Y75219D01*
X290462Y75374D01*
X290654Y75581D01*
G01X292196Y75116D02*
Y78216D01*
X291736Y77596D01*
G01Y75116D02*
X292656D01*
G01X294044Y75477D02*
X294312Y75219D01*
X294619Y75116D01*
X294926Y75219D01*
X295194Y75529D01*
X295386Y75994D01*
X295462Y76459D01*
Y77027D01*
X295386Y77492D01*
X295194Y77906D01*
X294964Y78112D01*
X294696Y78216D01*
X294389Y78112D01*
X294159Y77906D01*
X294006Y77596D01*
X293929Y77182D01*
X294006Y76821D01*
X294197Y76459D01*
X294427Y76252D01*
X294696Y76201D01*
X295002Y76304D01*
X295232Y76562D01*
X295462Y77027D01*
G01X288929Y82065D02*
Y85165D01*
X289887D01*
X290194Y85010D01*
X290386Y84803D01*
X290462Y84390D01*
X290386Y83976D01*
X290156Y83718D01*
X289887Y83563D01*
X288929D01*
G01X289887D02*
X290462Y82065D01*
G01X292196D02*
Y85165D01*
X291736Y84545D01*
G01Y82065D02*
X292656D01*
G01X294696D02*
X294964Y82116D01*
X295271Y82271D01*
X295462Y82530D01*
X295539Y82891D01*
X295462Y83253D01*
X295232Y83563D01*
X294887Y83718D01*
X294504D01*
X294274Y83821D01*
X294082Y84080D01*
X294006Y84441D01*
X294121Y84803D01*
X294389Y85061D01*
X294696Y85165D01*
X295002Y85061D01*
X295271Y84803D01*
X295386Y84441D01*
X295309Y84080D01*
X295117Y83821D01*
X294887Y83718D01*
X294504D01*
X294159Y83563D01*
X293929Y83253D01*
X293852Y82891D01*
X293929Y82530D01*
X294121Y82271D01*
X294427Y82116D01*
X294696Y82065D01*
G01X283177Y152498D02*
X282947Y152654D01*
X282678Y152757D01*
X282372D01*
X282027Y152602D01*
X281758Y152344D01*
X281567Y152033D01*
X281413Y151517D01*
X281375Y151052D01*
X281452Y150587D01*
X281567Y150277D01*
X281797Y149967D01*
X282065Y149760D01*
X282333Y149657D01*
X282602D01*
X282870Y149760D01*
X283100Y149915D01*
X283292Y150122D01*
G01X284833Y149657D02*
X285102Y149708D01*
X285408Y149863D01*
X285600Y150122D01*
X285677Y150484D01*
X285600Y150845D01*
X285370Y151155D01*
X285025Y151310D01*
X284642D01*
X284412Y151414D01*
X284220Y151672D01*
X284143Y152033D01*
X284258Y152395D01*
X284527Y152654D01*
X284833Y152757D01*
X285140Y152654D01*
X285408Y152395D01*
X285523Y152033D01*
X285447Y151672D01*
X285255Y151414D01*
X285025Y151310D01*
X284642D01*
X284297Y151155D01*
X284067Y150845D01*
X283990Y150484D01*
X284067Y150122D01*
X284258Y149863D01*
X284565Y149708D01*
X284833Y149657D01*
G01X287793D02*
Y152757D01*
X286375Y150535D01*
X288292D01*
G01X295334Y51820D02*
X295104Y51976D01*
X294836Y52079D01*
X294529D01*
X294184Y51924D01*
X293916Y51666D01*
X293724Y51355D01*
X293570Y50839D01*
X293532Y50374D01*
X293609Y49909D01*
X293724Y49599D01*
X293954Y49289D01*
X294222Y49082D01*
X294491Y48979D01*
X294759D01*
X295027Y49082D01*
X295257Y49237D01*
X295449Y49444D01*
G01X297450Y48979D02*
Y52079D01*
X296032Y49857D01*
X297949D01*
G01X299490Y48979D02*
Y52079D01*
X299030Y51459D01*
G01Y48979D02*
X299950D01*
G01X295243Y117192D02*
X295013Y117347D01*
X294745Y117450D01*
X294438D01*
X294093Y117295D01*
X293825Y117037D01*
X293633Y116727D01*
X293480Y116210D01*
X293442Y115745D01*
X293518Y115280D01*
X293633Y114970D01*
X293863Y114660D01*
X294132Y114453D01*
X294400Y114350D01*
X294668D01*
X294937Y114453D01*
X295167Y114608D01*
X295358Y114815D01*
G01X296823Y114350D02*
X296900Y115022D01*
X297015Y115590D01*
X297168Y116107D01*
X297360Y116675D01*
X297667Y117450D01*
X296133D01*
G01X298672Y115642D02*
X298940Y116003D01*
X299170Y116210D01*
X299477Y116313D01*
X299745Y116210D01*
X299937Y116003D01*
X300090Y115693D01*
X300128Y115332D01*
X300090Y115022D01*
X299937Y114712D01*
X299707Y114453D01*
X299438Y114350D01*
X299132Y114453D01*
X298863Y114763D01*
X298710Y115228D01*
X298672Y115745D01*
X298748Y116417D01*
X298863Y116778D01*
X299055Y117140D01*
X299323Y117398D01*
X299592Y117450D01*
X299860Y117347D01*
X300052Y117088D01*
G01X291007Y152440D02*
X290777Y152595D01*
X290509Y152698D01*
X290202D01*
X289857Y152543D01*
X289589Y152285D01*
X289397Y151975D01*
X289244Y151458D01*
X289205Y150993D01*
X289282Y150528D01*
X289397Y150218D01*
X289627Y149908D01*
X289895Y149701D01*
X290164Y149598D01*
X290432D01*
X290700Y149701D01*
X290930Y149856D01*
X291122Y150063D01*
G01X292664Y149598D02*
X292932Y149650D01*
X293239Y149805D01*
X293430Y150063D01*
X293507Y150425D01*
X293430Y150786D01*
X293200Y151096D01*
X292855Y151251D01*
X292472D01*
X292242Y151355D01*
X292050Y151613D01*
X291974Y151975D01*
X292089Y152336D01*
X292357Y152595D01*
X292664Y152698D01*
X292970Y152595D01*
X293239Y152336D01*
X293354Y151975D01*
X293277Y151613D01*
X293085Y151355D01*
X292855Y151251D01*
X292472D01*
X292127Y151096D01*
X291897Y150786D01*
X291820Y150425D01*
X291897Y150063D01*
X292089Y149805D01*
X292395Y149650D01*
X292664Y149598D01*
G01X294320Y150218D02*
X294550Y149856D01*
X294857Y149650D01*
X295202Y149598D01*
X295509Y149650D01*
X295815Y149908D01*
X296007Y150218D01*
X296045Y150528D01*
X295969Y150890D01*
X295700Y151148D01*
X295432Y151251D01*
X295087D01*
G01X295432D02*
X295662Y151406D01*
X295854Y151665D01*
X295930Y151975D01*
X295854Y152285D01*
X295662Y152543D01*
X295317Y152698D01*
X294972Y152646D01*
X294627Y152440D01*
G01X301233Y37450D02*
Y40550D01*
X302192D01*
X302498Y40395D01*
X302690Y40188D01*
X302767Y39775D01*
X302690Y39362D01*
X302460Y39103D01*
X302192Y38948D01*
X301233D01*
G01X302192D02*
X302767Y37450D01*
G01X303657Y37915D02*
X303887Y37657D01*
X304155Y37502D01*
X304500Y37450D01*
X304845Y37553D01*
X305113Y37760D01*
X305305Y38122D01*
X305343Y38535D01*
X305267Y38948D01*
X305075Y39207D01*
X304807Y39413D01*
X304538Y39465D01*
X304270Y39413D01*
X303925Y39207D01*
X304040Y40550D01*
X305075D01*
G01X306923Y37450D02*
X307000Y38122D01*
X307115Y38690D01*
X307268Y39207D01*
X307460Y39775D01*
X307767Y40550D01*
X306233D01*
G01X307044Y51820D02*
X306814Y51976D01*
X306546Y52079D01*
X306240D01*
X305894Y51924D01*
X305626Y51666D01*
X305434Y51355D01*
X305281Y50839D01*
X305243Y50374D01*
X305319Y49909D01*
X305434Y49599D01*
X305664Y49289D01*
X305933Y49082D01*
X306201Y48979D01*
X306469D01*
X306738Y49082D01*
X306968Y49237D01*
X307160Y49444D01*
G01X309161Y48979D02*
Y52079D01*
X307743Y49857D01*
X309660D01*
G01X311124Y48979D02*
X311201Y49650D01*
X311316Y50219D01*
X311469Y50736D01*
X311661Y51304D01*
X311968Y52079D01*
X310434D01*
G01X298209Y97024D02*
Y100124D01*
X299167D01*
X299474Y99969D01*
X299666Y99763D01*
X299742Y99349D01*
X299666Y98936D01*
X299436Y98678D01*
X299167Y98523D01*
X298209D01*
G01X299167D02*
X299742Y97024D01*
G01X301476D02*
Y100124D01*
X301016Y99504D01*
G01Y97024D02*
X301936D01*
G01X303976D02*
Y100124D01*
X303516Y99504D01*
G01Y97024D02*
X304436D01*
G01X301326Y106191D02*
X301096Y106346D01*
X300828Y106449D01*
X300521D01*
X300176Y106294D01*
X299908Y106036D01*
X299716Y105726D01*
X299563Y105209D01*
X299524Y104744D01*
X299601Y104279D01*
X299716Y103969D01*
X299946Y103659D01*
X300214Y103453D01*
X300483Y103349D01*
X300751D01*
X301019Y103453D01*
X301249Y103608D01*
X301441Y103814D01*
G01X302331Y103711D02*
X302599Y103453D01*
X302906Y103349D01*
X303213Y103453D01*
X303481Y103762D01*
X303673Y104228D01*
X303749Y104692D01*
Y105261D01*
X303673Y105726D01*
X303481Y106139D01*
X303251Y106346D01*
X302983Y106449D01*
X302676Y106346D01*
X302446Y106139D01*
X302293Y105829D01*
X302216Y105416D01*
X302293Y105054D01*
X302484Y104692D01*
X302714Y104486D01*
X302983Y104434D01*
X303289Y104538D01*
X303519Y104796D01*
X303749Y105261D01*
G01X307177Y17554D02*
Y20654D01*
G01X308787D02*
Y17554D01*
G01Y19104D02*
X307177D01*
G01X309639Y18019D02*
X309869Y17761D01*
X310137Y17606D01*
X310482Y17554D01*
X310827Y17658D01*
X311096Y17864D01*
X311287Y18226D01*
X311326Y18639D01*
X311249Y19053D01*
X311057Y19311D01*
X310789Y19518D01*
X310521Y19569D01*
X310252Y19518D01*
X309907Y19311D01*
X310022Y20654D01*
X311057D01*
G01X309233Y37450D02*
Y40550D01*
X310192D01*
X310498Y40395D01*
X310690Y40188D01*
X310767Y39775D01*
X310690Y39362D01*
X310460Y39103D01*
X310192Y38948D01*
X309233D01*
G01X310192D02*
X310767Y37450D01*
G01X311657Y38070D02*
X311887Y37708D01*
X312193Y37502D01*
X312538Y37450D01*
X312845Y37502D01*
X313152Y37760D01*
X313343Y38070D01*
X313382Y38380D01*
X313305Y38742D01*
X313037Y39000D01*
X312768Y39103D01*
X312423D01*
G01X312768D02*
X312998Y39258D01*
X313190Y39517D01*
X313267Y39827D01*
X313190Y40137D01*
X312998Y40395D01*
X312653Y40550D01*
X312308Y40498D01*
X311963Y40292D01*
G01X314157Y37915D02*
X314387Y37657D01*
X314655Y37502D01*
X315000Y37450D01*
X315345Y37553D01*
X315613Y37760D01*
X315805Y38122D01*
X315843Y38535D01*
X315767Y38948D01*
X315575Y39207D01*
X315307Y39413D01*
X315038Y39465D01*
X314770Y39413D01*
X314425Y39207D01*
X314540Y40550D01*
X315575D01*
G01X309484Y62414D02*
X309254Y62569D01*
X308985Y62672D01*
X308679D01*
X308334Y62517D01*
X308065Y62259D01*
X307874Y61949D01*
X307720Y61432D01*
X307682Y60967D01*
X307758Y60502D01*
X307874Y60192D01*
X308104Y59882D01*
X308372Y59676D01*
X308640Y59572D01*
X308909D01*
X309177Y59676D01*
X309407Y59831D01*
X309599Y60037D01*
G01X310412Y62156D02*
X310642Y62466D01*
X310910Y62621D01*
X311217Y62672D01*
X311600Y62569D01*
X311869Y62311D01*
X311945Y62001D01*
X311907Y61691D01*
X311754Y61432D01*
X310987Y60916D01*
X310642Y60554D01*
X310412Y60037D01*
X310335Y59572D01*
X311945D01*
G01X312797Y60037D02*
X313027Y59779D01*
X313295Y59624D01*
X313640Y59572D01*
X313985Y59676D01*
X314254Y59882D01*
X314445Y60244D01*
X314484Y60657D01*
X314407Y61071D01*
X314215Y61329D01*
X313947Y61536D01*
X313679Y61587D01*
X313410Y61536D01*
X313065Y61329D01*
X313180Y62672D01*
X314215D01*
G01X309650Y69313D02*
X309420Y69468D01*
X309152Y69572D01*
X308845D01*
X308500Y69417D01*
X308232Y69158D01*
X308040Y68848D01*
X307887Y68332D01*
X307848Y67867D01*
X307925Y67402D01*
X308040Y67092D01*
X308270Y66782D01*
X308538Y66575D01*
X308807Y66472D01*
X309075D01*
X309343Y66575D01*
X309573Y66730D01*
X309765Y66937D01*
G01X310578Y69055D02*
X310808Y69365D01*
X311077Y69520D01*
X311383Y69572D01*
X311767Y69468D01*
X312035Y69210D01*
X312112Y68900D01*
X312073Y68590D01*
X311920Y68332D01*
X311153Y67815D01*
X310808Y67453D01*
X310578Y66937D01*
X310502Y66472D01*
X312112D01*
G01X313078Y69055D02*
X313308Y69365D01*
X313577Y69520D01*
X313883Y69572D01*
X314267Y69468D01*
X314535Y69210D01*
X314612Y68900D01*
X314573Y68590D01*
X314420Y68332D01*
X313653Y67815D01*
X313308Y67453D01*
X313078Y66937D01*
X313002Y66472D01*
X314612D01*
G01X307648Y73018D02*
Y76118D01*
X308607D01*
X308913Y75963D01*
X309105Y75756D01*
X309182Y75343D01*
X309105Y74930D01*
X308875Y74672D01*
X308607Y74516D01*
X307648D01*
G01X308607D02*
X309182Y73018D01*
G01X310915D02*
Y76118D01*
X310455Y75498D01*
G01Y73018D02*
X311375D01*
G01X313875D02*
Y76118D01*
X312457Y73896D01*
X314373D01*
G01X309258Y82965D02*
X309028Y83120D01*
X308760Y83223D01*
X308453D01*
X308108Y83068D01*
X307840Y82810D01*
X307648Y82500D01*
X307495Y81983D01*
X307457Y81518D01*
X307533Y81053D01*
X307648Y80743D01*
X307878Y80433D01*
X308147Y80226D01*
X308415Y80123D01*
X308683D01*
X308952Y80226D01*
X309182Y80382D01*
X309373Y80588D01*
G01X310915Y80123D02*
Y83223D01*
X310455Y82603D01*
G01Y80123D02*
X311375D01*
G01X313338D02*
X313415Y80795D01*
X313530Y81363D01*
X313683Y81880D01*
X313875Y82448D01*
X314182Y83223D01*
X312648D01*
G01X312769Y121292D02*
Y119070D01*
X312922Y118605D01*
X313229Y118295D01*
X313612Y118192D01*
X313996Y118295D01*
X314302Y118605D01*
X314456Y119070D01*
Y121292D01*
G01X315384Y120775D02*
X315614Y121085D01*
X315882Y121240D01*
X316189Y121292D01*
X316572Y121189D01*
X316841Y120930D01*
X316917Y120620D01*
X316879Y120310D01*
X316726Y120052D01*
X315959Y119535D01*
X315614Y119174D01*
X315384Y118657D01*
X315307Y118192D01*
X316917D01*
G01X309225Y169198D02*
X308995Y169353D01*
X308727Y169456D01*
X308420D01*
X308075Y169301D01*
X307807Y169043D01*
X307615Y168733D01*
X307462Y168216D01*
X307423Y167751D01*
X307500Y167286D01*
X307615Y166976D01*
X307845Y166666D01*
X308114Y166459D01*
X308382Y166356D01*
X308650D01*
X308918Y166459D01*
X309148Y166614D01*
X309340Y166821D01*
G01X310882Y166356D02*
X311150Y166408D01*
X311457Y166563D01*
X311649Y166821D01*
X311725Y167183D01*
X311649Y167544D01*
X311418Y167854D01*
X311074Y168009D01*
X310690D01*
X310460Y168113D01*
X310268Y168371D01*
X310192Y168733D01*
X310307Y169094D01*
X310575Y169353D01*
X310882Y169456D01*
X311188Y169353D01*
X311457Y169094D01*
X311572Y168733D01*
X311495Y168371D01*
X311304Y168113D01*
X311074Y168009D01*
X310690D01*
X310345Y167854D01*
X310115Y167544D01*
X310038Y167183D01*
X310115Y166821D01*
X310307Y166563D01*
X310614Y166408D01*
X310882Y166356D01*
G01X312653Y168939D02*
X312884Y169249D01*
X313152Y169404D01*
X313458Y169456D01*
X313842Y169353D01*
X314110Y169094D01*
X314187Y168784D01*
X314149Y168474D01*
X313995Y168216D01*
X313228Y167699D01*
X312884Y167338D01*
X312653Y166821D01*
X312577Y166356D01*
X314187D01*
G01X318676Y51820D02*
X318446Y51976D01*
X318178Y52079D01*
X317871D01*
X317526Y51924D01*
X317258Y51666D01*
X317066Y51355D01*
X316913Y50839D01*
X316874Y50374D01*
X316951Y49909D01*
X317066Y49599D01*
X317296Y49289D01*
X317565Y49082D01*
X317833Y48979D01*
X318101D01*
X318370Y49082D01*
X318600Y49237D01*
X318791Y49444D01*
G01X320793Y48979D02*
Y52079D01*
X319374Y49857D01*
X321291D01*
G01X322104Y51562D02*
X322335Y51872D01*
X322603Y52027D01*
X322910Y52079D01*
X323293Y51976D01*
X323561Y51717D01*
X323638Y51407D01*
X323600Y51097D01*
X323446Y50839D01*
X322680Y50322D01*
X322335Y49960D01*
X322104Y49444D01*
X322028Y48979D01*
X323638D01*
G01X316382Y149258D02*
X316152Y149413D01*
X315883Y149516D01*
X315577D01*
X315232Y149361D01*
X314963Y149103D01*
X314772Y148793D01*
X314618Y148276D01*
X314580Y147812D01*
X314656Y147346D01*
X314772Y147036D01*
X315002Y146726D01*
X315270Y146520D01*
X315538Y146416D01*
X315806D01*
X316075Y146520D01*
X316305Y146675D01*
X316497Y146881D01*
G01X318038Y146416D02*
X318306Y146468D01*
X318613Y146623D01*
X318805Y146881D01*
X318882Y147243D01*
X318805Y147605D01*
X318575Y147915D01*
X318230Y148070D01*
X317846D01*
X317616Y148173D01*
X317425Y148431D01*
X317348Y148793D01*
X317463Y149155D01*
X317732Y149413D01*
X318038Y149516D01*
X318345Y149413D01*
X318613Y149155D01*
X318728Y148793D01*
X318652Y148431D01*
X318460Y148173D01*
X318230Y148070D01*
X317846D01*
X317502Y147915D01*
X317272Y147605D01*
X317195Y147243D01*
X317272Y146881D01*
X317463Y146623D01*
X317770Y146468D01*
X318038Y146416D01*
G01X317094Y169198D02*
X316864Y169353D01*
X316596Y169456D01*
X316290D01*
X315944Y169301D01*
X315676Y169043D01*
X315484Y168733D01*
X315331Y168216D01*
X315293Y167751D01*
X315370Y167286D01*
X315484Y166976D01*
X315714Y166666D01*
X315983Y166459D01*
X316251Y166356D01*
X316520D01*
X316788Y166459D01*
X317018Y166614D01*
X317210Y166821D01*
G01X318751Y166356D02*
X319020Y166408D01*
X319326Y166563D01*
X319518Y166821D01*
X319594Y167183D01*
X319518Y167544D01*
X319288Y167854D01*
X318943Y168009D01*
X318560D01*
X318330Y168113D01*
X318138Y168371D01*
X318061Y168733D01*
X318176Y169094D01*
X318444Y169353D01*
X318751Y169456D01*
X319058Y169353D01*
X319326Y169094D01*
X319441Y168733D01*
X319364Y168371D01*
X319173Y168113D01*
X318943Y168009D01*
X318560D01*
X318214Y167854D01*
X317984Y167544D01*
X317908Y167183D01*
X317984Y166821D01*
X318176Y166563D01*
X318483Y166408D01*
X318751Y166356D01*
G01X321251D02*
Y169456D01*
X320791Y168836D01*
G01Y166356D02*
X321711D01*
G01X330298Y51820D02*
X330068Y51976D01*
X329800Y52079D01*
X329493D01*
X329148Y51924D01*
X328880Y51666D01*
X328688Y51355D01*
X328535Y50839D01*
X328496Y50374D01*
X328573Y49909D01*
X328688Y49599D01*
X328918Y49289D01*
X329186Y49082D01*
X329455Y48979D01*
X329723D01*
X329992Y49082D01*
X330222Y49237D01*
X330413Y49444D01*
G01X332415Y48979D02*
Y52079D01*
X330996Y49857D01*
X332913D01*
G01X333612Y49599D02*
X333841Y49237D01*
X334148Y49030D01*
X334493Y48979D01*
X334800Y49030D01*
X335106Y49289D01*
X335298Y49599D01*
X335336Y49909D01*
X335260Y50270D01*
X334992Y50529D01*
X334723Y50632D01*
X334378D01*
G01X334723D02*
X334953Y50787D01*
X335145Y51045D01*
X335222Y51355D01*
X335145Y51666D01*
X334953Y51924D01*
X334608Y52079D01*
X334263Y52027D01*
X333918Y51820D01*
G01X328662Y62346D02*
X328432Y62501D01*
X328164Y62604D01*
X327857D01*
X327512Y62449D01*
X327244Y62191D01*
X327052Y61880D01*
X326899Y61364D01*
X326860Y60899D01*
X326937Y60434D01*
X327052Y60124D01*
X327282Y59814D01*
X327551Y59607D01*
X327819Y59504D01*
X328087D01*
X328356Y59607D01*
X328586Y59762D01*
X328777Y59969D01*
G01X329591Y62087D02*
X329821Y62397D01*
X330089Y62552D01*
X330396Y62604D01*
X330779Y62501D01*
X331047Y62242D01*
X331124Y61932D01*
X331086Y61622D01*
X330932Y61364D01*
X330166Y60847D01*
X329821Y60486D01*
X329591Y59969D01*
X329514Y59504D01*
X331124D01*
G01X331976Y60124D02*
X332206Y59762D01*
X332512Y59556D01*
X332857Y59504D01*
X333164Y59556D01*
X333471Y59814D01*
X333662Y60124D01*
X333701Y60434D01*
X333624Y60796D01*
X333356Y61054D01*
X333087Y61157D01*
X332742D01*
G01X333087D02*
X333317Y61312D01*
X333509Y61571D01*
X333586Y61880D01*
X333509Y62191D01*
X333317Y62449D01*
X332972Y62604D01*
X332627Y62552D01*
X332282Y62346D01*
G01X328792Y70640D02*
Y67540D01*
X330325D01*
G01X332059D02*
Y70640D01*
X331599Y70020D01*
G01Y67540D02*
X332519D01*
G01X330054Y77506D02*
X329824Y77661D01*
X329555Y77765D01*
X329249D01*
X328904Y77610D01*
X328635Y77351D01*
X328444Y77041D01*
X328290Y76525D01*
X328252Y76060D01*
X328328Y75595D01*
X328444Y75285D01*
X328674Y74974D01*
X328942Y74768D01*
X329210Y74665D01*
X329478D01*
X329747Y74768D01*
X329977Y74923D01*
X330169Y75130D01*
G01X331710Y74665D02*
Y77765D01*
X331250Y77145D01*
G01Y74665D02*
X332170D01*
G01X334210D02*
Y77765D01*
X333750Y77145D01*
G01Y74665D02*
X334670D01*
G01X328770Y83897D02*
X328540Y84052D01*
X328272Y84156D01*
X327965D01*
X327620Y84000D01*
X327352Y83742D01*
X327160Y83432D01*
X327007Y82916D01*
X326968Y82450D01*
X327045Y81986D01*
X327160Y81676D01*
X327390Y81365D01*
X327659Y81159D01*
X327927Y81055D01*
X328195D01*
X328464Y81159D01*
X328694Y81314D01*
X328885Y81520D01*
G01X330427Y81055D02*
Y84156D01*
X329967Y83536D01*
G01Y81055D02*
X330887D01*
G01X332198Y83639D02*
X332428Y83949D01*
X332697Y84104D01*
X333004Y84156D01*
X333387Y84052D01*
X333655Y83794D01*
X333732Y83484D01*
X333694Y83174D01*
X333540Y82916D01*
X332774Y82399D01*
X332428Y82037D01*
X332198Y81520D01*
X332122Y81055D01*
X333732D01*
G01X327548Y96646D02*
Y99746D01*
X328506D01*
X328812Y99591D01*
X329004Y99385D01*
X329081Y98972D01*
X329004Y98558D01*
X328774Y98300D01*
X328506Y98145D01*
X327548D01*
G01X328506D02*
X329081Y96646D01*
G01X330814D02*
Y99746D01*
X330354Y99126D01*
G01Y96646D02*
X331274D01*
G01X332471Y97266D02*
X332701Y96905D01*
X333008Y96698D01*
X333353Y96646D01*
X333659Y96698D01*
X333966Y96956D01*
X334158Y97266D01*
X334196Y97576D01*
X334119Y97938D01*
X333851Y98197D01*
X333582Y98300D01*
X333238D01*
G01X333582D02*
X333812Y98455D01*
X334004Y98713D01*
X334081Y99023D01*
X334004Y99333D01*
X333812Y99591D01*
X333468Y99746D01*
X333122Y99695D01*
X332778Y99488D01*
G01X329152Y106063D02*
X328922Y106218D01*
X328654Y106322D01*
X328347D01*
X328002Y106167D01*
X327734Y105908D01*
X327542Y105598D01*
X327389Y105082D01*
X327350Y104617D01*
X327427Y104152D01*
X327542Y103842D01*
X327772Y103532D01*
X328040Y103325D01*
X328309Y103222D01*
X328577D01*
X328845Y103325D01*
X329075Y103480D01*
X329267Y103687D01*
G01X330809Y103222D02*
Y106322D01*
X330349Y105702D01*
G01Y103222D02*
X331269D01*
G01X333309Y106322D02*
X333002Y106218D01*
X332772Y105960D01*
X332619Y105650D01*
X332504Y105237D01*
X332465Y104772D01*
X332504Y104307D01*
X332619Y103893D01*
X332772Y103583D01*
X333002Y103325D01*
X333309Y103222D01*
X333615Y103325D01*
X333845Y103583D01*
X333999Y103893D01*
X334114Y104307D01*
X334152Y104772D01*
X334114Y105237D01*
X333999Y105650D01*
X333845Y105960D01*
X333615Y106218D01*
X333309Y106322D01*
G01X324807Y169198D02*
X324577Y169353D01*
X324309Y169456D01*
X324002D01*
X323657Y169301D01*
X323389Y169043D01*
X323197Y168733D01*
X323044Y168216D01*
X323005Y167751D01*
X323082Y167286D01*
X323197Y166976D01*
X323427Y166666D01*
X323696Y166459D01*
X323964Y166356D01*
X324232D01*
X324501Y166459D01*
X324730Y166614D01*
X324922Y166821D01*
G01X326464Y166356D02*
X326732Y166408D01*
X327039Y166563D01*
X327230Y166821D01*
X327307Y167183D01*
X327230Y167544D01*
X327000Y167854D01*
X326656Y168009D01*
X326272D01*
X326042Y168113D01*
X325850Y168371D01*
X325774Y168733D01*
X325889Y169094D01*
X326157Y169353D01*
X326464Y169456D01*
X326770Y169353D01*
X327039Y169094D01*
X327154Y168733D01*
X327077Y168371D01*
X326886Y168113D01*
X326656Y168009D01*
X326272D01*
X325927Y167854D01*
X325697Y167544D01*
X325620Y167183D01*
X325697Y166821D01*
X325889Y166563D01*
X326196Y166408D01*
X326464Y166356D01*
G01X328964Y169456D02*
X328657Y169353D01*
X328427Y169094D01*
X328274Y168784D01*
X328159Y168371D01*
X328120Y167906D01*
X328159Y167441D01*
X328274Y167028D01*
X328427Y166718D01*
X328657Y166459D01*
X328964Y166356D01*
X329270Y166459D01*
X329500Y166718D01*
X329654Y167028D01*
X329769Y167441D01*
X329807Y167906D01*
X329769Y168371D01*
X329654Y168784D01*
X329500Y169094D01*
X329270Y169353D01*
X328964Y169456D01*
G01X336733Y37750D02*
Y40850D01*
X337692D01*
X337998Y40695D01*
X338190Y40488D01*
X338267Y40075D01*
X338190Y39662D01*
X337960Y39403D01*
X337692Y39248D01*
X336733D01*
G01X337692D02*
X338267Y37750D01*
G01X339157Y38215D02*
X339387Y37957D01*
X339655Y37802D01*
X340000Y37750D01*
X340345Y37853D01*
X340613Y38060D01*
X340805Y38422D01*
X340843Y38835D01*
X340767Y39248D01*
X340575Y39507D01*
X340307Y39713D01*
X340038Y39765D01*
X339770Y39713D01*
X339425Y39507D01*
X339540Y40850D01*
X340575D01*
G01X342500Y37750D02*
X342768Y37802D01*
X343075Y37957D01*
X343267Y38215D01*
X343343Y38577D01*
X343267Y38938D01*
X343037Y39248D01*
X342692Y39403D01*
X342308D01*
X342078Y39507D01*
X341887Y39765D01*
X341810Y40127D01*
X341925Y40488D01*
X342193Y40747D01*
X342500Y40850D01*
X342807Y40747D01*
X343075Y40488D01*
X343190Y40127D01*
X343113Y39765D01*
X342922Y39507D01*
X342692Y39403D01*
X342308D01*
X341963Y39248D01*
X341733Y38938D01*
X341657Y38577D01*
X341733Y38215D01*
X341925Y37957D01*
X342232Y37802D01*
X342500Y37750D01*
G01X335999Y82769D02*
Y85869D01*
X336958D01*
X337264Y85714D01*
X337456Y85508D01*
X337533Y85094D01*
X337456Y84681D01*
X337226Y84423D01*
X336958Y84268D01*
X335999D01*
G01X336958D02*
X337533Y82769D01*
G01X339726D02*
Y85869D01*
X338308Y83648D01*
X340224D01*
G01X340923Y83234D02*
X341153Y82976D01*
X341421Y82821D01*
X341766Y82769D01*
X342111Y82873D01*
X342379Y83079D01*
X342571Y83441D01*
X342609Y83854D01*
X342533Y84268D01*
X342341Y84526D01*
X342073Y84733D01*
X341804Y84784D01*
X341536Y84733D01*
X341191Y84526D01*
X341306Y85869D01*
X342341D01*
G01X345333Y37750D02*
Y40850D01*
X346292D01*
X346598Y40695D01*
X346790Y40488D01*
X346867Y40075D01*
X346790Y39662D01*
X346560Y39403D01*
X346292Y39248D01*
X345333D01*
G01X346292D02*
X346867Y37750D01*
G01X349060D02*
Y40850D01*
X347642Y38628D01*
X349558D01*
G01X351100Y37750D02*
Y40850D01*
X350640Y40230D01*
G01Y37750D02*
X351560D01*
G01X342127Y51820D02*
X341897Y51976D01*
X341629Y52079D01*
X341322D01*
X340977Y51924D01*
X340709Y51666D01*
X340517Y51355D01*
X340364Y50839D01*
X340325Y50374D01*
X340402Y49909D01*
X340517Y49599D01*
X340747Y49289D01*
X341015Y49082D01*
X341284Y48979D01*
X341552D01*
X341820Y49082D01*
X342050Y49237D01*
X342242Y49444D01*
G01X344244Y48979D02*
Y52079D01*
X342825Y49857D01*
X344742D01*
G01X346284Y48979D02*
X346552Y49030D01*
X346859Y49185D01*
X347050Y49444D01*
X347127Y49806D01*
X347050Y50167D01*
X346820Y50477D01*
X346475Y50632D01*
X346092D01*
X345862Y50736D01*
X345670Y50994D01*
X345594Y51355D01*
X345709Y51717D01*
X345977Y51976D01*
X346284Y52079D01*
X346590Y51976D01*
X346859Y51717D01*
X346974Y51355D01*
X346897Y50994D01*
X346705Y50736D01*
X346475Y50632D01*
X346092D01*
X345747Y50477D01*
X345517Y50167D01*
X345440Y49806D01*
X345517Y49444D01*
X345709Y49185D01*
X346015Y49030D01*
X346284Y48979D01*
G01X342733Y115450D02*
Y118550D01*
X343692D01*
X343998Y118395D01*
X344190Y118188D01*
X344267Y117775D01*
X344190Y117362D01*
X343960Y117103D01*
X343692Y116948D01*
X342733D01*
G01X343692D02*
X344267Y115450D01*
G01X346000D02*
Y118550D01*
X345540Y117930D01*
G01Y115450D02*
X346460D01*
G01X347772Y118033D02*
X348002Y118343D01*
X348270Y118498D01*
X348577Y118550D01*
X348960Y118447D01*
X349228Y118188D01*
X349305Y117878D01*
X349267Y117568D01*
X349113Y117310D01*
X348347Y116793D01*
X348002Y116432D01*
X347772Y115915D01*
X347695Y115450D01*
X349305D01*
G01X343033Y121750D02*
Y124850D01*
X343992D01*
X344298Y124695D01*
X344490Y124488D01*
X344567Y124075D01*
X344490Y123662D01*
X344260Y123403D01*
X343992Y123248D01*
X343033D01*
G01X343992D02*
X344567Y121750D01*
G01X346300D02*
Y124850D01*
X345840Y124230D01*
G01Y121750D02*
X346760D01*
G01X348800Y124850D02*
X348493Y124747D01*
X348263Y124488D01*
X348110Y124178D01*
X347995Y123765D01*
X347957Y123300D01*
X347995Y122835D01*
X348110Y122422D01*
X348263Y122112D01*
X348493Y121853D01*
X348800Y121750D01*
X349107Y121853D01*
X349337Y122112D01*
X349490Y122422D01*
X349605Y122835D01*
X349643Y123300D01*
X349605Y123765D01*
X349490Y124178D01*
X349337Y124488D01*
X349107Y124747D01*
X348800Y124850D01*
G01X354692Y31950D02*
X355650Y35050D01*
X356608Y31950D01*
G01X356263Y33035D02*
X355037D01*
G01X375957Y33603D02*
X376110Y33758D01*
X376225Y34017D01*
X376302Y34378D01*
X376225Y34688D01*
X376072Y34895D01*
X375803Y35050D01*
X374768D01*
Y31950D01*
X376033D01*
X376302Y32157D01*
X376455Y32467D01*
X376532Y32828D01*
X376455Y33190D01*
X376225Y33500D01*
X375957Y33603D01*
X374768D01*
G01X392192Y35050D02*
X393150Y31950D01*
X394108Y35050D01*
G01X354723Y51820D02*
X354493Y51976D01*
X354225Y52079D01*
X353918D01*
X353573Y51924D01*
X353305Y51666D01*
X353113Y51355D01*
X352960Y50839D01*
X352921Y50374D01*
X352998Y49909D01*
X353113Y49599D01*
X353343Y49289D01*
X353611Y49082D01*
X353880Y48979D01*
X354148D01*
X354416Y49082D01*
X354647Y49237D01*
X354838Y49444D01*
G01X356840Y48979D02*
Y52079D01*
X355421Y49857D01*
X357338D01*
G01X358228Y49340D02*
X358496Y49082D01*
X358803Y48979D01*
X359110Y49082D01*
X359378Y49392D01*
X359570Y49857D01*
X359646Y50322D01*
Y50890D01*
X359570Y51355D01*
X359378Y51769D01*
X359148Y51976D01*
X358880Y52079D01*
X358573Y51976D01*
X358343Y51769D01*
X358190Y51459D01*
X358113Y51045D01*
X358190Y50684D01*
X358382Y50322D01*
X358612Y50115D01*
X358880Y50064D01*
X359186Y50167D01*
X359416Y50425D01*
X359646Y50890D01*
G01X351614Y61660D02*
X351384Y61815D01*
X351116Y61918D01*
X350809D01*
X350464Y61763D01*
X350196Y61505D01*
X350004Y61195D01*
X349850Y60678D01*
X349812Y60213D01*
X349889Y59748D01*
X350004Y59438D01*
X350234Y59128D01*
X350502Y58921D01*
X350770Y58818D01*
X351039D01*
X351307Y58921D01*
X351537Y59076D01*
X351729Y59283D01*
G01X352542Y61401D02*
X352772Y61711D01*
X353041Y61866D01*
X353347Y61918D01*
X353730Y61815D01*
X353999Y61556D01*
X354076Y61247D01*
X354037Y60936D01*
X353884Y60678D01*
X353117Y60161D01*
X352772Y59800D01*
X352542Y59283D01*
X352466Y58818D01*
X354076D01*
G01X356230D02*
Y61918D01*
X354812Y59696D01*
X356729D01*
G01X350033Y65521D02*
Y68621D01*
X350991D01*
X351298Y68466D01*
X351490Y68260D01*
X351566Y67846D01*
X351490Y67433D01*
X351260Y67175D01*
X350991Y67020D01*
X350033D01*
G01X350991D02*
X351566Y65521D01*
G01X353300D02*
Y68621D01*
X352840Y68001D01*
G01Y65521D02*
X353760D01*
G01X355148Y65883D02*
X355416Y65625D01*
X355723Y65521D01*
X356030Y65625D01*
X356298Y65934D01*
X356490Y66400D01*
X356566Y66865D01*
Y67433D01*
X356490Y67898D01*
X356298Y68311D01*
X356068Y68518D01*
X355800Y68621D01*
X355493Y68518D01*
X355263Y68311D01*
X355110Y68001D01*
X355033Y67588D01*
X355110Y67226D01*
X355301Y66865D01*
X355531Y66658D01*
X355800Y66606D01*
X356106Y66710D01*
X356336Y66968D01*
X356566Y67433D01*
G01X351643Y75822D02*
X351413Y75977D01*
X351145Y76081D01*
X350838D01*
X350493Y75926D01*
X350225Y75667D01*
X350033Y75357D01*
X349880Y74841D01*
X349841Y74376D01*
X349918Y73911D01*
X350033Y73601D01*
X350263Y73291D01*
X350531Y73084D01*
X350800Y72981D01*
X351068D01*
X351336Y73084D01*
X351566Y73239D01*
X351758Y73446D01*
G01X353300Y72981D02*
Y76081D01*
X352840Y75461D01*
G01Y72981D02*
X353760D01*
G01X355800D02*
X356068Y73032D01*
X356375Y73187D01*
X356566Y73446D01*
X356643Y73807D01*
X356566Y74169D01*
X356336Y74479D01*
X355991Y74634D01*
X355608D01*
X355378Y74737D01*
X355186Y74996D01*
X355110Y75357D01*
X355225Y75719D01*
X355493Y75977D01*
X355800Y76081D01*
X356106Y75977D01*
X356375Y75719D01*
X356490Y75357D01*
X356413Y74996D01*
X356221Y74737D01*
X355991Y74634D01*
X355608D01*
X355263Y74479D01*
X355033Y74169D01*
X354956Y73807D01*
X355033Y73446D01*
X355225Y73187D01*
X355531Y73032D01*
X355800Y72981D01*
G01X348544Y82642D02*
Y85742D01*
X349502D01*
X349808Y85587D01*
X350000Y85380D01*
X350077Y84967D01*
X350000Y84553D01*
X349770Y84295D01*
X349502Y84140D01*
X348544D01*
G01X349502D02*
X350077Y82642D01*
G01X352270D02*
Y85742D01*
X350852Y83520D01*
X352769D01*
G01X354770Y82642D02*
Y85742D01*
X353352Y83520D01*
X355269D01*
G01X349290Y98903D02*
Y96681D01*
X349444Y96216D01*
X349750Y95906D01*
X350134Y95803D01*
X350517Y95906D01*
X350824Y96216D01*
X350977Y96681D01*
Y98903D01*
G01X352634Y95803D02*
Y98903D01*
X352174Y98283D01*
G01Y95803D02*
X353093D01*
G01X355134D02*
Y98903D01*
X354674Y98283D01*
G01Y95803D02*
X355593D01*
G01X352443Y124592D02*
X352213Y124747D01*
X351945Y124850D01*
X351638D01*
X351293Y124695D01*
X351025Y124437D01*
X350833Y124127D01*
X350680Y123610D01*
X350642Y123145D01*
X350718Y122680D01*
X350833Y122370D01*
X351063Y122060D01*
X351332Y121853D01*
X351600Y121750D01*
X351868D01*
X352137Y121853D01*
X352367Y122008D01*
X352558Y122215D01*
G01X354023Y121750D02*
X354100Y122422D01*
X354215Y122990D01*
X354368Y123507D01*
X354560Y124075D01*
X354867Y124850D01*
X353333D01*
G01X355757Y122215D02*
X355987Y121957D01*
X356255Y121802D01*
X356600Y121750D01*
X356945Y121853D01*
X357213Y122060D01*
X357405Y122422D01*
X357443Y122835D01*
X357367Y123248D01*
X357175Y123507D01*
X356907Y123713D01*
X356638Y123765D01*
X356370Y123713D01*
X356025Y123507D01*
X356140Y124850D01*
X357175D01*
G01X359731Y124687D02*
X359501Y124842D01*
X359232Y124946D01*
X358926D01*
X358581Y124790D01*
X358312Y124532D01*
X358121Y124222D01*
X357967Y123706D01*
X357929Y123241D01*
X358006Y122776D01*
X358121Y122466D01*
X358351Y122156D01*
X358619Y121949D01*
X358887Y121846D01*
X359156D01*
X359424Y121949D01*
X359654Y122104D01*
X359846Y122311D01*
G01X360659Y123137D02*
X360927Y123499D01*
X361157Y123706D01*
X361464Y123809D01*
X361732Y123706D01*
X361924Y123499D01*
X362077Y123189D01*
X362116Y122827D01*
X362077Y122517D01*
X361924Y122207D01*
X361694Y121949D01*
X361426Y121846D01*
X361119Y121949D01*
X360851Y122259D01*
X360697Y122724D01*
X360659Y123241D01*
X360736Y123912D01*
X360851Y124274D01*
X361042Y124636D01*
X361311Y124894D01*
X361579Y124946D01*
X361847Y124842D01*
X362039Y124584D01*
G01X361873Y213859D02*
Y211637D01*
X362026Y211172D01*
X362333Y210862D01*
X362716Y210759D01*
X363100Y210862D01*
X363406Y211172D01*
X363560Y211637D01*
Y213859D01*
G01X364488Y212051D02*
X364756Y212413D01*
X364986Y212619D01*
X365293Y212722D01*
X365562Y212619D01*
X365753Y212413D01*
X365906Y212102D01*
X365945Y211741D01*
X365906Y211431D01*
X365753Y211121D01*
X365523Y210862D01*
X365255Y210759D01*
X364948Y210862D01*
X364680Y211172D01*
X364526Y211637D01*
X364488Y212154D01*
X364565Y212826D01*
X364680Y213188D01*
X364872Y213549D01*
X365140Y213807D01*
X365408Y213859D01*
X365676Y213756D01*
X365868Y213497D01*
G01X366148Y51820D02*
X365918Y51976D01*
X365650Y52079D01*
X365343D01*
X364998Y51924D01*
X364730Y51666D01*
X364538Y51355D01*
X364385Y50839D01*
X364346Y50374D01*
X364423Y49909D01*
X364538Y49599D01*
X364768Y49289D01*
X365036Y49082D01*
X365305Y48979D01*
X365573D01*
X365842Y49082D01*
X366072Y49237D01*
X366263Y49444D01*
G01X366962D02*
X367191Y49185D01*
X367460Y49030D01*
X367805Y48979D01*
X368150Y49082D01*
X368418Y49289D01*
X368610Y49650D01*
X368648Y50064D01*
X368572Y50477D01*
X368380Y50736D01*
X368111Y50942D01*
X367843Y50994D01*
X367575Y50942D01*
X367230Y50736D01*
X367345Y52079D01*
X368380D01*
G01X370305D02*
X369998Y51976D01*
X369768Y51717D01*
X369615Y51407D01*
X369500Y50994D01*
X369462Y50529D01*
X369500Y50064D01*
X369615Y49650D01*
X369768Y49340D01*
X369998Y49082D01*
X370305Y48979D01*
X370611Y49082D01*
X370842Y49340D01*
X370995Y49650D01*
X371110Y50064D01*
X371148Y50529D01*
X371110Y50994D01*
X370995Y51407D01*
X370842Y51717D01*
X370611Y51976D01*
X370305Y52079D01*
G01X368839Y63747D02*
Y66847D01*
X369798D01*
X370104Y66692D01*
X370296Y66486D01*
X370373Y66072D01*
X370296Y65659D01*
X370066Y65401D01*
X369798Y65246D01*
X368839D01*
G01X369798D02*
X370373Y63747D01*
G01X372106D02*
Y66847D01*
X371646Y66227D01*
G01Y63747D02*
X372566D01*
G01X373878Y65039D02*
X374146Y65401D01*
X374376Y65607D01*
X374683Y65710D01*
X374951Y65607D01*
X375143Y65401D01*
X375296Y65090D01*
X375334Y64729D01*
X375296Y64419D01*
X375143Y64109D01*
X374912Y63850D01*
X374644Y63747D01*
X374338Y63850D01*
X374069Y64160D01*
X373916Y64626D01*
X373878Y65142D01*
X373954Y65814D01*
X374069Y66176D01*
X374261Y66537D01*
X374529Y66796D01*
X374798Y66847D01*
X375066Y66744D01*
X375258Y66486D01*
G01X368839Y71382D02*
Y74482D01*
X369798D01*
X370104Y74326D01*
X370296Y74120D01*
X370373Y73707D01*
X370296Y73293D01*
X370066Y73035D01*
X369798Y72880D01*
X368839D01*
G01X369798D02*
X370373Y71382D01*
G01X372106D02*
Y74482D01*
X371646Y73862D01*
G01Y71382D02*
X372566D01*
G01X374529D02*
X374606Y72053D01*
X374721Y72621D01*
X374874Y73138D01*
X375066Y73707D01*
X375373Y74482D01*
X373839D01*
G01X370449Y81044D02*
X370219Y81199D01*
X369951Y81302D01*
X369644D01*
X369299Y81147D01*
X369031Y80889D01*
X368839Y80579D01*
X368686Y80062D01*
X368648Y79597D01*
X368724Y79132D01*
X368839Y78822D01*
X369069Y78512D01*
X369338Y78306D01*
X369606Y78202D01*
X369874D01*
X370143Y78306D01*
X370373Y78461D01*
X370564Y78667D01*
G01X371263D02*
X371493Y78409D01*
X371761Y78254D01*
X372106Y78202D01*
X372451Y78306D01*
X372719Y78512D01*
X372911Y78874D01*
X372949Y79287D01*
X372873Y79701D01*
X372681Y79959D01*
X372412Y80166D01*
X372144Y80217D01*
X371876Y80166D01*
X371531Y79959D01*
X371646Y81302D01*
X372681D01*
G01X373878Y79494D02*
X374146Y79856D01*
X374376Y80062D01*
X374683Y80166D01*
X374951Y80062D01*
X375143Y79856D01*
X375296Y79546D01*
X375334Y79184D01*
X375296Y78874D01*
X375143Y78564D01*
X374912Y78306D01*
X374644Y78202D01*
X374338Y78306D01*
X374069Y78616D01*
X373916Y79081D01*
X373878Y79597D01*
X373954Y80269D01*
X374069Y80631D01*
X374261Y80992D01*
X374529Y81251D01*
X374798Y81302D01*
X375066Y81199D01*
X375258Y80941D01*
G01X367230Y124987D02*
X367000Y125142D01*
X366732Y125246D01*
X366426D01*
X366080Y125090D01*
X365812Y124832D01*
X365620Y124522D01*
X365467Y124006D01*
X365429Y123541D01*
X365506Y123076D01*
X365620Y122766D01*
X365851Y122456D01*
X366119Y122249D01*
X366387Y122146D01*
X366656D01*
X366924Y122249D01*
X367154Y122404D01*
X367346Y122610D01*
G01X368810Y122146D02*
X368887Y122817D01*
X369002Y123386D01*
X369155Y123902D01*
X369347Y124471D01*
X369654Y125246D01*
X368120D01*
G01X371926Y17554D02*
Y20654D01*
G01X373536D02*
Y17554D01*
G01Y19104D02*
X371926D01*
G01X374502Y18846D02*
X374771Y19208D01*
X375001Y19414D01*
X375307Y19518D01*
X375576Y19414D01*
X375767Y19208D01*
X375921Y18898D01*
X375959Y18536D01*
X375921Y18226D01*
X375767Y17916D01*
X375537Y17658D01*
X375269Y17554D01*
X374962Y17658D01*
X374694Y17968D01*
X374541Y18433D01*
X374502Y18949D01*
X374579Y19621D01*
X374694Y19983D01*
X374886Y20344D01*
X375154Y20603D01*
X375422Y20654D01*
X375691Y20551D01*
X375882Y20293D01*
G01X372633Y37750D02*
Y40850D01*
X373592D01*
X373898Y40695D01*
X374090Y40488D01*
X374167Y40075D01*
X374090Y39662D01*
X373860Y39403D01*
X373592Y39248D01*
X372633D01*
G01X373592D02*
X374167Y37750D01*
G01X375057Y38215D02*
X375287Y37957D01*
X375555Y37802D01*
X375900Y37750D01*
X376245Y37853D01*
X376513Y38060D01*
X376705Y38422D01*
X376743Y38835D01*
X376667Y39248D01*
X376475Y39507D01*
X376207Y39713D01*
X375938Y39765D01*
X375670Y39713D01*
X375325Y39507D01*
X375440Y40850D01*
X376475D01*
G01X377748Y38112D02*
X378017Y37853D01*
X378323Y37750D01*
X378630Y37853D01*
X378898Y38163D01*
X379090Y38628D01*
X379167Y39093D01*
Y39662D01*
X379090Y40127D01*
X378898Y40540D01*
X378668Y40747D01*
X378400Y40850D01*
X378093Y40747D01*
X377863Y40540D01*
X377710Y40230D01*
X377633Y39817D01*
X377710Y39455D01*
X377902Y39093D01*
X378132Y38887D01*
X378400Y38835D01*
X378707Y38938D01*
X378937Y39197D01*
X379167Y39662D01*
G01X378184Y51820D02*
X377954Y51976D01*
X377685Y52079D01*
X377379D01*
X377034Y51924D01*
X376765Y51666D01*
X376574Y51355D01*
X376420Y50839D01*
X376382Y50374D01*
X376459Y49909D01*
X376574Y49599D01*
X376804Y49289D01*
X377072Y49082D01*
X377340Y48979D01*
X377608D01*
X377877Y49082D01*
X378107Y49237D01*
X378299Y49444D01*
G01X378997D02*
X379227Y49185D01*
X379495Y49030D01*
X379840Y48979D01*
X380185Y49082D01*
X380454Y49289D01*
X380645Y49650D01*
X380684Y50064D01*
X380607Y50477D01*
X380415Y50736D01*
X380147Y50942D01*
X379879Y50994D01*
X379610Y50942D01*
X379265Y50736D01*
X379380Y52079D01*
X380415D01*
G01X381497Y49444D02*
X381727Y49185D01*
X381995Y49030D01*
X382340Y48979D01*
X382685Y49082D01*
X382954Y49289D01*
X383145Y49650D01*
X383184Y50064D01*
X383107Y50477D01*
X382915Y50736D01*
X382647Y50942D01*
X382379Y50994D01*
X382110Y50942D01*
X381765Y50736D01*
X381880Y52079D01*
X382915D01*
G01X394216Y41338D02*
X394408Y41028D01*
X394638Y40822D01*
X394906Y40718D01*
X395213Y40822D01*
X395443Y41028D01*
X395673Y41338D01*
X395749Y41752D01*
Y43818D01*
G01X397483Y40718D02*
Y43818D01*
X397023Y43198D01*
G01Y40718D02*
X397943D01*
G01X389478Y97490D02*
Y94390D01*
X391012D01*
G01X392016Y96974D02*
X392247Y97284D01*
X392515Y97438D01*
X392822Y97490D01*
X393205Y97387D01*
X393473Y97128D01*
X393550Y96819D01*
X393511Y96509D01*
X393358Y96250D01*
X392592Y95734D01*
X392247Y95372D01*
X392016Y94855D01*
X391940Y94390D01*
X393550D01*
G01X404043Y80592D02*
X403813Y80747D01*
X403545Y80850D01*
X403238D01*
X402893Y80695D01*
X402625Y80437D01*
X402433Y80127D01*
X402280Y79610D01*
X402242Y79145D01*
X402318Y78680D01*
X402433Y78370D01*
X402663Y78060D01*
X402932Y77853D01*
X403200Y77750D01*
X403468D01*
X403737Y77853D01*
X403967Y78008D01*
X404158Y78215D01*
G01X405700Y77750D02*
X405968Y77802D01*
X406275Y77957D01*
X406467Y78215D01*
X406543Y78577D01*
X406467Y78938D01*
X406237Y79248D01*
X405892Y79403D01*
X405508D01*
X405278Y79507D01*
X405087Y79765D01*
X405010Y80127D01*
X405125Y80488D01*
X405393Y80747D01*
X405700Y80850D01*
X406007Y80747D01*
X406275Y80488D01*
X406390Y80127D01*
X406313Y79765D01*
X406122Y79507D01*
X405892Y79403D01*
X405508D01*
X405163Y79248D01*
X404933Y78938D01*
X404857Y78577D01*
X404933Y78215D01*
X405125Y77957D01*
X405432Y77802D01*
X405700Y77750D01*
G01X408123D02*
X408200Y78422D01*
X408315Y78990D01*
X408468Y79507D01*
X408660Y80075D01*
X408967Y80850D01*
X407433D01*
G01X403338Y116750D02*
Y119850D01*
X404104D01*
X404411Y119695D01*
X404641Y119488D01*
X404833Y119178D01*
X404986Y118817D01*
X405024Y118300D01*
X404986Y117783D01*
X404833Y117422D01*
X404641Y117112D01*
X404411Y116905D01*
X404104Y116750D01*
X403338D01*
G01X406681D02*
Y119850D01*
X406221Y119230D01*
G01Y116750D02*
X407141D01*
G01X409373Y96179D02*
X409528Y96409D01*
X409631Y96677D01*
Y96984D01*
X409476Y97329D01*
X409218Y97597D01*
X408908Y97789D01*
X408391Y97942D01*
X407926Y97980D01*
X407461Y97904D01*
X407151Y97789D01*
X406841Y97559D01*
X406634Y97290D01*
X406531Y97022D01*
Y96754D01*
X406634Y96485D01*
X406790Y96255D01*
X406996Y96064D01*
G01X407823Y95250D02*
X408185Y94982D01*
X408391Y94752D01*
X408494Y94445D01*
X408391Y94177D01*
X408185Y93985D01*
X407874Y93832D01*
X407513Y93794D01*
X407203Y93832D01*
X406893Y93985D01*
X406634Y94215D01*
X406531Y94484D01*
X406634Y94790D01*
X406944Y95059D01*
X407410Y95212D01*
X407926Y95250D01*
X408598Y95174D01*
X408960Y95059D01*
X409321Y94867D01*
X409580Y94599D01*
X409631Y94330D01*
X409528Y94062D01*
X409270Y93870D01*
G01X406996Y92865D02*
X406738Y92635D01*
X406583Y92367D01*
X406531Y92022D01*
X406634Y91677D01*
X406841Y91409D01*
X407203Y91217D01*
X407616Y91179D01*
X408030Y91255D01*
X408288Y91447D01*
X408494Y91715D01*
X408546Y91984D01*
X408494Y92252D01*
X408288Y92597D01*
X409631Y92482D01*
Y91447D01*
G01X407485Y112231D02*
X410585D01*
Y111273D01*
X410430Y110966D01*
X410224Y110774D01*
X409810Y110698D01*
X409397Y110774D01*
X409139Y111004D01*
X408984Y111273D01*
Y112231D01*
G01Y111273D02*
X407485Y110698D01*
G01X407950Y109808D02*
X407692Y109578D01*
X407537Y109309D01*
X407485Y108964D01*
X407589Y108619D01*
X407795Y108351D01*
X408157Y108159D01*
X408570Y108121D01*
X408984Y108198D01*
X409242Y108389D01*
X409449Y108658D01*
X409500Y108926D01*
X409449Y109194D01*
X409242Y109539D01*
X410585Y109424D01*
Y108389D01*
G01X407485Y106464D02*
X410585D01*
X409965Y106924D01*
G01X407485D02*
Y106005D01*
G01X410435Y120897D02*
X410590Y121127D01*
X410694Y121395D01*
Y121702D01*
X410539Y122047D01*
X410280Y122315D01*
X409970Y122507D01*
X409454Y122660D01*
X408989Y122698D01*
X408524Y122622D01*
X408214Y122507D01*
X407904Y122277D01*
X407697Y122008D01*
X407594Y121740D01*
Y121472D01*
X407697Y121203D01*
X407852Y120973D01*
X408059Y120782D01*
G01Y120083D02*
X407800Y119853D01*
X407645Y119585D01*
X407594Y119240D01*
X407697Y118895D01*
X407904Y118627D01*
X408265Y118435D01*
X408679Y118397D01*
X409092Y118473D01*
X409350Y118665D01*
X409557Y118933D01*
X409609Y119202D01*
X409557Y119470D01*
X409350Y119815D01*
X410694Y119700D01*
Y118665D01*
G01X407955Y117392D02*
X407697Y117123D01*
X407594Y116817D01*
X407697Y116510D01*
X408007Y116242D01*
X408472Y116050D01*
X408937Y115973D01*
X409505D01*
X409970Y116050D01*
X410384Y116242D01*
X410590Y116472D01*
X410694Y116740D01*
X410590Y117047D01*
X410384Y117277D01*
X410074Y117430D01*
X409660Y117507D01*
X409299Y117430D01*
X408937Y117238D01*
X408730Y117008D01*
X408679Y116740D01*
X408782Y116433D01*
X409040Y116203D01*
X409505Y115973D01*
G01X422575Y68058D02*
X422345Y68214D01*
X422077Y68317D01*
X421770D01*
X421425Y68162D01*
X421157Y67904D01*
X420965Y67594D01*
X420812Y67077D01*
X420774Y66612D01*
X420850Y66147D01*
X420965Y65837D01*
X421195Y65527D01*
X421464Y65320D01*
X421732Y65217D01*
X422000D01*
X422269Y65320D01*
X422499Y65475D01*
X422690Y65682D01*
G01X423504Y66508D02*
X423772Y66870D01*
X424002Y67077D01*
X424309Y67180D01*
X424577Y67077D01*
X424769Y66870D01*
X424922Y66560D01*
X424960Y66198D01*
X424922Y65888D01*
X424769Y65578D01*
X424539Y65320D01*
X424270Y65217D01*
X423964Y65320D01*
X423695Y65630D01*
X423542Y66095D01*
X423504Y66612D01*
X423580Y67284D01*
X423695Y67645D01*
X423887Y68007D01*
X424155Y68265D01*
X424424Y68317D01*
X424692Y68214D01*
X424884Y67955D01*
G01X426732Y65217D02*
X427000Y65269D01*
X427307Y65424D01*
X427499Y65682D01*
X427575Y66044D01*
X427499Y66405D01*
X427269Y66715D01*
X426924Y66870D01*
X426540D01*
X426310Y66974D01*
X426119Y67232D01*
X426042Y67594D01*
X426157Y67955D01*
X426425Y68214D01*
X426732Y68317D01*
X427039Y68214D01*
X427307Y67955D01*
X427422Y67594D01*
X427345Y67232D01*
X427154Y66974D01*
X426924Y66870D01*
X426540D01*
X426195Y66715D01*
X425965Y66405D01*
X425889Y66044D01*
X425965Y65682D01*
X426157Y65424D01*
X426464Y65269D01*
X426732Y65217D01*
G01X417989Y85027D02*
X417759Y85182D01*
X417490Y85285D01*
X417184D01*
X416839Y85130D01*
X416570Y84872D01*
X416379Y84562D01*
X416225Y84045D01*
X416187Y83580D01*
X416264Y83115D01*
X416379Y82805D01*
X416609Y82495D01*
X416877Y82289D01*
X417145Y82185D01*
X417414D01*
X417682Y82289D01*
X417912Y82444D01*
X418104Y82650D01*
G01X418917Y83477D02*
X419185Y83839D01*
X419415Y84045D01*
X419722Y84149D01*
X419990Y84045D01*
X420182Y83839D01*
X420335Y83529D01*
X420374Y83167D01*
X420335Y82857D01*
X420182Y82547D01*
X419952Y82289D01*
X419684Y82185D01*
X419377Y82289D01*
X419109Y82599D01*
X418955Y83064D01*
X418917Y83580D01*
X418994Y84252D01*
X419109Y84614D01*
X419300Y84975D01*
X419569Y85234D01*
X419837Y85285D01*
X420105Y85182D01*
X420297Y84924D01*
G01X422605Y82185D02*
Y85285D01*
X421187Y83064D01*
X423104D01*
G01X418387Y106083D02*
Y109183D01*
X419345D01*
X419652Y109028D01*
X419843Y108821D01*
X419920Y108408D01*
X419843Y107995D01*
X419613Y107737D01*
X419345Y107581D01*
X418387D01*
G01X419345D02*
X419920Y106083D01*
G01X422113D02*
Y109183D01*
X420695Y106961D01*
X422612D01*
G01X424077Y106083D02*
X424153Y106755D01*
X424268Y107323D01*
X424422Y107840D01*
X424613Y108408D01*
X424920Y109183D01*
X423387D01*
G01X424160Y44692D02*
X423930Y44848D01*
X423662Y44951D01*
X423355D01*
X423010Y44796D01*
X422742Y44538D01*
X422550Y44227D01*
X422397Y43711D01*
X422358Y43246D01*
X422435Y42781D01*
X422550Y42471D01*
X422780Y42161D01*
X423048Y41954D01*
X423317Y41851D01*
X423585D01*
X423853Y41954D01*
X424083Y42109D01*
X424275Y42316D01*
G01X425740Y41851D02*
X425817Y42522D01*
X425932Y43091D01*
X426085Y43608D01*
X426277Y44176D01*
X426583Y44951D01*
X425050D01*
G01X428317D02*
X428010Y44848D01*
X427780Y44589D01*
X427627Y44279D01*
X427512Y43866D01*
X427473Y43401D01*
X427512Y42936D01*
X427627Y42522D01*
X427780Y42212D01*
X428010Y41954D01*
X428317Y41851D01*
X428623Y41954D01*
X428853Y42212D01*
X429007Y42522D01*
X429122Y42936D01*
X429160Y43401D01*
X429122Y43866D01*
X429007Y44279D01*
X428853Y44589D01*
X428623Y44848D01*
X428317Y44951D01*
G01X423067Y56572D02*
X422837Y56727D01*
X422569Y56831D01*
X422262D01*
X421917Y56676D01*
X421649Y56417D01*
X421457Y56107D01*
X421304Y55591D01*
X421266Y55126D01*
X421342Y54661D01*
X421457Y54351D01*
X421687Y54041D01*
X421956Y53834D01*
X422224Y53731D01*
X422492D01*
X422761Y53834D01*
X422991Y53989D01*
X423182Y54196D01*
G01X424647Y53731D02*
X424724Y54402D01*
X424839Y54971D01*
X424992Y55487D01*
X425184Y56056D01*
X425491Y56831D01*
X423957D01*
G01X427224Y53731D02*
Y56831D01*
X426764Y56211D01*
G01Y53731D02*
X427684D01*
G01X423067Y78216D02*
X422837Y78371D01*
X422569Y78474D01*
X422262D01*
X421917Y78319D01*
X421649Y78061D01*
X421457Y77751D01*
X421304Y77234D01*
X421266Y76769D01*
X421342Y76304D01*
X421457Y75994D01*
X421687Y75684D01*
X421956Y75478D01*
X422224Y75374D01*
X422492D01*
X422761Y75478D01*
X422991Y75633D01*
X423182Y75839D01*
G01X423996Y76666D02*
X424264Y77028D01*
X424494Y77234D01*
X424801Y77338D01*
X425069Y77234D01*
X425261Y77028D01*
X425414Y76718D01*
X425452Y76356D01*
X425414Y76046D01*
X425261Y75736D01*
X425031Y75478D01*
X424762Y75374D01*
X424456Y75478D01*
X424187Y75788D01*
X424034Y76253D01*
X423996Y76769D01*
X424072Y77441D01*
X424187Y77803D01*
X424379Y78164D01*
X424647Y78423D01*
X424916Y78474D01*
X425184Y78371D01*
X425376Y78113D01*
G01X427147Y75374D02*
X427224Y76046D01*
X427339Y76614D01*
X427492Y77131D01*
X427684Y77699D01*
X427991Y78474D01*
X426457D01*
G01X428983Y85027D02*
X428753Y85182D01*
X428485Y85285D01*
X428178D01*
X427833Y85130D01*
X427565Y84872D01*
X427373Y84562D01*
X427220Y84045D01*
X427181Y83580D01*
X427258Y83115D01*
X427373Y82805D01*
X427603Y82495D01*
X427871Y82289D01*
X428140Y82185D01*
X428408D01*
X428676Y82289D01*
X428906Y82444D01*
X429098Y82650D01*
G01X429911Y83477D02*
X430180Y83839D01*
X430410Y84045D01*
X430716Y84149D01*
X430984Y84045D01*
X431176Y83839D01*
X431330Y83529D01*
X431368Y83167D01*
X431330Y82857D01*
X431176Y82547D01*
X430946Y82289D01*
X430678Y82185D01*
X430371Y82289D01*
X430103Y82599D01*
X429950Y83064D01*
X429911Y83580D01*
X429988Y84252D01*
X430103Y84614D01*
X430294Y84975D01*
X430563Y85234D01*
X430831Y85285D01*
X431100Y85182D01*
X431291Y84924D01*
G01X433140Y82185D02*
Y85285D01*
X432680Y84665D01*
G01Y82185D02*
X433599D01*
G01X428833Y171758D02*
Y174858D01*
X429792D01*
X430098Y174702D01*
X430290Y174496D01*
X430367Y174082D01*
X430290Y173669D01*
X430060Y173411D01*
X429792Y173256D01*
X428833D01*
G01X429792D02*
X430367Y171758D01*
G01X431372Y173049D02*
X431640Y173411D01*
X431870Y173618D01*
X432177Y173721D01*
X432445Y173618D01*
X432637Y173411D01*
X432790Y173101D01*
X432828Y172739D01*
X432790Y172429D01*
X432637Y172119D01*
X432407Y171861D01*
X432138Y171758D01*
X431832Y171861D01*
X431563Y172171D01*
X431410Y172636D01*
X431372Y173153D01*
X431448Y173824D01*
X431563Y174186D01*
X431755Y174548D01*
X432023Y174806D01*
X432292Y174858D01*
X432560Y174754D01*
X432752Y174496D01*
G01X434600Y174858D02*
X434293Y174754D01*
X434063Y174496D01*
X433910Y174186D01*
X433795Y173772D01*
X433757Y173308D01*
X433795Y172842D01*
X433910Y172429D01*
X434063Y172119D01*
X434293Y171861D01*
X434600Y171758D01*
X434907Y171861D01*
X435137Y172119D01*
X435290Y172429D01*
X435405Y172842D01*
X435443Y173308D01*
X435405Y173772D01*
X435290Y174186D01*
X435137Y174496D01*
X434907Y174754D01*
X434600Y174858D01*
G01X434786Y17554D02*
Y20654D01*
G01X436396D02*
Y17554D01*
G01Y19104D02*
X434786D01*
G01X438091Y17554D02*
Y20654D01*
X437631Y20034D01*
G01Y17554D02*
X438550D01*
G01X440591D02*
Y20654D01*
X440131Y20034D01*
G01Y17554D02*
X441051D01*
G01X437162Y66681D02*
X436932Y66836D01*
X436664Y66939D01*
X436357D01*
X436012Y66784D01*
X435744Y66526D01*
X435552Y66216D01*
X435399Y65699D01*
X435360Y65234D01*
X435437Y64769D01*
X435552Y64459D01*
X435782Y64149D01*
X436050Y63942D01*
X436319Y63839D01*
X436587D01*
X436855Y63942D01*
X437085Y64097D01*
X437277Y64304D01*
G01X438090Y65131D02*
X438359Y65492D01*
X438589Y65699D01*
X438895Y65802D01*
X439164Y65699D01*
X439355Y65492D01*
X439509Y65182D01*
X439547Y64821D01*
X439509Y64511D01*
X439355Y64201D01*
X439125Y63942D01*
X438857Y63839D01*
X438550Y63942D01*
X438282Y64252D01*
X438129Y64717D01*
X438090Y65234D01*
X438167Y65906D01*
X438282Y66267D01*
X438474Y66629D01*
X438742Y66887D01*
X439010Y66939D01*
X439279Y66836D01*
X439470Y66577D01*
G01X440667Y64201D02*
X440935Y63942D01*
X441242Y63839D01*
X441549Y63942D01*
X441817Y64252D01*
X442009Y64717D01*
X442085Y65182D01*
Y65751D01*
X442009Y66216D01*
X441817Y66629D01*
X441587Y66836D01*
X441319Y66939D01*
X441012Y66836D01*
X440782Y66629D01*
X440629Y66319D01*
X440552Y65906D01*
X440629Y65544D01*
X440820Y65182D01*
X441050Y64976D01*
X441319Y64924D01*
X441625Y65027D01*
X441855Y65286D01*
X442085Y65751D01*
G01X429213Y106083D02*
Y109183D01*
X430172D01*
X430478Y109028D01*
X430670Y108821D01*
X430747Y108408D01*
X430670Y107995D01*
X430440Y107737D01*
X430172Y107581D01*
X429213D01*
G01X430172D02*
X430747Y106083D01*
G01X432940D02*
Y109183D01*
X431522Y106961D01*
X433438D01*
G01X434328Y106445D02*
X434597Y106186D01*
X434903Y106083D01*
X435210Y106186D01*
X435478Y106496D01*
X435670Y106961D01*
X435747Y107426D01*
Y107995D01*
X435670Y108460D01*
X435478Y108873D01*
X435248Y109080D01*
X434980Y109183D01*
X434673Y109080D01*
X434443Y108873D01*
X434290Y108563D01*
X434213Y108150D01*
X434290Y107788D01*
X434482Y107426D01*
X434712Y107220D01*
X434980Y107168D01*
X435287Y107271D01*
X435517Y107530D01*
X435747Y107995D01*
G01X439436Y78895D02*
X439206Y79050D01*
X438937Y79154D01*
X438631D01*
X438285Y78998D01*
X438017Y78740D01*
X437826Y78430D01*
X437672Y77914D01*
X437634Y77448D01*
X437710Y76984D01*
X437826Y76674D01*
X438056Y76363D01*
X438324Y76157D01*
X438592Y76054D01*
X438860D01*
X439129Y76157D01*
X439359Y76312D01*
X439551Y76518D01*
G01X440364Y77345D02*
X440632Y77707D01*
X440862Y77914D01*
X441169Y78017D01*
X441437Y77914D01*
X441629Y77707D01*
X441782Y77397D01*
X441821Y77035D01*
X441782Y76725D01*
X441629Y76415D01*
X441399Y76157D01*
X441131Y76054D01*
X440824Y76157D01*
X440556Y76467D01*
X440402Y76932D01*
X440364Y77448D01*
X440440Y78120D01*
X440556Y78482D01*
X440747Y78844D01*
X441015Y79102D01*
X441284Y79154D01*
X441552Y79050D01*
X441744Y78792D01*
G01X442864Y77345D02*
X443132Y77707D01*
X443362Y77914D01*
X443669Y78017D01*
X443937Y77914D01*
X444129Y77707D01*
X444282Y77397D01*
X444321Y77035D01*
X444282Y76725D01*
X444129Y76415D01*
X443899Y76157D01*
X443631Y76054D01*
X443324Y76157D01*
X443056Y76467D01*
X442902Y76932D01*
X442864Y77448D01*
X442940Y78120D01*
X443056Y78482D01*
X443247Y78844D01*
X443516Y79102D01*
X443784Y79154D01*
X444052Y79050D01*
X444244Y78792D01*
G01X442803Y103447D02*
X442573Y103602D01*
X442305Y103705D01*
X441998D01*
X441653Y103550D01*
X441385Y103292D01*
X441193Y102982D01*
X441040Y102465D01*
X441001Y102000D01*
X441078Y101535D01*
X441193Y101225D01*
X441423Y100915D01*
X441691Y100708D01*
X441960Y100605D01*
X442228D01*
X442496Y100708D01*
X442726Y100863D01*
X442918Y101070D01*
G01X443731Y101897D02*
X444000Y102259D01*
X444230Y102465D01*
X444536Y102568D01*
X444805Y102465D01*
X444996Y102259D01*
X445150Y101948D01*
X445188Y101587D01*
X445150Y101277D01*
X444996Y100967D01*
X444766Y100708D01*
X444498Y100605D01*
X444191Y100708D01*
X443923Y101018D01*
X443770Y101483D01*
X443731Y102000D01*
X443808Y102672D01*
X443923Y103034D01*
X444115Y103395D01*
X444383Y103653D01*
X444651Y103705D01*
X444920Y103602D01*
X445111Y103343D01*
G01X446960Y103705D02*
X446653Y103602D01*
X446423Y103343D01*
X446270Y103034D01*
X446155Y102620D01*
X446116Y102155D01*
X446155Y101690D01*
X446270Y101277D01*
X446423Y100967D01*
X446653Y100708D01*
X446960Y100605D01*
X447266Y100708D01*
X447496Y100967D01*
X447650Y101277D01*
X447765Y101690D01*
X447803Y102155D01*
X447765Y102620D01*
X447650Y103034D01*
X447496Y103343D01*
X447266Y103602D01*
X446960Y103705D01*
G01X440249Y109764D02*
Y107542D01*
X440402Y107077D01*
X440709Y106767D01*
X441092Y106664D01*
X441476Y106767D01*
X441782Y107077D01*
X441935Y107542D01*
Y109764D01*
G01X443592Y106664D02*
Y109764D01*
X443132Y109144D01*
G01Y106664D02*
X444052D01*
G01X445364Y109247D02*
X445594Y109557D01*
X445862Y109712D01*
X446169Y109764D01*
X446552Y109660D01*
X446821Y109402D01*
X446897Y109092D01*
X446859Y108782D01*
X446706Y108524D01*
X445939Y108007D01*
X445594Y107645D01*
X445364Y107129D01*
X445287Y106664D01*
X446897D01*
G01X441551Y133844D02*
X441321Y133999D01*
X441053Y134103D01*
X440746D01*
X440401Y133948D01*
X440133Y133689D01*
X439941Y133379D01*
X439788Y132863D01*
X439749Y132398D01*
X439826Y131933D01*
X439941Y131623D01*
X440171Y131313D01*
X440439Y131106D01*
X440708Y131003D01*
X440976D01*
X441244Y131106D01*
X441474Y131261D01*
X441666Y131468D01*
G01X442479Y132294D02*
X442748Y132656D01*
X442978Y132863D01*
X443284Y132966D01*
X443553Y132863D01*
X443744Y132656D01*
X443898Y132346D01*
X443936Y131984D01*
X443898Y131674D01*
X443744Y131364D01*
X443514Y131106D01*
X443246Y131003D01*
X442939Y131106D01*
X442671Y131416D01*
X442518Y131881D01*
X442479Y132398D01*
X442556Y133069D01*
X442671Y133431D01*
X442863Y133793D01*
X443131Y134051D01*
X443399Y134103D01*
X443668Y133999D01*
X443859Y133741D01*
G01X444864Y131623D02*
X445094Y131261D01*
X445401Y131054D01*
X445746Y131003D01*
X446053Y131054D01*
X446359Y131313D01*
X446551Y131623D01*
X446589Y131933D01*
X446513Y132294D01*
X446244Y132553D01*
X445976Y132656D01*
X445631D01*
G01X445976D02*
X446206Y132811D01*
X446398Y133069D01*
X446474Y133379D01*
X446398Y133689D01*
X446206Y133948D01*
X445861Y134103D01*
X445516Y134051D01*
X445171Y133844D01*
G01X449314Y44094D02*
Y41873D01*
X449467Y41408D01*
X449774Y41098D01*
X450157Y40994D01*
X450541Y41098D01*
X450847Y41408D01*
X451001Y41873D01*
Y44094D01*
G01X452657Y40994D02*
Y44094D01*
X452197Y43474D01*
G01Y40994D02*
X453117D01*
G01X455617D02*
Y44094D01*
X454199Y41873D01*
X456116D01*
G01X448603Y63839D02*
Y66939D01*
X449562D01*
X449868Y66784D01*
X450060Y66577D01*
X450136Y66164D01*
X450060Y65751D01*
X449830Y65492D01*
X449562Y65337D01*
X448603D01*
G01X449562D02*
X450136Y63839D01*
G01X451027Y64304D02*
X451256Y64046D01*
X451525Y63891D01*
X451870Y63839D01*
X452215Y63942D01*
X452483Y64149D01*
X452675Y64511D01*
X452713Y64924D01*
X452636Y65337D01*
X452445Y65596D01*
X452176Y65802D01*
X451908Y65854D01*
X451640Y65802D01*
X451295Y65596D01*
X451410Y66939D01*
X452445D01*
G01X453527Y64459D02*
X453756Y64097D01*
X454063Y63891D01*
X454408Y63839D01*
X454715Y63891D01*
X455022Y64149D01*
X455213Y64459D01*
X455252Y64769D01*
X455175Y65131D01*
X454906Y65389D01*
X454638Y65492D01*
X454293D01*
G01X454638D02*
X454868Y65647D01*
X455060Y65906D01*
X455136Y66216D01*
X455060Y66526D01*
X454868Y66784D01*
X454523Y66939D01*
X454178Y66887D01*
X453833Y66681D01*
G01X453131Y75374D02*
Y78474D01*
X454089D01*
X454396Y78319D01*
X454587Y78113D01*
X454664Y77699D01*
X454587Y77286D01*
X454357Y77028D01*
X454089Y76873D01*
X453131D01*
G01X454089D02*
X454664Y75374D01*
G01X455554Y75839D02*
X455784Y75581D01*
X456052Y75426D01*
X456397Y75374D01*
X456742Y75478D01*
X457011Y75684D01*
X457202Y76046D01*
X457241Y76459D01*
X457164Y76873D01*
X456972Y77131D01*
X456704Y77338D01*
X456436Y77389D01*
X456167Y77338D01*
X455822Y77131D01*
X455937Y78474D01*
X456972D01*
G01X458169Y77958D02*
X458399Y78268D01*
X458667Y78423D01*
X458974Y78474D01*
X459357Y78371D01*
X459626Y78113D01*
X459702Y77803D01*
X459664Y77493D01*
X459511Y77234D01*
X458744Y76718D01*
X458399Y76356D01*
X458169Y75839D01*
X458092Y75374D01*
X459702D01*
G01X449942Y119154D02*
Y122254D01*
X450900D01*
X451207Y122099D01*
X451398Y121892D01*
X451475Y121479D01*
X451398Y121066D01*
X451168Y120807D01*
X450900Y120652D01*
X449942D01*
G01X450900D02*
X451475Y119154D01*
G01X452365Y119619D02*
X452595Y119360D01*
X452863Y119206D01*
X453208Y119154D01*
X453553Y119257D01*
X453822Y119464D01*
X454013Y119826D01*
X454052Y120239D01*
X453975Y120652D01*
X453783Y120911D01*
X453515Y121117D01*
X453247Y121169D01*
X452978Y121117D01*
X452633Y120911D01*
X452748Y122254D01*
X453783D01*
G01X455708D02*
X455402Y122151D01*
X455172Y121892D01*
X455018Y121582D01*
X454903Y121169D01*
X454865Y120704D01*
X454903Y120239D01*
X455018Y119826D01*
X455172Y119516D01*
X455402Y119257D01*
X455708Y119154D01*
X456015Y119257D01*
X456245Y119516D01*
X456398Y119826D01*
X456513Y120239D01*
X456552Y120704D01*
X456513Y121169D01*
X456398Y121582D01*
X456245Y121892D01*
X456015Y122151D01*
X455708Y122254D01*
G01X449643Y174599D02*
X449413Y174754D01*
X449145Y174858D01*
X448838D01*
X448493Y174702D01*
X448225Y174444D01*
X448033Y174134D01*
X447880Y173618D01*
X447842Y173153D01*
X447918Y172688D01*
X448033Y172378D01*
X448263Y172067D01*
X448532Y171861D01*
X448800Y171758D01*
X449068D01*
X449337Y171861D01*
X449567Y172016D01*
X449758Y172222D01*
G01X451223Y171758D02*
X451300Y172429D01*
X451415Y172997D01*
X451568Y173514D01*
X451760Y174082D01*
X452067Y174858D01*
X450533D01*
G01X453072Y174341D02*
X453302Y174651D01*
X453570Y174806D01*
X453877Y174858D01*
X454260Y174754D01*
X454528Y174496D01*
X454605Y174186D01*
X454567Y173876D01*
X454413Y173618D01*
X453647Y173101D01*
X453302Y172739D01*
X453072Y172222D01*
X452995Y171758D01*
X454605D01*
G01X461937Y67649D02*
Y65427D01*
X462090Y64962D01*
X462397Y64652D01*
X462780Y64549D01*
X463163Y64652D01*
X463470Y64962D01*
X463623Y65427D01*
Y67649D01*
G01X465280Y64549D02*
Y67649D01*
X464820Y67029D01*
G01Y64549D02*
X465740D01*
G01X466937Y65014D02*
X467167Y64756D01*
X467435Y64601D01*
X467780Y64549D01*
X468125Y64652D01*
X468393Y64859D01*
X468585Y65221D01*
X468623Y65634D01*
X468547Y66048D01*
X468355Y66306D01*
X468087Y66512D01*
X467818Y66564D01*
X467550Y66512D01*
X467205Y66306D01*
X467320Y67649D01*
X468355D01*
G01X455879Y91988D02*
Y89766D01*
X456032Y89301D01*
X456339Y88992D01*
X456722Y88888D01*
X457106Y88992D01*
X457412Y89301D01*
X457566Y89766D01*
Y91988D01*
G01X459222Y88888D02*
Y91988D01*
X458762Y91368D01*
G01Y88888D02*
X459682D01*
G01X460879Y89508D02*
X461109Y89146D01*
X461416Y88940D01*
X461761Y88888D01*
X462067Y88940D01*
X462374Y89198D01*
X462566Y89508D01*
X462604Y89818D01*
X462527Y90180D01*
X462259Y90438D01*
X461990Y90542D01*
X461646D01*
G01X461990D02*
X462220Y90696D01*
X462412Y90955D01*
X462489Y91265D01*
X462412Y91575D01*
X462220Y91833D01*
X461876Y91988D01*
X461530Y91936D01*
X461185Y91730D01*
G01X463215Y120932D02*
X462985Y121088D01*
X462717Y121191D01*
X462410D01*
X462065Y121036D01*
X461797Y120778D01*
X461605Y120468D01*
X461452Y119951D01*
X461413Y119486D01*
X461490Y119021D01*
X461605Y118711D01*
X461835Y118401D01*
X462104Y118194D01*
X462372Y118091D01*
X462640D01*
X462908Y118194D01*
X463139Y118349D01*
X463330Y118556D01*
G01X464143Y119383D02*
X464412Y119744D01*
X464642Y119951D01*
X464948Y120054D01*
X465217Y119951D01*
X465408Y119744D01*
X465562Y119434D01*
X465600Y119072D01*
X465562Y118762D01*
X465408Y118452D01*
X465178Y118194D01*
X464910Y118091D01*
X464604Y118194D01*
X464335Y118504D01*
X464182Y118969D01*
X464143Y119486D01*
X464220Y120158D01*
X464335Y120519D01*
X464527Y120881D01*
X464795Y121139D01*
X465064Y121191D01*
X465332Y121088D01*
X465523Y120829D01*
G01X466643Y120674D02*
X466874Y120984D01*
X467142Y121139D01*
X467448Y121191D01*
X467832Y121088D01*
X468100Y120829D01*
X468177Y120519D01*
X468139Y120209D01*
X467985Y119951D01*
X467219Y119434D01*
X466874Y119072D01*
X466643Y118556D01*
X466567Y118091D01*
X468177D01*
G01X463333Y75250D02*
Y78350D01*
X464292D01*
X464598Y78195D01*
X464790Y77988D01*
X464867Y77575D01*
X464790Y77162D01*
X464560Y76903D01*
X464292Y76748D01*
X463333D01*
G01X464292D02*
X464867Y75250D01*
G01X467060D02*
Y78350D01*
X465642Y76128D01*
X467558D01*
G01X469100Y75250D02*
X469368Y75302D01*
X469675Y75457D01*
X469867Y75715D01*
X469943Y76077D01*
X469867Y76438D01*
X469637Y76748D01*
X469292Y76903D01*
X468908D01*
X468678Y77007D01*
X468487Y77265D01*
X468410Y77627D01*
X468525Y77988D01*
X468793Y78247D01*
X469100Y78350D01*
X469407Y78247D01*
X469675Y77988D01*
X469790Y77627D01*
X469713Y77265D01*
X469522Y77007D01*
X469292Y76903D01*
X468908D01*
X468563Y76748D01*
X468333Y76438D01*
X468257Y76077D01*
X468333Y75715D01*
X468525Y75457D01*
X468832Y75302D01*
X469100Y75250D01*
G01X467843Y174892D02*
X467613Y175047D01*
X467345Y175150D01*
X467038D01*
X466693Y174995D01*
X466425Y174737D01*
X466233Y174427D01*
X466080Y173910D01*
X466042Y173445D01*
X466118Y172980D01*
X466233Y172670D01*
X466463Y172360D01*
X466732Y172153D01*
X467000Y172050D01*
X467268D01*
X467537Y172153D01*
X467767Y172308D01*
X467958Y172515D01*
G01X469423Y172050D02*
X469500Y172722D01*
X469615Y173290D01*
X469768Y173807D01*
X469960Y174375D01*
X470267Y175150D01*
X468733D01*
G01X471157Y172670D02*
X471387Y172308D01*
X471693Y172102D01*
X472038Y172050D01*
X472345Y172102D01*
X472652Y172360D01*
X472843Y172670D01*
X472882Y172980D01*
X472805Y173342D01*
X472537Y173600D01*
X472268Y173703D01*
X471923D01*
G01X472268D02*
X472498Y173858D01*
X472690Y174117D01*
X472767Y174427D01*
X472690Y174737D01*
X472498Y174995D01*
X472153Y175150D01*
X471808Y175098D01*
X471463Y174892D01*
G01X473130Y32600D02*
X473897D01*
Y31670D01*
X473667Y31360D01*
X473398Y31153D01*
X473015Y31050D01*
X472632Y31153D01*
X472363Y31360D01*
X472133Y31670D01*
X471980Y32032D01*
X471903Y32445D01*
Y32807D01*
X471980Y33117D01*
X472133Y33478D01*
X472363Y33788D01*
X472593Y33995D01*
X472900Y34150D01*
X473168D01*
X473475Y34047D01*
X473705Y33840D01*
G01X474518Y31050D02*
Y34150D01*
X476282Y31050D01*
Y34150D01*
G01X477057Y31050D02*
Y34150D01*
X477823D01*
X478130Y33995D01*
X478360Y33788D01*
X478552Y33478D01*
X478705Y33117D01*
X478743Y32600D01*
X478705Y32083D01*
X478552Y31722D01*
X478360Y31412D01*
X478130Y31205D01*
X477823Y31050D01*
X477057D01*
G01X479410Y58867D02*
Y61967D01*
X477992Y59745D01*
X479908D01*
G01X481450Y58867D02*
X481718Y58918D01*
X482025Y59073D01*
X482217Y59332D01*
X482293Y59693D01*
X482217Y60055D01*
X481987Y60365D01*
X481642Y60520D01*
X481258D01*
X481028Y60623D01*
X480837Y60882D01*
X480760Y61243D01*
X480875Y61605D01*
X481143Y61863D01*
X481450Y61967D01*
X481757Y61863D01*
X482025Y61605D01*
X482140Y61243D01*
X482063Y60882D01*
X481872Y60623D01*
X481642Y60520D01*
X481258D01*
X480913Y60365D01*
X480683Y60055D01*
X480607Y59693D01*
X480683Y59332D01*
X480875Y59073D01*
X481182Y58918D01*
X481450Y58867D01*
G01X483107Y59332D02*
X483337Y59073D01*
X483605Y58918D01*
X483950Y58867D01*
X484295Y58970D01*
X484563Y59177D01*
X484755Y59538D01*
X484793Y59952D01*
X484717Y60365D01*
X484525Y60623D01*
X484257Y60830D01*
X483988Y60882D01*
X483720Y60830D01*
X483375Y60623D01*
X483490Y61967D01*
X484525D01*
G01X485952Y59900D02*
X486948D01*
G01X487992Y61967D02*
X488950Y58867D01*
X489908Y61967D01*
G01X490875Y60262D02*
X492102D01*
X491987Y60623D01*
X491795Y60830D01*
X491527Y60933D01*
X491258Y60882D01*
X491028Y60727D01*
X490875Y60365D01*
X490798Y60055D01*
Y59745D01*
X490875Y59435D01*
X491067Y59125D01*
X491297Y58918D01*
X491565Y58867D01*
X491833Y58970D01*
X492102Y59280D01*
G01X493298Y58867D02*
Y60933D01*
G01Y60417D02*
X493452Y60675D01*
X493682Y60882D01*
X493988Y60933D01*
X494257Y60882D01*
X494487Y60675D01*
X494602Y60313D01*
Y58867D01*
G01X496450D02*
Y61967D01*
X495990Y61347D01*
G01Y58867D02*
X496910D01*
G01X498950Y58763D02*
X498873Y58815D01*
Y58918D01*
X498950Y58970D01*
X499027Y58918D01*
Y58815D01*
X498950Y58763D01*
G01X501450Y58867D02*
Y61967D01*
X500990Y61347D01*
G01Y58867D02*
X501910D01*
G01X484028Y32083D02*
X484948D01*
G01X484450Y32755D02*
Y31412D01*
G01X486950Y31050D02*
Y34150D01*
X486490Y33530D01*
G01Y31050D02*
X487410D01*
G01X488607Y31515D02*
X488837Y31257D01*
X489105Y31102D01*
X489450Y31050D01*
X489795Y31153D01*
X490063Y31360D01*
X490255Y31722D01*
X490293Y32135D01*
X490217Y32548D01*
X490025Y32807D01*
X489757Y33013D01*
X489488Y33065D01*
X489220Y33013D01*
X488875Y32807D01*
X488990Y34150D01*
X490025D01*
G01X490992D02*
X491950Y31050D01*
X492908Y34150D01*
G01X478822Y67633D02*
X479052Y67943D01*
X479320Y68098D01*
X479627Y68150D01*
X480010Y68047D01*
X480278Y67788D01*
X480355Y67478D01*
X480317Y67168D01*
X480163Y66910D01*
X479397Y66393D01*
X479052Y66032D01*
X478822Y65515D01*
X478745Y65050D01*
X480355D01*
G01X482050Y68150D02*
X481743Y68047D01*
X481513Y67788D01*
X481360Y67478D01*
X481245Y67065D01*
X481207Y66600D01*
X481245Y66135D01*
X481360Y65722D01*
X481513Y65412D01*
X481743Y65153D01*
X482050Y65050D01*
X482357Y65153D01*
X482587Y65412D01*
X482740Y65722D01*
X482855Y66135D01*
X482893Y66600D01*
X482855Y67065D01*
X482740Y67478D01*
X482587Y67788D01*
X482357Y68047D01*
X482050Y68150D01*
G01X484550Y65050D02*
Y68150D01*
X484090Y67530D01*
G01Y65050D02*
X485010D01*
G01X487050D02*
X487318Y65102D01*
X487625Y65257D01*
X487817Y65515D01*
X487893Y65877D01*
X487817Y66238D01*
X487587Y66548D01*
X487242Y66703D01*
X486858D01*
X486628Y66807D01*
X486437Y67065D01*
X486360Y67427D01*
X486475Y67788D01*
X486743Y68047D01*
X487050Y68150D01*
X487357Y68047D01*
X487625Y67788D01*
X487740Y67427D01*
X487663Y67065D01*
X487472Y66807D01*
X487242Y66703D01*
X486858D01*
X486513Y66548D01*
X486283Y66238D01*
X486207Y65877D01*
X486283Y65515D01*
X486475Y65257D01*
X486782Y65102D01*
X487050Y65050D01*
G01X489052Y66083D02*
X490048D01*
G01X492050Y68150D02*
X491743Y68047D01*
X491513Y67788D01*
X491360Y67478D01*
X491245Y67065D01*
X491207Y66600D01*
X491245Y66135D01*
X491360Y65722D01*
X491513Y65412D01*
X491743Y65153D01*
X492050Y65050D01*
X492357Y65153D01*
X492587Y65412D01*
X492740Y65722D01*
X492855Y66135D01*
X492893Y66600D01*
X492855Y67065D01*
X492740Y67478D01*
X492587Y67788D01*
X492357Y68047D01*
X492050Y68150D01*
G01X493822Y67633D02*
X494052Y67943D01*
X494320Y68098D01*
X494627Y68150D01*
X495010Y68047D01*
X495278Y67788D01*
X495355Y67478D01*
X495317Y67168D01*
X495163Y66910D01*
X494397Y66393D01*
X494052Y66032D01*
X493822Y65515D01*
X493745Y65050D01*
X495355D01*
G01X496552Y66083D02*
X497548D01*
G01X498822Y67633D02*
X499052Y67943D01*
X499320Y68098D01*
X499627Y68150D01*
X500010Y68047D01*
X500278Y67788D01*
X500355Y67478D01*
X500317Y67168D01*
X500163Y66910D01*
X499397Y66393D01*
X499052Y66032D01*
X498822Y65515D01*
X498745Y65050D01*
X500355D01*
G01X502510D02*
Y68150D01*
X501092Y65928D01*
X503008D01*
G01X483057Y106150D02*
Y103928D01*
X483210Y103463D01*
X483517Y103153D01*
X483900Y103050D01*
X484283Y103153D01*
X484590Y103463D01*
X484743Y103928D01*
Y106150D01*
G01X486400Y103050D02*
Y106150D01*
X485940Y105530D01*
G01Y103050D02*
X486860D01*
G01X488823D02*
X488900Y103722D01*
X489015Y104290D01*
X489168Y104807D01*
X489360Y105375D01*
X489667Y106150D01*
X488133D01*
G01X480443Y129892D02*
X480213Y130047D01*
X479945Y130150D01*
X479638D01*
X479293Y129995D01*
X479025Y129737D01*
X478833Y129427D01*
X478680Y128910D01*
X478642Y128445D01*
X478718Y127980D01*
X478833Y127670D01*
X479063Y127360D01*
X479332Y127153D01*
X479600Y127050D01*
X479868D01*
X480137Y127153D01*
X480367Y127308D01*
X480558Y127515D01*
G01X482100Y127050D02*
X482368Y127102D01*
X482675Y127257D01*
X482867Y127515D01*
X482943Y127877D01*
X482867Y128238D01*
X482637Y128548D01*
X482292Y128703D01*
X481908D01*
X481678Y128807D01*
X481487Y129065D01*
X481410Y129427D01*
X481525Y129788D01*
X481793Y130047D01*
X482100Y130150D01*
X482407Y130047D01*
X482675Y129788D01*
X482790Y129427D01*
X482713Y129065D01*
X482522Y128807D01*
X482292Y128703D01*
X481908D01*
X481563Y128548D01*
X481333Y128238D01*
X481257Y127877D01*
X481333Y127515D01*
X481525Y127257D01*
X481832Y127102D01*
X482100Y127050D01*
G01X484600D02*
X484868Y127102D01*
X485175Y127257D01*
X485367Y127515D01*
X485443Y127877D01*
X485367Y128238D01*
X485137Y128548D01*
X484792Y128703D01*
X484408D01*
X484178Y128807D01*
X483987Y129065D01*
X483910Y129427D01*
X484025Y129788D01*
X484293Y130047D01*
X484600Y130150D01*
X484907Y130047D01*
X485175Y129788D01*
X485290Y129427D01*
X485213Y129065D01*
X485022Y128807D01*
X484792Y128703D01*
X484408D01*
X484063Y128548D01*
X483833Y128238D01*
X483757Y127877D01*
X483833Y127515D01*
X484025Y127257D01*
X484332Y127102D01*
X484600Y127050D01*
G01X495852Y32083D02*
X496848D01*
G01X498850Y31050D02*
Y34150D01*
X498390Y33530D01*
G01Y31050D02*
X499310D01*
G01X500507Y31515D02*
X500737Y31257D01*
X501005Y31102D01*
X501350Y31050D01*
X501695Y31153D01*
X501963Y31360D01*
X502155Y31722D01*
X502193Y32135D01*
X502117Y32548D01*
X501925Y32807D01*
X501657Y33013D01*
X501388Y33065D01*
X501120Y33013D01*
X500775Y32807D01*
X500890Y34150D01*
X501925D01*
G01X502892D02*
X503850Y31050D01*
X504808Y34150D01*
G54D11*
G01X285698Y120774D02*
Y123874D01*
X286657D01*
X286963Y123719D01*
X287155Y123512D01*
X287232Y123099D01*
X287155Y122686D01*
X286925Y122427D01*
X286657Y122272D01*
X285698D01*
G01X286657D02*
X287232Y120774D01*
G01X288313Y121136D02*
X288582Y120877D01*
X288888Y120774D01*
X289195Y120877D01*
X289463Y121187D01*
X289655Y121652D01*
X289732Y122117D01*
Y122686D01*
X289655Y123151D01*
X289463Y123564D01*
X289233Y123771D01*
X288965Y123874D01*
X288658Y123771D01*
X288428Y123564D01*
X288275Y123254D01*
X288198Y122841D01*
X288275Y122479D01*
X288467Y122117D01*
X288697Y121911D01*
X288965Y121859D01*
X289272Y121962D01*
X289502Y122221D01*
X289732Y122686D01*
G01X286200Y127014D02*
Y130114D01*
X287159D01*
X287465Y129959D01*
X287657Y129752D01*
X287734Y129339D01*
X287657Y128926D01*
X287427Y128668D01*
X287159Y128513D01*
X286200D01*
G01X287159D02*
X287734Y127014D01*
G01X289467D02*
X289735Y127066D01*
X290042Y127221D01*
X290234Y127479D01*
X290310Y127841D01*
X290234Y128203D01*
X290004Y128513D01*
X289659Y128668D01*
X289275D01*
X289045Y128771D01*
X288854Y129029D01*
X288777Y129391D01*
X288892Y129752D01*
X289160Y130011D01*
X289467Y130114D01*
X289774Y130011D01*
X290042Y129752D01*
X290157Y129391D01*
X290080Y129029D01*
X289889Y128771D01*
X289659Y128668D01*
X289275D01*
X288930Y128513D01*
X288700Y128203D01*
X288624Y127841D01*
X288700Y127479D01*
X288892Y127221D01*
X289199Y127066D01*
X289467Y127014D01*
G01X302419Y137289D02*
Y140389D01*
X303378D01*
X303684Y140234D01*
X303876Y140027D01*
X303952Y139614D01*
X303876Y139200D01*
X303646Y138942D01*
X303378Y138787D01*
X302419D01*
G01X303378D02*
X303952Y137289D01*
G01X304957Y138580D02*
X305226Y138942D01*
X305456Y139149D01*
X305762Y139252D01*
X306031Y139149D01*
X306222Y138942D01*
X306376Y138632D01*
X306414Y138270D01*
X306376Y137960D01*
X306222Y137650D01*
X305992Y137392D01*
X305724Y137289D01*
X305418Y137392D01*
X305149Y137702D01*
X304996Y138167D01*
X304957Y138684D01*
X305034Y139355D01*
X305149Y139717D01*
X305341Y140079D01*
X305609Y140337D01*
X305878Y140389D01*
X306146Y140285D01*
X306338Y140027D01*
G01X304433Y149357D02*
X304203Y149512D01*
X303934Y149615D01*
X303628D01*
X303283Y149460D01*
X303014Y149202D01*
X302823Y148892D01*
X302669Y148375D01*
X302631Y147910D01*
X302708Y147445D01*
X302823Y147135D01*
X303053Y146825D01*
X303321Y146618D01*
X303589Y146515D01*
X303858D01*
X304126Y146618D01*
X304356Y146773D01*
X304548Y146980D01*
G01X305246D02*
X305476Y146722D01*
X305744Y146567D01*
X306089Y146515D01*
X306434Y146618D01*
X306703Y146825D01*
X306894Y147187D01*
X306933Y147600D01*
X306856Y148013D01*
X306664Y148272D01*
X306396Y148478D01*
X306128Y148530D01*
X305859Y148478D01*
X305514Y148272D01*
X305629Y149615D01*
X306664D01*
G01X314673Y137214D02*
Y140314D01*
X315632D01*
X315938Y140159D01*
X316130Y139952D01*
X316206Y139539D01*
X316130Y139125D01*
X315900Y138867D01*
X315632Y138712D01*
X314673D01*
G01X315632D02*
X316206Y137214D01*
G01X317863D02*
X317940Y137885D01*
X318055Y138454D01*
X318208Y138970D01*
X318400Y139539D01*
X318706Y140314D01*
X317173D01*
G01X406430Y37218D02*
Y32218D01*
X386430D01*
Y52218D01*
X406430D01*
Y37218D01*
G01X485436Y152344D02*
Y150553D01*
X485543Y150178D01*
X485756Y149928D01*
X486023Y149844D01*
X486289Y149928D01*
X486503Y150178D01*
X486609Y150553D01*
Y152344D01*
G01X488223Y149844D02*
Y152344D01*
X487903Y151844D01*
G01Y149844D02*
X488543D01*
G01X490423Y152344D02*
X490209Y152261D01*
X490049Y152053D01*
X489943Y151803D01*
X489863Y151470D01*
X489836Y151094D01*
X489863Y150720D01*
X489943Y150386D01*
X490049Y150136D01*
X490209Y149928D01*
X490423Y149844D01*
X490636Y149928D01*
X490796Y150136D01*
X490903Y150386D01*
X490983Y150720D01*
X491009Y151094D01*
X490983Y151470D01*
X490903Y151803D01*
X490796Y152053D01*
X490636Y152261D01*
X490423Y152344D01*
G01X1588782Y5038809D02*
X1586839Y5036824D01*
X1576999D01*
X1591841Y5035749D01*
X1588782Y5038809D01*
G01X1643189Y5038147D02*
X1639882Y5035088D01*
X1630084D01*
X1628347D01*
X1612389D01*
X1614332Y5033103D01*
X1616399Y5033558D01*
X1619583Y5033765D01*
X1647117D01*
X1643189Y5038147D01*
G01X1624626Y5042943D02*
X1624172Y5042530D01*
X1625949Y5040462D01*
X1627479Y5037816D01*
X1628347Y5035088D01*
X1630084D01*
X1631241Y5036700D01*
X1631159Y5039222D01*
X1630539Y5039884D01*
X1628223Y5041372D01*
X1624626Y5042943D01*
G01X1691437Y5042075D02*
X1689494Y5039884D01*
X1670476D01*
X1694951Y5039222D01*
X1691437Y5042075D01*
G54D12*
G01X17087Y-7874D02*
X489528D01*
G03X509213Y11811I0J19685D01*
G01Y208661D01*
G03X489528Y228346I-19685J0D01*
G01X17087D01*
G03X-2598Y208661I0J-19685D01*
G01Y11811D01*
G03X17087Y-7874I19685J0D01*
G01X10537Y175168D02*
Y170838D01*
X2663D01*
Y175562D01*
X10537D01*
Y175168D01*
G01X11863Y171232D02*
Y175562D01*
X19737D01*
Y170838D01*
X11863D01*
Y171232D01*
G01X29037Y169068D02*
Y164738D01*
X21163D01*
Y169462D01*
X29037D01*
Y169068D01*
G01X28937Y175168D02*
Y170838D01*
X21063D01*
Y175562D01*
X28937D01*
Y175168D01*
G01X31196Y79279D02*
Y83610D01*
X39070D01*
Y78885D01*
X31196D01*
Y79279D01*
G01Y91509D02*
Y95840D01*
X39070D01*
Y91116D01*
X31196D01*
Y91509D01*
G01X39070Y89331D02*
Y85001D01*
X31196D01*
Y89725D01*
X39070D01*
Y89331D01*
G01X39070Y101562D02*
Y97231D01*
X31196D01*
Y101956D01*
X39070D01*
Y101562D01*
G01X31196Y103740D02*
Y108071D01*
X39070D01*
Y103346D01*
X31196D01*
Y103740D01*
G01Y109855D02*
Y114186D01*
X39070D01*
Y109461D01*
X31196D01*
Y109855D01*
G01X39070Y119907D02*
Y115577D01*
X31196D01*
Y120301D01*
X39070D01*
Y119907D01*
G01X31196Y122086D02*
Y126416D01*
X39070D01*
Y121692D01*
X31196D01*
Y122086D01*
G01X39070Y132138D02*
Y127807D01*
X31196D01*
Y132531D01*
X39070D01*
Y132138D01*
G01X31196Y134316D02*
Y138647D01*
X39070D01*
Y133922D01*
X31196D01*
Y134316D01*
G01X49291Y158730D02*
X53622D01*
Y150856D01*
X48898D01*
Y158730D01*
X49291D01*
G01X64627Y83742D02*
Y79411D01*
X56753D01*
Y84135D01*
X64627D01*
Y83742D01*
G01X56753Y88909D02*
Y93240D01*
X64627D01*
Y88515D01*
X56753D01*
Y88909D01*
G01X56050Y106824D02*
Y96982D01*
X62350D01*
Y107218D01*
X56050D01*
Y106824D01*
G01X55266Y158730D02*
X59597D01*
Y150856D01*
X54872D01*
Y158730D01*
X55266D01*
G01X64232Y106737D02*
X68562D01*
Y98863D01*
X63838D01*
Y106737D01*
X64232D01*
G01X61240Y158730D02*
X65571D01*
Y150856D01*
X60846D01*
Y158730D01*
X61240D01*
G01X75778Y83742D02*
Y79411D01*
X67904D01*
Y84135D01*
X75778D01*
Y83742D01*
G01X67904Y88909D02*
Y93240D01*
X75778D01*
Y88515D01*
X67904D01*
Y88909D01*
G01X70832Y106737D02*
X75162D01*
Y98863D01*
X70438D01*
Y106737D01*
X70832D01*
G01X67215Y158730D02*
X71545D01*
Y150856D01*
X66821D01*
Y158730D01*
X67215D01*
G01X73189D02*
X77520D01*
Y150856D01*
X72795D01*
Y158730D01*
X73189D01*
G01X79163D02*
X83494D01*
Y150856D01*
X78770D01*
Y158730D01*
X79163D01*
G01X89358Y124036D02*
X93688D01*
Y116162D01*
X88964D01*
Y124036D01*
X89358D01*
G01X93068Y136563D02*
X88738D01*
Y144437D01*
X93462D01*
Y136563D01*
X93068D01*
G01X85138Y158730D02*
X89468D01*
Y150856D01*
X84744D01*
Y158730D01*
X85138D01*
G01X91112D02*
X95443D01*
Y150856D01*
X90718D01*
Y158730D01*
X91112D01*
G01X98814Y50485D02*
Y54816D01*
X106688D01*
Y50091D01*
X98814D01*
Y50485D01*
G01X106688Y61115D02*
Y56785D01*
X98814D01*
Y61509D01*
X106688D01*
Y61115D01*
G01X98814Y63872D02*
Y68202D01*
X106688D01*
Y63478D01*
X98814D01*
Y63872D01*
G01Y70565D02*
Y74896D01*
X106688D01*
Y70171D01*
X98814D01*
Y70565D01*
G01X106688Y81196D02*
Y76865D01*
X98814D01*
Y81589D01*
X106688D01*
Y81196D01*
G01X103212Y42014D02*
X107543D01*
Y34140D01*
X102818D01*
Y42014D01*
X103212D01*
G01X105388Y150854D02*
X101057D01*
Y158728D01*
X105782D01*
Y150854D01*
X105388D01*
G01X111679Y42063D02*
X116010D01*
Y34189D01*
X111285D01*
Y42063D01*
X111679D01*
G01X114671Y67979D02*
Y72309D01*
X122545D01*
Y67585D01*
X114671D01*
Y67979D01*
G01X112224Y86004D02*
Y90335D01*
X120098D01*
Y85610D01*
X112224D01*
Y86004D01*
G01X120098Y96368D02*
Y92037D01*
X112224D01*
Y96761D01*
X120098D01*
Y96368D01*
G01X113198Y150854D02*
X108868D01*
Y158728D01*
X113592D01*
Y150854D01*
X113198D01*
G01X121244Y41837D02*
X125574D01*
Y33963D01*
X120850D01*
Y41837D01*
X121244D01*
G01X121009Y150854D02*
X116679D01*
Y158728D01*
X121403D01*
Y150854D01*
X121009D01*
G01X129642Y41670D02*
X133973D01*
Y33796D01*
X129249D01*
Y41670D01*
X129642D01*
G01X135874Y57029D02*
Y52698D01*
X128000D01*
Y57423D01*
X135874D01*
Y57029D01*
G01X128000Y59932D02*
Y64263D01*
X135874D01*
Y59539D01*
X128000D01*
Y59932D01*
G01X130866Y129544D02*
X135197D01*
Y121670D01*
X130472D01*
Y129544D01*
X130866D01*
G01X134587Y133863D02*
X130257D01*
Y141737D01*
X134982D01*
Y133863D01*
X134587D01*
G01X126186Y158728D02*
X130517D01*
Y150854D01*
X125792D01*
Y158728D01*
X126186D01*
G01X142272Y33963D02*
X137941D01*
Y41837D01*
X142666D01*
Y33963D01*
X142272D01*
G01X142902Y121670D02*
X138572D01*
Y129544D01*
X143296D01*
Y121670D01*
X142902D01*
G01X143369Y133863D02*
X139038D01*
Y141737D01*
X143762D01*
Y133863D01*
X143369D01*
G01X140632Y158728D02*
X144962D01*
Y150854D01*
X140238D01*
Y158728D01*
X140632D01*
G01X137346Y150854D02*
X133015D01*
Y158728D01*
X137739D01*
Y150854D01*
X137346D01*
G01X146881Y41837D02*
X151211D01*
Y33963D01*
X146487D01*
Y41837D01*
X146881D01*
G01X217435Y36183D02*
Y40514D01*
X225309D01*
Y35789D01*
X217435D01*
Y36183D01*
G01X228774Y36183D02*
Y40514D01*
X236648D01*
Y35789D01*
X228774D01*
Y36183D01*
G01X240112D02*
Y40514D01*
X247986D01*
Y35789D01*
X240112D01*
Y36183D01*
G01X251451D02*
Y40514D01*
X259325D01*
Y35789D01*
X251451D01*
Y36183D01*
G01X253141Y109332D02*
X257471D01*
Y101458D01*
X252747D01*
Y109332D01*
X253141D01*
G01X262790Y36183D02*
Y40514D01*
X270664D01*
Y35789D01*
X262790D01*
Y36183D01*
G01X260887Y89864D02*
Y94194D01*
X268761D01*
Y89470D01*
X260887D01*
Y89864D01*
G01X269194Y121242D02*
Y116911D01*
X261320D01*
Y121635D01*
X269194D01*
Y121242D01*
G01X265428Y161137D02*
X261097D01*
Y169011D01*
X265822D01*
Y161137D01*
X265428D01*
G01X286999Y63150D02*
Y58819D01*
X279125D01*
Y63544D01*
X286999D01*
Y63150D01*
G01Y70681D02*
Y66350D01*
X279125D01*
Y71074D01*
X286999D01*
Y70681D01*
G01Y78210D02*
Y73880D01*
X279125D01*
Y78604D01*
X286999D01*
Y78210D01*
G01X287186Y85582D02*
Y81252D01*
X279312D01*
Y85976D01*
X287186D01*
Y85582D01*
G01X280969Y37222D02*
Y41552D01*
X288843D01*
Y36828D01*
X280969D01*
Y37222D01*
G01X288754Y47803D02*
Y43472D01*
X280880D01*
Y48197D01*
X288754D01*
Y47803D01*
G01X294337Y136868D02*
Y132538D01*
X286463D01*
Y137262D01*
X294337D01*
Y136868D01*
G01X295824Y146350D02*
X285982D01*
Y140050D01*
X296218D01*
Y146350D01*
X295824D01*
G01X281615Y163232D02*
Y153390D01*
X287914D01*
Y163626D01*
X281615D01*
Y163232D01*
G01X282365Y174538D02*
X286696D01*
Y166664D01*
X281971D01*
Y174538D01*
X282365D01*
G01X292699Y37222D02*
Y41552D01*
X300573D01*
Y36828D01*
X292699D01*
Y37222D01*
G01X300573Y47803D02*
Y43472D01*
X292699D01*
Y48197D01*
X300573D01*
Y47803D01*
G01X299068Y105563D02*
X294738D01*
Y113437D01*
X299462D01*
Y105563D01*
X299068D01*
G01X299349Y124193D02*
Y119863D01*
X291475D01*
Y124587D01*
X299349D01*
Y124193D01*
G01X299575Y130384D02*
Y126054D01*
X291701D01*
Y130778D01*
X299575D01*
Y130384D01*
G01X290352Y161759D02*
X294683D01*
Y153885D01*
X289958D01*
Y161759D01*
X290352D01*
G01Y174538D02*
X294683D01*
Y166664D01*
X289958D01*
Y174538D01*
X290352D01*
G01X304518Y43866D02*
Y48197D01*
X312392D01*
Y43472D01*
X304518D01*
Y43866D01*
G01X306698Y63150D02*
Y58819D01*
X298824D01*
Y63544D01*
X306698D01*
Y63150D01*
G01Y69902D02*
Y65571D01*
X298824D01*
Y70296D01*
X306698D01*
Y69902D01*
G01X298824Y72717D02*
Y77048D01*
X306698D01*
Y72324D01*
X298824D01*
Y72717D01*
G01X306698Y83406D02*
Y79076D01*
X298824D01*
Y83800D01*
X306698D01*
Y83406D01*
G01X313170Y100184D02*
Y95853D01*
X305296D01*
Y100578D01*
X313170D01*
Y100184D01*
G01X305217Y102772D02*
Y107103D01*
X313091D01*
Y102379D01*
X305217D01*
Y102772D01*
G01X308619Y136476D02*
Y132145D01*
X300745D01*
Y136869D01*
X308619D01*
Y136476D01*
G01X300902Y141889D02*
Y146220D01*
X308776D01*
Y141495D01*
X300902D01*
Y141889D01*
G01X304890Y174816D02*
X297409D01*
Y160643D01*
X305283D01*
Y174816D01*
X304890D01*
G01X312753Y132588D02*
Y136918D01*
X320627D01*
Y132194D01*
X312753D01*
Y132588D01*
G01X312851Y141791D02*
Y146121D01*
X320725D01*
Y141397D01*
X312851D01*
Y141791D01*
G01X316337Y37222D02*
Y41552D01*
X324211D01*
Y36828D01*
X316337D01*
Y37222D01*
G01X324211Y47803D02*
Y43472D01*
X316337D01*
Y48197D01*
X324211D01*
Y47803D01*
G01X325847Y63150D02*
Y58819D01*
X317973D01*
Y63544D01*
X325847D01*
Y63150D01*
G01X327252Y71828D02*
X317409D01*
Y65529D01*
X327646D01*
Y71828D01*
X327252D01*
G01X317744Y72791D02*
X327587D01*
Y79090D01*
X317351D01*
Y72791D01*
X317744D01*
G01X318336Y80538D02*
Y84868D01*
X326210D01*
Y80144D01*
X318336D01*
Y80538D01*
G01X318865Y96218D02*
Y100548D01*
X326739D01*
Y95824D01*
X318865D01*
Y96218D01*
G01X318840Y102772D02*
Y107103D01*
X326714D01*
Y102379D01*
X318840D01*
Y102772D01*
G01X336030Y41159D02*
Y36828D01*
X328156D01*
Y41552D01*
X336030D01*
Y41159D01*
G01X328156Y43866D02*
Y48197D01*
X336030D01*
Y43472D01*
X328156D01*
Y43866D01*
G01X335241Y77774D02*
Y82105D01*
X343115D01*
Y77380D01*
X335241D01*
Y77774D01*
G01X342152Y118887D02*
Y114556D01*
X334278D01*
Y119281D01*
X342152D01*
Y118887D01*
G01X342261Y125098D02*
Y120767D01*
X334387D01*
Y125491D01*
X342261D01*
Y125098D01*
G01X339975Y43866D02*
Y48197D01*
X347849D01*
Y43472D01*
X339975D01*
Y43866D01*
G01X349083Y62141D02*
Y57810D01*
X341209D01*
Y62534D01*
X349083D01*
Y62141D01*
G01Y69187D02*
Y64856D01*
X341209D01*
Y69580D01*
X349083D01*
Y69187D01*
G01Y76233D02*
Y71902D01*
X341209D01*
Y76627D01*
X349083D01*
Y76233D01*
G01X359667Y41159D02*
Y36828D01*
X351793D01*
Y41552D01*
X359667D01*
Y41159D01*
G01X351793Y43866D02*
Y48197D01*
X359667D01*
Y43472D01*
X351793D01*
Y43866D01*
G01X355590Y81711D02*
Y77380D01*
X347716D01*
Y82105D01*
X355590D01*
Y81711D01*
G01X352332Y121237D02*
X356662D01*
Y113363D01*
X351938D01*
Y121237D01*
X352332D01*
G01X368066Y67530D02*
Y63200D01*
X360192D01*
Y67924D01*
X368066D01*
Y67530D01*
G01X360192Y70689D02*
Y75019D01*
X368066D01*
Y70295D01*
X360192D01*
Y70689D01*
G01Y77784D02*
Y82115D01*
X368066D01*
Y77390D01*
X360192D01*
Y77784D01*
G01X358532Y121237D02*
X362862D01*
Y113363D01*
X358138D01*
Y121237D01*
X358532D01*
G01X371506Y41159D02*
Y36828D01*
X363632D01*
Y41552D01*
X371506D01*
Y41159D01*
G01X363632Y43866D02*
Y48197D01*
X371506D01*
Y43472D01*
X363632D01*
Y43866D01*
G01X364605Y121295D02*
Y111453D01*
X370904D01*
Y121689D01*
X364605D01*
Y121295D01*
G01X375431Y43866D02*
Y48197D01*
X383305D01*
Y43472D01*
X375431D01*
Y43866D01*
G01X409863Y77432D02*
Y81762D01*
X417737D01*
Y77038D01*
X409863D01*
Y77432D01*
G01X417746Y101471D02*
X410265D01*
Y87298D01*
X418140D01*
Y101471D01*
X417746D01*
G01X415993Y105736D02*
X411663D01*
Y113610D01*
X416387D01*
Y105736D01*
X415993D01*
G01Y115264D02*
X411663D01*
Y123138D01*
X416387D01*
Y115264D01*
X415993D01*
G01X420226Y69384D02*
Y73715D01*
X428100D01*
Y68990D01*
X420226D01*
Y69384D01*
G01X424695Y87534D02*
X420364D01*
Y95408D01*
X425088D01*
Y87534D01*
X424695D01*
G01X420758Y104630D02*
X425088D01*
Y96756D01*
X420364D01*
Y104630D01*
X420758D01*
G01X429586Y40861D02*
Y36530D01*
X421712D01*
Y41254D01*
X429586D01*
Y40861D01*
G01X430492Y53124D02*
X420649D01*
Y46825D01*
X430886D01*
Y53124D01*
X430492D01*
G01Y64374D02*
X420649D01*
Y58075D01*
X430886D01*
Y64374D01*
X430492D01*
G01X430984Y87495D02*
X426653D01*
Y95368D01*
X431378D01*
Y87495D01*
X430984D01*
G01X430866Y96707D02*
X426535D01*
Y104581D01*
X431260D01*
Y96707D01*
X430866D01*
G01X428163Y167132D02*
Y171462D01*
X436037D01*
Y166738D01*
X428163D01*
Y167132D01*
G01X434882Y58370D02*
Y62701D01*
X442756D01*
Y57977D01*
X434882D01*
Y58370D01*
G01X429763Y130505D02*
Y134835D01*
X437637D01*
Y130111D01*
X429763D01*
Y130505D01*
G01X455807Y62308D02*
Y57977D01*
X447933D01*
Y62701D01*
X455807D01*
Y62308D01*
G01X460876Y73321D02*
Y68990D01*
X453002D01*
Y73715D01*
X460876D01*
Y73321D01*
G01X451939Y118252D02*
X456269D01*
Y110378D01*
X451545D01*
Y118252D01*
X451939D01*
G01X447363Y167132D02*
Y171462D01*
X455237D01*
Y166738D01*
X447363D01*
Y167132D01*
G01X460197Y57485D02*
X470039D01*
Y63784D01*
X459803D01*
Y57485D01*
X460197D01*
G01X470637Y73269D02*
Y68938D01*
X462763D01*
Y73662D01*
X470637D01*
Y73269D01*
G01X473237Y171068D02*
Y166738D01*
X465363D01*
Y171462D01*
X473237D01*
Y171068D01*
G01X486976Y125450D02*
X496818D01*
Y131750D01*
X486582D01*
Y125450D01*
X486976D01*
G54D13*
G01X29091Y175773D02*
G03I-492J0D01*
G01X82077Y108858D02*
G03I-492J0D01*
G01X124307Y52486D02*
G03I-492J0D01*
G01X139691Y80025D02*
G03I-492J0D01*
G01X244439Y58514D02*
G03I-492J0D01*
G01X275634Y96774D02*
Y114074D01*
X261434D01*
Y96774D01*
X275634D01*
G01X277897Y100453D02*
G03I-492J0D01*
G01X281396Y169148D02*
G03I-492J0D01*
G01X302782Y130668D02*
G03I-492J0D01*
G01X365754Y86164D02*
G03I-492J0D01*
G01X421407Y130142D02*
G03I-492J0D01*
G01X440738Y53243D02*
G03I-492J0D01*
G01X465571Y135615D02*
G03I-492J0D01*
G01X471899Y80260D02*
G03I-492J0D01*
G54D14*
G01X-956Y31631D02*
X4044Y34131D01*
X6544D01*
G01X31213Y69131D02*
Y29131D01*
X-1287D01*
Y69131D01*
X31213D01*
G01X-956Y46631D02*
X4044Y44131D01*
X6544D01*
G01X-956Y51631D02*
X4044Y54131D01*
X6544D01*
G01X-956Y66631D02*
X4044Y64131D01*
X6544D01*
G01X-1108Y71289D02*
Y102785D01*
X17002D01*
Y71289D01*
X-1108D01*
G01Y104189D02*
Y135685D01*
X17002D01*
Y104189D01*
X-1108D01*
G01Y137089D02*
Y168585D01*
X17002D01*
Y137089D01*
X-1108D01*
G01X6544Y29131D02*
Y69131D01*
G01X8713Y29131D02*
Y69131D01*
G01X22299Y196246D02*
Y176954D01*
X9701D01*
Y196246D01*
X22299D01*
G01X21213Y29131D02*
Y69131D01*
G01X33846Y73819D02*
X94870D01*
Y32480D01*
X33846D01*
Y73819D01*
G01X28713Y29131D02*
Y69131D01*
G01X41624Y-7195D02*
X44124Y-2195D01*
Y305D01*
G01X39124Y24974D02*
X79124D01*
Y-7526D01*
X39124D01*
Y24974D01*
G01X79124Y305D02*
X39124D01*
G01X79124Y2474D02*
X39124D01*
G01X79124Y14974D02*
X39124D01*
G01X79124Y22474D02*
X39124D01*
G01X56624Y-7195D02*
X54124Y-2195D01*
Y305D01*
G01X55876Y137136D02*
X86584D01*
Y122470D01*
X55876D01*
Y137136D01*
G01X61624Y-7195D02*
X64124Y-2195D01*
Y305D01*
G01X76624Y-7195D02*
X74124Y-2195D01*
Y305D01*
G01X83061Y24974D02*
X123061D01*
Y-7526D01*
X83061D01*
Y24974D01*
G01X123061Y305D02*
X83061D01*
G01X123061Y2474D02*
X83061D01*
G01X123061Y14974D02*
X83061D01*
G01X123061Y22474D02*
X83061D01*
G01X85561Y-7195D02*
X88061Y-2195D01*
Y305D01*
G01X87884Y88386D02*
Y107677D01*
X100482D01*
Y88386D01*
X87884D01*
G01X100561Y-7195D02*
X98061Y-2195D01*
Y305D01*
G01X96447Y137136D02*
X127156D01*
Y122470D01*
X96447D01*
Y137136D01*
G01X105561Y-7195D02*
X108061Y-2195D01*
Y305D01*
G01X120561Y-7195D02*
X118061Y-2195D01*
Y305D01*
G01X119583Y65085D02*
Y53668D01*
X117024D01*
Y65085D01*
X119583D01*
G01X129499Y-7195D02*
X131999Y-2195D01*
Y305D01*
G01X126999Y24974D02*
X166999D01*
Y-7526D01*
X126999D01*
Y24974D01*
G01X166999Y305D02*
X126999D01*
G01X166999Y2474D02*
X126999D01*
G01X166999Y14974D02*
X126999D01*
G01X166999Y22474D02*
X126999D01*
G01X126601Y75793D02*
X138018D01*
Y73234D01*
X126601D01*
Y75793D01*
G01X144499Y-7195D02*
X141999Y-2195D01*
Y305D01*
G01X149499Y-7195D02*
X151999Y-2195D01*
Y305D01*
G01X164499Y-7195D02*
X161999Y-2195D01*
Y305D01*
G01X237648Y133317D02*
Y57726D01*
X162057D01*
Y133317D01*
X237648D01*
G01X173435Y-7195D02*
X175935Y-2195D01*
Y305D01*
G01X170935Y24974D02*
X210935D01*
Y-7526D01*
X170935D01*
Y24974D01*
G01X210935Y305D02*
X170935D01*
G01X210935Y2474D02*
X170935D01*
G01X210935Y14974D02*
X170935D01*
G01X210935Y22474D02*
X170935D01*
G01X188435Y-7195D02*
X185935Y-2195D01*
Y305D01*
G01X193435Y-7195D02*
X195935Y-2195D01*
Y305D01*
G01X208435Y-7195D02*
X205935Y-2195D01*
Y305D01*
G01X218159Y-7195D02*
X220659Y-2195D01*
Y305D01*
G01X215659Y-7526D02*
Y24974D01*
X275659D01*
Y-7526D01*
X215659D01*
G01X275659Y305D02*
X215715D01*
X215707Y297D01*
G01X275659Y2474D02*
X215730D01*
X215707Y2498D01*
G01X275659Y14974D02*
X235659D01*
X215707Y14966D01*
G01X275659Y22474D02*
X235659D01*
X215683Y22443D01*
G01X233159Y-7195D02*
X230659Y-2195D01*
Y305D01*
G01X238159Y-7195D02*
X240659Y-2195D01*
Y305D01*
G01X253159Y-7195D02*
X250659Y-2195D01*
Y305D01*
G01X258159Y-7195D02*
X260659Y-2195D01*
Y305D01*
G01X273159Y-7195D02*
X270659Y-2195D01*
Y305D01*
G01X268306Y164030D02*
X279723D01*
Y162061D01*
X268306D01*
Y164030D01*
G01X279596Y-7525D02*
Y24975D01*
X339597D01*
Y-7525D01*
X279596D01*
G01X339597Y306D02*
X279652D01*
X279644Y297D01*
G01X339597Y2475D02*
X279667D01*
X279644Y2498D01*
G01X339597Y14975D02*
X299596D01*
X279644Y14966D01*
G01X339597Y22475D02*
X299596D01*
X279620Y22443D01*
G01X282096Y-7194D02*
X284596Y-2194D01*
Y306D01*
G01X297096Y-7194D02*
X294596Y-2194D01*
Y306D01*
G01X302097Y-7194D02*
X304596Y-2194D01*
Y306D01*
G01X308589Y110196D02*
Y129487D01*
X321188D01*
Y110196D01*
X308589D01*
G01X317096Y-7194D02*
X314597Y-2194D01*
Y306D01*
G01X322096Y-7194D02*
X324597Y-2194D01*
Y306D01*
G01X324169Y140130D02*
X507791D01*
Y163752D01*
X324169D01*
Y140130D01*
G01X337097Y-7194D02*
X334596Y-2194D01*
Y306D01*
G01X346034Y-7195D02*
X348534Y-2195D01*
Y305D01*
G01X343534Y-7526D02*
Y24974D01*
X403534D01*
Y-7526D01*
X343534D01*
G01X403534Y305D02*
X343589D01*
X343581Y297D01*
G01X403534Y2474D02*
X343604D01*
X343581Y2498D01*
G01X403534Y14974D02*
X363534D01*
X343581Y14966D01*
G01X403534Y22474D02*
X363534D01*
X343558Y22443D01*
G01X358962Y106636D02*
Y87345D01*
X346364D01*
Y106636D01*
X358962D01*
G01X361034Y-7195D02*
X358534Y-2195D01*
Y305D01*
G01X366034Y-7195D02*
X368534Y-2195D01*
Y305D01*
G01X381034Y-7195D02*
X378534Y-2195D01*
Y305D01*
G01X382666Y109788D02*
X376760D01*
Y82229D01*
X382666D01*
G01X401967Y115122D02*
X399999Y113154D01*
X377952D01*
Y123390D01*
X399999D01*
X401967Y121422D01*
Y115122D01*
G01X386034Y-7195D02*
X388534Y-2195D01*
Y305D01*
G01X394487Y118272D02*
X385432D01*
G01X391731D02*
X389369Y115910D01*
Y120634D01*
X391731Y118272D01*
G01Y115910D02*
Y120634D01*
G01X401034Y-7195D02*
X398534Y-2195D01*
Y305D01*
G01X398414Y109788D02*
X404320D01*
Y82229D01*
X398414D01*
G01X409970Y-7194D02*
X412470Y-2194D01*
Y306D01*
G01X407470Y-7526D02*
Y24974D01*
X467471D01*
Y-7526D01*
X407470D01*
G01X467471Y306D02*
X407526D01*
X407518Y297D01*
G01X467471Y2474D02*
X407541D01*
X407518Y2498D01*
G01X467471Y14974D02*
X427470D01*
X407518Y14966D01*
G01X467471Y22474D02*
X427470D01*
X407494Y22443D01*
G01X408106Y140130D02*
X412043Y136193D01*
X419917D01*
X423854Y140130D01*
G01X424970Y-7194D02*
X422470Y-2194D01*
Y306D01*
G01X428986Y109670D02*
X438041D01*
G01X428986Y128961D02*
X438041D01*
G01X429971Y-7194D02*
X432470Y-2194D01*
Y306D01*
G01X447399Y68483D02*
X434801D01*
G01X447399Y74782D02*
X434801D01*
G01X434689Y90193D02*
X440988D01*
G01X434689Y86256D02*
Y98855D01*
G01X444970Y-7194D02*
X442471Y-2194D01*
Y306D01*
G01X443462Y68483D02*
Y74782D01*
G01X440988Y86256D02*
Y98855D01*
G01X449970Y-7194D02*
X452470Y-2194D01*
Y306D01*
G01X446545Y32770D02*
Y52061D01*
X459143D01*
Y32770D01*
X446545D01*
G01X465108Y100733D02*
Y81441D01*
X452510D01*
Y100733D01*
X465108D01*
G01X458779Y131284D02*
Y107662D01*
G01X464970Y-7194D02*
X462470Y-2194D01*
Y306D01*
G01X470990Y60634D02*
G03I-557J0D01*
G01X471378Y131284D02*
Y107662D01*
G54D15*
G01X39370Y227556D02*
X248217D01*
X248425Y227348D01*
Y176285D01*
X39370D01*
Y227556D01*
G01X258169Y227596D02*
X467016D01*
X467224Y227387D01*
Y176324D01*
X258169D01*
Y227596D01*
G54D16*
G01X19346Y180891D02*
G03I-984J0D01*
G01X92805Y103740D02*
G03I-984J0D01*
G01X235089Y61270D02*
G03I-984J0D01*
G01X313511Y125550D02*
G03I-984J0D01*
G01X356009Y91282D02*
G03I-984J0D01*
G01X451466Y48124D02*
G03I-984J0D01*
G01X462155Y85378D02*
G03I-984J0D01*
M02*
