G04 ================== begin FILE IDENTIFICATION RECORD ==================*
G04 Layout Name:  F:/对外部分项目/信号发生器改版V2.0_485/Hardware/Pcb/DDS.brd*
G04 Film Name:    SOLDERMASK_BOTTOM*
G04 File Format:  Gerber RS274X*
G04 File Origin:  Cadence Allegro 16.6-2015-S066*
G04 Origin Date:  Sat Feb 24 22:19:25 2018*
G04 *
G04 Layer:  PIN/SOLDERMASK_BOTTOM*
G04 Layer:  PACKAGE GEOMETRY/SOLDERMASK_BOTTOM*
G04 Layer:  BOARD GEOMETRY/SOLDERMASK_BOTTOM*
G04 Layer:  BOARD GEOMETRY/OUTLINE*
G04 *
G04 Offset:    (0.000 0.000)*
G04 Mirror:    No*
G04 Mode:      Positive*
G04 Rotation:  0*
G04 FullContactRelief:  No*
G04 UndefLineWidth:     6.000*
G04 ================== end FILE IDENTIFICATION RECORD ====================*
%FSLAX25Y25*MOIN*%
%IR0*IPPOS*OFA0.00000B0.00000*MIA0B0*SFA1.00000B1.00000*%
%ADD10C,.177165*%
%ADD11C,.059055*%
%ADD13C,.070866*%
%ADD12C,.098425*%
%ADD14C,.003937*%
G75*
%LPD*%
G75*
G54D10*
X17087Y11811D03*
Y208661D03*
X51299Y191127D03*
X236496D03*
X270098Y191166D03*
X455295D03*
X489528Y11811D03*
Y208661D03*
G54D11*
X5191Y79163D03*
Y87037D03*
Y94911D03*
Y112063D03*
Y119937D03*
Y127811D03*
Y144963D03*
Y152837D03*
Y160711D03*
X39358Y38150D03*
Y68150D03*
X49358Y38150D03*
Y68150D03*
X89358Y38150D03*
Y68150D03*
X162758Y154202D03*
X172758D03*
X182758D03*
X192758D03*
X202758D03*
X212758D03*
X335980Y146941D03*
Y156941D03*
X345980Y146941D03*
Y156941D03*
X355980Y146941D03*
Y156941D03*
X365980Y146941D03*
Y156941D03*
X375980Y146941D03*
Y156941D03*
X385980Y146941D03*
Y156941D03*
X391430Y37218D03*
Y47218D03*
X395980Y146941D03*
Y156941D03*
X401430Y37218D03*
Y47218D03*
X405980Y146941D03*
Y156941D03*
X415980Y146941D03*
Y156941D03*
X425980Y146941D03*
Y156941D03*
X435980Y146941D03*
Y156941D03*
X445980Y146941D03*
Y156941D03*
X455980Y146941D03*
Y156941D03*
X465980Y146941D03*
Y156941D03*
X475980Y146941D03*
Y156941D03*
G54D12*
X14878Y39131D03*
Y59131D03*
X49124Y8640D03*
X69124D03*
X93061D03*
X113061D03*
X136999D03*
X156999D03*
X180935D03*
X200935D03*
X225659D03*
X245659D03*
X265659D03*
X289597D03*
X309596D03*
X329596D03*
X353534D03*
X373534D03*
X393534D03*
X417471D03*
X437470D03*
X457470D03*
G54D13*
X78465Y186127D03*
X83917Y196127D03*
X89370Y186127D03*
X100276D03*
X94823Y196127D03*
X111181Y186127D03*
X105728Y196127D03*
X116634D03*
X122087Y186127D03*
X127539Y196127D03*
X132992Y186127D03*
X143898D03*
X138445Y196127D03*
X149350D03*
X154803Y186127D03*
X160256Y196127D03*
X165709Y186127D03*
X176614D03*
X171161Y196127D03*
X182067D03*
X187520Y186127D03*
X192972Y196127D03*
X198425Y186127D03*
X209331D03*
X203878Y196127D03*
X297264Y186166D03*
X308169D03*
X302716Y196166D03*
X313622D03*
X319075Y186166D03*
X324528Y196166D03*
X329980Y186166D03*
X340886D03*
X335433Y196166D03*
X346339D03*
X351791Y186166D03*
X357244Y196166D03*
X362697Y186166D03*
X373602D03*
X368150Y196166D03*
X379055D03*
X384508Y186166D03*
X389961Y196166D03*
X395413Y186166D03*
X406319D03*
X400866Y196166D03*
X411772D03*
X417224Y186166D03*
X422677Y196166D03*
X428130Y186166D03*
G54D14*
G01X17087Y-7874D02*
X489528D01*
G03X509213Y11811I0J19685D01*
G01Y208661D01*
G03X489528Y228346I-19685J0D01*
G01X17087D01*
G03X-2598Y208661I0J-19685D01*
G01Y11811D01*
G03X17087Y-7874I19685J0D01*
M02*
