G04 ================== begin FILE IDENTIFICATION RECORD ==================*
G04 Layout Name:  F:/对外部分项目/信号发生器改版V2.0_485/Hardware/Pcb/DDS.brd*
G04 Film Name:    TOP*
G04 File Format:  Gerber RS274X*
G04 File Origin:  Cadence Allegro 16.6-2015-S066*
G04 Origin Date:  Sat Feb 24 22:19:24 2018*
G04 *
G04 Layer:  BOARD GEOMETRY/OUTLINE*
G04 Layer:  ETCH/TOP*
G04 Layer:  PIN/TOP*
G04 Layer:  VIA CLASS/TOP*
G04 *
G04 Offset:    (0.000 0.000)*
G04 Mirror:    No*
G04 Mode:      Positive*
G04 Rotation:  0*
G04 FullContactRelief:  No*
G04 UndefLineWidth:     6.000*
G04 ================== end FILE IDENTIFICATION RECORD ====================*
%FSLAX25Y25*MOIN*%
%IR0*IPPOS*OFA0.00000B0.00000*MIA0B0*SFA1.00000B1.00000*%
%ADD29R,.062992X.062992*%
%ADD28R,.068898X.026575*%
%ADD11C,.177165*%
%ADD30R,.127953X.07874*%
%ADD10C,.02*%
%ADD12C,.03*%
%ADD24R,.01X.059055*%
%ADD23R,.059055X.01*%
%ADD15R,.061024X.023622*%
%ADD26O,.021654X.049213*%
%ADD17R,.037402X.016732*%
%ADD14R,.016732X.037402*%
%ADD25R,.043307X.055118*%
%ADD22R,.023622X.03937*%
%ADD32R,.100394X.135827*%
%ADD21R,.03937X.023622*%
%ADD19O,.015748X.051181*%
%ADD13C,.059055*%
%ADD36R,.216535X.224409*%
%ADD35R,.090551X.090551*%
%ADD20C,.070866*%
%ADD18R,.055118X.022638*%
%ADD27R,.022638X.055118*%
%ADD16C,.098425*%
%ADD31R,.076772X.023622*%
%ADD37R,.051181X.066929*%
%ADD34R,.047244X.070866*%
%ADD33R,.070866X.047244*%
%ADD38C,.003937*%
%ADD39C,.01*%
%ADD40C,.012*%
%ADD41C,.015*%
%ADD42C,.025*%
%ADD43C,.035*%
%ADD47R,.092776X.039626*%
%ADD49C,.11443*%
%ADD45C,.07506*%
%ADD46R,.026004X.075058*%
%ADD44C,.08687*%
%ADD48R,.077028X.039626*%
G75*
%LPD*%
G75*
G36*
G01X17087Y-7074D02*
G02X-1798Y11811I0J18885D01*
G01Y208661D01*
G02X17087Y227546I18885J0D01*
G01X489528D01*
G02X508412Y208661I0J-18885D01*
G01Y11811D01*
G02X489528Y-7074I-18885J0D01*
G01X17087D01*
G37*
%LPC*%
G75*
G36*
G01X30481Y182119D02*
X22778D01*
Y186081D01*
X28014D01*
G03X28297Y186764I0J400D01*
G01X27943Y187119D01*
X22778D01*
Y191081D01*
X30481D01*
Y188258D01*
X32737Y186001D01*
X32813Y185997D01*
G02X31455Y182900I-113J-1797D01*
G01X30481D01*
Y182119D01*
G37*
G36*
G01X53930Y155912D02*
X48590D01*
Y159186D01*
X49915D01*
X74695Y183965D01*
X74625Y184096D01*
G02X76923Y182066I3839J2031D01*
G01X76802Y182112D01*
X53930Y159240D01*
Y155912D01*
G37*
G36*
G01X145270Y155910D02*
X139929D01*
Y159184D01*
X141299D01*
Y160161D01*
G02X143900I1300J1245D01*
G01Y159184D01*
X145270D01*
Y155910D01*
G37*
G36*
G01X138048Y150398D02*
X132707D01*
Y152725D01*
X129522Y155910D01*
X125484D01*
Y156200D01*
G03X124768Y156444I-400J0D01*
G02X122265Y156107I-1423J1103D01*
G01X122212Y156147D01*
X121711D01*
Y155910D01*
X116371D01*
Y159184D01*
X121711D01*
Y158947D01*
X122212D01*
X122265Y158987D01*
G02X124768Y158650I1080J-1440D01*
G03X125484Y158895I316J245D01*
G01Y159184D01*
X130825D01*
Y158568D01*
X135721Y153672D01*
X138048D01*
Y153435D01*
X139929D01*
Y153672D01*
X145270D01*
Y150398D01*
X139929D01*
Y150635D01*
X138048D01*
Y150398D01*
G37*
G36*
G01X449534Y148146D02*
G02X447300Y150454I-3554J-1205D01*
G01X452467Y155621D01*
G02X452335Y157836I3513J1321D01*
G01X452362Y157946D01*
X446994Y163314D01*
Y166430D01*
X446907D01*
Y167550D01*
X436493D01*
Y166430D01*
X433219D01*
Y171770D01*
X436493D01*
Y170650D01*
X446907D01*
Y171770D01*
X446994D01*
Y172186D01*
X451358Y176550D01*
X478785D01*
G02Y173450I915J-1550D01*
G01X452642D01*
X450181Y170989D01*
Y166430D01*
X450094D01*
Y164598D01*
X454362Y160331D01*
X454487Y160385D01*
G02X454775Y153387I1493J-3443D01*
G01X454658Y153427D01*
X449494Y148264D01*
X449534Y148146D01*
G37*
G36*
G01X6386Y148521D02*
G02X3996I-1195J-3558D01*
G03Y149279I-127J379D01*
G02Y156395I1195J3558D01*
G03Y157153I-127J379D01*
G02X6386I1195J3558D01*
G03Y156395I127J-379D01*
G02Y149279I-1195J-3558D01*
G03Y148521I127J-379D01*
G37*
G36*
G01X315571Y131886D02*
X312297D01*
Y137227D01*
X312482D01*
Y141089D01*
X312396D01*
Y146429D01*
X312482D01*
Y146760D01*
G02X314846Y152467I8071J0D01*
G01X325703Y163324D01*
G02X332102Y165975I6400J-6400D01*
G01X393734D01*
G03X397942Y167717I0J5950D01*
G01X413762Y183538D01*
X413666Y183675D01*
G02X416592Y181869I3558J2491D01*
G01X416493Y181884D01*
X400134Y165525D01*
G02X393735Y162874I-6400J6400D01*
G01X332102D01*
G03X327895Y161131I0J-5950D01*
G01X317039Y150275D01*
G03X315582Y146760I3515J-3515D01*
G01Y146429D01*
X315669D01*
Y141089D01*
X315582D01*
Y134013D01*
X315571Y134001D01*
Y131886D01*
G37*
G36*
G01X303563Y131837D02*
X300289D01*
Y137177D01*
X300533D01*
Y141187D01*
X300447D01*
Y146528D01*
X300533D01*
Y147978D01*
G02X303184Y154378I9050J0D01*
G01X317990Y169184D01*
G02X324389Y171835I6399J-6400D01*
G01X387149D01*
G03X391356Y173578I0J5950D01*
G01X397645Y179866D01*
G03X399256Y182829I-4207J4207D01*
G03X398574Y183187I-391J84D01*
G02X399171Y188345I-3160J2980D01*
G03X399895Y188413I346J201D01*
G02X402038Y191825I8543J-2988D01*
G01X406450Y196237D01*
G02X407520Y197053I3571J-3572D01*
G02X408505Y193304I4252J-887D01*
G03X407921Y193323I-301J-264D01*
G01X404230Y189633D01*
G03X402488Y185426I4207J-4207D01*
G01Y184073D01*
G02X399837Y177674I-9050J0D01*
G01X393548Y171385D01*
G02X387149Y168734I-6400J6400D01*
G01X324389D01*
G03X320182Y166992I0J-5950D01*
G01X305376Y152186D01*
G03X303634Y147978I4207J-4207D01*
G01Y146528D01*
X303720D01*
Y141187D01*
X303634D01*
Y134022D01*
X303563Y133952D01*
Y131837D01*
G37*
G36*
G01X447995Y124834D02*
X438717D01*
Y126579D01*
X435494Y129803D01*
X434819D01*
Y135144D01*
X438092D01*
Y131589D01*
X440884Y128797D01*
X447995D01*
Y124834D01*
G37*
G36*
G01X364512Y126585D02*
G02X363036Y124242I235J-1785D01*
G01X363021Y124288D01*
X362308Y125001D01*
G03X361630Y124778I-283J-283D01*
G02X358053Y124937I-1780J272D01*
G01X358049Y125013D01*
X357799Y125263D01*
X357595Y125059D01*
X357599Y124972D01*
G02X354080Y125431I-1799J-72D01*
G01X354115Y125546D01*
X341461Y138200D01*
X335061D01*
X329500Y143761D01*
Y152300D01*
X332569Y155370D01*
X332517Y155493D01*
G02X334410Y153533I3462J1448D01*
G01X332100Y151223D01*
Y149209D01*
G03X332835Y148990I400J0D01*
G02X338980Y149196I3144J-2049D01*
G03X339700Y149436I320J240D01*
G01Y152500D01*
X342569Y155370D01*
X342517Y155493D01*
G02X344410Y153533I3462J1448D01*
G01X342300Y151423D01*
Y149489D01*
G03X343016Y149244I400J0D01*
G02X347942Y143742I2964J-2303D01*
G03X347868Y143118I209J-341D01*
G01X358768Y132218D01*
G03X359423Y132355I283J283D01*
G02X359800Y132945I1677J-655D01*
G01Y142600D01*
X362569Y145370D01*
X362517Y145493D01*
G02X363902Y150067I3462J1448D01*
G03X363680Y150800I-221J333D01*
G01X360282D01*
X357552Y153531D01*
X357428Y153479D01*
G02X359442Y155493I-1448J3462D01*
G01X359390Y155370D01*
X361360Y153400D01*
X363263D01*
G03X363525Y154103I0J400D01*
G02X368435I2455J2839D01*
G03X368696Y153400I262J-303D01*
G01X373263D01*
G03X373525Y154103I0J400D01*
G02X378435I2455J2839D01*
G03X378696Y153400I262J-303D01*
G01X383263D01*
G03X383525Y154103I0J400D01*
G02X388435I2455J2839D01*
G03X388696Y153400I262J-303D01*
G01X393263D01*
G03X393525Y154103I0J400D01*
G02X398435I2455J2839D01*
G03X398696Y153400I262J-303D01*
G01X403263D01*
G03X403525Y154103I0J400D01*
G02X409070Y159070I2455J2839D01*
G03X409800Y159297I329J227D01*
G01Y161439D01*
X418761Y170400D01*
X427707D01*
Y171770D01*
X430981D01*
Y166430D01*
X427707D01*
Y167800D01*
X419839D01*
X412400Y160361D01*
Y159613D01*
G03X413106Y159356I400J0D01*
G02Y154527I2873J-2414D01*
G03X412400Y154270I-306J-257D01*
G01Y153862D01*
X409339Y150800D01*
X408279D01*
G03X408058Y150067I0J-400D01*
G02X403902I-2078J-3125D01*
G03X403680Y150800I-221J333D01*
G01X398279D01*
G03X398058Y150067I0J-400D01*
G02X393902I-2078J-3125D01*
G03X393680Y150800I-221J333D01*
G01X388279D01*
G03X388058Y150067I0J-400D01*
G02X383902I-2078J-3125D01*
G03X383680Y150800I-221J333D01*
G01X378279D01*
G03X378058Y150067I0J-400D01*
G02X373902I-2078J-3125D01*
G03X373680Y150800I-221J333D01*
G01X368279D01*
G03X368058Y150067I0J-400D01*
G02X364410Y143533I-2078J-3125D01*
G01X362400Y141523D01*
Y135733D01*
G03X362972Y135372I400J0D01*
G02X363388Y135511I775J-1625D01*
G03X363707Y135939I-80J392D01*
G02X365502Y137900I1793J161D01*
G03X365902Y138318I0J400D01*
G02X368945Y139700I1798J82D01*
G01X414261D01*
X417166Y142605D01*
G03X416796Y143278I-283J283D01*
G02X418890Y149312I-817J3663D01*
G03X419600Y149564I310J253D01*
G01Y152400D01*
X422569Y155370D01*
X422517Y155493D01*
G02X424532Y153479I3462J1448D01*
G01X424408Y153531D01*
X422200Y151323D01*
Y149355D01*
G03X422926Y149123I400J0D01*
G02X425230Y143264I3054J-2181D01*
G01X425124Y143286D01*
X417569Y135730D01*
G03X417852Y135047I283J-283D01*
G01X423409D01*
X430400Y142039D01*
Y153339D01*
X432527Y155465D01*
X432480Y155587D01*
G02X434532Y153479I3500J1355D01*
G01X434408Y153531D01*
X434177Y153300D01*
X434039D01*
X433000Y152261D01*
Y140961D01*
X424486Y132447D01*
X364992D01*
G02X363379Y131985I-1245J1300D01*
G03X362898Y131613I-82J-392D01*
G02X361755Y130023I-1798J87D01*
G03X361618Y129368I146J-373D01*
G01X364414Y126572D01*
X364512Y126585D01*
G37*
G36*
G01X299805Y119555D02*
X296531D01*
Y121669D01*
X292455Y125745D01*
X291246D01*
Y131086D01*
X294519D01*
Y128066D01*
X296074Y126510D01*
G03X296757Y126793I283J283D01*
G01Y131086D01*
X300031D01*
Y129323D01*
X304048D01*
X305039Y130314D01*
G03X305801Y131660I-2051J2050D01*
G01Y137177D01*
X309075D01*
Y131837D01*
X308968D01*
X308947Y131660D01*
G02X308110Y129239I-5959J703D01*
G01Y125360D01*
X300407D01*
Y125791D01*
X299831D01*
Y125745D01*
X297805D01*
G03X297522Y125063I0J-400D01*
G01X297690Y124895D01*
X299805D01*
Y123892D01*
X300407D01*
Y124323D01*
X308110D01*
Y120360D01*
X300407D01*
Y120792D01*
X299805D01*
Y119555D01*
G37*
G36*
G01X447995Y114834D02*
X438717D01*
Y118797D01*
X447995D01*
Y118621D01*
X451237D01*
Y118708D01*
X456577D01*
Y115434D01*
X451237D01*
Y115521D01*
X447995D01*
Y114834D01*
G37*
G36*
G01X416695Y110792D02*
X411354D01*
Y114066D01*
X412725D01*
Y114808D01*
X411354D01*
Y118082D01*
X415095D01*
G03X415378Y118764I0J400D01*
G01X413823Y120320D01*
X411354D01*
Y123593D01*
X416695D01*
Y121125D01*
X419023Y118797D01*
X428310D01*
Y114834D01*
X419032D01*
Y115515D01*
X418627D01*
X417378Y116765D01*
G03X416695Y116482I-283J-283D01*
G01Y114808D01*
X415325D01*
Y114066D01*
X416695D01*
Y110792D01*
G37*
G36*
G01X308110Y110360D02*
X300407D01*
Y110706D01*
X299770D01*
Y110619D01*
X294430D01*
Y110706D01*
X290002D01*
X286094Y114614D01*
Y132230D01*
X286007D01*
Y137570D01*
X286094D01*
Y139644D01*
X285723D01*
Y146756D01*
X286105D01*
Y151530D01*
X284505Y153131D01*
X281209D01*
Y153361D01*
X279282D01*
X277575Y155067D01*
X277508Y155076D01*
G02X276802Y155318I246J1867D01*
G01X276669Y155397D01*
X274532Y153260D01*
X266036D01*
X262159Y157136D01*
Y160681D01*
X260789D01*
Y163955D01*
X266130D01*
Y160681D01*
X264760D01*
Y158213D01*
X267113Y155860D01*
X268096D01*
G03X268477Y156380I0J400D01*
G02X268391Y156943I1797J563D01*
G01Y159699D01*
G02X268724Y160768I1883J0D01*
G01Y161799D01*
X270759Y163835D01*
G03X270441Y164516I-283J283D01*
G02X268394Y166281I-167J1875D01*
G01X268383Y166469D01*
X266130D01*
Y166193D01*
X260789D01*
Y169466D01*
X266130D01*
Y169070D01*
X268383D01*
X268394Y169258D01*
G02X271964Y169977I1880J-111D01*
G03X272324I180J88D01*
G02X272435Y170172I1691J-829D01*
G01Y171498D01*
X275844Y174907D01*
X281663D01*
Y174994D01*
X287004D01*
Y174907D01*
X289650D01*
Y174994D01*
X294991D01*
Y174890D01*
X297101D01*
Y175469D01*
X305592D01*
Y175267D01*
G03X305933Y175125I200J0D01*
G01X306619Y175811D01*
Y182109D01*
G02X309720I1550J4057D01*
G01Y174527D01*
X306982Y171790D01*
X305592D01*
Y171211D01*
X297101D01*
Y171790D01*
X294991D01*
Y171720D01*
X289650D01*
Y171807D01*
X287004D01*
Y171720D01*
X281663D01*
Y171807D01*
X277128D01*
X275553Y170232D01*
G02X275897Y169148I-1539J-1085D01*
G01Y166392D01*
G02X275564Y165323I-1883J0D01*
G01Y164255D01*
X271925Y160616D01*
X271983Y160489D01*
G02X272157Y159699I-1709J-790D01*
G01Y156943D01*
G02X272071Y156380I-1883J0D01*
G03X272453Y155860I382J-120D01*
G01X273455D01*
X275872Y158277D01*
Y159699D01*
G02X279637I1883J0D01*
G01Y157390D01*
X280566Y156461D01*
X281209D01*
Y156995D01*
X288321D01*
Y156616D01*
X289650D01*
Y156703D01*
X294991D01*
Y153429D01*
X289650D01*
Y153516D01*
X288987D01*
G03X288846Y153174I0J-200D01*
G01X289205Y152815D01*
Y146756D01*
X289587D01*
Y139644D01*
X289194D01*
Y137570D01*
X289281D01*
Y132230D01*
X289194D01*
Y115898D01*
X291286Y113806D01*
X294430D01*
Y113893D01*
X299770D01*
Y113806D01*
X300407D01*
Y114323D01*
X308110D01*
Y110360D01*
G37*
G36*
G01X480632Y109856D02*
X473914D01*
Y114462D01*
X471926Y116450D01*
X466643D01*
G02Y120550I-1043J2050D01*
G01X473624D01*
X476026Y118149D01*
X480632D01*
Y109856D01*
G37*
G36*
G01X6386Y115621D02*
G02X3996I-1195J-3558D01*
G03Y116379I-127J379D01*
G02Y123495I1195J3558D01*
G03Y124253I-127J379D01*
G02X6386I1195J3558D01*
G03Y123495I127J-379D01*
G02Y116379I-1195J-3558D01*
G03Y115621I127J-379D01*
G37*
G36*
G01X397738Y103476D02*
X383342D01*
Y112950D01*
X390596D01*
X394868Y117222D01*
Y122222D01*
X399868D01*
X406512Y128866D01*
X423671D01*
G02X424174Y128803I0J-2050D01*
G01X424199Y128797D01*
X426651D01*
X429307Y131453D01*
Y135144D01*
X432581D01*
Y129803D01*
X432042D01*
X428310Y126071D01*
Y124834D01*
X424199D01*
X424174Y124828D01*
G02X423671Y124765I-504J1987D01*
G01X408210D01*
X402767Y119322D01*
Y114322D01*
X397767D01*
X397078Y113633D01*
G03X397361Y112950I283J-283D01*
G01X397738D01*
Y103476D01*
G37*
G36*
G01X313625Y95545D02*
X310352D01*
Y100886D01*
X310610D01*
Y102071D01*
X310273D01*
Y107411D01*
X310610D01*
Y114420D01*
X308988Y116042D01*
X308110D01*
Y115360D01*
X300407D01*
Y119323D01*
X308110D01*
Y118642D01*
X310065D01*
X313210Y115497D01*
Y107411D01*
X313547D01*
Y102071D01*
X313210D01*
Y100886D01*
X313625D01*
Y95545D01*
G37*
G36*
G01X263704Y89162D02*
X260431D01*
Y91630D01*
X253809Y98252D01*
Y101003D01*
X252439D01*
Y103080D01*
X245731D01*
Y93869D01*
X249421D01*
G02Y91269I1245J-1300D01*
G01X238225D01*
Y119460D01*
X248136D01*
G03X248419Y120142I0J400D01*
G01X247765Y120796D01*
X238225D01*
Y131271D01*
X245731D01*
Y125365D01*
X255057D01*
X255524Y124899D01*
X255595Y124892D01*
G02X253693Y122618I-168J-1792D01*
G01X253652Y122765D01*
X250440D01*
G03X250157Y122082I0J-400D01*
G01X251866Y120373D01*
X251902Y120358D01*
G02X251313Y116903I-702J-1658D01*
G01X251237Y116899D01*
X251198Y116859D01*
X245731D01*
Y110192D01*
G03X246073Y110050I200J0D01*
G01X246299Y110276D01*
X246303Y110352D01*
G02X248213Y108442I1797J-113D01*
G01X248137Y108437D01*
X248031Y108331D01*
G03X248314Y107649I283J-283D01*
G01X252439D01*
Y109788D01*
X253809D01*
Y114861D01*
X259026Y120078D01*
X260864D01*
Y121944D01*
X264138D01*
Y118980D01*
X265897Y117220D01*
Y113951D01*
X267563D01*
Y106839D01*
X261632D01*
Y113951D01*
X263297D01*
Y116143D01*
X262837Y116603D01*
X260864D01*
Y117478D01*
X260103D01*
X256409Y113784D01*
Y109788D01*
X257779D01*
Y106514D01*
X255311D01*
X254192Y105395D01*
X255311Y104276D01*
X257779D01*
Y101003D01*
X256409D01*
Y99330D01*
X261236Y94503D01*
X262899D01*
X265639Y97242D01*
X269506D01*
Y104109D01*
X275437D01*
Y96997D01*
X273118D01*
X270764Y94642D01*
X266716D01*
X263704Y91630D01*
Y89162D01*
G37*
G36*
G01X473290Y86606D02*
X465587D01*
Y87037D01*
X464830D01*
X464784Y87012D01*
G02Y90162I-871J1575D01*
G01X464830Y90137D01*
X465587D01*
Y90568D01*
X473290D01*
Y86606D01*
G37*
G36*
G01X6386Y82721D02*
G02X3996I-1195J-3558D01*
G03Y83479I-127J379D01*
G02Y90595I1195J3558D01*
G03Y91353I-127J379D01*
G02X6386I1195J3558D01*
G03Y90595I127J-379D01*
G02Y83479I-1195J-3558D01*
G03Y82721I127J-379D01*
G37*
G36*
G01X465581Y68630D02*
X462307D01*
Y69802D01*
X461331D01*
Y68682D01*
X458058D01*
Y74023D01*
X461331D01*
Y72903D01*
X462307D01*
Y73970D01*
X462363D01*
Y75672D01*
G02X465463I1550J915D01*
G01Y73970D01*
X465581D01*
Y68630D01*
G37*
G36*
G01X14847Y64852D02*
G02X11644Y63851I32J-5721D01*
G01Y67766D01*
G02X14844Y70967I3200J0D01*
G01X17800D01*
G03Y71766I0J400D01*
G01X14844D01*
G02X11644Y74966I0J3200D01*
G01Y170530D01*
X11407D01*
Y171800D01*
X10993D01*
Y170530D01*
X7719D01*
Y175870D01*
X10993D01*
Y174600D01*
X11407D01*
Y175870D01*
X11644D01*
Y177152D01*
G03X11058Y177506I-400J0D01*
G02X9730Y177368I-837J1594D01*
G03X9245Y177119I-109J-385D01*
G01X1519D01*
Y181081D01*
X9245D01*
G03X9730Y180832I376J136D01*
G02X11322Y180525I491J-1732D01*
G01X11376Y180483D01*
X11644D01*
Y180876D01*
X9820Y182700D01*
X9222D01*
Y182119D01*
X1519D01*
Y186081D01*
X9222D01*
Y185500D01*
X10980D01*
X14444Y182036D01*
Y175870D01*
X14681D01*
Y170530D01*
X14444D01*
Y74966D01*
G03X14844Y74567I400J0D01*
G01X17800D01*
G02Y68166I0J-3200D01*
G01X14844D01*
G03X14444Y67766I0J-400D01*
G01Y65252D01*
G03X14847Y64852I400J0D01*
G37*
G36*
G01X490000Y52100D02*
X484854D01*
X473354Y63600D01*
X463408D01*
Y57078D01*
X459544D01*
Y58789D01*
X456262D01*
Y57669D01*
X452989D01*
Y63009D01*
X456262D01*
Y61889D01*
X459544D01*
Y63600D01*
X453280D01*
X448410Y68470D01*
X447200D01*
Y63009D01*
X450751D01*
Y57669D01*
X447477D01*
Y59039D01*
X447122D01*
X444600Y61561D01*
Y68470D01*
X443450D01*
Y72836D01*
X440749Y75536D01*
X428396D01*
X423176Y70317D01*
G02X423175Y70314I-1774J1028D01*
G01X423164Y70296D01*
G02X423044Y70118I-1757J1057D01*
G01Y68682D01*
X419770D01*
Y69802D01*
X419108D01*
X419106Y69800D01*
X415294D01*
X415292Y69802D01*
X388705D01*
X375050Y83458D01*
Y112758D01*
X369724Y118084D01*
X364199D01*
Y118466D01*
X363170D01*
Y118419D01*
X357830D01*
Y118506D01*
X356970D01*
Y118419D01*
X351630D01*
Y120534D01*
X346372Y125791D01*
X342716D01*
Y120459D01*
X340602D01*
X337096Y116954D01*
Y114248D01*
X333823D01*
Y115792D01*
X329370D01*
Y115360D01*
X321667D01*
Y119323D01*
X329370D01*
Y118892D01*
X333823D01*
Y119589D01*
X335347D01*
X335534Y119776D01*
G03X335251Y120459I-283J283D01*
G01X333931D01*
Y120792D01*
X329370D01*
Y120360D01*
X321667D01*
Y120594D01*
G03X321477Y120793I-200J0D01*
G02X318038Y124342I111J3549D01*
G01Y131886D01*
X317809D01*
Y137227D01*
X321082D01*
Y135112D01*
X321138Y135056D01*
Y124342D01*
G03X321370Y123948I451J0D01*
G01X321375Y123946D01*
G03X321423Y123923I213J397D01*
G01X321667D01*
Y124323D01*
X329370D01*
Y123892D01*
X333931D01*
Y125791D01*
X329370D01*
Y125360D01*
X321667D01*
Y129323D01*
X329370D01*
Y128892D01*
X347656D01*
X354856Y121693D01*
X356970D01*
Y121606D01*
X357830D01*
Y121693D01*
X363170D01*
Y121566D01*
X364199D01*
Y121948D01*
X371311D01*
Y120881D01*
X378150Y114042D01*
Y84742D01*
X382659Y80233D01*
G03X383342Y80516I283J283D01*
G01Y88541D01*
X397738D01*
Y85854D01*
X401354D01*
X406325Y90824D01*
X409957D01*
Y90903D01*
X418448D01*
Y90824D01*
X423516D01*
X423575Y90765D01*
X429824D01*
X429863Y90726D01*
X435874D01*
X436288Y90313D01*
X444328Y98352D01*
Y100246D01*
X441524Y103050D01*
X435669D01*
X431568Y98949D01*
Y96251D01*
X426227D01*
Y99525D01*
X427759D01*
X429315Y101080D01*
G03X429032Y101763I-283J283D01*
G01X426227D01*
Y101899D01*
X425396D01*
Y101812D01*
X420056D01*
Y105086D01*
X421176D01*
Y109834D01*
X419032D01*
Y113797D01*
X428310D01*
Y109834D01*
X424276D01*
Y105086D01*
X425396D01*
Y104999D01*
X426227D01*
Y105037D01*
X431568D01*
Y104299D01*
G03X432251Y104016I400J0D01*
G01X434384Y106150D01*
X442808D01*
X448390Y100568D01*
X452030D01*
Y96606D01*
X446965D01*
X440813Y90453D01*
X440915Y90206D01*
X441001Y89999D01*
Y85637D01*
X448179D01*
G02X448682Y85574I0J-2050D01*
G01X448706Y85568D01*
X452030D01*
Y81606D01*
X448706D01*
X448682Y81600D01*
G02X448179Y81537I-504J1987D01*
G01X441001D01*
Y81519D01*
X434676D01*
Y86126D01*
X434176Y86625D01*
X431350D01*
Y84943D01*
G02X427250I-2050J-1043D01*
G01Y86665D01*
X424776D01*
Y82777D01*
X419349Y77350D01*
X418606D01*
Y75443D01*
G02X418658Y73465I-2050J-1043D01*
G03X419023Y72903I365J-163D01*
G01X419770D01*
Y74023D01*
X421084D01*
X426698Y79637D01*
X442447D01*
X447289Y74795D01*
X448056D01*
X458899Y85637D01*
X469439D01*
G02X469942Y85574I0J-2050D01*
G01X469966Y85568D01*
X473290D01*
Y81606D01*
X469966D01*
X469942Y81600D01*
G02X469439Y81537I-504J1987D01*
G01X460597D01*
X453766Y74706D01*
G03X454049Y74023I283J-283D01*
G01X455820D01*
Y68682D01*
X454254D01*
G03X453972Y68000I0J-400D01*
G01X454771Y67200D01*
X474846D01*
X486346Y55700D01*
X490000D01*
G02Y52100I0J-1800D01*
G37*
G36*
G01X442750Y10845D02*
G02X439675Y13919I-5280J-2205D01*
G01X439799Y13868D01*
X443818Y17887D01*
X467488D01*
X498750Y49149D01*
Y101151D01*
X496051Y103850D01*
X491851D01*
X482850Y112851D01*
Y119651D01*
X475432Y127068D01*
X470406D01*
Y123791D01*
X462650D01*
X458624Y119765D01*
X443356D01*
G02X442852Y119828I0J2050D01*
G01X442828Y119834D01*
X438717D01*
Y123797D01*
X442828D01*
X442852Y123803D01*
G02X443356Y123866I504J-1987D01*
G01X456926D01*
X459751Y126690D01*
Y134446D01*
X470406D01*
Y131169D01*
X477131D01*
X486950Y121349D01*
Y114549D01*
X491223Y110277D01*
G03X491906Y110559I283J283D01*
G01Y118149D01*
X493215D01*
Y125044D01*
X493213D01*
Y127913D01*
X493202Y127944D01*
G02X493095Y128600I1943J655D01*
G01Y152306D01*
X478951Y166450D01*
X474106D01*
Y161714D01*
X475205Y160615D01*
X475309Y160634D01*
G02X478030Y153798I671J-3692D01*
G01Y150085D01*
G02X472836Y144891I-2050J-3143D01*
G01X469123D01*
G02Y148992I-3144J2050D01*
G01X472836D01*
G02X473930Y150085I3143J-2050D01*
G01Y153798D01*
G02X472287Y157613I2050J3144D01*
G01X472306Y157716D01*
X470006Y160016D01*
Y169100D01*
G02X470419Y170335I2050J0D01*
G01Y171770D01*
X473693D01*
Y170550D01*
X480649D01*
X492412Y158788D01*
G03X493095Y159070I283J283D01*
G01Y167106D01*
X492350Y167850D01*
G02X494008Y171340I1450J1450D01*
G03X494332Y172020I41J398D01*
G01X463387Y202966D01*
X345132D01*
X339592Y197426D01*
X339622Y197314D01*
G02Y195019I-4189J-1147D01*
G01X339592Y194907D01*
X342936Y191563D01*
Y189996D01*
G02X338350Y189693I-2050J-3829D01*
G03X338400Y190301I-233J325D01*
G01X336692Y192008D01*
X336580Y191977D01*
G02X334286I-1147J4189D01*
G01X334174Y192008D01*
X332467Y190301D01*
G03X332516Y189693I283J-283D01*
G02X327930Y189996I-2536J-3527D01*
G01Y191563D01*
X331274Y194907D01*
X331244Y195019D01*
G02X336580Y200356I4189J1147D01*
G01X336692Y200325D01*
X343433Y207066D01*
X465085D01*
X502850Y169301D01*
Y47451D01*
X469186Y13787D01*
X461336D01*
G03X461083Y13076I0J-400D01*
G02X453858I-3613J-4437D01*
G03X453605Y13787I-253J310D01*
G01X445517D01*
X442698Y10968D01*
X442750Y10845D01*
G37*
G36*
G01X399146Y-1400D02*
X38754D01*
X30400Y6954D01*
Y42346D01*
X38200Y50146D01*
Y61313D01*
X25783Y73730D01*
G03X25100Y73447I-283J-283D01*
G01Y47373D01*
X19791Y42064D01*
G02X17811Y44044I-4913J-2933D01*
G01X22300Y48533D01*
Y73115D01*
X17156Y78259D01*
Y170530D01*
X16919D01*
Y175870D01*
X17156D01*
Y183064D01*
X12520Y187700D01*
X9222D01*
Y187119D01*
X1519D01*
Y191081D01*
X9222D01*
Y190500D01*
X13680D01*
X19956Y184224D01*
Y178332D01*
G03X20655Y178067I400J0D01*
G02X22310Y178644I1345J-1196D01*
G03X22778Y179038I69J394D01*
G01Y181081D01*
X30534D01*
G03X31012Y180901I347J198D01*
G02Y177499I588J-1701D01*
G03X30481Y177120I-131J-378D01*
G01Y177119D01*
X26783D01*
G03X26500Y176436I0J-400D01*
G01X27066Y175870D01*
X29393D01*
Y170530D01*
X29256D01*
Y169770D01*
X29493D01*
Y164430D01*
X29300D01*
Y156180D01*
X48600Y136880D01*
Y131143D01*
G03X49283Y130861I400J0D01*
G01X50923Y132500D01*
X56042D01*
G03X56325Y133183I0J400D01*
G01X46137Y143370D01*
G03X46136Y143372I-283J-282D01*
G01X45500Y144008D01*
Y144014D01*
X44914Y144600D01*
X44908D01*
X36350Y153158D01*
Y187862D01*
G03X35704Y188178I-400J0D01*
G02X32803Y189487I-1104J1422D01*
G01X32799Y189563D01*
X30242Y192119D01*
X22778D01*
Y195450D01*
X9358D01*
X4870Y199938D01*
G03X4226Y199827I-283J-283D01*
G02X1200Y201731I-1626J773D01*
G01Y203305D01*
G02X900Y204300I1500J995D01*
G01Y213046D01*
X11854Y224000D01*
X458146D01*
X467673Y214473D01*
G02X465127Y211927I-1273J-1273D01*
G01X456654Y220400D01*
X13346D01*
X4500Y211554D01*
Y204692D01*
X10642Y198550D01*
X33642D01*
X39450Y192742D01*
Y154442D01*
X46192Y147700D01*
X46198D01*
X48600Y145298D01*
Y145292D01*
X58042Y135850D01*
X93600D01*
Y138776D01*
X90756Y141619D01*
X88430D01*
Y141856D01*
X88068D01*
X86893Y140680D01*
Y139301D01*
G02X83718I-1588J0D01*
G01Y142844D01*
G02X86319Y144066I1588J0D01*
G01X86908Y144656D01*
X88430D01*
Y145139D01*
X83927D01*
X81771Y142983D01*
X81774Y142896D01*
G02X81775Y142844I-1587J-50D01*
G01Y139301D01*
G02X79165Y138086I-1588J0D01*
G03X78650I-258J-306D01*
G02X76606I-1022J1215D01*
G03X76091I-257J-306D01*
G02X74047I-1022J1215D01*
G03X73532I-258J-306D01*
G02X71488I-1022J1215D01*
G03X70973I-257J-306D01*
G02X68929I-1022J1215D01*
G03X68414I-258J-306D01*
G02X66370I-1022J1215D01*
G03X65855I-257J-306D01*
G02X63811I-1022J1215D01*
G03X63296I-258J-306D01*
G02X60686Y139301I-1022J1215D01*
G01Y142845D01*
G02X60852Y143552I1588J0D01*
G01X60873Y143594D01*
Y144083D01*
X57681Y147276D01*
X54041D01*
X50916Y150401D01*
X48590D01*
Y153674D01*
X53930D01*
Y151347D01*
X54223Y151055D01*
G03X54564Y151196I141J141D01*
G01Y153674D01*
X59905D01*
Y152384D01*
X60197Y152092D01*
G03X60538Y152233I141J141D01*
G01Y153674D01*
X65879D01*
Y151347D01*
X66171Y151055D01*
G03X66513Y151196I141J141D01*
G01Y153674D01*
X71853D01*
Y151196D01*
G03X72195Y151055I200J0D01*
G01X72487Y151347D01*
Y153674D01*
X77828D01*
Y151196D01*
G03X78169Y151055I200J0D01*
G01X78462Y151347D01*
Y153674D01*
X83802D01*
Y152464D01*
G03X84144Y152323I200J0D01*
G01X84436Y152615D01*
Y153674D01*
X89777D01*
Y150401D01*
X86182D01*
X84404Y148622D01*
G03X84687Y147940I283J-283D01*
G01X89100D01*
X90878Y149718D01*
G03X90595Y150401I-283J283D01*
G01X90410D01*
Y153674D01*
X95751D01*
Y150401D01*
X94481D01*
Y149360D01*
X90696Y145576D01*
G03X90979Y144893I283J-283D01*
G01X93770D01*
Y142566D01*
X96400Y139936D01*
Y135850D01*
X125721D01*
X128320Y138449D01*
G03X128035Y139132I-283J283D01*
G01X127463Y139130D01*
X127429Y138972D01*
G02X124288Y139301I-1553J329D01*
G01Y142844D01*
G02X127464I1588J0D01*
G01Y141930D01*
X129949Y141942D01*
Y142193D01*
X135289D01*
Y140794D01*
G03X135972Y140511I400J0D01*
G01X137261Y141800D01*
X138730D01*
Y142193D01*
X139283D01*
G03X139668Y142702I0J400D01*
G02X139634Y142844I1732J490D01*
G02X140171Y144508I1766J348D01*
G03X139898Y145200I-273J292D01*
G01X133461D01*
X128263Y150398D01*
X125484D01*
Y153672D01*
X130825D01*
Y151514D01*
X134539Y147800D01*
X141884D01*
X147300Y142384D01*
Y134845D01*
G02X147415Y134713I-1300J-1245D01*
G03X147772Y134836I157J124D01*
G01Y182898D01*
G03X147079Y183170I-400J0D01*
G02X142105Y182171I-3182J2957D01*
G01X141979Y182228D01*
X119449Y159699D01*
X98608D01*
G03X98365Y158981I0J-400D01*
G02X99071Y157656I-1092J-1431D01*
G03X99753Y157397I399J24D01*
G01X100749Y158393D01*
Y159184D01*
X106090D01*
Y157005D01*
G03X106592Y156619I400J0D01*
G02X106800Y156661I463J-1740D01*
G01X106866Y156671D01*
X108560Y158364D01*
Y159184D01*
X113900D01*
Y155910D01*
X110066D01*
X108847Y154690D01*
X108837Y154624D01*
G02X108730Y154219I-1782J255D01*
G03X109102Y153672I372J-147D01*
G01X113900D01*
Y150398D01*
X111573D01*
X110533Y149357D01*
G03X110815Y148675I283J-283D01*
G01X115295D01*
X116678Y150057D01*
G03X116536Y150399I-141J141D01*
G01X116371D01*
Y153672D01*
X121711D01*
Y150399D01*
X120441D01*
Y149860D01*
X116455Y145874D01*
X111437D01*
X110637Y145075D01*
G03X110840Y144400I283J-283D01*
G02X111544Y144059I-318J-1555D01*
G03X112059I257J306D01*
G02X114103I1022J-1215D01*
G03X114618I258J306D01*
G02X116662I1022J-1215D01*
G03X117177I257J306D01*
G02X119221I1022J-1215D01*
G03X119736I258J306D01*
G02X122346Y142844I1022J-1215D01*
G01Y139301D01*
G02X119736Y138086I-1588J0D01*
G03X119221I-258J-306D01*
G02X117177I-1022J1215D01*
G03X116662I-258J-306D01*
G02X114618I-1022J1215D01*
G03X114103I-258J-306D01*
G02X112059I-1022J1215D01*
G03X111544I-257J-306D01*
G02X109500I-1022J1215D01*
G03X108985I-258J-306D01*
G02X106941I-1022J1215D01*
G03X106426I-258J-306D01*
G02X104382I-1022J1215D01*
G03X103866I-258J-306D01*
G02X101257Y139301I-1022J1215D01*
G01Y142845D01*
G02X101423Y143552I1588J0D01*
G01X101444Y143594D01*
Y150398D01*
X100749D01*
Y152906D01*
G03X100082Y153204I-400J0D01*
G02X97219Y155237I-1200J1342D01*
G03X96927Y155783I-369J153D01*
G02X96194Y156109I347J1767D01*
G01X96140Y156149D01*
X95751D01*
Y155912D01*
X90410D01*
Y158390D01*
G03X90069Y158532I-200J0D01*
G01X89777Y158239D01*
Y155912D01*
X84436D01*
Y158390D01*
G03X84095Y158532I-200J0D01*
G01X83802Y158239D01*
Y155912D01*
X78462D01*
Y158390D01*
G03X78120Y158532I-200J0D01*
G01X77828Y158239D01*
Y155912D01*
X72487D01*
Y158390D01*
G03X72146Y158532I-200J0D01*
G01X71853Y158239D01*
Y155912D01*
X66513D01*
Y158390D01*
G03X66171Y158532I-200J0D01*
G01X65879Y158239D01*
Y155912D01*
X60538D01*
Y158104D01*
G03X60197Y158246I-200J0D01*
G01X59905Y157953D01*
Y155912D01*
X54564D01*
Y159186D01*
X57177D01*
X70715Y172724D01*
X80113D01*
X87970Y180580D01*
Y182016D01*
G02X92761Y188841I1400J4112D01*
G03X93473Y189091I312J250D01*
G01Y189654D01*
X96290Y192471D01*
X102279D01*
G03X102570Y193145I0J400D01*
G02X108886I3158J2982D01*
G03X109177Y192471I291J-275D01*
G01X113185D01*
G03X113476Y193145I0J400D01*
G02X119792I3158J2982D01*
G03X120083Y192471I291J-275D01*
G01X121903D01*
X123642Y194210D01*
G02X125622Y192230I3897J1917D01*
G01X124004Y190612D01*
G03X124102Y189975I283J-283D01*
G02X120294Y182171I-2015J-3848D01*
G01X120168Y182228D01*
X103122Y165182D01*
G03X103404Y164499I283J-283D01*
G01X109385D01*
X129093Y184208D01*
X129036Y184334D01*
G02X131199Y182171I3956J1793D01*
G01X131073Y182228D01*
X112028Y163182D01*
G03X112311Y162499I283J-283D01*
G01X118289D01*
X139998Y184208D01*
X139941Y184334D01*
G02X147079Y189084I3956J1793D01*
G03X147772Y189356I293J272D01*
G01Y192081D01*
G02X150873Y192059I1578J4047D01*
G01Y189295D01*
G03X151570Y189028I400J0D01*
G02X158341Y188647I3233J-2901D01*
G03X159067Y188879I326J232D01*
G01Y191950D01*
G02X161668Y192020I1189J4178D01*
G01Y189167D01*
G03X162374Y188911I400J0D01*
G02Y183343I3334J-2784D01*
G03X161668Y183087I-307J-256D01*
G01Y182692D01*
X154799Y175824D01*
X154794Y175748D01*
G02X151586Y174744I-1797J113D01*
G03X150873Y174495I-314J-248D01*
G01Y161477D01*
G03X151555Y161194I400J0D01*
G01X166061Y175700D01*
X184261D01*
X184499Y175937D01*
X184503Y176013D01*
G02X187835Y174959I1797J-113D01*
G03X188005Y174388I341J-209D01*
G02X188524Y171500I-767J-1628D01*
G03Y171220I143J-140D01*
G02X188630Y168819I-1286J-1260D01*
G03X188672Y168268I309J-253D01*
G02X188986Y167895I-1207J-1335D01*
G03X189690Y167947I338J214D01*
G02X193038Y166633I1646J-730D01*
G03X193359Y166108I378J-130D01*
G02X193770Y162656I-259J-1781D01*
G01X193733Y162641D01*
X189098Y158006D01*
Y156774D01*
G03X189812Y156526I400J0D01*
G02X195878Y156288I2947J-2324D01*
G03X196611Y156510I333J222D01*
G01Y163355D01*
G02X199211I1300J1245D01*
G01Y156912D01*
G03X199914Y156651I400J0D01*
G02X206418Y153372I2844J-2449D01*
G03X207091Y153001I390J-88D01*
G01X209091Y155000D01*
X209104Y155056D01*
G02X216493Y153832I3655J-854D01*
G03X217174Y153509I398J-39D01*
G01X217965Y154300D01*
X227555D01*
G02X230529Y152497I1245J-1300D01*
G03X231100Y152032I384J-112D01*
G02X234057Y152769I2957J-5563D01*
G01X264901D01*
G02X269356Y150924I0J-6300D01*
G01X283292Y136987D01*
G02X285138Y132532I-4455J-4455D01*
G01Y116437D01*
G03X286221Y113821I3700J0D01*
G01X300908Y99134D01*
G03X304840Y98591I2325J2325D01*
G01Y100886D01*
X308114D01*
Y95545D01*
X304840D01*
Y95736D01*
X304617D01*
X304594Y95730D01*
G02X299069Y97296I-1361J5729D01*
G01X284383Y111982D01*
G02X282537Y116437I4455J4455D01*
G01Y132532D01*
G03X281453Y135148I-3700J0D01*
G01X267517Y149085D01*
G03X264900Y150169I-2616J-2616D01*
G01X234057D01*
G03X231441Y149085I0J-3700D01*
G01X228811Y146455D01*
G03X227921Y145020I2616J-2616D01*
G03X228273Y144840I190J-64D01*
G02X228941Y145627I5123J-3668D01*
G01X231111Y147797D01*
G02X235566Y149643I4455J-4455D01*
G01X262696D01*
G02X267150Y147797I0J-6300D01*
G01X279882Y135066D01*
G02X281727Y130611I-4455J-4455D01*
G01Y114976D01*
G03X282811Y112361I3700J0D01*
G01X299100Y96072D01*
G03X301716Y94988I2616J2616D01*
G01X313477D01*
G03X316093Y96072I0J3700D01*
G01X318410Y98388D01*
Y100857D01*
X321683D01*
Y95516D01*
X319215D01*
X317932Y94233D01*
G02X313478Y92388I-4455J4455D01*
G01X301715D01*
G02X297261Y94233I0J6300D01*
G01X280972Y110522D01*
G02X279127Y114976I4455J4455D01*
G01Y123961D01*
G03X278577Y124332I-400J0D01*
G02X276103Y125887I-677J1668D01*
G01X276099Y125963D01*
X259145Y142917D01*
X233436D01*
X231664Y141145D01*
Y133895D01*
X213948D01*
Y127588D01*
X222587Y118949D01*
X225155D01*
G02X228197Y117546I1245J-1300D01*
G03X228536Y117128I399J-23D01*
G02X229816Y114442I-274J-1779D01*
G03X230162Y113840I345J-202D01*
G01X234566Y113839D01*
X234623Y113889D01*
G02X234622Y111189I1190J-1350D01*
G01X234565Y111239D01*
X234232D01*
G03X233950Y110556I0J-400D01*
G01X235522Y108984D01*
X235597Y108979D01*
G02X233688Y107070I-113J-1797D01*
G01X233683Y107145D01*
X231628Y109200D01*
X222205D01*
G03X221922Y108517I0J-400D01*
G01X226937Y103501D01*
X227013Y103497D01*
G02X225103Y101587I-113J-1797D01*
G01X225099Y101663D01*
X219744Y107017D01*
X180755D01*
G03X180505Y106305I0J-400D01*
G02X181176Y104799I-1126J-1405D01*
G03X181635Y104381I399J-22D01*
G02X180655Y101300I265J-1781D01*
G01X177563D01*
X175783Y103080D01*
X161479D01*
Y99775D01*
X171236D01*
G02X171501Y97174I1364J-1175D01*
G01X170569D01*
G03X170184Y96665I0J-400D01*
G02X166935Y95206I-1732J-491D01*
G01X161479D01*
Y92642D01*
G03X162029Y92271I400J0D01*
G02X161455Y89300I672J-1670D01*
G01X153973D01*
Y89912D01*
G03X153291Y90194I-400J0D01*
G01X149774Y86678D01*
G03X150057Y85995I283J-283D01*
G01X153973D01*
Y87964D01*
X218555D01*
G02Y85363I1245J-1300D01*
G01X161479D01*
Y68278D01*
X162695D01*
X170001Y75584D01*
X203155D01*
G02X206095Y73678I1245J-1300D01*
G03X206472Y73144I377J-134D01*
G01X209484D01*
X219693Y62935D01*
Y59447D01*
G02X220112Y57667I-1300J-1245D01*
G03X220494Y57149I382J-119D01*
G01X221190D01*
Y77734D01*
X231870Y88414D01*
X231875Y88489D01*
G02X233784Y86580I1797J-113D01*
G01X233709Y86575D01*
X223790Y76657D01*
Y57149D01*
X235601D01*
Y48523D01*
X233633Y46554D01*
Y40822D01*
X234166D01*
Y43690D01*
X243139Y52662D01*
X251483D01*
X251523Y52810D01*
G02X251989Y53615I1738J-468D01*
G01X254205Y55832D01*
G03X254136Y56453I-283J283D01*
G02X253297Y57864I958J1524D01*
G01X253293Y57939D01*
X251460Y59773D01*
X241978D01*
G02X241963Y59773I1J1300D01*
G01X238225D01*
Y89932D01*
X241440D01*
X241609Y90101D01*
X257835D01*
X259367Y88569D01*
X268461D01*
X271507Y91615D01*
X321899D01*
X325117Y94833D01*
G03X324834Y95516I-283J283D01*
G01X323922D01*
Y100857D01*
X324232D01*
Y102071D01*
X323896D01*
Y107411D01*
X324218D01*
Y110360D01*
X321667D01*
Y114323D01*
X329370D01*
Y110360D01*
X326819D01*
Y107411D01*
X327170D01*
Y102071D01*
X326833D01*
Y100857D01*
X327195D01*
Y97877D01*
G03X327878Y97594I400J0D01*
G01X333573Y103289D01*
X335483D01*
G02X336615Y103785I1245J-1300D01*
G01X336691Y103790D01*
X338182Y105281D01*
Y106472D01*
X345884D01*
Y102509D01*
X339087D01*
X338529Y101951D01*
X338525Y101876D01*
G02X338506Y101704I-1797J113D01*
G01X338503Y101688D01*
Y101472D01*
X345884D01*
Y100791D01*
X348349D01*
X352023Y97118D01*
Y93551D01*
G02X352274Y91394I-1300J-1245D01*
G03X352619Y90791I345J-203D01*
G01X357685D01*
X366053Y82423D01*
X368521D01*
Y81053D01*
X373625D01*
X376983Y77694D01*
Y60211D01*
X380759Y56435D01*
X402457D01*
X422796Y36097D01*
X426202D01*
X426355Y36250D01*
Y38892D01*
G02X426650Y39951I2050J0D01*
G01Y45551D01*
X426710Y45611D01*
Y50372D01*
X427280Y50942D01*
Y53531D01*
X431144D01*
Y51966D01*
X442214D01*
G02X442718Y51903I0J-2050D01*
G01X442742Y51897D01*
X445238D01*
G03X445521Y52580I0J400D01*
G01X445051Y53050D01*
X437451D01*
X434013Y56488D01*
Y58289D01*
X431144D01*
Y57669D01*
X427280D01*
Y60538D01*
X427270Y60569D01*
G02X427206Y60805I1943J655D01*
G01X427193Y60863D01*
X424066Y63990D01*
X424023Y64005D01*
G02X426951Y66933I755J2173D01*
G01X426966Y66890D01*
X429074Y64781D01*
X431144D01*
Y62711D01*
X431262Y62593D01*
Y62389D01*
X434426D01*
Y63009D01*
X437700D01*
Y61574D01*
G02X438113Y60339I-1637J-1235D01*
G01Y58187D01*
X439149Y57150D01*
X446749D01*
X451934Y51966D01*
X471734D01*
X475950Y47749D01*
Y37051D01*
X471849Y32950D01*
X467326D01*
Y32934D01*
X464002D01*
X463978Y32928D01*
G02X462971I-504J1987D01*
G01X462947Y32934D01*
X459623D01*
Y36897D01*
X462556D01*
X462709Y37050D01*
X470151D01*
X471850Y38749D01*
Y46051D01*
X470035Y47866D01*
X450235D01*
X446748Y51352D01*
G03X446066Y51069I-283J-283D01*
G01Y47934D01*
X442742D01*
X442718Y47928D01*
G02X442214Y47866I-504J1987D01*
G01X431144D01*
Y46966D01*
X442214D01*
G02X442718Y46903I0J-2050D01*
G01X442742Y46897D01*
X446066D01*
Y42934D01*
X442742D01*
X442718Y42928D01*
G02X442214Y42866I-504J1987D01*
G01X430750D01*
Y39683D01*
X430800Y39633D01*
Y35250D01*
X430568Y35017D01*
X430553Y34971D01*
G02X430050Y34146I-1953J625D01*
G01X430022Y34118D01*
X430015Y34109D01*
G02X429955Y34037I-1414J1114D01*
G01Y31210D01*
G02X426830Y31166I-1550J-915D01*
G01X426855Y31212D01*
Y31997D01*
X422796D01*
X406100Y15301D01*
Y5554D01*
X399146Y-1400D01*
G37*
G54D47*
X423671Y121815D03*
G54D45*
X445980Y156941D03*
X355980Y146941D03*
G54D46*
X234301Y137648D03*
G54D44*
X422677Y196166D03*
X389961D03*
X379055D03*
X368150D03*
X357244D03*
X346339D03*
X302716D03*
X203878Y196127D03*
X192972D03*
X182067D03*
X171161D03*
X138445D03*
X428130Y186166D03*
X384508D03*
X373602D03*
X362697D03*
X351791D03*
X297264D03*
G54D48*
X469439Y98587D03*
X442214Y34916D03*
%LPD*%
G75*
G36*
G01X41483Y53429D02*
G02X40800Y53712I-283J283D01*
G01Y62390D01*
X39459Y63732D01*
G02X39705Y64413I283J283D01*
G03X35621Y68496I-347J3737D01*
G02X34940Y68250I-398J37D01*
G01X25300Y77890D01*
Y104661D01*
X28139Y107500D01*
X30439D01*
X32092Y109153D01*
X34014D01*
Y114494D01*
X30740D01*
Y113904D01*
G02X30210Y113526I-400J0D01*
G03X28186Y110741I-586J-1702D01*
G02X27866Y110100I-320J-241D01*
G01X27061D01*
X22700Y105739D01*
Y77641D01*
G02X22017Y77358I-400J0D01*
G01X19956Y79419D01*
Y170530D01*
X20193D01*
Y171800D01*
X20607D01*
Y170530D01*
X23881D01*
Y174129D01*
G02X24564Y174412I400J0D01*
G01X26119Y172857D01*
Y170530D01*
X26456D01*
Y169770D01*
X26219D01*
Y164430D01*
X26500D01*
Y155020D01*
X45800Y135720D01*
Y127363D01*
G03X45400Y126232I1400J-1131D01*
G01Y81754D01*
X48171Y78983D01*
G02X47888Y78300I-283J-283D01*
G01X36239D01*
X34014Y80525D01*
Y83918D01*
X30740D01*
Y82548D01*
X30089D01*
X30032Y82598D01*
G03Y79897I-1191J-1350D01*
G01X30089Y79947D01*
X30740D01*
Y78577D01*
X32284D01*
X35161Y75700D01*
X51454D01*
X53400Y73754D01*
Y70146D01*
G02X52649Y69954I-400J0D01*
G03Y66345I-3291J-1804D01*
G02X53400Y66153I351J-192D01*
G01Y65346D01*
X41483Y53429D01*
G37*
G36*
G01X40246Y2200D02*
X34000Y8446D01*
Y40854D01*
X40446Y47300D01*
X99739D01*
X101295Y48856D01*
Y49783D01*
X101632D01*
Y54500D01*
X104439D01*
X106415Y56476D01*
X107143D01*
Y61817D01*
X106807D01*
Y63170D01*
X107143D01*
Y65638D01*
X108446Y66941D01*
X111555D01*
G03X113906Y66821I1245J1300D01*
G02X114552Y66505I246J-316D01*
G01Y62076D01*
X114588Y62040D01*
G02X114305Y61358I-283J-283D01*
G01X111007D01*
Y57395D01*
X112475D01*
Y53714D01*
X105261Y46500D01*
X55870D01*
X50930Y41560D01*
X50806Y41612D01*
G03X52821Y39598I-1448J-3462D01*
G01X52769Y39722D01*
X56947Y43900D01*
X105443D01*
G02X105726Y43217I0J-400D01*
G01X104978Y42470D01*
X102510D01*
Y42200D01*
X100361D01*
X93271Y35110D01*
X92564D01*
G02X92256Y35764I0J400D01*
G03X86461I-2897J2385D01*
G02X86152Y35110I-309J-254D01*
G01X65882D01*
X47824Y17052D01*
Y14214D01*
X47674Y14175D01*
G03X50574I1449J-5535D01*
G01X50424Y14214D01*
Y15975D01*
X66959Y32510D01*
X94348D01*
X101439Y39600D01*
X102510D01*
Y39196D01*
X108000D01*
Y35434D01*
X102866Y30300D01*
X74161D01*
X58000Y14139D01*
Y6161D01*
X61278Y2883D01*
G02X60995Y2200I-283J-283D01*
G01X40246D01*
G37*
G36*
G01X160727Y41911D02*
X154339Y48300D01*
X111705D01*
G02X111422Y48983I0J400D01*
G01X115076Y52637D01*
Y57395D01*
X116544D01*
Y59118D01*
G02X117227Y59401I400J0D01*
G01X120062Y56566D01*
Y53655D01*
X125599D01*
Y57618D01*
X122688D01*
X117153Y63153D01*
Y67277D01*
X117489D01*
Y72618D01*
X114216D01*
Y70193D01*
G02X113631Y69838I-400J0D01*
G03X112478Y70012I-831J-1597D01*
G02X112024Y70521I-71J394D01*
G03X109120Y72400I-1724J519D01*
G01X107479D01*
X107143Y72736D01*
Y75204D01*
X106807D01*
Y76557D01*
X107143D01*
Y81897D01*
X106807D01*
Y82032D01*
X103318Y85521D01*
G02X103600Y86204I283J283D01*
G01X111769D01*
Y85302D01*
X115042D01*
Y90643D01*
X111769D01*
Y88804D01*
X108664D01*
Y92513D01*
X100962D01*
Y88804D01*
X96716D01*
G02X95537Y89984I0J1179D01*
G01Y98216D01*
G03X91921Y101832I-3616J0D01*
G01X87405D01*
Y102513D01*
X79702D01*
Y98550D01*
X87405D01*
Y99231D01*
X91921D01*
G02X92936Y98216I0J-1016D01*
G01Y89983D01*
G03X94930Y86653I3780J0D01*
G02X94741Y85900I-189J-353D01*
G01X92361D01*
X80163Y73701D01*
X80087Y73697D01*
G03X81997Y71787I113J-1797D01*
G01X82001Y71863D01*
X93439Y83300D01*
X101861D01*
X103870Y81292D01*
Y76557D01*
X104206D01*
Y75204D01*
X103870D01*
Y69863D01*
X106338D01*
X106402Y69800D01*
X106662D01*
G02X106944Y69117I0J-400D01*
G01X106338Y68511D01*
X103870D01*
Y63170D01*
X104206D01*
Y61817D01*
X103870D01*
Y57609D01*
X103361Y57100D01*
X90639D01*
X78801Y68937D01*
X78797Y69013D01*
G03X75374Y68127I-1797J-113D01*
G02X75156Y67581I-361J-172D01*
G03X75687Y64103I644J-1681D01*
G01X75763Y64099D01*
X88708Y51153D01*
X98358D01*
Y49900D01*
X44012D01*
G02X43729Y50583I0J400D01*
G01X57000Y63854D01*
Y75246D01*
X55091Y77155D01*
X57040Y79103D01*
X59571D01*
Y81218D01*
X61126Y82773D01*
G02X61809Y82490I283J-283D01*
G01Y79103D01*
X65083D01*
Y80223D01*
X67449D01*
Y79103D01*
X70722D01*
Y81218D01*
X75690Y86185D01*
G03X75697Y86193I-1092J1100D01*
G01X76147Y86643D01*
Y88207D01*
X76234D01*
Y90322D01*
X79462Y93550D01*
X87405D01*
Y97513D01*
X79702D01*
Y97082D01*
X78609D01*
X75075Y93548D01*
X72960D01*
Y88207D01*
X72978D01*
X73047Y88041D01*
Y87927D01*
X69563Y84444D01*
X67449D01*
Y83323D01*
X65083D01*
Y84444D01*
X63762D01*
G02X63479Y85126I0J400D01*
G01X64996Y86643D01*
Y88207D01*
X65083D01*
Y93548D01*
X61809D01*
Y88207D01*
X61826D01*
X61896Y88041D01*
Y87927D01*
X58412Y84444D01*
X56297D01*
Y82038D01*
X53253Y78993D01*
X49000Y83246D01*
Y125486D01*
X50818Y127304D01*
G02X51501Y127036I283J-283D01*
G03X51750Y126185I1799J64D01*
G01Y108458D01*
X55644Y104564D01*
Y103613D01*
X62756D01*
Y103995D01*
X63530D01*
Y103919D01*
X68870D01*
Y104006D01*
X70130D01*
Y103919D01*
X75470D01*
Y103981D01*
X79702D01*
Y103550D01*
X87405D01*
Y103981D01*
X100962D01*
Y103550D01*
X108664D01*
Y107513D01*
X107316D01*
G02X106969Y108110I0J400D01*
G03X106704Y110245I-1565J890D01*
G01Y114969D01*
G02X107277Y115330I400J0D01*
G03X108985Y115547I686J1432D01*
G02X109500I258J-306D01*
G03X111544I1022J1215D01*
G02X112059I257J-306D01*
G03X114103I1022J1215D01*
G02X114618I258J-306D01*
G03X116662I1022J1215D01*
G02X117177I257J-306D01*
G03X119786Y116762I1022J1215D01*
G01Y120305D01*
G03X117177Y121520I-1588J0D01*
G02X116662I-258J306D01*
G03X114618I-1022J-1215D01*
G02X114103I-258J306D01*
G03X112059I-1022J-1215D01*
G02X111544I-257J306D01*
G03X109500I-1022J-1215D01*
G02X108985I-258J306D01*
G03X106941I-1022J-1215D01*
G02X106426I-258J306D01*
G03X104718Y121737I-1022J-1215D01*
G02X104145Y122097I-173J361D01*
G01Y126455D01*
G03X104522Y128354I-1300J1245D01*
G02X104894Y128900I373J145D01*
G01X124738D01*
Y126382D01*
X129669Y121451D01*
X130164D01*
Y121214D01*
X130362D01*
G02X130644Y120531I0J-400D01*
G01X130047Y119934D01*
X127464D01*
Y120305D01*
G03X124854Y121520I-1588J0D01*
G02X124339I-258J306D01*
G03X121729Y120305I-1022J-1215D01*
G01Y116762D01*
G03X121896Y116054I1588J0D01*
G01X121917Y116012D01*
Y113488D01*
X124242Y111163D01*
X131832D01*
X134235Y113566D01*
Y121214D01*
X135505D01*
Y124488D01*
X130593D01*
X127538Y127542D01*
Y129131D01*
G03X127590Y129199I-1400J1132D01*
G01X134502D01*
X134696Y129393D01*
X134769D01*
X137834Y132457D01*
Y138695D01*
X138339Y139200D01*
X138730D01*
Y138919D01*
X144070D01*
Y141453D01*
G02X144412Y141595I200J0D01*
G01X144700Y141307D01*
Y134845D01*
G03X144356Y132866I1300J-1245D01*
G02X144156Y132339I-365J-163D01*
G03X143103Y130813I744J-1639D01*
G01X143099Y130737D01*
X142361Y129999D01*
X138264D01*
Y126726D01*
X143604D01*
Y127565D01*
X144937Y128899D01*
X145013Y128903D01*
G03X146544Y131434I-113J1797D01*
G02X146744Y131961I365J163D01*
G03X147123Y132193I-744J1639D01*
G02X147772Y131880I249J-313D01*
G01Y122500D01*
G02X146030Y118293I-5950J0D01*
G01X125039Y97302D01*
G02X121773Y95949I-3267J3266D01*
G01X120554D01*
Y97070D01*
X117281D01*
Y91729D01*
X120554D01*
Y92849D01*
X121773D01*
G03X127232Y95110I0J7720D01*
G01X143934Y111812D01*
G02X144614Y111579I283J-283D01*
G03X145088Y110567I1787J221D01*
G02X145107Y110040I-291J-274D01*
G03X147864Y107726I1393J-1140D01*
G01X153061Y112922D01*
X153973D01*
Y110954D01*
X162879D01*
X162930Y110828D01*
G03X163270Y110287I1670J672D01*
G02X162975Y109617I-295J-270D01*
G01X161479D01*
X153973Y109617D01*
Y103712D01*
X149376D01*
X147713Y102049D01*
X147199D01*
X147142Y102099D01*
G03X144666Y99488I-1191J-1350D01*
G02Y99208I-143J-140D01*
G03X147197Y96648I1286J-1260D01*
G01X148790D01*
X151285Y99143D01*
X153973D01*
Y95838D01*
X152702D01*
X147713Y90849D01*
X147199D01*
X147142Y90899D01*
G03X144666Y88288I-1191J-1350D01*
G02Y88008I-143J-140D01*
G03X145120Y85152I1286J-1260D01*
G01X145166Y85128D01*
X145306Y84920D01*
X144861Y84620D01*
X144786Y84630D01*
G03X144536Y81045I-232J-1785D01*
G02X144734Y80847I-2J-200D01*
G03X146466Y79066I1800J18D01*
G02X146850Y78641I-15J-400D01*
G03X150060Y77413I1797J-113D01*
G02X150762Y77263I314J-248D01*
G03X150974Y76762I1745J441D01*
G02X150633Y76153I-341J-209D01*
G01X149316D01*
G02X146700Y77236I0J3700D01*
G01X136509Y87427D01*
G03X132054Y89273I-4455J-4455D01*
G01X120554D01*
Y90643D01*
X117281D01*
Y85302D01*
X120554D01*
Y86672D01*
X132054D01*
G02X134670Y85588I0J-3700D01*
G01X137766Y82492D01*
G02X137483Y81810I-283J-283D01*
G01X134068D01*
Y76272D01*
X136980D01*
X139494Y73758D01*
X139499Y73682D01*
G03X141408Y75592I1797J113D01*
G01X141333Y75597D01*
X138031Y78898D01*
Y81262D01*
G02X138714Y81545I400J0D01*
G01X144861Y75398D01*
G03X149316Y73552I4455J4455D01*
G01X153973D01*
Y72216D01*
X146217D01*
G03X144577Y69261I-1364J-1175D01*
G02X144909Y68791I-61J-395D01*
G03X148286Y67647I1768J-338D01*
G01X153973D01*
Y63710D01*
X162698D01*
G02X162981Y63027I0J-400D01*
G01X162327Y62373D01*
X153973D01*
Y59773D01*
X163404D01*
X163421Y59789D01*
G02X164103Y59506I283J-283D01*
G01Y49643D01*
X170009D01*
Y47324D01*
X169863Y47283D01*
G03X172078Y45046I487J-1733D01*
G02X172745Y45216I384J-112D01*
G01X173399Y44563D01*
X173403Y44487D01*
G03X175313Y46397I1797J113D01*
G01X175237Y46401D01*
X174578Y47061D01*
Y49643D01*
X177883D01*
Y44041D01*
X175754Y41911D01*
X160727D01*
G37*
G36*
G01X75470Y107082D02*
Y107193D01*
X70130D01*
Y107106D01*
X68870D01*
Y107193D01*
X63530D01*
Y107095D01*
X62756D01*
Y107477D01*
X57115D01*
X54850Y109742D01*
Y126185D01*
G03X54689Y128245I-1550J915D01*
G02X54998Y128900I309J255D01*
G01X93410D01*
X95179Y127131D01*
Y123080D01*
X91079Y118980D01*
X88656D01*
Y118744D01*
X87075D01*
X86893Y118926D01*
Y120305D01*
G03X84283Y121520I-1588J0D01*
G02X83768I-258J306D01*
G03X81158Y120305I-1022J-1215D01*
G01Y116762D01*
G03X81325Y116054I1588J0D01*
G01X81346Y116012D01*
Y114379D01*
X83249Y112476D01*
X88439D01*
X91669Y115706D01*
X93996D01*
Y117937D01*
X97979Y121920D01*
Y128291D01*
X97712Y128558D01*
G02X97853Y128900I141J141D01*
G01X100795D01*
G02X101167Y128354I0J-400D01*
G03X101544Y126455I1677J-654D01*
G01Y122097D01*
G02X100972Y121737I-400J0D01*
G03X98698Y120305I-686J-1432D01*
G01Y116762D01*
G03X98985Y115851I1588J0D01*
G01Y112713D01*
G03X101586Y112955I1415J-1113D01*
G01Y114969D01*
G02X102158Y115330I400J0D01*
G03X103531I686J1432D01*
G02X104103Y114969I173J-361D01*
G01Y110245D01*
G03X103838Y108110I1300J-1245D01*
G02X103491Y107513I-348J-198D01*
G01X100962D01*
Y107082D01*
X87405D01*
Y107513D01*
X79702D01*
Y107082D01*
X75470D01*
G37*
G36*
G01X65639Y2200D02*
X60600Y7239D01*
Y13061D01*
X75239Y27700D01*
X86495D01*
G02X86778Y27017I0J-400D01*
G01X72794Y13033D01*
X72654Y13142D01*
G03X74368Y10929I-3530J-4502D01*
G01X88639Y25200D01*
X105316D01*
X113850Y33733D01*
X116700D01*
Y25839D01*
X100801Y9940D01*
X98635D01*
X98596Y10089D01*
G03Y7190I-5535J-1449D01*
G01X98635Y7340D01*
X101878D01*
X111078Y16539D01*
G02X111761Y16256I283J-283D01*
G01Y14214D01*
X111612Y14175D01*
G03X114510I1449J-5535D01*
G01X114361Y14214D01*
Y15889D01*
X131813Y33341D01*
X132836D01*
G02X133119Y32658I0J-400D01*
G01X128100Y27639D01*
Y2961D01*
X128178Y2883D01*
G02X127895Y2200I-283J-283D01*
G01X65639D01*
G37*
G36*
G01D02*
X60600Y7239D01*
Y13061D01*
X75239Y27700D01*
X86495D01*
G02X86778Y27017I0J-400D01*
G01X72794Y13033D01*
X72654Y13142D01*
G03X74368Y10929I-3530J-4502D01*
G01X88639Y25200D01*
X105316D01*
X113850Y33733D01*
X116700D01*
Y25839D01*
X100801Y9940D01*
X98635D01*
X98596Y10089D01*
G03Y7190I-5535J-1449D01*
G01X98635Y7340D01*
X101878D01*
X111078Y16539D01*
G02X111761Y16256I283J-283D01*
G01Y14214D01*
X111612Y14175D01*
G03X114510I1449J-5535D01*
G01X114361Y14214D01*
Y15889D01*
X131813Y33341D01*
X132836D01*
G02X133119Y32658I0J-400D01*
G01X128100Y27639D01*
Y2961D01*
X128178Y2883D01*
G02X127895Y2200I-283J-283D01*
G01X65639D01*
G37*
G36*
G01X86510Y169182D02*
X99236Y181908D01*
X99343Y181885D01*
G03X103529Y189005I932J4242D01*
G02X103828Y189670I300J265D01*
G01X107628D01*
G02X107928Y189005I0J-400D01*
G03X107225Y184334I3253J-2878D01*
G01X107282Y184208D01*
X91573Y168499D01*
X86792D01*
G02X86510Y169182I0J400D01*
G37*
G36*
G01D02*
X99236Y181908D01*
X99343Y181885D01*
G03X103529Y189005I932J4242D01*
G02X103828Y189670I300J265D01*
G01X107628D01*
G02X107928Y189005I0J-400D01*
G03X107225Y184334I3253J-2878D01*
G01X107282Y184208D01*
X91573Y168499D01*
X86792D01*
G02X86510Y169182I0J400D01*
G37*
G36*
G01X94216Y167182D02*
X109262Y182228D01*
X109388Y182171D01*
G03X114434Y189005I1793J3956D01*
G02X114734Y189670I300J265D01*
G01X118534D01*
G02X118834Y189005I0J-400D01*
G03X118130Y184334I3253J-2878D01*
G01X118188Y184208D01*
X100478Y166499D01*
X94499D01*
G02X94216Y167182I0J400D01*
G37*
G36*
G01D02*
X109262Y182228D01*
X109388Y182171D01*
G03X114434Y189005I1793J3956D01*
G02X114734Y189670I300J265D01*
G01X118534D01*
G02X118834Y189005I0J-400D01*
G03X118130Y184334I3253J-2878D01*
G01X118188Y184208D01*
X100478Y166499D01*
X94499D01*
G02X94216Y167182I0J400D01*
G37*
G36*
G01X119300Y25471D02*
Y34906D01*
X123414Y39020D01*
X126376D01*
G03X128580Y39140I1024J1481D01*
G01X128636Y39189D01*
X128941D01*
Y38853D01*
X132709D01*
X134264Y37297D01*
G02X133981Y36614I-283J-283D01*
G01X128941D01*
Y34146D01*
X119983Y25188D01*
G02X119300Y25471I-283J283D01*
G37*
G36*
G01D02*
Y34906D01*
X123414Y39020D01*
X126376D01*
G03X128580Y39140I1024J1481D01*
G01X128636Y39189D01*
X128941D01*
Y38853D01*
X132709D01*
X134264Y37297D01*
G02X133981Y36614I-283J-283D01*
G01X128941D01*
Y34146D01*
X119983Y25188D01*
G02X119300Y25471I-283J283D01*
G37*
G36*
G01X132539Y2200D02*
X130700Y4039D01*
Y26561D01*
X135016Y30877D01*
G02X135699Y30594I283J-283D01*
G01Y14214D01*
X135549Y14175D01*
G03X138448I1449J-5535D01*
G01X138299Y14214D01*
Y31301D01*
X140506Y33508D01*
X142974D01*
Y35976D01*
X144206Y37208D01*
X144295Y37203D01*
G03X146193Y38837I105J1797D01*
G01X146209Y39019D01*
X151520D01*
Y39092D01*
X151766Y39195D01*
X167900Y23061D01*
Y4861D01*
X169878Y2883D01*
G02X169595Y2200I-283J-283D01*
G01X132539D01*
G37*
G36*
G01X137300Y36781D02*
Y37939D01*
X134281Y40958D01*
Y42126D01*
X128941D01*
Y41790D01*
X128658D01*
X128601Y41841D01*
G03X127602Y42289I-1201J-1341D01*
G02X127364Y42969I45J397D01*
G01X127794Y43400D01*
X150961D01*
X151386Y42976D01*
G02X151103Y42293I-283J-283D01*
G01X146179D01*
Y40714D01*
G02X145528Y40403I-400J0D01*
G03X142637Y39363I-1128J-1403D01*
G01X142625Y39304D01*
X140102Y36781D01*
X137300D01*
G37*
G36*
G01D02*
Y37939D01*
X134281Y40958D01*
Y42126D01*
X128941D01*
Y41790D01*
X128658D01*
X128601Y41841D01*
G03X127602Y42289I-1201J-1341D01*
G02X127364Y42969I45J397D01*
G01X127794Y43400D01*
X150961D01*
X151386Y42976D01*
G02X151103Y42293I-283J-283D01*
G01X146179D01*
Y40714D01*
G02X145528Y40403I-400J0D01*
G03X142637Y39363I-1128J-1403D01*
G01X142625Y39304D01*
X140102Y36781D01*
X137300D01*
G37*
G36*
G01X127146Y131799D02*
X126537Y132408D01*
G02X126679Y132750I141J141D01*
G01X127005D01*
X133174Y138919D01*
X135233D01*
Y133534D01*
X133692Y131993D01*
X133618D01*
X133425Y131799D01*
X127146D01*
G37*
G36*
G01D02*
X126537Y132408D01*
G02X126679Y132750I141J141D01*
G01X127005D01*
X133174Y138919D01*
X135233D01*
Y133534D01*
X133692Y131993D01*
X133618D01*
X133425Y131799D01*
X127146D01*
G37*
G36*
G01X174239Y2200D02*
X170500Y5939D01*
Y24139D01*
X157811Y36828D01*
G02X158094Y37511I283J283D01*
G01X177833D01*
X181137Y40814D01*
G02X181820Y40532I283J-283D01*
G01Y40241D01*
X193399Y28663D01*
X193403Y28587D01*
G03X195313Y30497I1797J113D01*
G01X195237Y30501D01*
X184420Y41318D01*
Y44375D01*
G02X185103Y44658I400J0D01*
G01X196899Y32863D01*
X196903Y32787D01*
G03X200499Y32953I1797J113D01*
G02X201182Y33247I400J12D01*
G01X202792Y31638D01*
X253469D01*
X257313Y35481D01*
X259781D01*
Y40822D01*
X259444D01*
Y49218D01*
X263061Y52835D01*
X273766D01*
Y44274D01*
X270314Y40822D01*
X268651D01*
X264341Y45132D01*
X264327Y45155D01*
G03X263163Y42500I-1560J-898D01*
G01X263270Y42525D01*
X267846Y37950D01*
Y35481D01*
X270719D01*
G02X271002Y34799I0J-400D01*
G01X266472Y30269D01*
X237576D01*
X224359Y17052D01*
Y14214D01*
X224210Y14175D01*
G03X227109I1450J-5535D01*
G01X226960Y14214D01*
Y15975D01*
X238653Y27669D01*
X263631D01*
G02X263914Y26986I0J-400D01*
G01X249661Y12733D01*
X249520Y12862D01*
G03X251117Y10358I-3861J-4222D01*
G01X251080Y10474D01*
X266275Y25670D01*
X282918D01*
G02X283201Y24987I0J-400D01*
G01X270574Y12360D01*
G02X269988Y12381I-283J283D01*
G03X271338Y9338I-4329J-3741D01*
G01X271326Y9435D01*
X290668Y28776D01*
X297910D01*
X306999Y37866D01*
Y43164D01*
X307336D01*
Y48404D01*
X311767Y52835D01*
X316049D01*
G02X316310Y52131I0J-400D01*
G03X316181Y49519I1171J-1367D01*
G01Y48505D01*
X315881D01*
Y43164D01*
X316218D01*
Y41860D01*
X315881D01*
Y36520D01*
X316218D01*
Y35209D01*
X306182Y25173D01*
X296417D01*
X288296Y17052D01*
Y14214D01*
X288147Y14175D01*
G03X291046I1450J-5535D01*
G01X290897Y14214D01*
Y15975D01*
X297494Y22573D01*
X307259D01*
X318818Y34132D01*
Y36520D01*
X319155D01*
Y41860D01*
X318818D01*
Y43164D01*
X319155D01*
Y48505D01*
X318781D01*
Y49519D01*
G03X318652Y52131I-1300J1245D01*
G02X318912Y52835I260J304D01*
G01X333029D01*
G02X333345Y52190I0J-400D01*
G03X333468Y49842I1423J-1102D01*
G01Y48505D01*
X333212D01*
Y43164D01*
X333548D01*
Y41860D01*
X333212D01*
Y36474D01*
X310940Y14202D01*
X310833Y14226D01*
G03X313654Y12674I-1237J-5586D01*
G02X313654Y13239I284J282D01*
G01X336149Y35733D01*
Y36520D01*
X336485D01*
Y41860D01*
X336149D01*
Y43164D01*
X336485D01*
Y48505D01*
X336068D01*
Y49842D01*
G03X336191Y52190I-1300J1245D01*
G02X336507Y52835I316J245D01*
G01X343227D01*
G02X343510Y52152I0J-400D01*
G01X339862Y48505D01*
X339519D01*
Y43164D01*
X339856D01*
Y20738D01*
X332618Y13501D01*
X332485Y13578D01*
G03X334535Y11528I-2889J-4939D01*
G01X334457Y11662D01*
X342456Y19660D01*
Y43164D01*
X342792D01*
Y47757D01*
X347870Y52835D01*
X379673D01*
G02X379956Y52152I0J-400D01*
G01X376309Y48505D01*
X374975D01*
Y48458D01*
G02X374575Y48058I-400J0D01*
G02X374415Y48092I0J400D01*
G03X372503Y47792I-721J-1649D01*
G01X372446Y47742D01*
X371961D01*
Y48505D01*
X368688D01*
Y43164D01*
X369024D01*
Y41860D01*
X368688D01*
Y36520D01*
X369024D01*
Y13806D01*
X369534Y13297D01*
G02X369531Y12728I-283J-283D01*
G03X372390Y14246I4003J-4088D01*
G01X372284Y14224D01*
X371625Y14884D01*
Y36520D01*
X371961D01*
Y41860D01*
X371625D01*
Y43164D01*
X371961D01*
Y45142D01*
X372446D01*
X372503Y45092D01*
G03X374415Y44793I1191J1350D01*
G02X374975Y44426I160J-366D01*
G01Y43164D01*
X375312D01*
Y25023D01*
X388673Y11662D01*
X388595Y11528D01*
G03X390645Y13578I4939J-2889D01*
G01X390512Y13501D01*
X377912Y26100D01*
Y43164D01*
X378249D01*
Y46767D01*
X384316Y52835D01*
X400966D01*
X419754Y34047D01*
X402500Y16793D01*
Y7046D01*
X397654Y2200D01*
X174239D01*
G37*
G36*
G01X165930Y110287D02*
G03X164713Y113297I-1330J1213D01*
G01X164637Y113301D01*
X164385Y113554D01*
X161479D01*
Y116859D01*
X165902D01*
X170379Y112382D01*
X184685D01*
G03X187716Y114193I1334J1208D01*
G02X187839Y114449I188J67D01*
G03X189048Y116230I-589J1701D01*
G02X189731Y116530I400J18D01*
G01X195961Y110300D01*
G02X195679Y109617I-283J-283D01*
G01X166225D01*
G02X165930Y110287I0J400D01*
G37*
G36*
G01D02*
G03X164713Y113297I-1330J1213D01*
G01X164637Y113301D01*
X164385Y113554D01*
X161479D01*
Y116859D01*
X165902D01*
X170379Y112382D01*
X184685D01*
G03X187716Y114193I1334J1208D01*
G02X187839Y114449I188J67D01*
G03X189048Y116230I-589J1701D01*
G02X189731Y116530I400J18D01*
G01X195961Y110300D01*
G02X195679Y109617I-283J-283D01*
G01X166225D01*
G02X165930Y110287I0J400D01*
G37*
G36*
G01X160396Y151192D02*
X159580Y152007D01*
Y156441D01*
X168772Y165633D01*
X181125D01*
G02X181408Y164950I0J-400D01*
G01X176540Y160083D01*
Y156612D01*
G02X175815Y156380I-400J0D01*
G03X169839Y151843I-3056J-2178D01*
G02X169528Y151192I-311J-251D01*
G01X160396D01*
G37*
G36*
G01D02*
X159580Y152007D01*
Y156441D01*
X168772Y165633D01*
X181125D01*
G02X181408Y164950I0J-400D01*
G01X176540Y160083D01*
Y156612D01*
G02X175815Y156380I-400J0D01*
G03X169839Y151843I-3056J-2178D01*
G02X169528Y151192I-311J-251D01*
G01X160396D01*
G37*
G36*
G01X183788Y133895D02*
Y128543D01*
X199843Y112483D01*
G02X199560Y111800I-283J-283D01*
G01X198139D01*
X187739Y122200D01*
X174239D01*
X172826Y123613D01*
G02X172943Y124260I283J283D01*
G03X173997Y125787I-743J1640D01*
G01X174001Y125863D01*
X174700Y126561D01*
Y132637D01*
X174125Y133212D01*
G02X174408Y133895I283J283D01*
G01X183788D01*
G37*
G36*
G01X199640Y34789D02*
X199410Y34559D01*
X199292Y34600D01*
G03X198813Y34697I-592J-1700D01*
G01X198737Y34701D01*
X186389Y47050D01*
Y57149D01*
X179370D01*
G02X179229Y57490I0J200D01*
G01X179437Y57699D01*
X179513Y57703D01*
G03X180826Y60599I-113J1797D01*
G02X181142Y61243I317J244D01*
G01X193746D01*
X195599Y59390D01*
Y57149D01*
X187725D01*
Y46704D01*
X199640Y34789D01*
G37*
G36*
G01D02*
X199410Y34559D01*
X199292Y34600D01*
G03X198813Y34697I-592J-1700D01*
G01X198737Y34701D01*
X186389Y47050D01*
Y57149D01*
X179370D01*
G02X179229Y57490I0J200D01*
G01X179437Y57699D01*
X179513Y57703D01*
G03X180826Y60599I-113J1797D01*
G02X181142Y61243I317J244D01*
G01X193746D01*
X195599Y59390D01*
Y57149D01*
X187725D01*
Y46704D01*
X199640Y34789D01*
G37*
G36*
G01X220937Y113842D02*
X202159Y113845D01*
X186389Y129620D01*
Y141401D01*
X184420D01*
Y146263D01*
X189098Y150940D01*
Y151630D01*
G02X189812Y151878I400J0D01*
G03X192657Y150450I2947J2324D01*
G02X192929Y149768I-11J-400D01*
G01X187725Y144564D01*
Y133895D01*
X190911D01*
G02X191284Y133350I0J-400D01*
G03X194641I1679J-650D01*
G02X195014Y133895I373J145D01*
G01X203474D01*
Y131788D01*
X221079Y114183D01*
G02X220937Y113842I-141J-141D01*
G37*
G36*
G01D02*
X202159Y113845D01*
X186389Y129620D01*
Y141401D01*
X184420D01*
Y146263D01*
X189098Y150940D01*
Y151630D01*
G02X189812Y151878I400J0D01*
G03X192657Y150450I2947J2324D01*
G02X192929Y149768I-11J-400D01*
G01X187725Y144564D01*
Y133895D01*
X190911D01*
G02X191284Y133350I0J-400D01*
G03X194641I1679J-650D01*
G02X195014Y133895I373J145D01*
G01X203474D01*
Y131788D01*
X221079Y114183D01*
G02X220937Y113842I-141J-141D01*
G37*
G36*
G01X203869Y34238D02*
X190326Y47781D01*
Y49643D01*
X199536D01*
Y41125D01*
X203299Y37363D01*
X203303Y37287D01*
G03X205213Y39197I1797J113D01*
G01X205137Y39201D01*
X202137Y42202D01*
Y49643D01*
X206074D01*
Y57149D01*
X200168D01*
Y62792D01*
X197333Y65627D01*
G02X197615Y66310I283J283D01*
G01X203380D01*
X204244Y65446D01*
X204246Y65366D01*
G03X207827Y65666I1800J40D01*
G02X208505Y66006I396J58D01*
G01X212667Y61845D01*
X212671Y61769D01*
G03X216264Y61752I1797J113D01*
G02X216945Y62005I399J-29D01*
G01X217093Y61858D01*
Y59447D01*
G03X216674Y57667I1300J-1245D01*
G02X216292Y57149I-382J-119D01*
G01X207410D01*
Y53411D01*
G03X207410Y53396I1300J-16D01*
G01Y38730D01*
X211220Y34921D01*
G02X210937Y34238I-283J-283D01*
G01X203869D01*
G37*
G36*
G01D02*
X190326Y47781D01*
Y49643D01*
X199536D01*
Y41125D01*
X203299Y37363D01*
X203303Y37287D01*
G03X205213Y39197I1797J113D01*
G01X205137Y39201D01*
X202137Y42202D01*
Y49643D01*
X206074D01*
Y57149D01*
X200168D01*
Y62792D01*
X197333Y65627D01*
G02X197615Y66310I283J283D01*
G01X203380D01*
X204244Y65446D01*
X204246Y65366D01*
G03X207827Y65666I1800J40D01*
G02X208505Y66006I396J58D01*
G01X212667Y61845D01*
X212671Y61769D01*
G03X216264Y61752I1797J113D01*
G02X216945Y62005I399J-29D01*
G01X217093Y61858D01*
Y59447D01*
G03X216674Y57667I1300J-1245D01*
G02X216292Y57149I-382J-119D01*
G01X207410D01*
Y53411D01*
G03X207410Y53396I1300J-16D01*
G01Y38730D01*
X211220Y34921D01*
G02X210937Y34238I-283J-283D01*
G01X203869D01*
G37*
G36*
G01X206074Y141401D02*
X200134D01*
G02X199851Y142084I0J400D01*
G01X209430Y151662D01*
G02X210006Y151651I283J-283D01*
G03X213129Y150467I2753J2551D01*
G02X213451Y149786I39J-398D01*
G01X207410Y143746D01*
Y133895D01*
X211347D01*
Y128557D01*
G02X210665Y128274I-400J0D01*
G01X206074Y132865D01*
Y141401D01*
G37*
G36*
G01D02*
X200134D01*
G02X199851Y142084I0J400D01*
G01X209430Y151662D01*
G02X210006Y151651I283J-283D01*
G03X213129Y150467I2753J2551D01*
G02X213451Y149786I39J-398D01*
G01X207410Y143746D01*
Y133895D01*
X211347D01*
Y128557D01*
G02X210665Y128274I-400J0D01*
G01X206074Y132865D01*
Y141401D01*
G37*
G36*
G01X222491Y36169D02*
X213649D01*
X210011Y39807D01*
Y49643D01*
X231032D01*
Y39686D01*
X233830Y36889D01*
Y36169D01*
X225765D01*
Y40822D01*
X225428D01*
Y42314D01*
G03X222828I-1300J1245D01*
G01Y40822D01*
X222491D01*
Y36169D01*
G37*
G36*
G01D02*
X213649D01*
X210011Y39807D01*
Y49643D01*
X231032D01*
Y39686D01*
X233830Y36889D01*
Y36169D01*
X225765D01*
Y40822D01*
X225428D01*
Y42314D01*
G03X222828I-1300J1245D01*
G01Y40822D01*
X222491D01*
Y36169D01*
G37*
G36*
G01X215916Y141401D02*
Y144455D01*
G03X215408Y147317I-1300J1245D01*
G02X215301Y147959I176J359D01*
G01X219042Y151700D01*
X227555D01*
G03X229464Y151327I1245J1300D01*
G02X229676Y150997I74J-186D01*
G03X229602Y150924I4378J-4530D01*
G01X226972Y148294D01*
G03X225127Y143839I4455J-4455D01*
G01Y141401D01*
X215916D01*
G37*
G36*
G01D02*
Y144455D01*
G03X215408Y147317I-1300J1245D01*
G02X215301Y147959I176J359D01*
G01X219042Y151700D01*
X227555D01*
G03X229464Y151327I1245J1300D01*
G02X229676Y150997I74J-186D01*
G03X229602Y150924I4378J-4530D01*
G01X226972Y148294D01*
G03X225127Y143839I4455J-4455D01*
G01Y141401D01*
X215916D01*
G37*
G36*
G01X236767Y40822D02*
Y42613D01*
X244216Y50062D01*
X248177D01*
G02X248459Y49379I0J-400D01*
G01X245505Y46424D01*
Y40822D01*
X245168D01*
Y38354D01*
X242983Y36169D01*
X237103D01*
Y40822D01*
X236767D01*
G37*
G36*
G01D02*
Y42613D01*
X244216Y50062D01*
X248177D01*
G02X248459Y49379I0J-400D01*
G01X245505Y46424D01*
Y40822D01*
X245168D01*
Y38354D01*
X242983Y36169D01*
X237103D01*
Y40822D01*
X236767D01*
G37*
G36*
G01X260222Y145517D02*
X232991D01*
G02X232850Y145858I0J200D01*
G01X232950Y145959D01*
G02X235566Y147042I2616J-2616D01*
G01X262696D01*
G02X265312Y145959I0J-3700D01*
G01X278043Y133228D01*
G02X279127Y130611I-2616J-2616D01*
G01Y128039D01*
G02X278577Y127668I-400J0D01*
G03X278013Y127797I-677J-1668D01*
G01X277937Y127801D01*
X260222Y145517D01*
G37*
G36*
G01D02*
X232991D01*
G02X232850Y145858I0J200D01*
G01X232950Y145959D01*
G02X235566Y147042I2616J-2616D01*
G01X262696D01*
G02X265312Y145959I0J-3700D01*
G01X278043Y133228D01*
G02X279127Y130611I-2616J-2616D01*
G01Y128039D01*
G02X278577Y127668I-400J0D01*
G03X278013Y127797I-677J-1668D01*
G01X277937Y127801D01*
X260222Y145517D01*
G37*
G36*
G01X248105Y45347D02*
X253299Y50540D01*
X253374Y50545D01*
G03X254534Y51069I-113J1797D01*
G01X256300Y52835D01*
X258418D01*
G02X258700Y52152I0J-400D01*
G01X256844Y50295D01*
Y40822D01*
X256507D01*
Y38354D01*
X252392Y34238D01*
X245696D01*
G02X245413Y34921I0J400D01*
G01X245974Y35481D01*
X248442D01*
Y40822D01*
X248105D01*
Y45347D01*
G37*
G36*
G01D02*
X253299Y50540D01*
X253374Y50545D01*
G03X254534Y51069I-113J1797D01*
G01X256300Y52835D01*
X258418D01*
G02X258700Y52152I0J-400D01*
G01X256844Y50295D01*
Y40822D01*
X256507D01*
Y38354D01*
X252392Y34238D01*
X245696D01*
G02X245413Y34921I0J400D01*
G01X245974Y35481D01*
X248442D01*
Y40822D01*
X248105D01*
Y45347D01*
G37*
G36*
G01X261489Y56435D02*
G02X261167Y57073I0J400D01*
G03X261477Y57753I-1447J1070D01*
G02X262147Y57953I390J-87D01*
G03X263517Y61038I1257J1288D01*
G01X263442Y61042D01*
X258174Y66310D01*
X245731D01*
Y69615D01*
X277564D01*
X278669Y68510D01*
Y66042D01*
X279637D01*
X281145Y64535D01*
G02X280862Y63852I-283J-283D01*
G01X278669D01*
Y63106D01*
G02X278075Y62756I-400J0D01*
G03Y59607I-872J-1575D01*
G02X278669Y59257I194J-350D01*
G01Y58511D01*
X279006D01*
Y57932D01*
X279820Y57118D01*
G02X279537Y56435I-283J-283D01*
G01X261489D01*
G37*
G36*
G01D02*
G02X261167Y57073I0J400D01*
G03X261477Y57753I-1447J1070D01*
G02X262147Y57953I390J-87D01*
G03X263517Y61038I1257J1288D01*
G01X263442Y61042D01*
X258174Y66310D01*
X245731D01*
Y69615D01*
X277564D01*
X278669Y68510D01*
Y66042D01*
X279637D01*
X281145Y64535D01*
G02X280862Y63852I-283J-283D01*
G01X278669D01*
Y63106D01*
G02X278075Y62756I-400J0D01*
G03Y59607I-872J-1575D01*
G02X278669Y59257I194J-350D01*
G01Y58511D01*
X279006D01*
Y57932D01*
X279820Y57118D01*
G02X279537Y56435I-283J-283D01*
G01X261489D01*
G37*
G36*
G01X293392D02*
X291400Y58427D01*
Y61984D01*
X287079Y66304D01*
X283053D01*
X281943Y67414D01*
Y71382D01*
X279474D01*
X278641Y72216D01*
X245731D01*
Y79458D01*
X249277D01*
X253626Y75109D01*
X253630Y75034D01*
G03X257097Y74474I1797J113D01*
G02X257786Y74566I371J-149D01*
G03X260811Y74814I1433J1089D01*
G02X261477Y74877I354J-187D01*
G03X262998Y77796I1408J1122D01*
G01X262922Y77800D01*
X257446Y83277D01*
G02X257729Y83960I283J283D01*
G01X270284D01*
X273508Y87184D01*
X324249D01*
X335256Y98190D01*
X338182D01*
Y97509D01*
X345884D01*
Y98190D01*
X347272D01*
X349422Y96040D01*
Y93551D01*
G03X349171Y91394I1300J-1245D01*
G02X348826Y90791I-345J-203D01*
G01X345884D01*
Y91472D01*
X338182D01*
Y87478D01*
X335122Y84418D01*
Y82413D01*
X334785D01*
Y77072D01*
X338059D01*
Y82413D01*
X337722D01*
Y83341D01*
X341890Y87509D01*
X345884D01*
Y88190D01*
X353109D01*
Y82413D01*
X352772D01*
Y77072D01*
X356046D01*
Y82413D01*
X355709D01*
Y87406D01*
X356494Y88190D01*
X356608D01*
X365248Y79550D01*
Y78371D01*
X362204Y75327D01*
X359736D01*
Y69987D01*
X363010D01*
Y72455D01*
X364565Y74010D01*
G02X365248Y73728I283J-283D01*
G01Y70366D01*
X365232Y70328D01*
G03X365433Y68550I1653J-713D01*
G01X365472Y68432D01*
G02X365272Y68232I-200J0D01*
G01X365248D01*
Y62892D01*
X368521D01*
Y64262D01*
X369993D01*
G03Y66862I1245J1300D01*
G01X368521D01*
Y68232D01*
X368497D01*
G02X368297Y68432I0J200D01*
G01X368336Y68550D01*
G03X368538Y70328I-1451J1065D01*
G01X368521Y70366D01*
Y75327D01*
X366848D01*
G02X366565Y76010I0J400D01*
G01X367637Y77082D01*
X368521D01*
Y78452D01*
X372548D01*
X374383Y76617D01*
Y59133D01*
X376398Y57118D01*
G02X376116Y56435I-283J-283D01*
G01X362903D01*
X359255Y60084D01*
Y68394D01*
X355416Y72233D01*
X345156D01*
X344027Y73361D01*
Y76935D01*
X343571D01*
Y82807D01*
X343580Y82836D01*
G03X340297Y82491I-1717J542D01*
G01Y77072D01*
X340753D01*
Y75565D01*
X339923D01*
G03Y72964I-1245J-1300D01*
G01X340753D01*
Y71594D01*
X342116D01*
X343139Y70571D01*
G02X342856Y69888I-283J-283D01*
G01X340753D01*
Y68283D01*
X340033D01*
X339976Y68333D01*
G03Y65633I-1191J-1350D01*
G01X340033Y65683D01*
X340753D01*
Y64548D01*
X344027D01*
Y69632D01*
X354339D01*
X356654Y67317D01*
Y59006D01*
X358543Y57118D01*
G02X358260Y56435I-283J-283D01*
G01X346047D01*
X344027Y58455D01*
Y62842D01*
X340753D01*
Y61472D01*
X340308D01*
X340251Y61522D01*
G03Y58822I-1191J-1350D01*
G01X340308Y58872D01*
X340753D01*
Y57502D01*
X341303D01*
X341686Y57118D01*
G02X341404Y56435I-283J-283D01*
G01X336600D01*
X333334Y59701D01*
Y66267D01*
X329622Y69978D01*
X327905D01*
Y72234D01*
X324040D01*
Y65122D01*
X327905D01*
Y67378D01*
X328545D01*
X330734Y65190D01*
Y58624D01*
X332240Y57118D01*
G02X331957Y56435I-283J-283D01*
G01X323135D01*
X320791Y58779D01*
Y63852D01*
X317518D01*
Y63063D01*
G02X317008Y62678I-400J0D01*
G03X315706Y62553I-491J-1732D01*
G02X315126Y62910I-180J357D01*
G01Y75832D01*
X311390Y79568D01*
X303714D01*
X301642Y81640D01*
Y84108D01*
X298368D01*
Y83505D01*
G02X297831Y83129I-400J0D01*
G03Y79747I-617J-1691D01*
G02X298368Y79371I137J-376D01*
G01Y78768D01*
X300837D01*
X301566Y78039D01*
G02X301283Y77356I-283J-283D01*
G01X298368D01*
Y76756D01*
G02X297833Y76380I-400J0D01*
G03Y72992I-609J-1694D01*
G02X298368Y72615I135J-376D01*
G01Y72016D01*
X300042D01*
G02X300325Y71333I0J-400D01*
G01X299596Y70604D01*
X298368D01*
Y70091D01*
G02X297890Y69699I-400J0D01*
G03X296956Y69637I-352J-1765D01*
G02X296427Y70016I-129J379D01*
G01Y70618D01*
X293176Y73869D01*
X284572D01*
X281943Y76498D01*
Y78912D01*
X278669D01*
Y78319D01*
G02X278137Y77941I-400J0D01*
G03Y74542I-593J-1700D01*
G02X278669Y74165I132J-378D01*
G01Y73571D01*
X281192D01*
X283495Y71269D01*
X292099D01*
X293827Y69541D01*
Y57282D01*
X293991Y57118D01*
G02X293708Y56435I-283J-283D01*
G01X293392D01*
G37*
G36*
G01X269116Y28270D02*
G02X268834Y28953I0J400D01*
G01X277683Y37802D01*
X280513D01*
Y36520D01*
X283787D01*
Y41860D01*
X283362D01*
Y43164D01*
X283698D01*
Y48882D01*
G03X280412Y49096I-1595J834D01*
G01X280425Y49063D01*
Y43164D01*
X280761D01*
Y41860D01*
X280513D01*
Y40402D01*
X276605D01*
X271802Y35599D01*
G02X271120Y35882I-283J283D01*
G01Y37950D01*
X276367Y43197D01*
Y52835D01*
X307124D01*
G02X307406Y52152I0J-400D01*
G01X304399Y49144D01*
Y48505D01*
X304062D01*
Y43164D01*
X304399D01*
Y38943D01*
X296833Y31376D01*
X290441D01*
G02X290158Y32059I0J400D01*
G01X294619Y36520D01*
X295517D01*
Y41860D01*
X295180D01*
Y43164D01*
X295517D01*
Y48505D01*
X292243D01*
Y48146D01*
G02X291662Y47790I-400J0D01*
G03Y44582I-817J-1604D01*
G02X292243Y44226I182J-356D01*
G01Y43164D01*
X292580D01*
Y41860D01*
X292244D01*
Y37822D01*
X282691Y28270D01*
X269116D01*
G37*
G36*
G01D02*
G02X268834Y28953I0J400D01*
G01X277683Y37802D01*
X280513D01*
Y36520D01*
X283787D01*
Y41860D01*
X283362D01*
Y43164D01*
X283698D01*
Y48882D01*
G03X280412Y49096I-1595J834D01*
G01X280425Y49063D01*
Y43164D01*
X280761D01*
Y41860D01*
X280513D01*
Y40402D01*
X276605D01*
X271802Y35599D01*
G02X271120Y35882I-283J283D01*
G01Y37950D01*
X276367Y43197D01*
Y52835D01*
X307124D01*
G02X307406Y52152I0J-400D01*
G01X304399Y49144D01*
Y48505D01*
X304062D01*
Y43164D01*
X304399D01*
Y38943D01*
X296833Y31376D01*
X290441D01*
G02X290158Y32059I0J400D01*
G01X294619Y36520D01*
X295517D01*
Y41860D01*
X295180D01*
Y43164D01*
X295517D01*
Y48505D01*
X292243D01*
Y48146D01*
G02X291662Y47790I-400J0D01*
G03Y44582I-817J-1604D01*
G02X292243Y44226I182J-356D01*
G01Y43164D01*
X292580D01*
Y41860D01*
X292244D01*
Y37822D01*
X282691Y28270D01*
X269116D01*
G37*
G36*
G01X288749Y56435D02*
X284180D01*
X281943Y58672D01*
Y63703D01*
X286002D01*
X288799Y60906D01*
Y57350D01*
X289031Y57118D01*
G02X288749Y56435I-283J-283D01*
G37*
G36*
G01D02*
X284180D01*
X281943Y58672D01*
Y63703D01*
X286002D01*
X288799Y60906D01*
Y57350D01*
X289031Y57118D01*
G02X288749Y56435I-283J-283D01*
G37*
G36*
G01X304485D02*
X301642Y59278D01*
Y63191D01*
G02X302325Y63474I400J0D01*
G01X302390Y63409D01*
X306672D01*
X307880Y62201D01*
Y56435D01*
X304485D01*
G37*
G36*
G01D02*
X301642Y59278D01*
Y63191D01*
G02X302325Y63474I400J0D01*
G01X302390Y63409D01*
X306672D01*
X307880Y62201D01*
Y56435D01*
X304485D01*
G37*
G36*
G01X301642Y67834D02*
Y68972D01*
X304685Y72016D01*
X307154D01*
Y76968D01*
X310313D01*
X312525Y74755D01*
Y56909D01*
X312658Y56777D01*
G02X312516Y56435I-141J-141D01*
G01X311767D01*
X310480Y57722D01*
Y63278D01*
X307749Y66010D01*
X303466D01*
X301642Y67834D01*
G37*
G36*
G01D02*
Y68972D01*
X304685Y72016D01*
X307154D01*
Y76968D01*
X310313D01*
X312525Y74755D01*
Y56909D01*
X312658Y56777D01*
G02X312516Y56435I-141J-141D01*
G01X311767D01*
X310480Y57722D01*
Y63278D01*
X307749Y66010D01*
X303466D01*
X301642Y67834D01*
G37*
G36*
G01X389989Y72903D02*
X384509Y78384D01*
G02X384792Y79066I283J283D01*
G01X397738D01*
Y81753D01*
X403053D01*
X408023Y86724D01*
X409957D01*
Y86645D01*
X418448D01*
Y86724D01*
X420676D01*
Y84475D01*
X418271Y82070D01*
X414919D01*
Y80635D01*
G03X414506Y79400I1637J-1235D01*
G01Y75443D01*
G03X414454Y73465I2050J-1043D01*
G02X414089Y72903I-365J-163D01*
G01X389989D01*
G37*
G36*
G01D02*
X384509Y78384D01*
G02X384792Y79066I283J283D01*
G01X397738D01*
Y81753D01*
X403053D01*
X408023Y86724D01*
X409957D01*
Y86645D01*
X418448D01*
Y86724D01*
X420676D01*
Y84475D01*
X418271Y82070D01*
X414919D01*
Y80635D01*
G03X414506Y79400I1637J-1235D01*
G01Y75443D01*
G03X414454Y73465I2050J-1043D01*
G02X414089Y72903I-365J-163D01*
G01X389989D01*
G37*
%LPC*%
G75*
G36*
G01X39526Y127499D02*
X36252D01*
Y132840D01*
X36589D01*
Y133614D01*
X36252D01*
Y138009D01*
X34863Y139399D01*
X34787Y139403D01*
G02X36697Y141313I113J1797D01*
G01X36701Y141237D01*
X38984Y138955D01*
X39526D01*
Y133614D01*
X39189D01*
Y132840D01*
X39526D01*
Y132215D01*
G03X40085Y131848I400J0D01*
G02Y128544I715J-1652D01*
G03X39526Y128177I-159J-367D01*
G01Y127499D01*
G37*
G36*
G01X39526Y115268D02*
X36252D01*
Y120609D01*
X36589D01*
Y121384D01*
X36252D01*
Y126724D01*
X39526D01*
Y126171D01*
G03X40035Y125786I400J0D01*
G02X41946Y125160I491J-1732D01*
G03X41949Y125156I321J239D01*
G02X40035Y122322I-1423J-1102D01*
G03X39526Y121937I-109J-385D01*
G01Y121384D01*
X39189D01*
Y120609D01*
X39526D01*
Y119239D01*
X40138D01*
X40195Y119289D01*
G02Y116589I1191J-1350D01*
G01X40138Y116639D01*
X39526D01*
Y115268D01*
G37*
G36*
G01X39526Y96923D02*
X36252D01*
Y102264D01*
X36589D01*
Y103038D01*
X36252D01*
Y108379D01*
X39526D01*
Y107776D01*
G03X40085Y107409I400J0D01*
G02Y104106I715J-1652D01*
G03X39526Y103738I-159J-367D01*
G01Y103038D01*
X39189D01*
Y102264D01*
X39526D01*
Y101710D01*
G03X40035Y101325I400J0D01*
G02Y97861I491J-1732D01*
G03X39526Y97476I-109J-385D01*
G01Y96923D01*
G37*
G36*
G01X39526Y84692D02*
X36252D01*
Y90033D01*
X36589D01*
Y90808D01*
X36252D01*
Y96148D01*
X39526D01*
Y95663D01*
G03X40035Y95278I400J0D01*
G02Y91814I491J-1732D01*
G03X39526Y91430I-109J-385D01*
G01Y90808D01*
X39189D01*
Y90033D01*
X39526D01*
Y89480D01*
G03X40035Y89095I400J0D01*
G02Y85631I491J-1732D01*
G03X39526Y85246I-109J-385D01*
G01Y84692D01*
G37*
G36*
G01X115042Y91729D02*
X111769D01*
Y97070D01*
X111855D01*
Y97452D01*
X110326Y98981D01*
X108664D01*
Y98550D01*
X100962D01*
Y102513D01*
X108664D01*
Y102082D01*
X111611D01*
X114956Y98737D01*
Y97070D01*
X115042D01*
Y91729D01*
G37*
G36*
G01X125532Y67709D02*
G02X123828Y65594I68J-1799D01*
G01X123817Y65656D01*
X122196Y67277D01*
X119727D01*
Y72618D01*
X123001D01*
Y70149D01*
X125445Y67705D01*
X125532Y67709D01*
G37*
G36*
G01X136330Y52390D02*
X133056D01*
Y57731D01*
X133393D01*
Y59230D01*
X133056D01*
Y61699D01*
X131501Y63254D01*
G03X130818Y62971I-283J-283D01*
G01Y59532D01*
X130834Y59494D01*
G02X127528I-1653J-713D01*
G01X127544Y59532D01*
Y64571D01*
X131009D01*
Y67217D01*
X130328D01*
Y72754D01*
X134291D01*
Y67217D01*
X133610D01*
Y64823D01*
X133861Y64571D01*
X136330D01*
Y59230D01*
X135993D01*
Y57731D01*
X136330D01*
Y56200D01*
X137134D01*
G02Y53600I1245J-1300D01*
G01X136330D01*
Y52390D01*
G37*
G36*
G01X63775Y110003D02*
G02X61255I-1260J1286D01*
G03X60975I-140J-143D01*
G02X58414Y112534I-1260J1286D01*
G01Y115851D01*
G02X58127Y116762I1300J911D01*
G01Y120305D01*
G02X60737Y121520I1588J0D01*
G03X61252I258J306D01*
G02X63296I1022J-1215D01*
G03X63811I258J306D01*
G02X65855I1022J-1215D01*
G03X66370I257J306D01*
G02X68414I1022J-1215D01*
G03X68929I258J306D01*
G02X70973I1022J-1215D01*
G03X71488I258J306D01*
G02X73532I1022J-1215D01*
G03X74047I258J306D01*
G02X76091I1022J-1215D01*
G03X76606I257J306D01*
G02X79216Y120305I1022J-1215D01*
G01Y116762D01*
G02X78928Y115851I-1588J0D01*
G01Y115814D01*
X80615Y114128D01*
Y112534D01*
G02X78055Y110003I-1300J-1245D01*
G03X77775I-140J-143D01*
G02X75255I-1260J1286D01*
G03X74975I-140J-143D01*
G02X72455I-1260J1286D01*
G03X72175I-140J-143D01*
G02X69655I-1260J1286D01*
G03X69375I-140J-143D01*
G02X66855I-1260J1286D01*
G03X66575I-140J-143D01*
G02X64055I-1260J1286D01*
G03X63775I-140J-143D01*
G37*
G36*
G01X158448Y14175D02*
G02X155549I-1449J-5535D01*
G01X155699Y14214D01*
Y26456D01*
X148647Y33507D01*
X146179D01*
Y36781D01*
X151520D01*
Y34313D01*
X158299Y27533D01*
Y14214D01*
X158448Y14175D01*
G37*
G36*
G01X358472Y11528D02*
G02X356422Y13578I-4939J-2889D01*
G01X356556Y13501D01*
X357186Y14131D01*
Y36520D01*
X356849D01*
Y41860D01*
X357186D01*
Y43164D01*
X356849D01*
Y48505D01*
X357115D01*
Y49115D01*
X357065Y49171D01*
G02X359766I1350J1191D01*
G01X359716Y49115D01*
Y48505D01*
X360123D01*
Y43164D01*
X359786D01*
Y41860D01*
X360123D01*
Y36520D01*
X359786D01*
Y13054D01*
X358394Y11662D01*
X358472Y11528D01*
G37*
G36*
G01X282130Y80944D02*
X278856D01*
Y82098D01*
X278264D01*
X278207Y82048D01*
G02Y84748I-1191J1350D01*
G01X278264Y84698D01*
X278856D01*
Y86284D01*
X282130D01*
Y80944D01*
G37*
G36*
G01X350534Y77072D02*
X347260D01*
Y82413D01*
X349422D01*
Y82709D01*
X349372Y82766D01*
G02X352023Y82712I1350J1191D01*
G01Y81029D01*
X350534Y79540D01*
Y77072D01*
G37*
G36*
G01X321015Y65122D02*
X317151D01*
Y72384D01*
X317092D01*
Y79496D01*
X317880D01*
Y80180D01*
G03X317286Y80530I-400J0D01*
G02X317433Y83587I-873J1574D01*
G01X317485Y83552D01*
X317880D01*
Y85177D01*
X321154D01*
Y79836D01*
X320956D01*
Y72234D01*
X321015D01*
Y65122D01*
G37*
G54D49*
X200935Y8640D03*
X180935D03*
G54D45*
X39358Y38150D03*
X89358Y68150D03*
X401430Y37218D03*
X391430D03*
%LPD*%
G75*
G54D10*
G01X466400Y213200D02*
X457400Y222200D01*
X12600D01*
X2700Y212300D01*
Y204300D01*
G01X17087Y208661D02*
X25325Y216900D01*
X304900D01*
X313622Y208178D01*
Y196166D01*
G01X39500Y48900D02*
X32200Y41600D01*
Y7700D01*
X39500Y400D01*
X65600D01*
G01X52899Y76801D02*
X55200Y74500D01*
Y64600D01*
X39500Y48900D01*
G01X47200Y126232D02*
Y82500D01*
X52700Y77000D01*
G01X93590Y130700D02*
X51668D01*
X47200Y126232D01*
G01X52700Y77000D02*
X52899Y76801D01*
G01X65600Y400D02*
X132500D01*
G01X126138Y130262D02*
X125700Y130700D01*
X93590D01*
G01X132500Y400D02*
X174200D01*
G01D02*
X398400D01*
X404300Y6300D01*
Y16047D01*
X422300Y34047D01*
G01X253261Y52342D02*
X255555Y54635D01*
X263022D01*
G01D02*
X275066D01*
G01D02*
X284141D01*
G01D02*
X293353D01*
G01D02*
X298312D01*
G01D02*
X304447D01*
G01D02*
X311728D01*
G01D02*
X316638D01*
G01D02*
X323096D01*
G01D02*
X336561D01*
G01D02*
X346009D01*
G01D02*
X347831D01*
G01D02*
X362865D01*
G01D02*
X380720D01*
G01X384278D02*
X380720D01*
G01X422300Y34047D02*
X401712Y54635D01*
X384278D01*
G01X411044Y79456D02*
X407900Y82600D01*
G01X411044Y79400D02*
Y79456D01*
G01X428600Y35596D02*
Y35222D01*
G01X428700Y39187D02*
X429000Y38887D01*
Y35996D01*
X428600Y35596D01*
G01X441574Y60339D02*
Y64326D01*
G01X443356Y111815D02*
Y108344D01*
G01X490000Y53900D02*
X485600D01*
X474100Y65400D01*
X454025D01*
X448073Y71353D01*
G01D02*
X447793Y71632D01*
G01X453907Y111559D02*
Y108293D01*
G01X465078Y109827D02*
Y103379D01*
X0Y194100D03*
X5400Y137500D03*
X8800Y165900D03*
X3844Y169244D03*
X2600Y200600D03*
X10221Y179100D03*
X10100Y194100D03*
X24600Y140800D03*
X22344Y163044D03*
X22000Y176870D03*
X28842Y81248D03*
X29540Y87363D03*
X29540Y93478D03*
X29541Y99593D03*
X29540Y105708D03*
X29624Y111824D03*
X29540Y117939D03*
X29540Y124054D03*
X29741Y130169D03*
X32377Y133300D03*
X31600Y179200D03*
X32700Y184200D03*
X32900Y208300D03*
X41660Y81248D03*
X40526Y87363D03*
X40526Y99593D03*
X40525Y93547D03*
X40800Y105757D03*
X40729Y111824D03*
X40525Y124054D03*
X41385Y117939D03*
X40800Y130196D03*
X34900Y141200D03*
X34600Y189600D03*
X54505Y90878D03*
X59200Y95500D03*
X53300Y127100D03*
X57155Y145156D03*
X62900Y39500D03*
X64100Y57700D03*
X66200Y96900D03*
X65315Y111289D03*
X62515D03*
X59715D03*
Y137389D03*
X67400Y206400D03*
X69085Y86676D03*
X69600Y95100D03*
X73715Y111289D03*
X70915D03*
X68115D03*
X75800Y65900D03*
X80200Y71900D03*
X77000Y68900D03*
X78784Y81773D03*
X78400Y86900D03*
X79315Y111289D03*
X76515D03*
X82746Y136895D03*
X78900Y192500D03*
X90300Y94000D03*
X89200Y127700D03*
X87744Y137744D03*
X90900Y170800D03*
X97700Y17900D03*
X96353Y59147D03*
X96960Y65840D03*
X96566Y72534D03*
X100108Y95532D03*
X100400Y111600D03*
X94174Y110726D03*
X97726Y145902D03*
X100285Y148595D03*
X97274Y157549D03*
X98882Y154546D03*
X99600Y179400D03*
X94874Y183946D03*
X101510Y35321D03*
X108553Y52453D03*
X105404Y109000D03*
X102844Y127700D03*
X107055Y154879D03*
X108400Y178400D03*
X110300Y71040D03*
X112800Y68241D03*
X109583Y95532D03*
X125000Y17700D03*
X120758Y127542D03*
X123317Y147004D03*
X123345Y157547D03*
X127400Y40500D03*
X127044Y35144D03*
X129181Y58781D03*
Y51181D03*
X125600Y65910D03*
X126099Y63117D03*
X128300Y73500D03*
X132619Y132799D03*
X136944Y40656D03*
X138379Y54900D03*
X141295Y73795D03*
X141400Y132500D03*
X136590Y128363D03*
X141400Y143192D03*
X135377Y160184D03*
X144628Y18924D03*
X144400Y39000D03*
X144854Y71040D03*
X146677Y68453D03*
X144555Y82845D03*
X146535Y80865D03*
X148646Y78528D03*
X145952Y89548D03*
Y86748D03*
Y97948D03*
Y100748D03*
X146400Y111800D03*
X146500Y108900D03*
X144900Y130700D03*
X146000Y133600D03*
X145700Y147500D03*
X142600Y161406D03*
X153900Y51100D03*
X153025Y63041D03*
X152508Y77704D03*
X152527Y87308D03*
X151910Y109074D03*
X153000Y143100D03*
X156492Y141772D03*
X152998Y175861D03*
X164797Y7801D03*
X162700Y90600D03*
X164600Y111500D03*
X163800Y124400D03*
X170000Y34300D03*
X170350Y45550D03*
X169478Y60022D03*
X172600Y98600D03*
X168452Y96174D03*
X168500Y131000D03*
X172200Y125900D03*
X170800Y128700D03*
X175200Y44600D03*
X175295Y62548D03*
X175246Y59500D03*
X179400D03*
X176500Y81700D03*
X179379Y104900D03*
X181900Y102600D03*
X182200Y132500D03*
X179600Y125500D03*
X186943Y58271D03*
X184500Y96300D03*
X187250Y116150D03*
X186020Y113591D03*
X185291Y118203D03*
X189316Y130046D03*
X187464Y166933D03*
X187238Y169960D03*
Y172760D03*
X186300Y175900D03*
X195200Y28700D03*
X198700Y32900D03*
X192800Y111291D03*
X194900Y129800D03*
X192963Y132700D03*
X195000Y146500D03*
X197911Y164600D03*
X193099Y164326D03*
X191335Y167217D03*
X205100Y37400D03*
X206742Y58320D03*
X206045Y65406D03*
X204400Y74284D03*
Y125200D03*
X205200Y159900D03*
X215394Y38152D03*
X214468Y61882D03*
X212700Y78800D03*
X213100Y95600D03*
X209426Y131574D03*
X214616Y145700D03*
X213900Y197700D03*
X212300Y209600D03*
X218393Y58202D03*
X219800Y86663D03*
X223200Y143100D03*
X218400Y157800D03*
X229955Y41822D03*
X224128Y43559D03*
X226900Y101700D03*
X228262Y115349D03*
X226400Y117649D03*
X228800Y153000D03*
X236700Y11700D03*
X239012Y38152D03*
X232300Y72200D03*
X236248Y92149D03*
X233671Y88376D03*
X235484Y107183D03*
X235813Y112539D03*
X232333Y124433D03*
X236300Y117900D03*
X240400Y55800D03*
X248100Y110239D03*
X256200Y6900D03*
X249910Y38152D03*
X255094Y57977D03*
X255427Y75146D03*
X250666Y92569D03*
X249165Y98509D03*
X255427Y123100D03*
X251200Y118700D03*
X261317Y38152D03*
X262767Y44257D03*
X263404Y59241D03*
X259720Y58143D03*
X259220Y75656D03*
X262885Y75999D03*
X259911Y100553D03*
X264500Y144700D03*
X272058Y66767D03*
X272100Y126100D03*
X280500Y12000D03*
X277203Y61182D03*
X277544Y76242D03*
X277016Y83398D03*
X278986Y98627D03*
X277900Y126000D03*
X278100Y147900D03*
X282103Y49715D03*
X285818Y57859D03*
X289360Y68712D03*
X288896Y76242D03*
X288532Y83614D03*
X284500Y95600D03*
X285700Y192000D03*
X290844Y46186D03*
X297440Y61182D03*
X297224Y74686D03*
X297538Y67934D03*
X297215Y81438D03*
X299500Y10800D03*
X302210Y39190D03*
X301654Y50088D03*
X305517Y57759D03*
X303700Y85800D03*
X301400Y104741D03*
X298200Y145000D03*
X298800Y149400D03*
X314065Y45835D03*
X308465Y67934D03*
X310297Y143900D03*
X312400Y156300D03*
X319500Y9700D03*
X317481Y50764D03*
X316518Y60946D03*
X316413Y82104D03*
X316404Y104741D03*
X316700Y218500D03*
X326400Y38100D03*
X329337Y50200D03*
X323030Y50100D03*
X327879Y61182D03*
X325029Y86338D03*
X322922Y143900D03*
X334768Y51087D03*
X338786Y66983D03*
X339060Y60172D03*
X338678Y74265D03*
X334700Y75400D03*
X336728Y101989D03*
X346900Y37900D03*
X341863Y83378D03*
X346884Y94491D03*
X340971Y112896D03*
X350400Y37500D03*
X352974Y49726D03*
X348800Y49500D03*
X350418Y67218D03*
X351340Y60172D03*
X350958Y74265D03*
X350722Y83957D03*
Y92306D03*
X354300Y111600D03*
X358415Y50362D03*
X361373Y61473D03*
X358484Y79752D03*
X360500Y111400D03*
X355800Y124900D03*
X359850Y125050D03*
X361100Y131700D03*
X363747Y133747D03*
X364813Y50213D03*
X371238Y65562D03*
X366885Y69615D03*
X367660Y89491D03*
X367940Y94491D03*
X367989Y99491D03*
X368130Y104491D03*
X364747Y124800D03*
X367700Y138400D03*
X365500Y136100D03*
X370900Y142700D03*
X373694Y46442D03*
X372700Y113126D03*
X376028Y118272D03*
X380000Y127000D03*
X372900Y127100D03*
X382900Y9100D03*
X382124Y42276D03*
X385700Y60300D03*
X400900Y64800D03*
X408263Y100112D03*
X409917Y106917D03*
X419014Y49975D03*
X418670Y61225D03*
X419234Y98078D03*
X418999Y94227D03*
X428405Y30295D03*
X429740Y67032D03*
X434407Y66858D03*
X432817Y94187D03*
X433154Y99121D03*
X433514Y119315D03*
X435600Y193700D03*
X443356Y108344D03*
X453907Y108293D03*
X453000Y135600D03*
X459000Y166100D03*
X463913Y76587D03*
Y88587D03*
X465078Y103379D03*
X466400Y213200D03*
X473064Y60634D03*
X472200Y71300D03*
X475700Y136700D03*
X477300Y218100D03*
X479700Y175000D03*
X490000Y53900D03*
X493800Y169300D03*
X504400Y27400D03*
G54D20*
X78465Y186127D03*
X83917Y196127D03*
X89370Y186127D03*
X100276D03*
X94823Y196127D03*
X111181Y186127D03*
X105728Y196127D03*
X116634D03*
X122087Y186127D03*
X127539Y196127D03*
X132992Y186127D03*
X143898D03*
X138445Y196127D03*
X149350D03*
X154803Y186127D03*
X160256Y196127D03*
X165709Y186127D03*
X176614D03*
X171161Y196127D03*
X182067D03*
X187520Y186127D03*
X192972Y196127D03*
X198425Y186127D03*
X209331D03*
X203878Y196127D03*
X297264Y186166D03*
X308169D03*
X302716Y196166D03*
X313622D03*
X319075Y186166D03*
X324528Y196166D03*
X329980Y186166D03*
X340886D03*
X335433Y196166D03*
X346339D03*
X351791Y186166D03*
X357244Y196166D03*
X362697Y186166D03*
X373602D03*
X368150Y196166D03*
X379055D03*
X384508Y186166D03*
X389961Y196166D03*
X395413Y186166D03*
X406319D03*
X400866Y196166D03*
X411772D03*
X417224Y186166D03*
X422677Y196166D03*
X428130Y186166D03*
G54D11*
X17087Y11811D03*
Y208661D03*
X51299Y191127D03*
X236496D03*
X270098Y191166D03*
X455295D03*
X489528Y11811D03*
Y208661D03*
G54D21*
X113776Y59376D03*
X122831Y55636D03*
Y63117D03*
G54D12*
X7600Y24800D03*
X52100Y169700D03*
X189800Y100600D03*
X238200Y207000D03*
X325000Y149200D03*
X407900Y82600D03*
X416556Y74400D03*
X424778Y66178D03*
X429300Y83900D03*
X441574Y64326D03*
X465600Y118500D03*
X467900Y185400D03*
X489528Y11811D03*
X501200Y4700D03*
X502500Y212800D03*
G54D30*
X390540Y83804D03*
Y108213D03*
G54D40*
G01X9356Y173200D02*
X13044D01*
G01X5370Y179100D02*
X10221D01*
G01X13044Y173200D02*
Y181456D01*
X10400Y184100D01*
X5370D01*
G01X18556Y173200D02*
Y183644D01*
X13100Y189100D01*
X5370D01*
G01X2600Y200600D02*
Y204200D01*
X2700Y204300D01*
G01X14878Y39131D02*
X23700Y47953D01*
Y73695D01*
X18556Y78839D01*
Y173200D01*
G01X13044D02*
Y74966D01*
G03X14844Y73166I1800J0D01*
G01X17800D01*
G02Y69566I0J-1800D01*
G01X14844D01*
G03X13044Y67766I0J-1800D01*
G01Y60965D01*
X14878Y59131D01*
G01X22244Y173200D02*
X18556D01*
G01X22000Y176870D02*
X22351Y176519D01*
X24437D01*
X27756Y173200D01*
G01X27856Y167100D02*
X27900Y167056D01*
Y155600D01*
X47200Y136300D01*
Y126232D01*
G01X27856Y167100D02*
Y173100D01*
X27756Y173200D01*
G01X57155Y118533D02*
Y123980D01*
X58116Y124940D01*
G01X57155Y141073D02*
Y145156D01*
G01X51260Y152037D02*
X54621Y148676D01*
X58261D01*
X62274Y144663D01*
Y141073D01*
G01X89370Y186127D02*
Y180000D01*
X80693Y171324D01*
X71295D01*
X57521Y157549D01*
X57234D01*
G01X78465Y186127D02*
Y185755D01*
X51260Y158550D01*
Y157549D01*
G01X64833Y141073D02*
Y145476D01*
X58271Y152037D01*
X57234D01*
G01X59715Y141073D02*
Y137389D01*
G01X67392Y141073D02*
Y147854D01*
X63209Y152037D01*
G01X100276Y186127D02*
Y184928D01*
X84446Y169099D01*
X74759D01*
X63209Y157549D01*
G01X75069Y141073D02*
Y145974D01*
X81132Y152037D01*
G01X69951Y141073D02*
Y151270D01*
X69183Y152037D01*
G01X72510Y141073D02*
Y149390D01*
X75158Y152037D01*
G01X111181Y186127D02*
X92153Y167099D01*
X78733D01*
X69183Y157549D01*
G01X122087Y186127D02*
X101058Y165099D01*
X82708D01*
X75158Y157549D01*
G01X91326Y117343D02*
X87859Y113876D01*
X83829D01*
X82746Y114959D01*
Y118534D01*
X82746Y118533D01*
G01X87106Y152037D02*
X85839D01*
X77628Y143827D01*
Y141073D01*
G01X93081Y152037D02*
Y149940D01*
X89680Y146539D01*
X83347D01*
X80187Y143379D01*
Y141073D01*
G01X132992Y186127D02*
X109965Y163099D01*
X86682D01*
X81132Y157549D01*
G01X93590Y130700D02*
X96579Y127711D01*
Y122500D01*
X91422Y117343D01*
X91326D01*
G01D02*
X86495D01*
X85305Y118534D01*
Y118533D01*
G01X91100Y143256D02*
X87488D01*
X85305Y141073D01*
G01X91100Y143256D02*
X95000Y139356D01*
Y134300D01*
G01X143898Y186127D02*
X118869Y161099D01*
X90656D01*
X87106Y157549D01*
G01X94174Y110726D02*
X97726Y114279D01*
Y118533D01*
G01Y141073D02*
Y145902D01*
G01X93081Y157549D02*
X97274D01*
G01X103419Y157547D02*
X101885Y157549D01*
X98882Y154546D01*
G01X94874Y183946D02*
Y189074D01*
X96870Y191070D01*
X122483D01*
X127539Y196127D01*
G01X105404Y141073D02*
X105404Y146209D01*
X111230Y152035D01*
G01X102844Y141073D02*
Y151460D01*
X103419Y152035D01*
G01X107963Y141073D02*
Y144380D01*
X110857Y147274D01*
X115875D01*
X119041Y150440D01*
Y152035D01*
G01X100286Y141073D02*
X100285D01*
Y148595D01*
G01X111230Y157547D02*
X109723Y157547D01*
X107055Y154879D01*
G01X149322Y196099D02*
X149350Y196127D01*
G01X132835Y120741D02*
Y114146D01*
X131252Y112563D01*
X124822D01*
X123317Y114068D01*
Y118533D01*
G01Y141073D02*
Y147004D01*
G01X119041Y157547D02*
X123345D01*
G01X125876Y118533D02*
Y118534D01*
X130627D01*
X132835Y120741D01*
G01Y122851D02*
Y120741D01*
G01Y122851D02*
X130249D01*
X126138Y126962D01*
Y130262D01*
G01X132835Y128363D02*
X136590D01*
G01X132619Y140556D02*
X126424Y140524D01*
X125876Y141073D01*
G01X128155Y157547D02*
X129865Y157547D01*
X135377Y152035D01*
G01D02*
X142600D01*
G54D31*
X423671Y111815D03*
Y116815D03*
Y121815D03*
Y126815D03*
X443356Y116815D03*
Y111815D03*
Y121815D03*
Y126815D03*
G54D13*
X5191Y79163D03*
Y87037D03*
Y94911D03*
Y112063D03*
Y119937D03*
Y127811D03*
Y144963D03*
Y152837D03*
Y160711D03*
X39358Y38150D03*
Y68150D03*
X49358Y38150D03*
Y68150D03*
X89358Y38150D03*
Y68150D03*
X162758Y154202D03*
X172758D03*
X182758D03*
X192758D03*
X202758D03*
X212758D03*
X335980Y146941D03*
Y156941D03*
X345980Y146941D03*
Y156941D03*
X355980Y146941D03*
Y156941D03*
X365980Y146941D03*
Y156941D03*
X375980Y146941D03*
Y156941D03*
X385980Y146941D03*
Y156941D03*
X391430Y37218D03*
Y47218D03*
X395980Y146941D03*
Y156941D03*
X401430Y37218D03*
Y47218D03*
X405980Y146941D03*
Y156941D03*
X415980Y146941D03*
Y156941D03*
X425980Y146941D03*
Y156941D03*
X435980Y146941D03*
Y156941D03*
X445980Y146941D03*
Y156941D03*
X455980Y146941D03*
Y156941D03*
X465980Y146941D03*
Y156941D03*
X475980Y146941D03*
Y156941D03*
G54D22*
X132309Y69986D03*
X128569Y79041D03*
X136050D03*
G54D41*
G01X2700Y204300D02*
X10000Y197000D01*
X33000D01*
X37900Y192100D01*
Y153800D01*
X45550Y146150D01*
X45556D01*
X47050Y144656D01*
Y144650D01*
X57400Y134300D01*
X95000D01*
G01X63446Y90878D02*
Y87285D01*
X57934Y81773D01*
G01X53300Y127100D02*
Y109100D01*
X56855Y105545D01*
X59200D01*
G01X58116Y124940D02*
X77969D01*
X80187Y122722D01*
Y118533D01*
G01X63446Y81773D02*
X69085D01*
G01X72800Y105556D02*
X66200D01*
G01X59200Y105545D02*
X66189D01*
X66200Y105556D01*
G01X74597Y90878D02*
Y87285D01*
X69085Y81773D01*
G01X74597D02*
X78784D01*
G01X83553Y95532D02*
X79251D01*
X74597Y90878D01*
G01X69085D02*
Y86676D01*
G01X72800Y100044D02*
Y98300D01*
X69600Y95100D01*
G01X83553Y105532D02*
X72824D01*
X72800Y105556D01*
G01X83553Y90532D02*
X82032D01*
X78400Y86900D01*
G01X83553Y105532D02*
X104813D01*
G01X82746Y141073D02*
X82746Y136895D01*
G01X104813Y95532D02*
X100108D01*
G01X95000Y134300D02*
X126363D01*
X132619Y140556D01*
G01X104813Y95532D02*
X109583D01*
G01X113406Y94399D02*
Y98094D01*
X110968Y100532D01*
X104813D01*
G01X118917Y94399D02*
X121773D01*
G03X126135Y96206I0J6170D01*
G01X147126Y117197D01*
G03X149322Y122500I-5304J5303D01*
G01Y196099D01*
G01X218616Y38152D02*
X215394D01*
G01X229955D02*
Y41822D01*
G01X241293Y38152D02*
X239012D01*
G01X252632D02*
X249910D01*
G01X263971D02*
X261317D01*
G01X259911Y100553D02*
X264597D01*
G01X267580Y91832D02*
X268112Y92365D01*
X272724D01*
X278986Y98627D01*
G01X284500Y95600D02*
Y103100D01*
X277205Y110395D01*
X272471D01*
G01X268013Y119273D02*
Y122013D01*
X272100Y126100D01*
G01X274014Y167770D02*
Y164897D01*
X270274Y161157D01*
Y158321D01*
G01X284765Y155063D02*
X284613Y154911D01*
X279924D01*
X277754Y157080D01*
Y158321D01*
G01X284334Y173357D02*
X276486D01*
X273985Y170856D01*
Y167799D01*
X274014Y167770D01*
G01X284334Y167845D02*
X284258Y167770D01*
X277754D01*
G01X285818Y61182D02*
Y57859D01*
G01Y68712D02*
X289360D01*
G01X285818Y76242D02*
X288896D01*
G01X287644Y134900D02*
Y115256D01*
X290644Y112256D01*
X297100D01*
G01X287644Y134900D02*
Y143189D01*
X287655Y143200D01*
G01D02*
Y152173D01*
X284765Y155063D01*
G01X292321Y155066D02*
X284768D01*
X284765Y155063D01*
G01X292321Y160578D02*
X286140D01*
X284765Y161953D01*
G01X284334Y173357D02*
X292321D01*
G01X284334Y167845D02*
X292321D01*
G01X304259Y112342D02*
X304173Y112256D01*
X297100D01*
G01X292882Y128416D02*
Y127510D01*
X298168Y122225D01*
G01X294545Y143200D02*
X296400D01*
X298200Y145000D01*
G01X301346Y162119D02*
X298970D01*
X297429Y160578D01*
X292321D01*
G01X301346Y173340D02*
X292338D01*
X292321Y173357D01*
G01X299392Y39190D02*
X302210D01*
G01X301654Y50088D02*
X299392Y47826D01*
Y45835D01*
G01X305517Y61182D02*
Y57759D01*
G01Y67934D02*
X308465D01*
G01X305517Y81438D02*
Y83983D01*
X303700Y85800D01*
G01X304259Y122342D02*
X298285D01*
X298168Y122225D01*
G01X304259Y127342D02*
X299468D01*
X298394Y128416D01*
G01X304259Y127342D02*
X306135Y129217D01*
G03X307438Y132364I-3147J3146D01*
G01Y134507D01*
G01X302084Y143858D02*
Y134665D01*
X301926Y134507D01*
G01X302084Y143858D02*
Y147978D01*
G02X304280Y153282I7500J0D01*
G01X319086Y168088D01*
G02X324390Y170285I5303J-5304D01*
G01X387149D01*
G03X392452Y172481I0J7500D01*
G01X398741Y178770D01*
G03X400938Y184073I-5304J5303D01*
G01Y185426D01*
G02X403134Y190729I7500J0D01*
G01X407546Y195141D01*
G02X410022Y196166I2475J-2475D01*
G01X411772D01*
G01X301346Y162119D02*
X306819D01*
X319075Y174375D01*
Y186166D01*
G01X301346Y173340D02*
X306340D01*
X308169Y175169D01*
Y186166D01*
G01X311211Y45835D02*
X314065D01*
G01X314032Y143759D02*
Y134655D01*
X313934Y134556D01*
G01X314032Y143759D02*
Y146760D01*
G02X315942Y151371I6521J0D01*
G01X326799Y162228D01*
G02X332102Y164424I5303J-5303D01*
G01X393734D01*
G03X399038Y166621I0J7500D01*
G01X417224Y184808D01*
Y186166D01*
G01X310297Y143900D02*
X310255Y143858D01*
X307595D01*
G01X320021Y104741D02*
X316404D01*
G01X319446Y134556D02*
X319588Y134414D01*
Y124342D01*
G03X321589Y122342I2001J0D01*
G01X325518D01*
G01X319544Y143759D02*
X322782D01*
X322922Y143900D01*
G01X323030Y39190D02*
X325310D01*
X326400Y38100D01*
G01X329337Y39190D02*
X327490D01*
X326400Y38100D01*
G01X329337Y45835D02*
Y50200D01*
G01X323030Y45835D02*
Y50100D01*
G01X325914Y75940D02*
X334160D01*
X334700Y75400D01*
G01X325518Y117342D02*
X335036D01*
X335459Y116918D01*
X335460D01*
G01X335568Y123129D02*
X334780Y122342D01*
X325518D01*
G01Y127342D02*
X347014D01*
X354300Y120056D01*
G01X335460Y116918D02*
X335459D01*
Y117509D01*
X341080Y123129D01*
G01X346668Y45835D02*
Y47368D01*
X348800Y49500D01*
G01X340971Y116918D02*
Y112896D01*
G01X352974Y39190D02*
X352090D01*
X350400Y37500D01*
G01X352974Y45835D02*
Y49726D01*
G01X354300Y120056D02*
X360500D01*
G01X361373Y65562D02*
Y61473D01*
G01X367755Y120016D02*
X360540D01*
X360500Y120056D01*
G01X421407Y71353D02*
X418466D01*
X418464Y71350D01*
X415936D01*
X415934Y71353D01*
X389347D01*
X376600Y84100D01*
Y113400D01*
X369984Y120016D01*
X367755D01*
G01X414202Y99994D02*
X414202Y99995D01*
X408380D01*
X408263Y100112D01*
G01X422322Y49975D02*
X419014D01*
G01X422322Y61225D02*
X418670D01*
G01X422726Y97937D02*
X419375D01*
X419234Y98078D01*
G01X422726Y94227D02*
X418999D01*
G01X428405Y30295D02*
Y35401D01*
G01X426919Y71353D02*
Y69853D01*
X429740Y67032D01*
G01X448179Y98587D02*
X442166Y104600D01*
X435026D01*
X428897Y98471D01*
Y97888D01*
G01X429015Y94187D02*
X432817D01*
G01X422726Y103449D02*
X428848D01*
X428897Y103400D01*
G01X423671Y111815D02*
X422726Y110870D01*
Y103449D01*
G01X430944Y132473D02*
Y130897D01*
X426862Y126815D01*
X423671D01*
G01X448179Y98587D02*
X446754D01*
X437838Y89671D01*
Y85863D01*
G01Y99248D02*
X433282D01*
X433154Y99121D01*
G01X443356Y126815D02*
X440673D01*
X436456Y131033D01*
Y132473D01*
G01X448544Y169100D02*
X434856D01*
G01X453907Y117071D02*
X443612D01*
X443356Y116815D01*
G01X455980Y156941D02*
X445980Y146941D01*
G01X454183Y71353D02*
X448073D01*
G01X455980Y156941D02*
X455559D01*
X448544Y163956D01*
Y169100D01*
G01X479700Y175000D02*
X452000D01*
X448544Y171544D01*
Y169100D01*
G01X454626Y60339D02*
X461181D01*
X461476Y60634D01*
G01X459695Y71353D02*
X463892D01*
X463913Y71331D01*
G01X468366Y60634D02*
X473064D01*
G01X463913Y71331D02*
X463944Y71300D01*
G01X463913Y76587D02*
Y71331D01*
G01X469456Y71300D02*
X472200D01*
G01X469439Y88587D02*
X463913D01*
G01X488255Y128600D02*
X483800D01*
X475700Y136700D01*
G54D32*
X433514Y119315D03*
G54D14*
X3844Y173200D03*
X9356D03*
X13044D03*
X22344Y167100D03*
X22244Y173200D03*
X18556D03*
X32377Y81248D03*
X32377Y87363D03*
X32377Y93478D03*
X32377Y99593D03*
X32377Y105708D03*
Y111824D03*
Y124054D03*
X32377Y117939D03*
X32377Y130169D03*
X32377Y136284D03*
X27856Y167100D03*
X27756Y173200D03*
X37889Y81248D03*
X37889Y87363D03*
X37889Y93478D03*
X37889Y99593D03*
X37889Y105708D03*
Y111824D03*
Y124054D03*
X37889Y117939D03*
X37889Y130169D03*
X37889Y136284D03*
X57934Y81773D03*
Y90878D03*
X63446Y81773D03*
Y90878D03*
X69085Y81773D03*
X74597D03*
Y90878D03*
X69085D03*
X99995Y52453D03*
Y59147D03*
Y65840D03*
Y72534D03*
Y79227D03*
X105507Y52453D03*
Y59147D03*
Y65840D03*
Y72534D03*
Y79227D03*
X115852Y69947D03*
X113406Y87972D03*
Y94399D03*
X121364Y69947D03*
X118917Y87972D03*
Y94399D03*
X129181Y55061D03*
Y61901D03*
X134693Y55061D03*
Y61901D03*
X218616Y38152D03*
X229955D03*
X224128D03*
X235467D03*
X246805D03*
X241293D03*
X252632D03*
X258144D03*
X263971D03*
X262068Y91832D03*
X262501Y119273D03*
X269483Y38152D03*
X267580Y91832D03*
X268013Y119273D03*
X280306Y61182D03*
Y68712D03*
Y76242D03*
X280493Y83614D03*
X287662Y39190D03*
X282150D03*
X282061Y45835D03*
X287573D03*
X285818Y61182D03*
Y68712D03*
Y76242D03*
X286005Y83614D03*
X287644Y134900D03*
X293880Y39190D03*
X293880Y45835D03*
X292656Y122225D03*
X292882Y128416D03*
X293156Y134900D03*
X299392Y39190D03*
X299392Y45835D03*
X305699D03*
X300005Y61182D03*
X305517D03*
X300005Y67934D03*
X305517D03*
Y74686D03*
X300005D03*
Y81438D03*
X305517D03*
X298168Y122225D03*
X298394Y128416D03*
X301926Y134507D03*
X302084Y143858D03*
X311211Y45835D03*
X306477Y98215D03*
X311989D03*
X311910Y104741D03*
X306398D03*
X307438Y134507D03*
X313934Y134556D03*
X307595Y143858D03*
X314032Y143759D03*
X317518Y39190D03*
X317518Y45835D03*
X319154Y61182D03*
X319517Y82506D03*
X320047Y98186D03*
X320021Y104741D03*
X319446Y134556D03*
X319544Y143759D03*
X323030Y39190D03*
X329337D03*
X323030Y45835D03*
X329337D03*
X324666Y61182D03*
X325029Y82506D03*
X325558Y98186D03*
X325533Y104741D03*
X334848Y39190D03*
Y45835D03*
X336422Y79742D03*
X335460Y116918D03*
X335568Y123129D03*
X346668Y45835D03*
X341156D03*
X342390Y60172D03*
Y67218D03*
Y74265D03*
X341934Y79742D03*
X340971Y116918D03*
X341080Y123129D03*
X352974Y39190D03*
X352974Y45835D03*
X347902Y60172D03*
Y67218D03*
Y74265D03*
X348897Y79742D03*
X354409D03*
X358486Y39190D03*
X358486Y45835D03*
X361373Y65562D03*
Y72657D03*
Y79752D03*
X364813Y39190D03*
X370324D03*
Y45835D03*
X364813D03*
X366885Y65562D03*
Y72657D03*
Y79752D03*
X376612Y45835D03*
X382124D03*
X411044Y79400D03*
X416556D03*
X422893Y38892D03*
X428405D03*
X426919Y71353D03*
X421407D03*
X429344Y169100D03*
X436063Y60339D03*
X436456Y132473D03*
X430944D03*
X434856Y169100D03*
X441574Y60339D03*
X449114D03*
X454056Y169100D03*
X448544D03*
X454626Y60339D03*
X454183Y71353D03*
X459695D03*
X463944Y71300D03*
X469456D03*
X466544Y169100D03*
X472056D03*
G54D23*
X157726Y61073D03*
Y63041D03*
Y65010D03*
Y66978D03*
Y68947D03*
Y70915D03*
Y72884D03*
Y74852D03*
Y76821D03*
Y78789D03*
Y80758D03*
Y82726D03*
Y84695D03*
Y86663D03*
Y88632D03*
Y90600D03*
Y92569D03*
Y94537D03*
Y96506D03*
Y98474D03*
Y100443D03*
Y102412D03*
Y104380D03*
Y106348D03*
Y108317D03*
Y110286D03*
Y112254D03*
Y114222D03*
Y116191D03*
Y118160D03*
Y120128D03*
Y122096D03*
Y124065D03*
Y126034D03*
Y128002D03*
Y129970D03*
X241978Y66978D03*
Y65010D03*
Y63041D03*
Y61073D03*
Y74852D03*
Y72884D03*
Y70915D03*
Y68947D03*
Y82726D03*
Y80758D03*
Y78789D03*
Y76821D03*
Y90600D03*
Y88632D03*
Y86663D03*
Y84695D03*
Y98474D03*
Y96506D03*
Y94537D03*
Y92569D03*
Y106348D03*
Y104380D03*
Y102412D03*
Y100443D03*
Y116191D03*
Y114222D03*
Y112254D03*
Y110286D03*
Y108317D03*
Y124065D03*
Y122096D03*
Y120128D03*
Y118160D03*
Y129970D03*
Y128002D03*
Y126034D03*
G54D42*
G01X17087Y11811D02*
X32700Y-3802D01*
X406926D01*
X417471Y6742D01*
Y8640D01*
G01X324528Y196166D02*
X313622D01*
G01D02*
X319075Y190714D01*
Y186166D01*
G01X337992Y209730D02*
X327185D01*
X313622Y196166D01*
G01X329980Y186166D02*
Y190714D01*
X335433Y196166D01*
G01X337992Y209730D02*
X324528Y196265D01*
Y196166D01*
G01X340886Y186166D02*
Y190714D01*
X335433Y196166D01*
G01D02*
X344282Y205016D01*
X464236D01*
X500800Y168452D01*
Y102000D01*
G01X489528Y208661D02*
X488459Y209730D01*
X337992D01*
G01X414202Y88774D02*
X407174D01*
X402204Y83804D01*
X390540D01*
G01Y108213D02*
Y109994D01*
X398818Y118272D01*
G01X423671Y126815D02*
X407361D01*
X398818Y118272D01*
G01X416556Y74400D02*
Y79400D01*
G01X447793Y71632D02*
X447552D01*
X441598Y77587D01*
X427547D01*
X421407Y71447D01*
Y71353D01*
G01X422726Y88715D02*
Y83626D01*
X418500Y79400D01*
X416556D01*
G01X422726Y88715D02*
X422667Y88774D01*
X414202D01*
G01X428405Y35401D02*
X427051Y34047D01*
X422300D01*
G01X428914Y44916D02*
X428700Y44701D01*
Y39187D01*
G01X428600Y35596D02*
X428405Y35401D01*
G01X428700Y39187D02*
X428405Y38892D01*
G01D02*
Y35790D01*
X428600Y35596D01*
G01X442214Y49916D02*
X429271D01*
X429212Y49975D01*
G01D02*
X428760Y49522D01*
Y45070D01*
X428914Y44916D01*
G01D02*
X442214D01*
G01X436063Y60339D02*
X430098D01*
X429212Y61225D01*
G01X424778Y66178D02*
X429212Y61744D01*
Y61225D01*
G01X429300Y83900D02*
Y88391D01*
X429015Y88676D01*
G01X437838Y85863D02*
X435025Y88676D01*
X429015D01*
G01X422726Y88715D02*
X428976D01*
X429015Y88676D01*
G01X422726Y88715D02*
G01X500800Y102000D02*
Y48300D01*
X468337Y15837D01*
X444668D01*
X437470Y8640D01*
G01X436063Y60339D02*
Y57337D01*
X438300Y55100D01*
X445900D01*
X451084Y49916D01*
X463474D01*
G01X434407Y71632D02*
Y66858D01*
G01X448179Y83587D02*
X440114D01*
X437838Y85863D01*
G01X443356Y111815D02*
X440437D01*
X436521Y115731D01*
Y117715D01*
X434921Y119315D01*
X433514D01*
G01X456343Y39916D02*
X442214D01*
G01X443356Y111815D02*
X454129D01*
X454146Y111798D01*
X463107D01*
X465078Y109827D01*
G01Y129118D02*
X457775Y121815D01*
X443356D01*
G01X469439Y83587D02*
X459748D01*
X447793Y71632D01*
G01X460434Y93587D02*
X455434Y88587D01*
X448179D01*
G01Y93587D02*
X460434D01*
G01X463474Y39916D02*
X456343D01*
G01D02*
X461343Y44916D01*
X463474D01*
G01X460434Y93587D02*
X469439D01*
G01X463474Y34916D02*
X463558Y35000D01*
X471000D01*
X473900Y37900D01*
Y46900D01*
X470884Y49916D01*
X463474D01*
G01X482277Y93587D02*
X469439D01*
G01X477273Y114002D02*
X472775Y118500D01*
X465600D01*
G01X500800Y102000D02*
X496900Y105900D01*
X492700D01*
X484900Y113700D01*
Y120500D01*
X476282Y129118D01*
X465078D01*
G01X465980Y146941D02*
X475980D01*
G01Y156941D02*
Y146941D01*
G01X472056Y169100D02*
Y160865D01*
X475980Y156941D01*
G01X472056Y169100D02*
X472656Y168500D01*
X479800D01*
X495145Y153155D01*
G01X495265Y114002D02*
Y128480D01*
X495145Y128600D01*
G01Y153155D02*
Y128600D01*
G01Y153155D02*
Y167955D01*
X493800Y169300D01*
G54D33*
X434407Y71632D03*
X447793D03*
G54D15*
X5370Y179100D03*
Y184100D03*
Y189100D03*
Y194100D03*
X26630Y179100D03*
Y189100D03*
Y184100D03*
Y194100D03*
X83553Y90532D03*
Y95532D03*
Y100532D03*
Y105532D03*
X104813Y90532D03*
Y100532D03*
Y95532D03*
Y105532D03*
X304259Y112342D03*
Y117342D03*
Y122342D03*
Y127342D03*
X325518Y112342D03*
Y122342D03*
Y117342D03*
Y127342D03*
X342033Y89491D03*
Y94491D03*
Y99491D03*
Y104491D03*
X363293Y89491D03*
Y99491D03*
Y94491D03*
Y104491D03*
X442214Y34916D03*
Y39916D03*
Y44916D03*
Y49916D03*
X448179Y83587D03*
Y88587D03*
Y93587D03*
Y98587D03*
X463474Y39916D03*
Y34916D03*
Y49916D03*
Y44916D03*
X469439Y83587D03*
Y88587D03*
Y98587D03*
Y93587D03*
G54D24*
X165404Y53396D03*
Y137648D03*
X173278Y53396D03*
X171309D03*
X169341D03*
X167372D03*
Y137648D03*
X169341D03*
X171309D03*
X173278D03*
X181152Y53396D03*
X179183D03*
X177215D03*
X175246D03*
Y137648D03*
X177215D03*
X179183D03*
X181152D03*
X189026Y53396D03*
X187057D03*
X185089D03*
X183120D03*
Y137648D03*
X185089D03*
X187057D03*
X189026D03*
X196900Y53396D03*
X194931D03*
X192963D03*
X190994D03*
Y137648D03*
X192963D03*
X194931D03*
X196900D03*
X206742Y53396D03*
X204774D03*
X202805D03*
X200837D03*
X198868D03*
Y137648D03*
X200837D03*
X202805D03*
X204774D03*
X206742D03*
X214616Y53396D03*
X212648D03*
X210679D03*
X208711D03*
Y137648D03*
X210679D03*
X212648D03*
X214616D03*
X222490Y53396D03*
X220522D03*
X218553D03*
X216585D03*
Y137648D03*
X218553D03*
X220522D03*
X222490D03*
X230364Y53396D03*
X228396D03*
X226427D03*
X224459D03*
Y137648D03*
X226427D03*
X228396D03*
X230364D03*
X234301Y53396D03*
X232333D03*
Y137648D03*
X234301D03*
G54D43*
G01X433300Y24469D02*
X417471Y8640D01*
G01D02*
X426718Y-608D01*
X477109D01*
X489528Y11811D01*
G01X433300Y24469D02*
Y37000D01*
X436200Y39900D01*
X442199D01*
X442214Y39916D01*
G01X482277Y93587D02*
X494600Y81264D01*
Y52000D01*
X467069Y24469D01*
X433300D01*
G01X466037Y109827D02*
X482277Y93587D01*
G54D34*
X437838Y85863D03*
Y99248D03*
G54D16*
X14878Y39131D03*
Y59131D03*
X49124Y8640D03*
X69124D03*
X93061D03*
X113061D03*
X136999D03*
X156999D03*
X180935D03*
X200935D03*
X225659D03*
X245659D03*
X265659D03*
X289597D03*
X309596D03*
X329596D03*
X353534D03*
X373534D03*
X393534D03*
X417471D03*
X437470D03*
X457470D03*
G54D25*
X264597Y100553D03*
Y110395D03*
X272471Y100553D03*
Y110395D03*
G54D35*
X465078Y109827D03*
Y129118D03*
G54D17*
X51260Y152037D03*
Y157549D03*
X57234Y152037D03*
Y157549D03*
X66200Y100044D03*
Y105556D03*
X63209Y152037D03*
Y157549D03*
X72800Y100044D03*
Y105556D03*
X69183Y152037D03*
Y157549D03*
X75158Y152037D03*
Y157549D03*
X81132Y152037D03*
Y157549D03*
X91326Y117343D03*
Y122855D03*
X91100Y137744D03*
Y143256D03*
X87106Y152037D03*
Y157549D03*
X93081Y152037D03*
Y157549D03*
X105180Y35321D03*
Y40833D03*
X103419Y157547D03*
Y152035D03*
X113648Y35370D03*
Y40882D03*
X111230Y157547D03*
Y152035D03*
X123212Y35144D03*
Y40656D03*
X119041Y157547D03*
Y152035D03*
X131611Y34978D03*
Y40489D03*
X132835Y122851D03*
Y128363D03*
X132619Y140556D03*
Y135044D03*
X128155Y152035D03*
Y157547D03*
X140304Y40656D03*
Y35144D03*
X140934Y122851D03*
Y128363D03*
X141400Y140556D03*
Y135044D03*
X135377Y157547D03*
Y152035D03*
X148849Y35144D03*
Y40656D03*
X142600Y152035D03*
Y157547D03*
X255109Y102639D03*
Y108151D03*
X263460Y162318D03*
Y167830D03*
X284334Y167845D03*
Y173357D03*
X297100Y106744D03*
Y112256D03*
X292321Y155066D03*
Y160578D03*
Y167845D03*
Y173357D03*
X354300Y114544D03*
Y120056D03*
X360500Y114544D03*
Y120056D03*
X414025Y106917D03*
Y116445D03*
Y112429D03*
Y121956D03*
X422726Y88715D03*
X429015Y88676D03*
X422726Y94227D03*
Y97937D03*
X428897Y97888D03*
X429015Y94187D03*
X422726Y103449D03*
X428897Y103400D03*
X453907Y111559D03*
Y117071D03*
G54D26*
X270274Y158321D03*
Y167770D03*
X277754Y158321D03*
X274014Y167770D03*
X277754D03*
G54D27*
X287655Y143200D03*
X294545D03*
X319083Y68678D03*
X319024Y75940D03*
X325972Y68678D03*
X325914Y75940D03*
X422322Y49975D03*
X429212D03*
X422322Y61225D03*
X429212D03*
X461476Y60634D03*
X468366D03*
X495145Y128600D03*
X488255D03*
G54D18*
X59200Y98655D03*
Y105545D03*
X284765Y155063D03*
Y161953D03*
X367755Y113126D03*
Y120016D03*
G54D36*
X486269Y88648D03*
G54D37*
X477273Y114002D03*
X495265D03*
G54D19*
X57155Y118533D03*
Y141073D03*
X64833Y118533D03*
X62274D03*
X59715D03*
Y141073D03*
X62274D03*
X64833D03*
X75069Y118533D03*
X72510D03*
X69951D03*
X67392D03*
Y141073D03*
X69951D03*
X72510D03*
X75069D03*
X82746Y118533D03*
X80187D03*
X77628D03*
Y141073D03*
X80187D03*
X82746D03*
X85305Y118533D03*
Y141073D03*
X97726Y118533D03*
Y141073D03*
X107963Y118533D03*
X105404D03*
X102844D03*
X100286D03*
Y141073D03*
X102844D03*
X105404D03*
X107963D03*
X115640Y118533D03*
X113081D03*
X110522D03*
Y141073D03*
X113081D03*
X115640D03*
X123317Y118533D03*
X120758D03*
X118199D03*
Y141073D03*
X120758D03*
X123317D03*
X125876Y118533D03*
Y141073D03*
G54D28*
X301346Y162119D03*
Y173340D03*
X414202Y88774D03*
Y99994D03*
G54D38*
G01X17087Y-7874D02*
X489528D01*
G03X509213Y11811I0J19685D01*
G01Y208661D01*
G03X489528Y228346I-19685J0D01*
G01X17087D01*
G03X-2598Y208661I0J-19685D01*
G01Y11811D01*
G03X17087Y-7874I19685J0D01*
G54D29*
X381101Y118272D03*
X398818D03*
G54D39*
G01X5370Y194100D02*
X0D01*
G01X3844Y173200D02*
Y169244D01*
G01X5370Y194100D02*
X10100D01*
G01X39500Y48900D02*
Y61852D01*
X24000Y77352D01*
Y105200D01*
X27600Y108800D01*
X29900D01*
X32377Y111277D01*
Y111824D01*
G01X22344Y167100D02*
Y163044D01*
G01X32377Y81248D02*
X28842D01*
G01X52700Y77000D02*
X35700D01*
X32377Y80323D01*
Y81248D01*
G01X32377Y87363D02*
X29540D01*
G01X32377Y93478D02*
X29540D01*
G01X32377Y99593D02*
X29541D01*
G01X32377Y105708D02*
X29540D01*
G01X32377Y111824D02*
X29624D01*
G01X32377Y117939D02*
X29540D01*
G01X32377Y124054D02*
X29540D01*
G01X32377Y130169D02*
X29741D01*
G01X32377Y136284D02*
Y133300D01*
G01X31600Y179200D02*
X26730D01*
X26630Y179100D01*
G01X34600Y189600D02*
X30100Y194100D01*
X26630D01*
G01X32700Y184200D02*
X26730D01*
X26630Y184100D01*
G01Y189100D02*
X27800D01*
X32700Y184200D01*
G01X39500Y48900D02*
X39800Y48600D01*
X99200D01*
X99995Y49395D01*
Y52453D01*
G01X37889Y81248D02*
X41660D01*
G01X40526Y87363D02*
X37889D01*
G01X37889Y93478D02*
X37889Y87363D01*
G01X37889Y105708D02*
Y99594D01*
X37889Y99593D01*
G01D02*
X40526D01*
G01X40525Y93547D02*
X37957D01*
X37889Y93478D01*
G01X40800Y105757D02*
X37938D01*
X37889Y105708D01*
G01Y111824D02*
X40729D01*
G01X37889Y124054D02*
Y117939D01*
G01X37889Y117939D02*
X41385D01*
G01X37938Y124005D02*
X37889Y124054D01*
G01D02*
X40525D01*
G01X40800Y130196D02*
X37916D01*
X37889Y130169D01*
G01X37889Y136284D02*
Y130169D01*
G01Y136284D02*
Y138211D01*
X34900Y141200D01*
G01X105180Y40833D02*
X105113Y40900D01*
X100900D01*
X93810Y33810D01*
X66420D01*
X49124Y16514D01*
Y8640D01*
G01X49358Y38150D02*
X56409Y45200D01*
X105800D01*
X113776Y53176D01*
Y59376D01*
G01X57934Y81773D02*
X57871D01*
X52899Y76801D01*
G01X57934Y90878D02*
X54505D01*
G01X113648Y40882D02*
X111682D01*
X109300Y38500D01*
Y34895D01*
X103405Y29000D01*
X74700D01*
X59300Y13600D01*
Y6700D01*
X65600Y400D01*
G01X66200Y100044D02*
Y96900D01*
G01X59200Y98655D02*
Y95500D01*
G01X64833Y118533D02*
Y114071D01*
X65315Y113589D01*
Y111289D01*
G01X62274Y118533D02*
Y113830D01*
X62515Y113589D01*
Y111289D01*
G01X59715Y118533D02*
Y111289D01*
G01X113648Y35370D02*
X104778Y26500D01*
X88100D01*
X70240Y8640D01*
X69124D01*
G01X75069Y118533D02*
Y115035D01*
X76515Y113589D01*
Y111289D01*
G01X72510Y118533D02*
Y114794D01*
X73715Y113589D01*
Y111289D01*
G01X69951Y118533D02*
Y114553D01*
X70915Y113589D01*
Y111289D01*
G01X67392Y118533D02*
Y114312D01*
X68115Y113589D01*
Y111289D01*
G01X99995Y52453D02*
X89247D01*
X75800Y65900D01*
G01X77000Y68900D02*
X90100Y55800D01*
X103900D01*
X105507Y57407D01*
Y59147D01*
G01X80200Y71900D02*
X92900Y84600D01*
X102400D01*
X105507Y81494D01*
Y79227D01*
G01X77628Y118533D02*
X77628Y118534D01*
Y115276D01*
X79315Y113589D01*
Y111289D01*
G01X83553Y100532D02*
X91921D01*
G02X94237Y98216I0J-2316D01*
G01Y89984D01*
G03X96716Y87504I2479J0D01*
G01X112937D01*
X113406Y87972D01*
G01X89200Y127700D02*
X91326Y125574D01*
Y122855D01*
G01X91100Y137744D02*
X87744D01*
G01X123212Y40656D02*
X118000Y35444D01*
Y25300D01*
X101340Y8640D01*
X93061D01*
G01X99995Y59147D02*
X96353D01*
G01X99995Y65840D02*
X96960D01*
G01X99995Y72534D02*
X96566D01*
G01X105180Y40833D02*
X111348Y47000D01*
X153800D01*
X160189Y40611D01*
X176292D01*
X179183Y43502D01*
Y53396D01*
G01X105180Y35321D02*
X101510D01*
G01X105507Y52453D02*
X108553D01*
G01X105507Y65840D02*
Y59147D01*
G01X112800Y68241D02*
X107907D01*
X105507Y65840D01*
G01X110300Y71040D02*
X110240Y71100D01*
X106940D01*
X105507Y72534D01*
G01Y79227D02*
Y72534D01*
G01X100400Y111600D02*
X100285Y111715D01*
Y118534D01*
X100286Y118533D01*
G01X105404Y109000D02*
Y118533D01*
G01X102844Y118533D02*
Y127700D01*
G01X113061Y8640D02*
Y16428D01*
X131611Y34978D01*
G01X115852Y69947D02*
Y62614D01*
X122831Y55636D01*
G01X123212Y40656D02*
X127256Y44700D01*
X151500D01*
X157389Y38811D01*
X177295D01*
X181152Y42668D01*
Y53396D01*
G01X123212Y35144D02*
X127044D01*
G01X125600Y65910D02*
X125402D01*
X121364Y69947D01*
G01X122831Y63117D02*
X126099D01*
G01X157726Y74852D02*
X149316D01*
G02X145780Y76317I0J5000D01*
G01X135589Y86508D01*
G03X132054Y87972I-3536J-3536D01*
G01X118917D01*
G01X120758Y118533D02*
Y127542D01*
G01X131611Y40489D02*
X132911D01*
X136000Y37400D01*
Y33700D01*
X129400Y27100D01*
Y3500D01*
X132500Y400D01*
G01X127400Y40500D02*
X127411Y40489D01*
X131611D01*
G01X129181Y55061D02*
Y51181D01*
G01Y61901D02*
Y58781D01*
G01X132309Y69986D02*
Y64284D01*
X134693Y61901D01*
G01X128569Y79041D02*
X128300Y78772D01*
Y73500D01*
G01X131650Y78841D02*
G01X126138Y130262D02*
X126375Y130499D01*
X133963D01*
X134157Y130693D01*
X134231D01*
X136534Y132996D01*
Y139234D01*
X137800Y140500D01*
X141344D01*
X141400Y140556D01*
G01X132619Y135044D02*
Y132799D01*
G01X146000Y133600D02*
Y141845D01*
X141345Y146500D01*
X134000D01*
X128465Y152035D01*
X128155D01*
G01X140304Y35144D02*
X136999Y31840D01*
Y8640D01*
G01X144400Y39000D02*
X144159D01*
X140304Y35144D01*
G01Y40656D02*
X136944D01*
G01X134693Y55061D02*
Y61901D01*
G01X138379Y54900D02*
X134854D01*
X134693Y55061D01*
G01X141295Y73795D02*
X136050Y79041D01*
G01X144900Y130700D02*
X142560Y128360D01*
X140936D01*
X140934Y128363D01*
G01X135377Y157547D02*
Y160184D01*
G01X174200Y400D02*
X169200Y5400D01*
Y23600D01*
X152144Y40656D01*
X148849D01*
G01X156999Y8640D02*
Y26994D01*
X148849Y35144D01*
G01X144854Y71040D02*
X144979Y70915D01*
X157726D01*
G01Y68947D02*
X147170D01*
X146677Y68453D01*
G01X157726Y84695D02*
X147189D01*
X146965Y84471D01*
X144555Y82845D01*
G01X146535Y80865D02*
X148396Y82726D01*
X157726D01*
G01Y80758D02*
X150877D01*
X148646Y78528D01*
G01X157726Y94537D02*
X153240D01*
X148252Y89548D01*
X145952D01*
G01Y86748D02*
X148006D01*
X153826Y92569D01*
X157726D01*
G01Y100443D02*
X150746Y100443D01*
X148252Y97948D01*
X145952D01*
G01X157726Y102412D02*
Y102411D01*
X149915D01*
X148252Y100748D01*
X145952D01*
G01X146400Y111800D02*
Y112200D01*
X151439Y117239D01*
Y121839D01*
X153665Y124065D01*
X157726D01*
G01X146500Y108900D02*
X147200D01*
X152522Y114222D01*
X157726D01*
G01X141400Y135044D02*
Y132500D01*
G01Y140556D02*
Y143192D01*
G01X142600Y157547D02*
Y161406D01*
G01X157726Y63041D02*
X153025Y63041D01*
G01X157726Y78789D02*
X153593D01*
X152508Y77704D01*
G01X157726Y88632D02*
X153851D01*
X152527Y87308D01*
G01X157726Y110286D02*
Y110285D01*
X153121D01*
X151910Y109074D01*
G01X153000Y143100D02*
X151400Y141500D01*
Y130400D01*
X153798Y128002D01*
X157726D01*
G01X156492Y141772D02*
X156472D01*
X153900Y139200D01*
Y131300D01*
X155230Y129970D01*
X157726D01*
G01X175246Y137648D02*
Y142872D01*
X172163Y145954D01*
X158544D01*
X154343Y150156D01*
Y158943D01*
X167700Y172300D01*
X186778D01*
X187238Y172760D01*
G01X186300Y175900D02*
X184800Y174400D01*
X166600D01*
X152374Y160174D01*
Y149326D01*
X157714Y143986D01*
X170476D01*
X173278Y141185D01*
Y137648D01*
G01X187238Y169960D02*
X187011Y169733D01*
X168333D01*
X156311Y157711D01*
Y150733D01*
X159121Y147923D01*
X173292D01*
X177215Y144000D01*
Y137648D01*
G01X152998Y175861D02*
X160367Y183231D01*
Y196016D01*
X160256Y196127D01*
G01X206045Y65406D02*
Y65483D01*
X203918Y67610D01*
X172715D01*
X165404Y60299D01*
Y53396D01*
G01X214468Y61882D02*
X206770Y69580D01*
X171373D01*
X162866Y61073D01*
X157726D01*
G01X218393Y58202D02*
Y62397D01*
X208946Y71844D01*
X170922D01*
X164088Y65010D01*
X157726D01*
G01X204400Y74284D02*
X170540D01*
X163234Y66978D01*
X157726D01*
G01Y86663D02*
X219800D01*
G01X157726Y90600D02*
X162700D01*
G01X172600Y98600D02*
X172474Y98474D01*
X157726D01*
G01X168452Y96174D02*
X168121Y96506D01*
X157726D01*
G01Y106348D02*
X177916Y106343D01*
X179359Y104900D01*
X179379D01*
G01X181900Y102600D02*
X178101D01*
X176321Y104380D01*
X157726D01*
G01X226900Y101700D02*
X220283Y108317D01*
X157726D01*
G01Y112254D02*
X163846D01*
X164600Y111500D01*
G01X185291Y118203D02*
X185279Y118191D01*
X173365D01*
X169460Y122096D01*
X157726D01*
G01X187250Y116150D02*
X187002Y115903D01*
X172398D01*
X168172Y120128D01*
X157726D01*
G01X186020Y113591D02*
Y113602D01*
X185940Y113682D01*
X170918D01*
X166440Y118160D01*
X157726D01*
G01Y126034D02*
X162166D01*
X163800Y124400D01*
G01X235484Y107183D02*
X232167Y110500D01*
X197600D01*
X187200Y120900D01*
X173700D01*
X165404Y129196D01*
Y137648D01*
G01X187464Y166933D02*
X168233D01*
X158280Y156980D01*
Y151469D01*
X159857Y149892D01*
X174724D01*
X179183Y145432D01*
Y137648D01*
G01X170350Y45550D02*
X171309Y46509D01*
Y53396D01*
G01X173278D02*
Y46522D01*
X175200Y44600D01*
G01X169478Y60022D02*
X174695Y65239D01*
X195882D01*
X198868Y62253D01*
Y53396D01*
G01X168500Y131000D02*
Y131200D01*
X167372Y132328D01*
Y137648D01*
G01X172200Y125900D02*
X173400Y127100D01*
Y132098D01*
X171309Y134189D01*
Y137648D01*
G01X170800Y128700D02*
Y132153D01*
X169341Y133612D01*
Y137648D01*
G01X175246Y53396D02*
Y59500D01*
G01X177215Y53396D02*
Y57315D01*
X179400Y59500D01*
G01X175295Y62548D02*
X175300Y62544D01*
X194285D01*
X196900Y59929D01*
Y53396D01*
G01X182200Y133100D02*
Y132500D01*
G01X191335Y167217D02*
X188072Y163954D01*
X182251D01*
X177841Y159544D01*
Y150685D01*
X181152Y147374D01*
Y137648D01*
G01X183120Y53396D02*
Y40780D01*
X195200Y28700D01*
G01X185089Y53396D02*
Y46511D01*
X198700Y32900D01*
G01X189026Y53396D02*
Y47243D01*
X203330Y32938D01*
X252930D01*
X258144Y38152D01*
G01X187057Y53396D02*
Y58157D01*
X186943Y58271D01*
G01X235813Y112539D02*
X201620Y112544D01*
X185089Y129082D01*
Y137648D01*
G01X189316Y130046D02*
X187057Y132305D01*
Y137648D01*
G01X197911Y164600D02*
Y152911D01*
X189026Y144026D01*
Y137648D01*
G01X193099Y164326D02*
Y163846D01*
X187797Y158544D01*
Y151479D01*
X183120Y146801D01*
Y137648D01*
G01X192963D02*
Y132700D01*
G01X196900Y137648D02*
Y140970D01*
X210131Y154202D01*
X212758D01*
G01X194931Y137648D02*
Y141648D01*
X202758Y149476D01*
Y154202D01*
G01X195000Y146500D02*
X190994Y142494D01*
Y137648D01*
G01X200837Y53396D02*
Y41663D01*
X205100Y37400D01*
G01X206742Y53396D02*
X206742Y58320D01*
G01X228262Y115349D02*
X221751D01*
X204774Y132327D01*
Y137648D01*
G01X209426Y131574D02*
X206742Y134258D01*
Y137648D01*
G01X246805Y38152D02*
X243522Y34868D01*
X213111D01*
X208711Y39268D01*
Y53396D01*
G01X226400Y117649D02*
X222048D01*
X212648Y127050D01*
Y137648D01*
G01X214616D02*
Y145700D01*
G01X228800Y153000D02*
X218503D01*
X208711Y143208D01*
Y137648D01*
G01X222490Y53396D02*
Y77195D01*
X233671Y88376D01*
G01X282150Y39190D02*
X282062Y39102D01*
X277144D01*
X267011Y28969D01*
X238115D01*
X225659Y16514D01*
Y8640D01*
G01X224128Y38152D02*
X224128Y43559D01*
G01X277900Y126000D02*
X259683Y144217D01*
X232897D01*
X230364Y141684D01*
Y137648D01*
G01X306477Y98215D02*
G02X299988Y98215I-3244J3244D01*
G01X285302Y112902D01*
G02X283837Y116437I3535J3536D01*
G01Y132532D01*
G03X282373Y136067I-5000J0D01*
G01X268436Y150004D01*
G03X264900Y151469I-3536J-3536D01*
G01X234057D01*
G03X230521Y150004I0J-5000D01*
G01X227892Y147375D01*
G03X226427Y143839I3536J-3536D01*
G01Y137648D01*
G01X320047Y98186D02*
X317013Y95152D01*
G02X313477Y93688I-3535J3536D01*
G01X301716D01*
G02X298180Y95152I0J5000D01*
G01X281891Y111441D01*
G02X280427Y114977I3536J3535D01*
G01Y130611D01*
G03X278963Y134147I-5000J0D01*
G01X266231Y146878D01*
G03X262696Y148342I-3536J-3536D01*
G01X235566D01*
G03X232030Y146878I0J-5000D01*
G01X229860Y144708D01*
G03X228396Y141172I3536J-3536D01*
G01Y137648D01*
G01X232333Y47093D02*
Y40225D01*
X234406Y38152D01*
X235467D01*
G01X252282Y51362D02*
X243677D01*
X235467Y43152D01*
Y38152D01*
G01X232333Y53396D02*
Y47093D01*
G01D02*
X234301Y49061D01*
Y53396D01*
G01X241978Y90600D02*
X237798D01*
X236248Y92149D01*
G01X232333Y137648D02*
Y124433D01*
G01X241978Y120128D02*
X238528D01*
X236300Y117900D01*
G01X293880Y39190D02*
Y37620D01*
X283230Y26970D01*
X265737D01*
X246986Y8218D01*
X246081D01*
X245659Y8640D01*
G01X246805Y38152D02*
Y45886D01*
X252282Y51362D01*
G01X241978Y65010D02*
X257635Y65010D01*
X263404Y59241D01*
G01X241978Y63041D02*
X254822Y63041D01*
X259720Y58143D01*
G01X241978Y61073D02*
X251998Y61073D01*
X255094Y57977D01*
G01X241978Y70915D02*
X278103D01*
X280306Y68712D01*
G01X241978Y80758D02*
X249816D01*
X255427Y75146D01*
G01X241978Y82726D02*
X252149D01*
X259220Y75656D01*
G01X241978Y84695D02*
X254189D01*
X262885Y75999D01*
G01X342033Y99491D02*
X334717D01*
X323711Y88484D01*
X272969D01*
X269745Y85260D01*
X256907D01*
X255503Y86663D01*
X241978D01*
G01Y88632D02*
X242147Y88800D01*
X257297D01*
X258828Y87269D01*
X269000D01*
X272046Y90315D01*
X322438D01*
X334111Y101989D01*
X336728D01*
G01X241978Y92569D02*
X250666D01*
G01X248100Y110239D02*
X246178Y108317D01*
X241978D01*
G01X241978Y106348D02*
X253306Y106348D01*
X255109Y108151D01*
G01X241978Y104380D02*
X253369Y104380D01*
X255109Y102639D01*
G01X255427Y123100D02*
Y123157D01*
X254519Y124065D01*
X241978D01*
G01Y122096D02*
X248304D01*
X251200Y119200D01*
Y118700D01*
G01D02*
X250660Y118160D01*
X241978D01*
G01X252282Y51362D02*
X253261Y52342D01*
G01X255109Y102639D02*
Y98791D01*
X262068Y91832D01*
G01X255109Y108151D02*
Y114322D01*
X259565Y118778D01*
X262501D01*
G01X258144Y38152D02*
Y49757D01*
X263022Y54635D01*
G01X269483Y38152D02*
X263377Y44257D01*
X262767D01*
G01X262068Y91832D02*
X266178Y95942D01*
X270225D01*
X272471Y98188D01*
Y100553D01*
G01X264597Y100553D02*
G01X262501Y118778D02*
Y119273D01*
G01X264597Y110395D02*
X264597Y116682D01*
X262501Y118778D01*
G01X277754Y158321D02*
X273994Y154560D01*
X266574D01*
X263460Y157675D01*
Y162318D01*
G01X270274Y167770D02*
X263520D01*
X263460Y167830D01*
G01X305699Y45835D02*
Y38404D01*
X297371Y30076D01*
X290129D01*
X268780Y8728D01*
X265747D01*
X265659Y8640D01*
G01X269483Y38152D02*
X275066Y43735D01*
Y54635D01*
G01X280306Y61182D02*
Y58470D01*
X284141Y54635D01*
G01X280306Y61182D02*
X277203D01*
G01X293353Y54635D02*
X290100Y57889D01*
Y61445D01*
X286541Y65004D01*
X282515D01*
X280306Y67212D01*
Y68712D01*
G01X298312Y54635D02*
X295127Y57820D01*
Y70080D01*
X292638Y72569D01*
X284034D01*
X280361Y76242D01*
X280306D01*
G01D02*
X277544D01*
G01X277016Y83398D02*
X280277D01*
X280493Y83614D01*
G01X282061Y45835D02*
Y39279D01*
X282150Y39190D01*
G01X282103Y49715D02*
Y45876D01*
X282061Y45835D01*
G01X286005Y83614D02*
X288532D01*
G01X317518Y39190D02*
Y34670D01*
X306720Y23873D01*
X296956D01*
X289597Y16514D01*
Y8640D01*
G01X293880Y39190D02*
Y45835D01*
G01X290844Y46186D02*
X293529D01*
X293880Y45835D01*
G01X300005Y61182D02*
X297440D01*
G01X300005Y74686D02*
X297224D01*
G01X300005Y81438D02*
X297215D01*
G01X305699Y45835D02*
Y48606D01*
X311728Y54635D01*
G01X300005Y61182D02*
Y59076D01*
X304447Y54635D01*
G01X311728D02*
X309180Y57183D01*
Y62740D01*
X307210Y64709D01*
X302928D01*
X300005Y67632D01*
Y67934D01*
G01D02*
Y69174D01*
X305517Y74686D01*
G01X300005Y67934D02*
X297538D01*
G01X316638Y54635D02*
X313826Y57448D01*
Y75293D01*
X310851Y78268D01*
X303176D01*
X300005Y81438D01*
G01X306398Y104741D02*
X301400D01*
G01X311910D02*
Y114959D01*
X309527Y117342D01*
X304259D01*
G01X334848Y39190D02*
Y36272D01*
X309596Y11020D01*
Y8640D01*
G01X311910Y104741D02*
Y98294D01*
X311989Y98215D01*
G01X317518Y45835D02*
Y39190D01*
G01X317481Y50764D02*
Y45872D01*
X317518Y45835D01*
G01X319154Y61182D02*
Y58577D01*
X323096Y54635D01*
G01X316518Y60946D02*
X316716D01*
X316912Y60750D01*
X318723D01*
X319154Y61182D01*
G01X319024Y75940D02*
Y68737D01*
X319083Y68678D01*
G01X319517Y82506D02*
X319372Y82361D01*
G01D02*
Y76289D01*
X319024Y75940D01*
G01X316413Y82104D02*
X316559Y82252D01*
X319262D01*
X319372Y82361D01*
G01X341156Y45835D02*
Y20199D01*
X329596Y8640D01*
G01X324666Y61182D02*
X327879D01*
G01X336561Y54635D02*
X332034Y59163D01*
Y65729D01*
X329084Y68678D01*
X325972D01*
G01X325029Y82506D02*
Y86338D01*
G01X325533Y104741D02*
Y98212D01*
X325558Y98186D01*
G01X325518Y112342D02*
Y104755D01*
X325533Y104741D01*
G01X334848Y45835D02*
Y39190D01*
G01X334768Y51087D02*
Y45915D01*
X334848Y45835D01*
G01X336422Y79742D02*
X336422Y83880D01*
X342033Y89491D01*
G01X336728Y101989D02*
X339230Y104491D01*
X342033D01*
G01X335980Y156941D02*
X330800Y151762D01*
Y144300D01*
X335600Y139500D01*
X342000D01*
X355800Y125700D01*
Y124900D01*
G01X341156Y45835D02*
Y47959D01*
X347831Y54635D01*
G01X342390Y60172D02*
Y58253D01*
X346009Y54635D01*
G01X338786Y66983D02*
X342155D01*
X342390Y67218D01*
G01Y60172D02*
X339060D01*
G01X342390Y74265D02*
Y73159D01*
X344617Y70932D01*
X354878D01*
X357955Y67855D01*
Y59545D01*
X362865Y54635D01*
G01X342390Y74265D02*
X338678D01*
G01X341863Y83378D02*
Y79813D01*
X341934Y79742D01*
G01X342033Y89491D02*
X355956D01*
G01X350722Y92306D02*
Y96579D01*
X347811Y99491D01*
X342033D01*
G01Y94491D02*
X346884D01*
G01X345980Y156941D02*
X341000Y151962D01*
Y143900D01*
X359850Y125050D01*
G01X345980Y146941D02*
Y143168D01*
X364347Y124800D01*
X364747D01*
G01X358486Y39190D02*
Y13593D01*
X353534Y8640D01*
G01X347902Y60172D02*
X351340D01*
G01X347902Y74265D02*
X350958D01*
G01X347902Y67218D02*
X350418D01*
G01X354409Y79742D02*
X354409Y87944D01*
X355956Y89491D01*
G01X350722Y83957D02*
Y81568D01*
X348897Y79742D01*
G01X354300Y114544D02*
Y111600D01*
G01X358486Y45835D02*
Y39190D01*
G01X358415Y50362D02*
Y45905D01*
X358486Y45835D01*
G01X366885Y79752D02*
Y78168D01*
X361373Y72657D01*
G01Y79752D02*
X358484D01*
G01X355956Y89491D02*
X357146D01*
X366885Y79752D01*
G01X360500Y114544D02*
Y111400D01*
G01X365980Y146941D02*
X361100Y142062D01*
Y131700D01*
G01X355980Y156941D02*
X360821Y152100D01*
X408800D01*
X411100Y154400D01*
Y160900D01*
X419300Y169100D01*
X429344D01*
G01X370324Y39190D02*
Y14345D01*
X373534Y11136D01*
Y8640D01*
G01X370324Y45835D02*
Y39190D01*
G01X373694Y46442D02*
X370932D01*
X370324Y45835D01*
G01X364813D02*
Y50213D01*
G01X366885Y65562D02*
X371238D01*
G01X366885Y72657D02*
Y69615D01*
G01X380720Y54635D02*
X375683Y59672D01*
Y77156D01*
X373086Y79752D01*
X366885D01*
G01X363293Y89491D02*
X367660D01*
G01X363293Y94491D02*
X367940D01*
G01X363293Y99491D02*
X367989D01*
G01X363293Y104491D02*
X368130D01*
G01X367755Y113126D02*
X372700D01*
G01X425980Y156941D02*
X420900Y151862D01*
Y144500D01*
X414800Y138400D01*
X367700D01*
G01X365500Y136100D02*
X365647Y135953D01*
G01X425980Y146941D02*
Y145980D01*
X416100Y136100D01*
X365500D01*
G01X435980Y156941D02*
X433638Y154600D01*
X433500D01*
X431700Y152800D01*
Y141500D01*
X423947Y133747D01*
X363747D01*
G01X376612Y45835D02*
Y25561D01*
X393534Y8640D01*
G01X376612Y45835D02*
Y46969D01*
X384278Y54635D01*
G01X381101Y118272D02*
X376028D01*
G01X382124Y45835D02*
Y42276D01*
G01X414025Y106917D02*
X409917D01*
G01X414025Y116445D02*
Y112429D01*
G01X423671Y116815D02*
X419166D01*
X414025Y121956D01*
G01X447793Y71632D02*
X445900Y69739D01*
Y62100D01*
X447661Y60339D01*
X449114D01*
G01X454056Y169100D02*
X456000D01*
X459000Y166100D01*
M02*
