G04 ================== begin FILE IDENTIFICATION RECORD ==================*
G04 Layout Name:  F:/对外部分项目/信号发生器改版V2.0/Hardware/Pcb/DDS.brd*
G04 Film Name:    BOTTOM*
G04 File Format:  Gerber RS274X*
G04 File Origin:  Cadence Allegro 16.6-2015-S066*
G04 Origin Date:  Sun May 07 11:08:12 2017*
G04 *
G04 Layer:  BOARD GEOMETRY/OUTLINE*
G04 Layer:  ETCH/BOTTOM*
G04 Layer:  PIN/BOTTOM*
G04 Layer:  VIA CLASS/BOTTOM*
G04 *
G04 Offset:    (0.000 0.000)*
G04 Mirror:    No*
G04 Mode:      Positive*
G04 Rotation:  0*
G04 FullContactRelief:  No*
G04 UndefLineWidth:     1.000*
G04 ================== end FILE IDENTIFICATION RECORD ====================*
%FSLAX25Y25*MOIN*%
%IR0*IPPOS*OFA0.00000B0.00000*MIA0B0*SFA1.00000B1.00000*%
%ADD10C,.177165*%
%ADD12C,.02*%
%ADD11C,.059055*%
%ADD14C,.070866*%
%ADD13C,.098425*%
%ADD15C,.003937*%
%ADD16C,.01*%
%ADD17C,.012*%
%ADD18C,.015*%
%ADD19C,.025*%
%ADD23C,.11443*%
%ADD20C,.19317*%
%ADD21C,.036004*%
%ADD22C,.07506*%
%ADD24C,.08687*%
G75*
%LPD*%
G75*
G36*
G01X17087Y-7074D02*
G02X-1798Y11811I0J18885D01*
G01Y208661D01*
G02X17087Y227546I18885J0D01*
G01X489528D01*
G02X508412Y208661I0J-18885D01*
G01Y11811D01*
G02X489528Y-7074I-18885J0D01*
G01X17087D01*
G37*
%LPC*%
G75*
G36*
G01X352023Y91061D02*
Y85202D01*
G02X349422I-1300J-1245D01*
G01Y91061D01*
G02X352023I1300J1245D01*
G37*
G36*
G01X272577Y89677D02*
X277054Y85199D01*
X277129Y85195D01*
G02X275220Y83285I-113J-1797D01*
G01X275215Y83361D01*
X271500Y87076D01*
X234916D01*
G02Y89677I-1245J1300D01*
G01X272577D01*
G37*
G36*
G01X119857Y56399D02*
X100180D01*
G02Y59200I-1131J1400D01*
G01X119377D01*
G02X119857Y56399I1330J-1213D01*
G37*
G36*
G01X465053Y31845D02*
X478150Y44942D01*
Y159158D01*
X464758Y172550D01*
X449611D01*
G02X449228Y175665I-1067J1450D01*
G01X449265Y175650D01*
X466042D01*
X481250Y160442D01*
Y43658D01*
X466337Y28745D01*
X429320D01*
G02Y31845I-915J1550D01*
G01X465053D01*
G37*
G36*
G01X459799Y13868D02*
X482256Y36325D01*
Y180944D01*
X454951Y208250D01*
X317699D01*
X306875Y197426D01*
X306906Y197314D01*
G02Y195019I-4189J-1147D01*
G01X306875Y194907D01*
X310220Y191563D01*
Y189996D01*
G02X305634Y189693I-2050J-3829D01*
G03X305683Y190301I-233J325D01*
G01X303976Y192008D01*
X303864Y191977D01*
G02X301569I-1147J4189D01*
G01X301457Y192008D01*
X299750Y190301D01*
G03X299799Y189693I283J-283D01*
G02X295214Y189996I-2536J-3527D01*
G01Y191563D01*
X298558Y194907D01*
X298527Y195019D01*
G02X303864Y200356I4189J1147D01*
G01X303976Y200325D01*
X316001Y212350D01*
X456649D01*
X486356Y182643D01*
Y34626D01*
X462698Y10968D01*
X462750Y10845D01*
G02X459675Y13919I-5280J-2205D01*
G01X459799Y13868D01*
G37*
G36*
G01X162456Y6920D02*
G02X162697Y9159I-5457J1720D01*
G03X163404Y8942I398J36D01*
G02X163194Y6982I1392J-1141D01*
G03X162456Y6920I-356J-182D01*
G37*
G36*
G01X406139Y20400D02*
X197761D01*
X175357Y42804D01*
X175269Y42801D01*
G02X176972Y44918I-69J1799D01*
G01X176983Y44856D01*
X192805Y29034D01*
G03X193472Y29204I283J283D01*
G02X196948Y29132I1728J-504D01*
G01X196961Y29078D01*
X200139Y25900D01*
X203295D01*
G03X203578Y26583I0J400D01*
G01X199033Y31128D01*
X198935Y31115D01*
G02X200412Y33458I-235J1785D01*
G01X200426Y33412D01*
X205880Y27959D01*
X211636D01*
G03X211919Y28642I0J400D01*
G01X204957Y35604D01*
X204888Y35612D01*
G02X206900Y37419I212J1788D01*
G01X206901Y37338D01*
X214139Y30100D01*
X400061D01*
X402925Y32963D01*
G03X402525Y33629I-283J283D01*
G02X399982Y33756I-1095J3590D01*
G01X399858Y33808D01*
X397472Y31422D01*
X390018D01*
X389995Y31400D01*
X227924D01*
X227902Y31422D01*
X225430D01*
X207989Y48863D01*
Y56289D01*
G03X207435Y56658I-400J0D01*
G02Y59981I-693J1662D01*
G03X207989Y60350I154J369D01*
G01Y61624D01*
X206008Y63604D01*
X205933Y63609D01*
G02X207842Y65518I113J1797D01*
G01X207847Y65443D01*
X209668Y63622D01*
G03X210350Y63905I283J283D01*
G01Y66405D01*
X204268Y72487D01*
X204199Y72495D01*
G02X206200Y74313I201J1789D01*
G01X206201Y74232D01*
X212951Y67482D01*
Y63778D01*
G03X213554Y63433I400J0D01*
G02X215713Y63182I914J-1551D01*
G01X245680D01*
X262805Y46058D01*
X262880Y46053D01*
G02X260971Y44144I-113J-1797D01*
G01X260966Y44219D01*
X244603Y60582D01*
X215713D01*
G02X213554Y60331I-1245J1300D01*
G03X212951Y59987I-203J-345D01*
G01Y52596D01*
X216317Y49230D01*
G03X217000Y49513I283J283D01*
G01Y57062D01*
G02X219600Y56867I1393J1140D01*
G01Y49926D01*
X224165Y45360D01*
X224241Y45356D01*
G02X224582Y41817I-113J-1797D01*
G03X224400Y41147I101J-387D01*
G01X229747Y35800D01*
X345503D01*
G03X345757Y36509I0J400D01*
G02X345672Y39216I1143J1391D01*
G03X345399Y39909I-273J292D01*
G01X271147D01*
X254866Y56190D01*
X254802Y56200D01*
G02X256894Y57928I292J1776D01*
G01X256891Y57842D01*
X258078Y56655D01*
G03X258420Y56797I141J141D01*
G01Y56896D01*
X258370Y56953D01*
G02X260977Y59432I1350J1191D01*
G03X261647Y59631I279J286D01*
G02X262595Y60849I1757J-390D01*
G03X262698Y61489I-180J357D01*
G01X254127Y70061D01*
Y73901D01*
G02X256860Y76236I1300J1245D01*
G03X257550Y76328I318J242D01*
G02X260627Y76778I1670J-673D01*
G03X261294Y76840I313J249D01*
G02X264185Y74754I1591J-842D01*
G01Y70373D01*
X278232Y56327D01*
X283931D01*
G03X284274Y56933I0J400D01*
G02X287362I1544J926D01*
G03X287705Y56327I343J-206D01*
G01X303574D01*
G03X303927Y56915I0J400D01*
G02X307107I1590J844D01*
G03X307460Y56327I353J-188D01*
G01X354289D01*
X358453Y52164D01*
X358528Y52159D01*
G02X356619Y50249I-113J-1797D01*
G01X356614Y50325D01*
X353212Y53727D01*
X317322D01*
G03X317040Y53044I0J-400D01*
G01X317518Y52565D01*
X317594Y52561D01*
G02X315684Y50651I-113J-1797D01*
G01X315679Y50727D01*
X314668Y51738D01*
X303465D01*
G03X303135Y51110I0J-400D01*
G02X300172I-1482J-1023D01*
G03X299843Y51738I-329J227D01*
G01X283589D01*
G03X283319Y51043I0J-400D01*
G02X280858Y48415I-1216J-1327D01*
G01X276652D01*
G03X276369Y47732I0J-400D01*
G01X276615Y47486D01*
X289599D01*
G02X292425Y45325I1245J-1300D01*
G03X292777Y44734I351J-191D01*
G01X326576D01*
X332967Y51125D01*
X332971Y51200D01*
G02X334881Y49291I1797J-113D01*
G01X334805Y49286D01*
X328711Y43192D01*
G03X328994Y42509I283J-283D01*
G01X367922D01*
X371892Y46480D01*
X371897Y46555D01*
G02X373806Y44646I1797J-113D01*
G01X373731Y44641D01*
X368999Y39909D01*
X348401D01*
G03X348128Y39216I0J-400D01*
G02X348043Y36509I-1228J-1316D01*
G03X348297Y35800I254J-309D01*
G01X387403D01*
G03X387791Y36298I0J400D01*
G02X388021Y38788I3638J920D01*
G01X365584Y61225D01*
Y68370D01*
G02X368185I1300J1245D01*
G01Y62302D01*
X389858Y40629D01*
X389982Y40681D01*
G02X394205Y34692I1448J-3462D01*
G03X394500Y34022I296J-269D01*
G01X396395D01*
X398019Y35646D01*
X397967Y35770D01*
G02X398021Y38788I3462J1448D01*
G01X395000Y41809D01*
Y44536D01*
G03X394295Y44794I-400J0D01*
G02Y49643I-2865J2424D01*
G03X395000Y49901I305J258D01*
G01Y59361D01*
X390100Y64262D01*
X372483D01*
G02Y66862I-1245J1300D01*
G01X391177D01*
X397600Y60439D01*
Y49561D01*
G03X398330Y49335I400J0D01*
G02Y45102I3099J-2117D01*
G03X397600Y44876I-330J-226D01*
G01Y42887D01*
X399858Y40629D01*
X399982Y40681D01*
G02X405019Y36123I1448J-3462D01*
G03X405685Y35723I383J-117D01*
G01X407600Y37639D01*
Y66861D01*
X370470Y103991D01*
G03X369813Y103851I-283J-283D01*
G02X367491Y106173I-1683J640D01*
G03X367631Y106830I-142J374D01*
G01X354500Y119961D01*
Y123655D01*
G02X357100I1300J1245D01*
G01Y121039D01*
X357867Y120272D01*
G03X358550Y120555I283J283D01*
G01Y123805D01*
G02X361150I1300J1245D01*
G01Y120234D01*
X362764Y118620D01*
G03X363447Y118903I283J283D01*
G01Y123555D01*
G02X366047I1300J1245D01*
G01Y117883D01*
X414387Y69543D01*
G03X415070Y69826I283J283D01*
G01Y117439D01*
X443049Y145418D01*
X442998Y145542D01*
G02X445012Y143528I3462J1448D01*
G01X444888Y143580D01*
X417670Y116362D01*
Y99945D01*
G03X418282Y99606I400J0D01*
G02X420002Y96450I952J-1528D01*
G03X419959Y95750I171J-362D01*
G02X418239Y92595I-960J-1523D01*
G03X417670Y92232I-169J-363D01*
G01Y63342D01*
G03X418179Y62957I400J0D01*
G02Y59493I491J-1732D01*
G03X417670Y59108I-109J-385D01*
G01Y51963D01*
G03X418242Y51601I400J0D01*
G02Y48348I772J-1626D01*
G03X417670Y47987I-171J-361D01*
G01Y31932D01*
X406139Y20400D01*
G37*
G36*
G01X278503Y62427D02*
G02X275903I-1300J-1245D01*
G01Y69610D01*
X265708Y79804D01*
X229918D01*
X224359Y85363D01*
X221045D01*
G02Y87964I-1245J1300D01*
G01X225437D01*
X230995Y82405D01*
X231216D01*
G03X231357Y82746I0J200D01*
G01X225600Y88504D01*
Y100455D01*
G02X228200I1300J1245D01*
G01Y89581D01*
X232730Y85051D01*
X270573D01*
X277581Y78043D01*
X277656Y78038D01*
G02X275747Y76129I-113J-1797D01*
G01X275742Y76204D01*
X269496Y82451D01*
X267705D01*
G03X267422Y81768I0J-400D01*
G01X278503Y70687D01*
Y62427D01*
G37*
G36*
G01X296091Y62374D02*
G02X296318Y59773I1349J-1192D01*
G01X293208D01*
X284932Y68049D01*
Y85105D01*
X285075Y85249D01*
Y87054D01*
X278660Y93470D01*
X253406D01*
X252468Y92531D01*
X252463Y92456D01*
G02X250554Y94366I-1797J113D01*
G01X250629Y94370D01*
X252329Y96070D01*
X279736D01*
X287676Y88131D01*
Y85766D01*
G03X288159Y85375I400J0D01*
G02X288041Y81882I373J-1761D01*
G03X287532Y81497I-109J-385D01*
G01Y78219D01*
G03X288107Y77860I400J0D01*
G02X290174Y77510I789J-1618D01*
G03X290857Y77792I284J282D01*
G01Y93566D01*
X278913Y105510D01*
X236151D01*
X236117Y105497D01*
G02X237027Y108110I-633J1685D01*
G01X246739D01*
G03X246986Y108825I0J400D01*
G02X246368Y110730I1114J1414D01*
G03X245983Y111239I-385J109D01*
G01X237058D01*
G02Y113839I-1245J1300D01*
G01X282900D01*
X298515Y98224D01*
Y82683D01*
G02X296449Y79809I-1300J-1245D01*
G03X295878Y79447I-170J-362D01*
G01Y77870D01*
X297262Y76487D01*
X297337Y76483D01*
G02X295427Y74573I-113J-1797D01*
G01X295423Y74649D01*
X294141Y75931D01*
G03X293458Y75648I-283J-283D01*
G01Y73852D01*
X297575Y69735D01*
X297651Y69730D01*
G02X295741Y67821I-113J-1797D01*
G01X295736Y67896D01*
X290857Y72775D01*
Y74691D01*
G03X290174Y74973I-400J0D01*
G02X288107Y74624I-1277J1269D01*
G03X287532Y74264I-175J-360D01*
G01Y70386D01*
G03X288192Y70082I400J0D01*
G02X290238Y67140I1169J-1369D01*
G03X290150Y66508I195J-349D01*
G01X294285Y62374D01*
X296091D01*
G37*
G36*
G01X11123Y78546D02*
X11175Y78422D01*
G02X6518Y80532I-3462J-1448D01*
G03Y81291I-127J379D01*
G02Y88406I1195J3558D01*
G03Y89165I-127J379D01*
G02X9161Y96185I1195J3558D01*
G01X9284Y96133D01*
X11599Y98448D01*
X22982D01*
G03X23284Y99110I0J400D01*
G02X25998I1357J1183D01*
G03X26299Y98448I302J-263D01*
G01X32938D01*
X34577Y100087D01*
X34572Y100177D01*
G02X36747Y98533I1796J116D01*
G01X36689Y98521D01*
X34015Y95847D01*
X26438D01*
G03X26111Y95216I0J-400D01*
G02X23170I-1470J-1038D01*
G03X22843Y95847I-327J231D01*
G01X12676D01*
X11123Y94294D01*
X11175Y94170D01*
G02X8907Y89165I-3462J-1448D01*
G03Y88406I127J-379D01*
G02X11233Y86149I-1195J-3558D01*
G01X23044D01*
G03X23334Y86824I0J400D01*
G02X25947I1306J1239D01*
G03X26237Y86149I290J-275D01*
G01X31537D01*
X33875Y88487D01*
X33889Y88538D01*
G02X35442Y86272I1736J-475D01*
G01X35347Y86282D01*
X32614Y83548D01*
X25785D01*
G03X25450Y82930I0J-400D01*
G02X22696Y80647I-1509J-982D01*
G01X13224D01*
X11123Y78546D01*
G37*
G36*
G01X99473Y146339D02*
G02X98074Y147668I-1746J-438D01*
G03X98539Y148158I77J392D01*
G02X99195Y150028I1746J438D01*
G03X98953Y150746I-242J318D01*
G01X94587D01*
X82517Y162816D01*
Y183101D01*
G03X81809Y183356I-400J0D01*
G02X82148Y188430I-3345J2771D01*
G01X82206Y188336D01*
X82517D01*
Y188838D01*
X84821Y191142D01*
G03X84486Y191821I-283J283D01*
G02X87170Y193249I-568J4306D01*
G03X87470Y192584I300J-265D01*
G01X91270D01*
G03X91570Y193249I0J400D01*
G02X98076I3253J2878D01*
G03X98376Y192584I300J-265D01*
G01X102176D01*
G03X102475Y193249I0J400D01*
G02X108981I3253J2878D01*
G03X109281Y192584I300J-265D01*
G01X113081D01*
G03X113381Y193249I0J400D01*
G02X119887I3253J2878D01*
G03X120186Y192584I300J-265D01*
G01X123987D01*
G03X124286Y193249I0J400D01*
G02X130792I3253J2878D01*
G03X131092Y192584I300J-265D01*
G01X132922D01*
X134548Y194210D01*
G02X136528Y192230I3897J1917D01*
G01X134910Y190612D01*
G03X135007Y189975I283J-283D01*
G02X129834Y189109I-2015J-3848D01*
G03X129543Y189784I-291J275D01*
G01X125536D01*
G03X125245Y189109I0J-400D01*
G02X118928I-3158J-2982D01*
G03X118638Y189784I-291J275D01*
G01X114630D01*
G03X114339Y189109I0J-400D01*
G02X108023I-3158J-2982D01*
G03X107732Y189784I-291J275D01*
G01X103725D01*
G03X103434Y189109I0J-400D01*
G02X97098Y183166I-3158J-2982D01*
G03X96454Y183084I-293J-273D01*
G02X96274Y182815I-1581J862D01*
G01Y164713D01*
G03X96957Y164430I400J0D01*
G01X104486Y171959D01*
X137551D01*
X150604Y185012D01*
X150578Y185121D01*
G02X156782Y182261I4225J1007D01*
G03X156964Y181505I182J-356D01*
G01X163548D01*
G03X163730Y182261I0J400D01*
G02X169103Y188837I1979J3867D01*
G03X169816Y189087I313J250D01*
G01Y191998D01*
G02X172616Y192034I1346J4130D01*
G01Y189218D01*
G03X173319Y188958I400J0D01*
G02X172983Y183744I3295J-2830D01*
G01X172924Y183834D01*
X172616D01*
Y183160D01*
X168160Y178704D01*
X153411D01*
X153028Y178322D01*
G03X153254Y177643I283J-283D01*
G02X153110Y174064I-256J-1782D01*
G01X153035Y174060D01*
X152341Y173365D01*
X151684D01*
X143900Y165581D01*
Y162651D01*
G02X141299I-1300J-1245D01*
G01Y166474D01*
X134252D01*
X125137Y157359D01*
X125127Y157293D01*
G02X123091Y159329I-1782J255D01*
G01X123157Y159339D01*
X132294Y168476D01*
G03X132011Y169159I-283J283D01*
G01X105646D01*
X98445Y161959D01*
Y158916D01*
G02X98936Y156859I-1171J-1367D01*
G03X99228Y156313I369J-153D01*
G02X100614Y154055I-347J-1767D01*
G03X100999Y153546I385J-109D01*
G01X103742D01*
X105264Y155068D01*
X105273Y155134D01*
G02X107310Y153097I1782J-255D01*
G01X107244Y153088D01*
X104902Y150746D01*
X101618D01*
G03X101376Y150028I0J-400D01*
G02X99938Y146829I-1091J-1432D01*
G03X99473Y146339I-77J-392D01*
G37*
G36*
G01X11455Y111038D02*
G02X6518Y114873I-3743J277D01*
G03Y115631I-127J379D01*
G02Y122747I1195J3558D01*
G03Y123505I-127J379D01*
G02X10838Y129141I1195J3558D01*
G01X22886D01*
G03X23205Y129783I0J400D01*
G02X26076I1435J1087D01*
G03X26395Y129141I319J-241D01*
G01X33360D01*
X34302Y130083D01*
X34253Y130206D01*
G02X37277Y129679I1673J664D01*
G01X37227Y129622D01*
Y129331D01*
X34437Y126541D01*
X26349D01*
G03X26038Y125889I0J-400D01*
G02X26133Y123748I-1398J-1135D01*
G03X26465Y123124I332J-224D01*
G01X33839D01*
X36523Y120440D01*
X36598Y120436D01*
G02X34689Y118526I-113J-1797D01*
G01X34684Y118601D01*
X32762Y120524D01*
X26264D01*
G03X25969Y119854I0J-400D01*
G02X23312I-1328J-1215D01*
G03X23017Y120524I-295J270D01*
G01X11759D01*
G03X11369Y120034I0J-400D01*
G02X8907Y115631I-3657J-845D01*
G03Y114873I127J-379D01*
G02X10504Y113824I-1195J-3558D01*
G01X22236D01*
G02Y111223I1245J-1300D01*
G01X11469D01*
X11455Y111038D01*
G37*
G36*
G01X178730Y13919D02*
G02X175655Y10845I2205J-5280D01*
G01X175707Y10968D01*
X164157Y22518D01*
X42590D01*
X27633Y37476D01*
X27530Y37457D01*
G02X24054Y43643I-671J3692D01*
G03X23755Y44309I-299J266D01*
G01X11665D01*
G03X11284Y43786I0J-400D01*
G02X6518Y46192I-3572J-1152D01*
G03Y46950I-127J379D01*
G02Y54066I1195J3558D01*
G03Y54824I-127J379D01*
G02X11233Y59682I1195J3558D01*
G01X50915D01*
X64393Y73160D01*
X64397Y73236D01*
G02X65120Y74567I1797J-113D01*
G01X65200Y74627D01*
Y74927D01*
X64873D01*
X46854Y92946D01*
X37946D01*
G02Y95547I-1245J1300D01*
G01X47932D01*
X52149Y91329D01*
G03X52809Y91479I283J283D01*
G02X55107Y89181I1697J-601D01*
G03X54957Y88521I134J-377D01*
G01X65950Y77528D01*
X70029D01*
G03X70312Y78211I0J400D01*
G01X43365Y105157D01*
X37642D01*
G02Y107758I-1245J1300D01*
G01X44443D01*
X56732Y95469D01*
G03X57412Y95706I283J283D01*
G02X59406Y93712I1788J-206D01*
G03X59169Y93032I46J-397D01*
G01X72372Y79828D01*
X77218D01*
G03X77503Y80509I0J400D01*
G02X80066I1281J1264D01*
G03X80350Y79828I285J-281D01*
G01X86935D01*
G03X87218Y80511I0J400D01*
G01X58414Y109314D01*
Y110044D01*
G02X60975Y112575I1300J1245D01*
G03X61255I140J143D01*
G02X63775I1260J-1286D01*
G03X64055I140J143D01*
G02X66575I1260J-1286D01*
G03X66855I140J143D01*
G02X69375I1260J-1286D01*
G03X69655I140J143D01*
G02X72175I1260J-1286D01*
G03X72455I140J143D01*
G02X74975I1260J-1286D01*
G03X75255I140J143D01*
G02X77775I1260J-1286D01*
G03X78055I140J143D01*
G02X81111Y111402I1260J-1286D01*
G01X81116Y111326D01*
X84793Y107649D01*
X119061D01*
G03X119369Y108303I0J400D01*
G02X119376Y110603I1389J1146D01*
G03X119069Y111259I-307J256D01*
G01X106786D01*
G02X104625Y111532I-901J1559D01*
G03X104345I-140J-143D01*
G02X101825I-1260J1286D01*
G03X101545I-140J-143D01*
G02X98676Y112012I-1260J1286D01*
G03X97980Y112048I-358J-179D01*
G02X98071Y113820I-1519J966D01*
G03X98766Y113784I358J179D01*
G02X99654Y114504I1519J-966D01*
G01X99695Y114519D01*
X104636Y119460D01*
X150194D01*
G02X152725Y116899I1245J-1300D01*
G03Y116619I143J-140D01*
G02Y114099I-1286J-1260D01*
G03Y113819I143J-140D01*
G02X152704Y111278I-1286J-1260D01*
G03X152790Y110645I281J-285D01*
G02X153502Y108235I-880J-1571D01*
G03X153856Y107649I354J-186D01*
G01X161410D01*
X163300Y109539D01*
Y110255D01*
G02X165900I1300J1245D01*
G01Y108461D01*
X162487Y105048D01*
X151057D01*
G03X150774Y104365I0J-400D01*
G01X162738Y92402D01*
X162813Y92397D01*
G02X160904Y90488I-113J-1797D01*
G01X160899Y90563D01*
X149214Y102248D01*
X147857D01*
G03X147511Y101648I0J-400D01*
G02X147237Y99488I-1559J-900D01*
G03Y99208I143J-140D01*
G02X144706Y96648I-1286J-1260D01*
G01X111663D01*
G03X111285Y96118I0J-400D01*
G02X107881I-1702J-586D01*
G03X107503Y96648I-378J130D01*
G01X102188D01*
G03X101810Y96118I0J-400D01*
G02X98406I-1702J-586D01*
G03X98028Y96648I-378J130D01*
G01X85107D01*
G03X84824Y95965I0J-400D01*
G01X84949Y95841D01*
X88337D01*
X93329Y90849D01*
X144706D01*
G02X147237Y88288I1245J-1300D01*
G03Y88008I143J-140D01*
G02X144706Y85448I-1286J-1260D01*
G01X89827D01*
G03X89544Y84765I0J-400D01*
G01X90164Y84145D01*
X143310D01*
G02X146355Y82863I1245J-1300D01*
G03X146553Y82665I200J2D01*
G02X148331Y80751I-18J-1800D01*
G03X148715Y80326I399J-25D01*
G02X150392Y78968I-69J-1799D01*
G03X151094Y78819I388J98D01*
G02X152620Y75908I1414J-1115D01*
G01X152545Y75903D01*
X152211Y75569D01*
G03X152352Y75228I141J-141D01*
G01X154396D01*
X174943Y95775D01*
Y97461D01*
G03X174309Y97786I-400J0D01*
G02X172023Y97931I-1055J1459D01*
G03X171350Y97639I-273J-292D01*
G01Y97442D01*
X170247Y96339D01*
X170251Y96251D01*
G02X168125Y97945I-1799J-77D01*
G01X168186Y97956D01*
X168749Y98519D01*
Y113798D01*
X161103Y121445D01*
X38681D01*
X37222Y122904D01*
X37147Y122908D01*
G02X39056Y124818I113J1797D01*
G01X39061Y124742D01*
X39758Y124045D01*
X59458D01*
G03X59741Y124728I0J400D01*
G01X54844Y129625D01*
X42222D01*
X36585Y135261D01*
X36510Y135266D01*
G02X36105Y138787I113J1797D01*
G03X36273Y139453I-115J383D01*
G01X34185Y141541D01*
Y197657D01*
X53729Y217200D01*
X463446D01*
X490563Y190083D01*
Y169550D01*
G03X491279Y169305I400J0D01*
G02X492777Y166402I1421J-1105D01*
G01X492700Y166398D01*
X490563Y164261D01*
Y54037D01*
G02X486962I-1800J0D01*
G01Y188592D01*
X461954Y213600D01*
X55220D01*
X37786Y196166D01*
Y143032D01*
X43366Y137452D01*
X54478D01*
X57355Y134575D01*
X81425D01*
G03X81665Y135295I0J400D01*
G02X83827I1081J1439D01*
G03X84068Y134575I240J-320D01*
G01X94068D01*
Y136814D01*
G02X97169I1550J915D01*
G01Y134575D01*
X123926D01*
X126410Y137060D01*
X126425Y137110D01*
G02X128652Y134882I1730J-498D01*
G01X128603Y134867D01*
X125210Y131475D01*
X57637D01*
G03X57354Y130792I0J-400D01*
G01X61808Y126338D01*
X135106D01*
G03X135376Y127034I0J400D01*
G02X137805I1214J1329D01*
G03X138074Y126338I270J-295D01*
G01X143465D01*
G03X143736Y127033I0J400D01*
G02X144839Y130157I1216J1327D01*
G01X144914Y130162D01*
X147053Y132300D01*
X154934D01*
G03X155164Y133027I0J400D01*
G02X154756Y135575I1036J1473D01*
G03X154435Y136214I-321J239D01*
G01X134800D01*
X126854Y144158D01*
Y146216D01*
G02X129455I1300J1245D01*
G01Y145236D01*
X135877Y138814D01*
X144089D01*
G03X144373Y139496I0J400D01*
G02X146893Y142068I1275J1271D01*
G01X158785D01*
X169348Y152630D01*
X169296Y152754D01*
G02X171310Y150740I3462J1448D01*
G01X171186Y150791D01*
X159862Y139467D01*
X146893D01*
G02X146514Y139189I-1245J1300D01*
G01X146610Y138814D01*
X167795D01*
X174536Y132073D01*
G03X175179Y132182I283J283D01*
G02X175500Y132645I1621J-782D01*
G01Y148782D01*
X179348Y152630D01*
X179296Y152754D01*
G02X181188Y150793I3462J1448D01*
G01X178100Y147705D01*
Y132645D01*
G02X178240Y132480I-1301J-1245D01*
G03X178600Y132601I160J120D01*
G01Y141882D01*
X189348Y152630D01*
X189296Y152754D01*
G02X196049Y156006I3462J1448D01*
G03X196800Y156199I351J192D01*
G01Y159713D01*
X200665Y163578D01*
G03X200382Y164261I-283J283D01*
G01X198773D01*
X198729Y164121D01*
G02X195480Y163713I-1718J539D01*
G03X194769Y163653I-340J-210D01*
G02X191396Y164910I-1669J674D01*
G03X191076Y165436I-378J130D01*
G02X189814Y166255I260J1781D01*
G03X189110Y166204I-338J-214D01*
G02X186072Y168074I-1646J730D01*
G03X186030Y168624I-309J253D01*
G02X185952Y171220I1207J1335D01*
G03Y171500I-143J140D01*
G02X185703Y173701I1286J1260D01*
G03X185533Y174272I-341J209D01*
G02X186187Y177697I767J1629D01*
G01X186263Y177701D01*
X189861Y181300D01*
X232988D01*
G03X233128Y182075I0J400D01*
G02X239864I3368J9052D01*
G03X240004Y181300I140J-375D01*
G01X266698D01*
G03X266833Y182077I0J400D01*
G02X273364I3265J9090D01*
G03X273499Y181300I135J-376D01*
G01X398439D01*
X417760Y161978D01*
Y160511D01*
G02X413357Y154880I-1300J-3521D01*
G03X412626Y154655I-331J-225D01*
G01Y152664D01*
X414890Y150399D01*
G02X412998Y148438I1570J-3409D01*
G01X413050Y148562D01*
X410025Y151586D01*
Y154302D01*
G03X409320Y154561I-400J0D01*
G02X405160Y160511I-2860J2430D01*
G01Y164273D01*
X395528Y173904D01*
X394603D01*
G03X394321Y173221I0J-400D01*
G01X402306Y165236D01*
Y152983D01*
X404890Y150399D01*
G02X402998Y148438I1570J-3409D01*
G01X403050Y148562D01*
X399706Y151906D01*
Y153966D01*
G03X399032Y154257I-400J0D01*
G02X393382Y154844I-2572J2733D01*
G03X392653Y154615I-328J-229D01*
G01Y152636D01*
X394890Y150399D01*
G02X392998Y148438I1570J-3409D01*
G01X393050Y148562D01*
X390053Y151559D01*
Y154335D01*
G03X389346Y154590I-400J0D01*
G02X383589Y154574I-2885J2400D01*
G03X382883Y154316I-306J-258D01*
G01Y152406D01*
X384890Y150399D01*
G02X382998Y148438I1570J-3409D01*
G01X383050Y148562D01*
X380282Y151329D01*
Y154638D01*
G03X379553Y154864I-400J0D01*
G02X372998Y158438I-3093J2126D01*
G01X373050Y158562D01*
X371669Y159943D01*
X369736D01*
G03X369420Y159297I0J-400D01*
G02X368494Y153836I-2960J-2307D01*
G03X368711Y153100I217J-336D01*
G01X370355D01*
G02Y150500I1245J-1300D01*
G01X369213D01*
G03X368948Y149800I0J-400D01*
G02X365012Y143528I-2488J-2810D01*
G01X364888Y143580D01*
X361708Y140400D01*
X361495D01*
X361136Y140042D01*
G03X361278Y139700I141J-141D01*
G01X367539D01*
X369800Y137439D01*
Y132645D01*
G02X370300Y131404I-1300J-1245D01*
G03X370983Y131122I400J1D01*
G01X372800Y132939D01*
Y143786D01*
X373585Y144571D01*
X373479Y144710D01*
G02X376056Y143259I2981J2280D01*
G01X375961Y143270D01*
X375400Y142709D01*
Y131861D01*
X373074Y129535D01*
G03X373274Y128861I283J-283D01*
G02X371107Y127264I-374J-1761D01*
G03X370709Y127700I-398J36D01*
G01X318270D01*
G03X317988Y127017I0J-400D01*
G01X334667Y110338D01*
Y103431D01*
G03X335369Y103169I400J0D01*
G02X338028Y100743I1359J-1180D01*
G01Y89052D01*
X341901Y85180D01*
X341976Y85175D01*
G02X340067Y83266I-113J-1797D01*
G01X340062Y83341D01*
X335428Y87975D01*
Y100743D01*
G02X335369Y100808I1300J1245D01*
G03X334667Y100546I-302J-262D01*
G01Y85763D01*
X339978Y80452D01*
Y75510D01*
G02X337378I-1300J-1245D01*
G01Y79375D01*
X333056Y83696D01*
G03X332373Y83414I-283J-283D01*
G01Y75234D01*
X338823Y68784D01*
X338899Y68780D01*
G02X336989Y66870I-113J-1797D01*
G01X336984Y66946D01*
X330822Y73108D01*
G03X330139Y72825I-283J-283D01*
G01Y70932D01*
X339098Y61973D01*
X339173Y61969D01*
G02X337264Y60059I-113J-1797D01*
G01X337259Y60135D01*
X327539Y69855D01*
Y107056D01*
X315295Y119300D01*
X305992D01*
G03X305710Y118617I0J-400D01*
G01X308307Y116020D01*
Y102504D01*
X308197Y102394D01*
Y92159D01*
X316450Y83906D01*
X316525Y83901D01*
G02X316595Y80313I-113J-1797D01*
G03X316352Y79632I40J-398D01*
G01X317818Y78167D01*
Y62191D01*
G02X315218I-1300J-1245D01*
G01Y77090D01*
X303068Y89240D01*
Y102741D01*
G03X302872Y102941I-200J0D01*
G02X303398Y106473I35J1800D01*
G03X303906Y106858I109J385D01*
G01Y112852D01*
X301459Y115300D01*
X253545D01*
G02Y117900I-1245J1300D01*
G01X258007D01*
G03X258290Y118583I0J400D01*
G01X255569Y121303D01*
X255483Y121301D01*
G02X253695Y123591I-56J1799D01*
G03X253310Y124100I-385J109D01*
G01X240439D01*
X236634Y120295D01*
G03X236804Y119628I283J-283D01*
G02X234572Y117396I-504J-1728D01*
G03X233905Y117566I-384J-112D01*
G01X230388Y114049D01*
X229507D01*
G02X226464Y115452I-1245J1300D01*
G03X226126Y115870I-399J23D01*
G02X224600Y117687I274J1779D01*
G03X223918Y117979I-400J9D01*
G01X189300Y83361D01*
Y67561D01*
X181201Y59463D01*
X181197Y59387D01*
G02X177610Y59310I-1797J113D01*
G01X177602Y59381D01*
X177411Y59572D01*
X177019Y59180D01*
X177006Y59122D01*
G02X173820Y60599I-1760J378D01*
G03X173504Y61243I-317J244D01*
G01X172642D01*
G03X172257Y60734I0J-400D01*
G02X169977Y58529I-1732J-491D01*
G01X169861Y58566D01*
X153289Y41994D01*
G03X153572Y41312I283J-283D01*
G01X164273D01*
X168549Y45587D01*
X168553Y45663D01*
G02X170463Y43753I1797J-113D01*
G01X170387Y43749D01*
X165350Y38711D01*
X128745D01*
G02Y41312I-1245J1300D01*
G01X136762D01*
G03X137045Y41994I0J400D01*
G01X130256Y48784D01*
X130180Y48789D01*
G02X132090Y50698I113J1797D01*
G01X132094Y50623D01*
X138918Y43799D01*
X140331D01*
G03X140614Y44482I0J400D01*
G01X121238Y63858D01*
X121162Y63863D01*
G02X119625Y66381I113J1797D01*
G03X119259Y66941I-367J160D01*
G01X99128D01*
G02X97452Y69989I-1245J1300D01*
G03X97639Y70660I-96J388D01*
G01X97257Y71042D01*
X97182Y71047D01*
G02X96136Y74221I113J1797D01*
G03X95879Y74927I-257J306D01*
G01X79274D01*
G03X79042Y74202I0J-400D01*
G02X78908Y68006I-2183J-3052D01*
G01Y44293D01*
G02X79503Y38487I-2050J-3144D01*
G03X79502Y37920I282J-284D01*
G01X82766Y34656D01*
G03X83428Y34810I283J283D01*
G02X85711Y32527I1705J-579D01*
G03X85557Y31865I129J-379D01*
G01X86746Y30676D01*
X183492D01*
X199900Y14268D01*
X200002Y14285D01*
G02X196235Y11902I934J-5645D01*
G01X196330Y12039D01*
X181793Y26576D01*
X166864D01*
G03X166581Y25893I0J-400D01*
G01X178606Y13868D01*
X178730Y13919D01*
G37*
G54D23*
X49124Y8640D03*
X69124D03*
X93061D03*
X113061D03*
X136999D03*
X225659D03*
X245659D03*
X265659D03*
X289597D03*
X309596D03*
X329596D03*
X353534D03*
X373534D03*
X393534D03*
X417471D03*
X437470D03*
G54D20*
X17087Y11811D03*
Y208661D03*
X51299Y191127D03*
X455295Y191166D03*
X489528Y11811D03*
Y208661D03*
G54D21*
X8428Y175547D03*
X24640Y106408D03*
Y136984D03*
X36760Y81948D03*
X35829Y112524D03*
X57155Y145156D03*
X66200Y96900D03*
X59715Y137389D03*
X72187Y20119D03*
X69085Y86676D03*
X72000Y206200D03*
X83182Y11486D03*
X99600Y179400D03*
X108378Y19424D03*
X104223Y33555D03*
X108400Y178400D03*
X113556Y62716D03*
X123700Y17700D03*
X119137Y41456D03*
X124666Y51146D03*
X123317Y147004D03*
X135377Y160184D03*
X144628Y18924D03*
X144060Y147431D03*
X152527Y87308D03*
X170000Y34300D03*
X186943Y58271D03*
X203830Y222303D03*
X215394Y38152D03*
X212700Y78800D03*
X213100Y95600D03*
X209500Y208600D03*
X229955Y41822D03*
X236700Y11700D03*
X239012Y38152D03*
X232300Y72200D03*
X236248Y92149D03*
X256200Y6900D03*
X249910Y38152D03*
X249165Y98509D03*
X261317Y38152D03*
X259911Y100553D03*
X272058Y66767D03*
X280500Y12000D03*
X278986Y98627D03*
X283900Y206900D03*
X299500Y10800D03*
X308465Y67934D03*
X319500Y9700D03*
X316404Y104741D03*
X327879Y61182D03*
X325029Y86338D03*
X332700Y224100D03*
X346884Y94491D03*
X340971Y112896D03*
X351340Y60172D03*
X350418Y67218D03*
X350958Y74265D03*
X358484Y79752D03*
X367660Y89491D03*
X367989Y99491D03*
X367940Y94491D03*
X376028Y118272D03*
X380000Y127000D03*
X382900Y9100D03*
X400900Y64800D03*
X408263Y100112D03*
X409917Y106917D03*
X434407Y66858D03*
X429740Y67032D03*
X433154Y99121D03*
X432817Y94187D03*
X453000Y135600D03*
X462913Y72990D03*
X473064Y60634D03*
X504400Y27400D03*
G54D22*
X26858Y71150D03*
X36858D03*
X162758Y154202D03*
X426460Y146990D03*
Y156990D03*
X436460Y146990D03*
Y156990D03*
X446460D03*
X456460Y146990D03*
Y156990D03*
X466460Y146990D03*
Y156990D03*
G54D24*
X143898Y186127D03*
X149350Y196127D03*
X160256D03*
X182067D03*
X187520Y186127D03*
X192972Y196127D03*
X198425Y186127D03*
X209331D03*
X203878Y196127D03*
X313622Y196166D03*
X319075Y186166D03*
X324528Y196166D03*
X329980Y186166D03*
X340886D03*
X335433Y196166D03*
X346339D03*
X351791Y186166D03*
X357244Y196166D03*
X362697Y186166D03*
X373602D03*
X368150Y196166D03*
X379055D03*
X384508Y186166D03*
X389961Y196166D03*
X395413Y186166D03*
X406319D03*
X400866Y196166D03*
X411772D03*
X417224Y186166D03*
X422677Y196166D03*
X428130Y186166D03*
%LPD*%
G75*
G36*
G01X44289Y26619D02*
X30532Y40375D01*
X30551Y40478D01*
G03X29346Y43959I-3692J671D01*
G01X29279Y44019D01*
Y44309D01*
X29838D01*
X29895Y44259D01*
G03X29840Y46909I1191J1350D01*
G01X10149D01*
X9284Y46044D01*
X9161Y46096D01*
G03X8907Y46192I-1448J-3463D01*
G02Y46950I127J379D01*
G03X11233Y49208I-1195J3558D01*
G01X64296D01*
G02X64660Y48643I0J-400D01*
G03X66738Y49646I1640J-743D01*
G02X66552Y50317I97J388D01*
G01X72842Y56607D01*
X72917Y56611D01*
G03X74116Y57176I-113J1797D01*
G02X74808Y56902I292J-274D01*
G01Y47028D01*
G02X74125Y46746I-400J0D01*
G03X71056Y45585I-1272J-1274D01*
G01X71052Y45509D01*
X67992Y42450D01*
X40379D01*
G03Y39849I-3521J-1300D01*
G01X69069D01*
X72890Y43671D01*
X72966Y43675D01*
G03X73234Y43712I-113J1797D01*
G02X73660Y43112I85J-391D01*
G03X74808Y38006I3199J-1963D01*
G01Y36815D01*
X84322Y27302D01*
G02X84039Y26619I-283J-283D01*
G01X44289D01*
G37*
G36*
G01X11233Y51808D02*
G03X8907Y54066I-3521J-1300D01*
G02Y54824I127J379D01*
G03X11233Y57082I-1195J3558D01*
G01X51992D01*
X66232Y71321D01*
X66307Y71326D01*
G03X67580Y74272I-113J1797D01*
G02X67888Y74927I308J255D01*
G01X74442D01*
G02X74675Y74202I0J-400D01*
G03X74808Y68006I2183J-3052D01*
G01Y59914D01*
G02X74116Y59640I-400J0D01*
G03X71008Y58521I-1312J-1232D01*
G01X71003Y58445D01*
X64365Y51808D01*
X11233D01*
G37*
G36*
G01X9284Y122600D02*
X9161Y122651D01*
G03X8907Y122747I-1448J-3463D01*
G02Y123505I127J379D01*
G03X11402Y126377I-1195J3558D01*
G01X11433Y126541D01*
X22932D01*
G02X23243Y125889I0J-400D01*
G03X23148Y123748I1398J-1135D01*
G02X22816Y123124I-332J-224D01*
G01X9809D01*
X9284Y122600D01*
G37*
G36*
G01X93473Y182815D02*
Y156786D01*
G02X92791Y156503I-400J0D01*
G01X85318Y163976D01*
Y183101D01*
G02X86026Y183356I400J0D01*
G03X92607Y183231I3345J2771D01*
G02X93263Y183142I298J-267D01*
G03X93473Y182815I1611J804D01*
G37*
G36*
G01X99636Y72340D02*
X99096Y72881D01*
X99091Y72956D01*
G03X98453Y74221I-1797J-113D01*
G02X98710Y74927I257J306D01*
G01X118858D01*
G02X119216Y74348I0J-400D01*
G03X119147Y72886I1609J-808D01*
G02X118774Y72340I-373J-145D01*
G01X99636D01*
G37*
G36*
G01X141747Y47027D02*
X123076Y65697D01*
X123072Y65773D01*
G03X122924Y66381I-1797J-113D01*
G02X123291Y66941I367J160D01*
G01X145700D01*
G03X146954Y70232I976J1512D01*
G02X146622Y70702I61J395D01*
G03X146370Y72012I-1768J338D01*
G02X146706Y72627I337J216D01*
G01X155473D01*
X177543Y94698D01*
Y99664D01*
G02X178195Y99975I400J0D01*
G03X180962Y100628I1131J1401D01*
G01X180978Y100660D01*
X183100Y102783D01*
Y117565D01*
G02X183673Y117926I400J0D01*
G03X184577Y117754I777J1624D01*
G02X185004Y117327I28J-399D01*
G03X185214Y116348I1796J-127D01*
G02X185134Y116078I-176J-95D01*
G03X187245Y113200I866J-1578D01*
G01X191190D01*
G02X191483Y112527I0J-400D01*
G03X194117I1317J-1227D01*
G02X194410Y113200I293J273D01*
G01X211195D01*
G02X211478Y112517I0J-400D01*
G01X184900Y85939D01*
Y70739D01*
X177499Y63338D01*
G02X176867Y63426I-283J283D01*
G03X174046Y63844I-1572J-878D01*
G01X158564D01*
X141747Y47027D01*
G37*
G36*
G01X122501Y72886D02*
G03X122433Y74348I-1677J654D01*
G02X122790Y74927I357J180D01*
G01X137778D01*
G02X138163Y74418I0J-400D01*
G03X138379Y72956I1732J-491D01*
G02X138042Y72340I-337J-216D01*
G01X122874D01*
G02X122501Y72886I0J400D01*
G37*
G36*
G01X122146Y108303D02*
G03X122140Y110603I-1389J1146D01*
G02X122447Y111259I307J256D01*
G01X150194D01*
G03X150560Y110989I1245J1300D01*
G02X150645Y110355I-195J-349D01*
G03X150317Y108235I1265J-1281D01*
G02X149963Y107649I-354J-186D01*
G01X122455D01*
G02X122146Y108303I0J400D01*
G37*
G36*
G01X142880Y44482D02*
X159642Y61243D01*
X167895D01*
G02X168178Y60561I0J-400D01*
G01X151417Y43799D01*
X143163D01*
G02X142880Y44482I0J400D01*
G37*
G36*
G01X174943Y101028D02*
G02X174309Y100704I-400J0D01*
G03X174221Y100763I-1054J-1459D01*
G01Y118090D01*
X165972Y126338D01*
X146439D01*
G02X146168Y127033I0J400D01*
G03X146749Y128248I-1216J1327D01*
G01X146753Y128323D01*
X148130Y129700D01*
X167455D01*
G03Y132300I1245J1300D01*
G01X157466D01*
G02X157236Y133027I0J400D01*
G03X157644Y135575I-1036J1473D01*
G02X157965Y136214I321J239D01*
G01X166718D01*
X174943Y127988D01*
Y101028D01*
G37*
G36*
G01X177543Y106031D02*
Y129065D01*
X177473Y129136D01*
G02X177582Y129779I283J283D01*
G03X178240Y130319I-782J1621D01*
G01X178300Y130399D01*
X178600D01*
Y130047D01*
X178550Y129991D01*
G03X181200Y130045I1350J-1191D01*
G01Y140805D01*
X191188Y150793D01*
G03X193298Y150488I1570J3409D01*
G02X193639Y149809I58J-396D01*
G01X193130Y149301D01*
X193055Y149296D01*
G03X194964Y147387I113J-1797D01*
G01X194969Y147462D01*
X199307Y151800D01*
G02X199895Y151776I283J-283D01*
G03X206139Y152573I2863J2426D01*
G02X206900Y152400I360J-174D01*
G01Y148739D01*
X192632Y134470D01*
X192575Y134458D01*
G03X194759Y132823I388J-1758D01*
G01X194752Y132914D01*
X209500Y147661D01*
Y151189D01*
G02X210176Y151479I400J0D01*
G03Y156925I2583J2723D01*
G02X209500Y157215I-275J290D01*
G01Y158161D01*
X211282Y159943D01*
X215729D01*
G02X216106Y159408I0J-400D01*
G03X219494I1694J-608D01*
G02X219871Y159943I377J135D01*
G01X221942D01*
G02X222205Y159241I0J-400D01*
G03X224631Y156583I1181J-1358D01*
G01X310532D01*
G02X310889Y156004I0J-400D01*
G03X311051Y154132I1611J-804D01*
G02X310729Y153494I-322J-237D01*
G01X218955D01*
X191104Y125643D01*
X181947D01*
X178079Y121774D01*
Y106125D01*
G03X177907Y105916I1300J-1245D01*
G01X177543Y106031D01*
G37*
G36*
G01X193505Y123400D02*
G02X193222Y124083I0J400D01*
G01X220033Y150894D01*
X296891D01*
G02X297238Y150295I0J-400D01*
G03X300362I1562J-895D01*
G02X300709Y150894I347J199D01*
G01X334230D01*
G02X334445Y150156I0J-400D01*
G03X338475I2015J-3166D01*
G02X338690Y150894I215J337D01*
G01X344230D01*
G02X344445Y150156I0J-400D01*
G03X348475I2015J-3166D01*
G02X348690Y150894I215J337D01*
G01X352202D01*
X354888Y153580D01*
X355012Y153528D01*
G03X359420Y159297I1448J3462D01*
G02X359736Y159943I315J246D01*
G01X363184D01*
G02X363500Y159297I0J-400D01*
G03X364426Y153836I2960J-2307D01*
G02X364209Y153100I-217J-336D01*
G01X360731D01*
X358032Y150401D01*
X357908Y150453D01*
G03X359922Y148438I-1448J-3462D01*
G01X359871Y148562D01*
X361808Y150500D01*
X363707D01*
G02X363972Y149800I0J-400D01*
G03X362998Y145542I2488J-2810D01*
G01X363050Y145418D01*
X360631Y143000D01*
X360417D01*
X359817Y142400D01*
X324903D01*
G02X324543Y142974I0J400D01*
G03X321302I-1620J785D01*
G02X320942Y142400I-360J-174D01*
G01X312227D01*
G02X311876Y142992I0J400D01*
G03X308719I-1579J865D01*
G02X308368Y142400I-351J-192D01*
G01X228770D01*
X209770Y123400D01*
X193505D01*
G37*
G36*
G01X313949Y154132D02*
G03X314111Y156004I-1449J1068D01*
G02X314468Y156583I358J179D01*
G01X332725D01*
X332752Y156413D01*
G03X333959Y154192I3708J577D01*
G02X333692Y153494I-267J-298D01*
G01X314271D01*
G02X313949Y154132I0J400D01*
G37*
%LPC*%
G75*
G54D21*
X51274Y32536D03*
X57400Y33300D03*
X61054Y58526D03*
X90900Y170800D03*
X153025Y63041D03*
X176500Y81700D03*
X184500Y96300D03*
X153900Y51100D03*
X189316Y130046D03*
X201700Y127100D03*
X209100Y131900D03*
X220600Y145900D03*
X264500Y144700D03*
X278100Y147900D03*
%LPD*%
G75*
G54D10*
X17087Y11811D03*
Y208661D03*
X51299Y191127D03*
X236496D03*
X270098Y191166D03*
X455295D03*
X489528Y11811D03*
Y208661D03*
G54D11*
X7713Y42634D03*
Y50508D03*
Y58382D03*
Y76974D03*
Y84848D03*
Y92722D03*
Y111315D03*
Y127063D03*
Y119189D03*
X26858Y41150D03*
Y71150D03*
X36858Y41150D03*
Y71150D03*
X76858Y41150D03*
Y71150D03*
X162758Y154202D03*
X172758D03*
X182758D03*
X192758D03*
X202758D03*
X212758D03*
X336460Y146990D03*
Y156990D03*
X346460Y146990D03*
Y156990D03*
X356460Y146990D03*
Y156990D03*
X366460Y146990D03*
Y156990D03*
X376460Y146990D03*
Y156990D03*
X386460Y146990D03*
Y156990D03*
X391430Y37218D03*
Y47218D03*
X396460Y146990D03*
Y156990D03*
X401430Y37218D03*
Y47218D03*
X406460Y146990D03*
Y156990D03*
X416460Y146990D03*
Y156990D03*
X426460Y146990D03*
Y156990D03*
X436460Y146990D03*
Y156990D03*
X446460Y146990D03*
Y156990D03*
X456460Y146990D03*
Y156990D03*
X466460Y146990D03*
Y156990D03*
G54D12*
G01X44639Y133502D02*
Y133633D01*
X42370Y135902D01*
G01X488763Y164300D02*
Y189337D01*
X462700Y215400D01*
X54474D01*
X35986Y196911D01*
Y142286D01*
X42370Y135902D01*
G01X488763Y54037D02*
Y164300D01*
X8428Y175547D03*
X23942Y81948D03*
X24640Y88063D03*
X24640Y94178D03*
X24641Y100293D03*
X24640Y106408D03*
X23481Y112524D03*
X24640Y118639D03*
X24640Y124754D03*
X24641Y130869D03*
X24640Y136984D03*
X31086Y45609D03*
X36760Y81948D03*
X35626Y88063D03*
X36368Y100293D03*
X36701Y94246D03*
X36397Y106457D03*
X35829Y112524D03*
X36485Y118639D03*
X37260Y124705D03*
X35927Y130869D03*
X36623Y137063D03*
X44639Y133502D03*
X51274Y32536D03*
X57400Y33300D03*
X54505Y90878D03*
X59200Y95500D03*
X57155Y145156D03*
X66300Y47900D03*
X61054Y58526D03*
X66194Y73123D03*
X66200Y96900D03*
X65315Y111289D03*
X62515D03*
X59715D03*
Y137389D03*
X72187Y20119D03*
X72853Y45472D03*
X72804Y58408D03*
X69085Y86676D03*
X73715Y111289D03*
X70915D03*
X68115D03*
X72000Y206200D03*
X83182Y11486D03*
X78784Y81773D03*
X79315Y111289D03*
X76515D03*
X82746Y136735D03*
X85133Y34232D03*
X90900Y170800D03*
X99049Y57800D03*
X97294Y72843D03*
X97882Y68241D03*
X100108Y95532D03*
X100285Y112818D03*
X96461Y113014D03*
X95618Y137729D03*
X100285Y148595D03*
X97726Y145902D03*
X97274Y157549D03*
X98882Y154546D03*
X99600Y179400D03*
X94874Y183946D03*
X108378Y19424D03*
X104223Y33555D03*
X103085Y112818D03*
X105885D03*
X107055Y154879D03*
X108400Y178400D03*
X113556Y62716D03*
X109583Y95532D03*
X123700Y17700D03*
X119137Y41456D03*
X120707Y57987D03*
X124666Y51146D03*
X121275Y65660D03*
X120824Y73539D03*
X120758Y109449D03*
X123317Y147004D03*
X123345Y157547D03*
X127500Y40011D03*
X130293Y50585D03*
X128155Y136612D03*
Y147461D03*
X139895Y73928D03*
X136590Y128363D03*
X135377Y160184D03*
X144628Y18924D03*
X144854Y71040D03*
X146677Y68453D03*
X144555Y82845D03*
X146535Y80865D03*
X148646Y78528D03*
X145952Y89548D03*
Y86748D03*
Y97948D03*
Y100748D03*
X144952Y128360D03*
X145648Y140767D03*
X144060Y147431D03*
X142600Y161406D03*
X153900Y51100D03*
X153025Y63041D03*
X152508Y77704D03*
X152527Y87308D03*
X151439Y115359D03*
Y112559D03*
X151910Y109074D03*
X151439Y118159D03*
X156200Y134500D03*
X152998Y175861D03*
X164797Y7801D03*
X162700Y90600D03*
X164600Y111500D03*
X170000Y34300D03*
X170350Y45550D03*
X170525Y60244D03*
X173254Y99245D03*
X168452Y96174D03*
X168700Y131000D03*
X175200Y44600D03*
X175295Y62548D03*
X175246Y59500D03*
X179400D03*
X176500Y81700D03*
X179379Y104880D03*
X179325Y101376D03*
X179900Y128800D03*
X176800Y131400D03*
X186943Y58271D03*
X184500Y96300D03*
X186000Y114500D03*
X184450Y119550D03*
X186800Y117200D03*
X189316Y130046D03*
X187464Y166933D03*
X187238Y169960D03*
Y172760D03*
X186300Y175900D03*
X195200Y28700D03*
X198700Y32900D03*
X192800Y111300D03*
X192963Y132700D03*
X193168Y147500D03*
X197011Y164660D03*
X193099Y164326D03*
X191335Y167217D03*
X205100Y37400D03*
X206742Y58320D03*
X206045Y65406D03*
X204400Y74284D03*
X201700Y127100D03*
X203830Y222303D03*
X215394Y38152D03*
X214468Y61882D03*
X212700Y78800D03*
X213100Y95600D03*
X209100Y131900D03*
X209500Y208600D03*
X218393Y58202D03*
X219800Y86663D03*
X220600Y145900D03*
X223386Y157883D03*
X217800Y158800D03*
X229955Y41822D03*
X224128Y43559D03*
X226900Y101700D03*
X228262Y115349D03*
X226400Y117649D03*
X236700Y11700D03*
X239012Y38152D03*
X232300Y72200D03*
X236248Y92149D03*
X233671Y88376D03*
X235484Y107183D03*
X235813Y112539D03*
X232333Y124433D03*
X236300Y117900D03*
X248100Y110239D03*
X256200Y6900D03*
X249910Y38152D03*
X255094Y57977D03*
X255427Y75146D03*
X250666Y92569D03*
X249165Y98509D03*
X252300Y116600D03*
X255427Y123100D03*
X261317Y38152D03*
X262767Y44257D03*
X263404Y59241D03*
X259720Y58143D03*
X259220Y75656D03*
X262885Y75999D03*
X259911Y100553D03*
X264500Y144700D03*
X272058Y66767D03*
X280500Y12000D03*
X277203Y61182D03*
X277544Y76242D03*
X277016Y83398D03*
X278986Y98627D03*
X277900Y126000D03*
X278100Y147900D03*
X282103Y49715D03*
X285818Y57859D03*
X289360Y68712D03*
X288532Y83614D03*
X288896Y76242D03*
X283900Y206900D03*
X290844Y46186D03*
X297440Y61182D03*
X297224Y74686D03*
X297538Y67934D03*
X297215Y81438D03*
X299500Y10800D03*
X301654Y50088D03*
X305517Y57759D03*
X302907Y104741D03*
X298800Y149400D03*
X308465Y67934D03*
X310297Y143858D03*
X312500Y155200D03*
X319500Y9700D03*
X317481Y50764D03*
X316518Y60946D03*
X316413Y82104D03*
X316404Y104741D03*
X327879Y61182D03*
X325029Y86338D03*
X322922Y143759D03*
X334768Y51087D03*
X338786Y66983D03*
X339060Y60172D03*
X338678Y74265D03*
X336728Y101989D03*
X332700Y224100D03*
X346900Y37900D03*
X341863Y83378D03*
X346884Y94491D03*
X340971Y112896D03*
X351340Y60172D03*
X350418Y67218D03*
X350958Y74265D03*
X350722Y83957D03*
Y92306D03*
X358415Y50362D03*
X358484Y79752D03*
X355800Y124900D03*
X359850Y125050D03*
X361100Y131700D03*
X363578Y133916D03*
X371238Y65562D03*
X366885Y69615D03*
X367660Y89491D03*
X367989Y99491D03*
X367940Y94491D03*
X368130Y104491D03*
X364747Y124800D03*
X368500Y131400D03*
X365500Y136100D03*
X371600Y151800D03*
X373694Y46442D03*
X376028Y118272D03*
X372900Y127100D03*
X380000Y127000D03*
X382900Y9100D03*
X400900Y64800D03*
X408263Y100112D03*
X409917Y106917D03*
X419014Y49975D03*
X418670Y61225D03*
X418999Y94227D03*
X419234Y98078D03*
X428405Y30295D03*
X434407Y66858D03*
X429740Y67032D03*
X433154Y99121D03*
X432817Y94187D03*
X453000Y135600D03*
X448544Y174000D03*
X462913Y72990D03*
X473064Y60634D03*
X488763Y54037D03*
X492700Y168200D03*
X504400Y27400D03*
G54D13*
X49124Y8640D03*
X69124D03*
X93061D03*
X113061D03*
X136999D03*
X156999D03*
X180935D03*
X200935D03*
X225659D03*
X245659D03*
X265659D03*
X289597D03*
X309596D03*
X329596D03*
X353534D03*
X373534D03*
X393534D03*
X417471D03*
X437470D03*
X457470D03*
G54D14*
X78465Y186127D03*
X83917Y196127D03*
X89370Y186127D03*
X100276D03*
X94823Y196127D03*
X111181Y186127D03*
X105728Y196127D03*
X116634D03*
X122087Y186127D03*
X127539Y196127D03*
X132992Y186127D03*
X143898D03*
X138445Y196127D03*
X149350D03*
X154803Y186127D03*
X160256Y196127D03*
X165709Y186127D03*
X176614D03*
X171161Y196127D03*
X182067D03*
X187520Y186127D03*
X192972Y196127D03*
X198425Y186127D03*
X209331D03*
X203878Y196127D03*
X297264Y186166D03*
X308169D03*
X302716Y196166D03*
X313622D03*
X319075Y186166D03*
X324528Y196166D03*
X329980Y186166D03*
X340886D03*
X335433Y196166D03*
X346339D03*
X351791Y186166D03*
X357244Y196166D03*
X362697Y186166D03*
X373602D03*
X368150Y196166D03*
X379055D03*
X384508Y186166D03*
X389961Y196166D03*
X395413Y186166D03*
X406319D03*
X400866Y196166D03*
X411772D03*
X417224Y186166D03*
X422677Y196166D03*
X428130Y186166D03*
G54D15*
G01X17087Y-7874D02*
X489528D01*
G03X509213Y11811I0J19685D01*
G01Y208661D01*
G03X489528Y228346I-19685J0D01*
G01X17087D01*
G03X-2598Y208661I0J-19685D01*
G01Y11811D01*
G03X17087Y-7874I19685J0D01*
G54D16*
G01X7228Y11811D02*
X17087D01*
G01X31086Y45609D02*
X10688D01*
X7713Y42634D01*
G01Y50508D02*
X64904D01*
X72804Y58408D01*
G01X66194Y73123D02*
X51453Y58382D01*
X7713D01*
G01X23942Y81948D02*
X12686D01*
X7713Y76974D01*
G01Y84848D02*
X32075D01*
X35290Y88063D01*
X35626D01*
G01X7713Y92722D02*
X12138Y97147D01*
X33477D01*
X36368Y100039D01*
Y100293D01*
G01X23481Y112524D02*
X8921D01*
X7713Y111315D01*
G01Y119189D02*
X10347Y121824D01*
X33300D01*
X36485Y118639D01*
G01X7713Y127063D02*
X8491Y127841D01*
X33898D01*
X35927Y129870D01*
Y130869D01*
G01X8428Y173547D02*
Y175547D01*
G01D02*
Y177548D01*
G01X6428Y175547D02*
X8428D01*
G01D02*
X10428D01*
G01X7228Y208661D02*
X17087D01*
G01Y1952D02*
Y11811D01*
G01D02*
Y21670D01*
G01Y11811D02*
X26945D01*
G01X17087Y198803D02*
Y208661D01*
G01D02*
Y218520D01*
G01Y208661D02*
X26945D01*
G01X24640Y88063D02*
Y90063D01*
G01X22640Y88063D02*
X24640D01*
G01D02*
X26641D01*
G01X24640Y92178D02*
Y94178D01*
G01X22640D02*
X24640D01*
G01D02*
X26641D01*
G01X24640Y104408D02*
Y106408D01*
G01D02*
Y108409D01*
G01X22640Y106408D02*
X24640D01*
G01D02*
X26641D01*
G01X24641Y100293D02*
Y102294D01*
G01X22640Y100293D02*
X24641D01*
G01D02*
X26641D01*
G01X24640Y116639D02*
Y118639D01*
G01X22640D02*
X24640D01*
G01D02*
X26641D01*
G01X24641Y130869D02*
Y132869D01*
G01X22640Y130869D02*
X24641D01*
G01D02*
X26641D01*
G01X22640Y124754D02*
X24640D01*
G01D02*
X26641D01*
G01X24640Y134984D02*
Y136984D01*
G01D02*
Y138985D01*
G01X22640Y136984D02*
X24640D01*
G01D02*
X26641D01*
G01X33829Y112524D02*
X35829D01*
G01X36858Y41150D02*
X68531D01*
X72853Y45472D01*
G01X36760Y79947D02*
Y81948D01*
G01D02*
Y83948D01*
G01X34760Y81948D02*
X36760D01*
G01D02*
X38760D01*
G01X36701Y94246D02*
X47393D01*
X65412Y76228D01*
X151031D01*
X152508Y77704D01*
G01X36397Y106457D02*
X43904D01*
X71834Y78528D01*
X148646D01*
G01X35829Y110523D02*
Y112524D01*
G01D02*
Y114524D01*
G01Y112524D02*
X37829D01*
G01X168452Y96174D02*
Y96383D01*
X170050Y97980D01*
Y114337D01*
X161641Y122745D01*
X39220D01*
X37260Y124705D01*
G01X173254Y99245D02*
X172921Y99578D01*
Y117551D01*
X165434Y125038D01*
X61270D01*
X55383Y130925D01*
X42760D01*
X36623Y137063D01*
G01X41441Y191127D02*
X51299D01*
G01X49273Y32536D02*
X51274D01*
G01X57400Y31300D02*
Y33300D01*
G01D02*
Y35300D01*
G01X55400Y33300D02*
X57400D01*
G01D02*
X59400D01*
G01X51274Y30536D02*
Y32536D01*
G01D02*
Y34536D01*
G01Y32536D02*
X53274D01*
G01X54505Y90878D02*
Y92878D01*
G01Y90878D02*
X56506D01*
G01X57714Y137389D02*
X59715D01*
G01X57155Y143155D02*
Y145156D01*
G01D02*
Y147156D01*
G01X55155Y145156D02*
X57155D01*
G01D02*
X59156D01*
G01X51299Y181269D02*
Y191127D01*
G01D02*
Y200986D01*
G01Y191127D02*
X61158D01*
G01X66300Y45900D02*
Y47900D01*
G01X64300D02*
X66300D01*
G01D02*
X68300D01*
G01X61054Y56525D02*
Y58526D01*
G01D02*
Y60526D01*
G01X59054Y58526D02*
X61054D01*
G01D02*
X63054D01*
G01X66200Y94900D02*
Y96900D01*
G01D02*
Y98900D01*
G01X64200Y96900D02*
X66200D01*
G01D02*
X68200D01*
G01X59200Y95500D02*
Y97500D01*
G01Y95500D02*
X61200D01*
G01X144555Y82845D02*
X89626D01*
X62515Y109956D01*
Y111289D01*
G01X59715D02*
Y109853D01*
X89022Y80545D01*
X146215D01*
X146535Y80865D01*
G01X145952Y86748D02*
X88535D01*
X65315Y109969D01*
Y111289D01*
G01X59715Y135389D02*
Y137389D01*
G01D02*
Y139390D01*
G01Y137389D02*
X61715D01*
G01X72187Y18119D02*
Y20119D01*
G01X70187D02*
X72187D01*
G01D02*
X74187D01*
G01X69085Y84676D02*
Y86676D01*
G01D02*
Y88677D01*
G01X67085Y86676D02*
X69085D01*
G01D02*
X71086D01*
G01X145952Y97948D02*
X83802D01*
X70915Y110836D01*
Y111289D01*
G01X68115D02*
Y110836D01*
X84410Y94541D01*
X87798D01*
X92790Y89548D01*
X145952D01*
G01Y100748D02*
X83802D01*
X73715Y110836D01*
Y111289D01*
G01X72000Y204200D02*
Y206200D01*
G01D02*
Y208200D01*
G01X70000Y206200D02*
X72000D01*
G01D02*
X74000D01*
G01X83182Y9485D02*
Y11486D01*
G01D02*
Y13486D01*
G01X81182Y11486D02*
X83182D01*
G01D02*
X85183D01*
G01X78784Y81773D02*
Y83773D01*
G01X76784Y81773D02*
X78784D01*
G01D02*
X80784D01*
G01X164600Y111500D02*
Y109000D01*
X161948Y106348D01*
X84255D01*
X79315Y111289D01*
G01X76515D02*
Y110836D01*
X83802Y103548D01*
X149752D01*
X162700Y90600D01*
G01X82746Y136735D02*
Y138735D01*
G01X80746Y136735D02*
X82746D01*
G01D02*
X84746D01*
G01X79374Y196127D02*
X83917D01*
G01X85133Y34232D02*
Y36232D01*
G01Y34232D02*
X87133D01*
G01X90900Y168800D02*
Y170800D01*
G01D02*
Y172800D01*
G01X88900Y170800D02*
X90900D01*
G01D02*
X92900D01*
G01X90279Y196127D02*
X94823D01*
G01X83917Y191584D02*
Y196127D01*
G01D02*
Y200671D01*
G01Y196127D02*
X88461D01*
G01X144854Y71040D02*
X99098D01*
X97294Y72843D01*
G01X97882Y68241D02*
X146465D01*
X146677Y68453D01*
G01X98108Y95532D02*
X100108D01*
G01X96461Y111014D02*
Y113014D01*
G01D02*
Y115014D01*
G01X94461Y113014D02*
X96461D01*
G01X97726Y143901D02*
Y145902D01*
G01D02*
Y147902D01*
G01X95726Y145902D02*
X97726D01*
G01D02*
X99727D01*
G01X98285Y148595D02*
X100285D01*
G01X99600Y177400D02*
Y179400D01*
G01X97600D02*
X99600D01*
G01D02*
X101600D01*
G01X94823Y196127D02*
Y200671D01*
G01Y196127D02*
X99366D01*
G01X106378Y19424D02*
X108378D01*
G01X104223Y31555D02*
Y33555D01*
G01D02*
Y35555D01*
G01X102223Y33555D02*
X104223D01*
G01D02*
X106223D01*
G01X107582Y95532D02*
X109583D01*
G01X100108Y93531D02*
Y95532D01*
G01D02*
X102108D01*
G01X151439Y118159D02*
X105174D01*
X100285Y113270D01*
Y112818D01*
G01X151439Y115359D02*
X105174D01*
X103085Y113270D01*
Y112818D01*
G01X151439Y112559D02*
X106144D01*
X105885Y112818D01*
G01X100285Y146595D02*
Y148595D01*
G01D02*
X102286D01*
G01X106400Y178400D02*
X108400D01*
G01X108378Y17423D02*
Y19424D01*
G01D02*
Y21424D01*
G01Y19424D02*
X110378D01*
G01X113556Y60716D02*
Y62716D01*
G01D02*
Y64717D01*
G01X111556Y62716D02*
X113556D01*
G01D02*
X115556D01*
G01X109583Y93531D02*
Y95532D01*
G01D02*
X111583D01*
G01X108400Y176400D02*
Y178400D01*
G01D02*
Y180400D01*
G01Y178400D02*
X110400D01*
G01X123700Y15700D02*
Y17700D01*
G01D02*
Y19700D01*
G01X121700Y17700D02*
X123700D01*
G01D02*
X125700D01*
G01X119137Y39456D02*
Y41456D01*
G01D02*
Y43456D01*
G01X117136Y41456D02*
X119137D01*
G01D02*
X121137D01*
G01X122666Y51146D02*
X124666D01*
G01X175295Y62548D02*
X175291Y62544D01*
X159103D01*
X141747Y45188D01*
X121275Y65660D01*
G01X118824Y73539D02*
X120824D01*
G01D02*
X122824D01*
G01X118758Y109449D02*
X120758D01*
G01D02*
X122758D01*
G01X123317Y145003D02*
Y147004D01*
G01D02*
Y149004D01*
G01X121317Y147004D02*
X123317D01*
G01D02*
X125317D01*
G01X171161Y196127D02*
X171216Y196073D01*
G01X170350Y45550D02*
X164811Y40011D01*
X127500D01*
G01X170525Y60244D02*
X169700D01*
X151955Y42499D01*
X138379D01*
X130293Y50585D01*
G01X124666Y49146D02*
Y51146D01*
G01D02*
Y53146D01*
G01Y51146D02*
X126666D01*
G01X139895Y73928D02*
X154934D01*
X176243Y95236D01*
Y128527D01*
X167257Y137514D01*
X135338D01*
X128155Y144697D01*
Y147461D01*
G01X136590Y128363D02*
Y130363D01*
G01X134590Y128363D02*
X136590D01*
G01D02*
X138590D01*
G01X135377Y158183D02*
Y160184D01*
G01D02*
Y162184D01*
G01X133377Y160184D02*
X135377D01*
G01D02*
X137377D01*
G01X144628Y16923D02*
Y18924D01*
G01D02*
Y20924D01*
G01X142628Y18924D02*
X144628D01*
G01D02*
X146628D01*
G01X168700Y131000D02*
X147591D01*
X144952Y128360D01*
G01X145648Y140767D02*
X159323D01*
X172758Y154202D01*
G01X144060Y145431D02*
Y147431D01*
G01D02*
Y149431D01*
G01X142060Y147431D02*
X144060D01*
G01D02*
X146060D01*
G01X152998Y175861D02*
X151802Y174665D01*
X151145D01*
X142600Y166120D01*
Y161406D01*
G01X153900Y49100D02*
Y51100D01*
G01D02*
Y53100D01*
G01X151900Y51100D02*
X153900D01*
G01D02*
X155900D01*
G01X153025Y61041D02*
Y63041D01*
G01D02*
Y65042D01*
G01X151025Y63041D02*
X153025D01*
G01D02*
X155025D01*
G01X152527Y85308D02*
Y87308D01*
G01D02*
Y89308D01*
G01X150527Y87308D02*
X152527D01*
G01D02*
X154527D01*
G01X149910Y109074D02*
X151910D01*
G01D02*
X153910D01*
G01X154200Y134500D02*
X156200D01*
G01D02*
X158200D01*
G01X164797Y5801D02*
Y7801D01*
G01D02*
Y9801D01*
G01Y7801D02*
X166797D01*
G01X162758Y150249D02*
Y154202D01*
G01D02*
Y158155D01*
G01X158805Y154202D02*
X162758D01*
G01D02*
X166711D01*
G01X170000Y32300D02*
Y34300D01*
G01D02*
Y36300D01*
G01X168000Y34300D02*
X170000D01*
G01D02*
X172000D01*
G01X175200Y44600D02*
X175400D01*
X198300Y21700D01*
X405600D01*
X416370Y32470D01*
Y116900D01*
X446460Y146990D01*
G01X361100Y131700D02*
X232500D01*
X186200Y85400D01*
Y70200D01*
X175500Y59500D01*
X175246D01*
G01X376460Y146990D02*
Y145607D01*
X374100Y143247D01*
Y132400D01*
X370700Y129000D01*
X233100D01*
X188000Y83900D01*
Y68100D01*
X179400Y59500D01*
G01X176500Y79700D02*
Y81700D01*
G01D02*
Y83700D01*
G01X174500Y81700D02*
X176500D01*
G01D02*
X178500D01*
G01X179379Y104880D02*
Y121236D01*
X182486Y124342D01*
X191642D01*
X219494Y152194D01*
X351664D01*
X356460Y156990D01*
G01X366460Y146990D02*
X361170Y141700D01*
X360956D01*
X360356Y141100D01*
X229309D01*
X210309Y122100D01*
X183747D01*
X183647Y122000D01*
X183574D01*
X181800Y120226D01*
Y103321D01*
X179854Y101376D01*
X179325D01*
G01X179900Y128800D02*
Y141344D01*
X192758Y154202D01*
G01X176800Y131400D02*
Y148244D01*
X182758Y154202D01*
G01X176614Y181584D02*
Y186127D01*
G01D02*
Y190671D01*
G01Y186127D02*
X181158D01*
G01X186943Y56271D02*
Y58271D01*
G01D02*
Y60271D01*
G01X184942Y58271D02*
X186943D01*
G01D02*
X188943D01*
G01X184500Y94300D02*
Y96300D01*
G01D02*
Y98300D01*
G01X182500Y96300D02*
X184500D01*
G01D02*
X186500D01*
G01X363578Y133916D02*
X363494Y134000D01*
X232100D01*
X212600Y114500D01*
X186000D01*
G01X368500Y131400D02*
Y136900D01*
X367000Y138400D01*
X230200D01*
X211350Y119550D01*
X184450D01*
G01X365500Y136100D02*
X365353D01*
X365213Y136240D01*
X231140D01*
X212100Y117200D01*
X186800D01*
G01X189316Y128046D02*
Y130046D01*
G01D02*
Y132046D01*
G01X187316Y130046D02*
X189316D01*
G01D02*
X191317D01*
G01X187464Y166933D02*
X193325Y172794D01*
X392910D01*
X401006Y164697D01*
Y152444D01*
X406460Y146990D01*
G01Y156990D02*
Y164811D01*
X396067Y175204D01*
X192935D01*
X187691Y169960D01*
X187238D01*
G01X416460Y146990D02*
X411326Y152125D01*
Y163274D01*
X396730Y177870D01*
X192801D01*
X187691Y172760D01*
X187238D01*
G01X187520Y181584D02*
Y186127D01*
G01X416460Y156990D02*
Y161440D01*
X397900Y180000D01*
X190400D01*
X186300Y175900D01*
G01X187520Y186127D02*
Y190671D01*
G01X182976Y186127D02*
X187520D01*
G01D02*
X192063D01*
G01X364747Y124800D02*
Y117344D01*
X413900Y68191D01*
Y35909D01*
X402791Y24800D01*
X365121D01*
X364921Y24600D01*
X199600D01*
X195500Y28700D01*
X195200D01*
G01X192800Y109300D02*
Y111300D01*
G01X190800D02*
X192800D01*
G01D02*
X194800D01*
G01X376460Y156990D02*
X372207Y161243D01*
X210743D01*
X208200Y158700D01*
Y148200D01*
X192963Y132963D01*
Y132700D01*
G01X193168Y147500D02*
X198100Y152432D01*
Y159174D01*
X201988Y163062D01*
X377084D01*
X381583Y158564D01*
Y151868D01*
X386460Y146990D01*
G01Y156990D02*
Y158740D01*
X379639Y165561D01*
X197913D01*
X197011Y164660D01*
G01X396460Y146990D02*
X391353Y152097D01*
Y159552D01*
X382600Y168305D01*
X197078D01*
X193099Y164326D01*
G01X396460Y156990D02*
Y164531D01*
X390314Y170677D01*
X194795D01*
X191335Y167217D01*
G01X198425Y186127D02*
Y190671D01*
G01X193882Y186127D02*
X198425D01*
G01D02*
X202969D01*
G01X198700Y32900D02*
X199100D01*
X205341Y26659D01*
X401359D01*
X411800Y37100D01*
Y67746D01*
X359850Y119696D01*
Y125050D01*
G01X355800Y124900D02*
Y120500D01*
X408900Y67400D01*
Y37100D01*
X400600Y28800D01*
X213600D01*
X205100Y37300D01*
Y37400D01*
G01X206742Y56320D02*
Y58320D01*
G01D02*
Y60320D01*
G01X204742Y58320D02*
X206742D01*
G01X401430Y37218D02*
X396933Y32722D01*
X389479D01*
X389457Y32700D01*
X228463D01*
X228440Y32722D01*
X225968D01*
X209289Y49402D01*
Y62162D01*
X206045Y65406D01*
G01X391430Y37218D02*
X388711Y34500D01*
X229208D01*
X211651Y52058D01*
Y66944D01*
X204400Y74194D01*
Y74284D01*
G01X201700Y125100D02*
Y127100D01*
G01D02*
Y129100D01*
G01X199700Y127100D02*
X201700D01*
G01D02*
X203700D01*
G01X204787Y186127D02*
X209331D01*
G01X203830Y220303D02*
Y222303D01*
G01D02*
Y224303D01*
G01X201830Y222303D02*
X203830D01*
G01D02*
X205830D01*
G01X213394Y38152D02*
X215394D01*
G01X214468Y61882D02*
X245142D01*
X262767Y44257D01*
G01X212700Y76800D02*
Y78800D01*
G01D02*
Y80800D01*
G01X210700Y78800D02*
X212700D01*
G01D02*
X214700D01*
G01X213100Y93600D02*
Y95600D01*
G01D02*
Y97600D01*
G01X211100Y95600D02*
X213100D01*
G01D02*
X215100D01*
G01X209100Y129900D02*
Y131900D01*
G01D02*
Y133900D01*
G01X207100Y131900D02*
X209100D01*
G01D02*
X211100D01*
G01X209331Y186127D02*
Y190671D01*
G01Y186127D02*
X213874D01*
G01X209500Y206600D02*
Y208600D01*
G01D02*
Y210600D01*
G01X207500Y208600D02*
X209500D01*
G01D02*
X211500D01*
G01X215394Y36151D02*
Y38152D01*
G01D02*
Y40152D01*
G01Y38152D02*
X217394D01*
G01X218393Y58202D02*
X218300Y58109D01*
Y49387D01*
X224128Y43559D01*
G01X219800Y86663D02*
X224898D01*
X230457Y81105D01*
X266246D01*
X277203Y70148D01*
Y61182D01*
G01X220600Y143900D02*
Y145900D01*
G01D02*
Y147900D01*
G01X218600Y145900D02*
X220600D01*
G01D02*
X222600D01*
G01X217800Y156800D02*
Y158800D01*
G01X215800D02*
X217800D01*
G01D02*
X219800D01*
G01X229955Y39822D02*
Y41822D01*
G01D02*
Y43822D01*
G01X227955Y41822D02*
X229955D01*
G01D02*
X231955D01*
G01X230300Y72200D02*
X232300D01*
G01X226900Y101700D02*
Y89042D01*
X232191Y83751D01*
X270035D01*
X277544Y76242D01*
G01X228262Y115349D02*
X229849D01*
X239900Y125400D01*
X260328D01*
X265128Y120600D01*
X315833D01*
X328839Y107594D01*
Y70393D01*
X339060Y60172D01*
G01X226400Y117649D02*
X229549D01*
X239100Y127200D01*
X264790D01*
X269290Y122700D01*
X317487D01*
X331073Y109113D01*
Y74696D01*
X338786Y66983D01*
G01X223386Y157883D02*
X335568D01*
X336460Y156990D01*
G01X226638Y191127D02*
X236496D01*
G01X236700Y9700D02*
Y11700D01*
G01D02*
Y13700D01*
G01X234700Y11700D02*
X236700D01*
G01D02*
X238700D01*
G01X239012Y38152D02*
Y40152D01*
G01X237012Y38152D02*
X239012D01*
G01D02*
X241012D01*
G01X232300Y70200D02*
Y72200D01*
G01D02*
Y74200D01*
G01Y72200D02*
X234300D01*
G01X233671Y88376D02*
X272038D01*
X277016Y83398D01*
G01X236248Y92149D02*
Y94149D01*
G01X234248Y92149D02*
X236248D01*
G01D02*
X238249D01*
G01X235484Y107183D02*
X235857Y106810D01*
X279452D01*
X292158Y94104D01*
Y73314D01*
X297538Y67934D01*
G01X235813Y112539D02*
X282361D01*
X297215Y97686D01*
Y81438D01*
G01X236300Y115900D02*
Y117900D01*
G01D02*
X238300D01*
G01X236496Y191127D02*
Y200986D01*
G01Y191127D02*
X246355D01*
G01X247910Y38152D02*
X249910D01*
G01X247165Y98509D02*
X249165D01*
G01X248100Y110239D02*
X248600Y110739D01*
X280654D01*
X294578Y96814D01*
Y77332D01*
X297224Y74686D01*
G01X256200Y4900D02*
Y6900D01*
G01D02*
Y8900D01*
G01X254200Y6900D02*
X256200D01*
G01D02*
X258200D01*
G01X249910Y38152D02*
Y40152D01*
G01Y38152D02*
X251910D01*
G01X373694Y46442D02*
X368460Y41209D01*
X271686D01*
X255094Y57800D01*
Y57977D01*
G01X282103Y49715D02*
X276311D01*
X255427Y70599D01*
Y75146D01*
G01X297440Y61182D02*
X297332Y61074D01*
X293746D01*
X286232Y68588D01*
Y84566D01*
X286376Y84710D01*
Y87592D01*
X279198Y94770D01*
X252867D01*
X250666Y92569D01*
G01X249165Y96509D02*
Y98509D01*
G01D02*
Y100510D01*
G01Y98509D02*
X251165D01*
G01X255427Y123100D02*
X255611D01*
X260211Y118500D01*
X303988D01*
X307007Y115481D01*
Y103042D01*
X306897Y102933D01*
Y91620D01*
X316413Y82104D01*
G01X252300Y116600D02*
X301997D01*
X305207Y113391D01*
Y103788D01*
X304368Y102950D01*
Y89778D01*
X316518Y77628D01*
Y60946D01*
G01X261317Y38152D02*
Y40152D01*
G01X259317Y38152D02*
X261317D01*
G01D02*
X263317D01*
G01X290844Y46186D02*
X276077D01*
X263404Y58859D01*
Y59241D01*
G01X334768Y51087D02*
X327114Y43434D01*
X273694D01*
X259720Y57408D01*
Y58143D01*
G01X317481Y50764D02*
X315207Y53038D01*
X276144D01*
X259220Y69962D01*
Y75656D01*
G01X358415Y50362D02*
X353751Y55027D01*
X277693D01*
X262885Y69835D01*
Y75999D01*
G01X259911Y98553D02*
Y100553D01*
G01D02*
Y102553D01*
G01X257911Y100553D02*
X259911D01*
G01D02*
X261911D01*
G01X264500Y144700D02*
Y146700D01*
G01X262500Y144700D02*
X264500D01*
G01D02*
X266500D01*
G01X260240Y191166D02*
X270098D01*
G01X272058Y64767D02*
Y66767D01*
G01D02*
Y68767D01*
G01X270058Y66767D02*
X272058D01*
G01D02*
X274058D01*
G01X270098Y191166D02*
Y201025D01*
G01Y191166D02*
X279957D01*
G01X280500Y10000D02*
Y12000D01*
G01D02*
Y14000D01*
G01X278500Y12000D02*
X280500D01*
G01D02*
X282500D01*
G01X278986Y96627D02*
Y98627D01*
G01D02*
Y100627D01*
G01X276986Y98627D02*
X278986D01*
G01D02*
X280986D01*
G01X277900Y126000D02*
X317166D01*
X333366Y109799D01*
Y85225D01*
X338678Y79913D01*
Y74265D01*
G01X278100Y145900D02*
Y147900D01*
G01D02*
Y149900D01*
G01X276100Y147900D02*
X278100D01*
G01D02*
X280100D01*
G01X285818Y57859D02*
Y59859D01*
G01X283818Y57859D02*
X285818D01*
G01D02*
X287818D01*
G01X288896Y74242D02*
Y76242D01*
G01D02*
Y78242D01*
G01X288532Y81614D02*
Y83614D01*
G01D02*
Y85614D01*
G01X283900Y204900D02*
Y206900D01*
G01D02*
Y208900D01*
G01X281900Y206900D02*
X283900D01*
G01D02*
X285900D01*
G01X289360Y68712D02*
Y70712D01*
G01Y68712D02*
X291360D01*
G01X296800Y149400D02*
X298800D01*
G01X299500Y8800D02*
Y10800D01*
G01D02*
Y12800D01*
G01X297500Y10800D02*
X299500D01*
G01D02*
X301500D01*
G01X301654Y48088D02*
Y50088D01*
G01X299654D02*
X301654D01*
G01D02*
X303654D01*
G01X305517Y57759D02*
Y59759D01*
G01X303517Y57759D02*
X305517D01*
G01D02*
X307517D01*
G01X302907Y104741D02*
Y106741D01*
G01X300906Y104741D02*
X302907D01*
G01X298800Y147400D02*
Y149400D01*
G01D02*
X300800D01*
G01X308465Y65933D02*
Y67934D01*
G01D02*
Y69934D01*
G01X306465Y67934D02*
X308465D01*
G01D02*
X310465D01*
G01X310297Y143858D02*
Y145858D01*
G01X308297Y143858D02*
X310297D01*
G01D02*
X312298D01*
G01X310500Y155200D02*
X312500D01*
G01D02*
X314500D01*
G01X313622Y191623D02*
Y196166D01*
G01D02*
Y200710D01*
G01X309078Y196166D02*
X313622D01*
G01D02*
X318166D01*
G01X319500Y7700D02*
Y9700D01*
G01D02*
Y11700D01*
G01X317500Y9700D02*
X319500D01*
G01D02*
X321500D01*
G01X316404Y102741D02*
Y104741D01*
G01D02*
Y106741D01*
G01X314404Y104741D02*
X316404D01*
G01D02*
X318404D01*
G01X320922Y143759D02*
X322922D01*
G01X319075Y186166D02*
Y190710D01*
G01X314531Y186166D02*
X319075D01*
G01D02*
X323618D01*
G01X319984Y196166D02*
X324528D01*
G01X327879Y59181D02*
Y61182D01*
G01D02*
Y63182D01*
G01X325878Y61182D02*
X327879D01*
G01D02*
X329879D01*
G01X325029Y84338D02*
Y86338D01*
G01D02*
Y88338D01*
G01X323028Y86338D02*
X325029D01*
G01D02*
X327029D01*
G01X322922Y143759D02*
Y145759D01*
G01Y143759D02*
X324923D01*
G01X324528Y191623D02*
Y196166D01*
G01D02*
Y200710D01*
G01Y196166D02*
X329071D01*
G01X336728Y101989D02*
Y88514D01*
X341863Y83378D01*
G01X332700Y222100D02*
Y224100D01*
G01D02*
Y226100D01*
G01X330700Y224100D02*
X332700D01*
G01D02*
X334700D01*
G01X344900Y37900D02*
X346900D01*
G01X344884Y94491D02*
X346884D01*
G01X340971Y110896D02*
Y112896D01*
G01D02*
Y114896D01*
G01X338971Y112896D02*
X340971D01*
G01D02*
X342972D01*
G01X346900Y37900D02*
X348900D01*
G01X351340Y58172D02*
Y60172D01*
G01X350418Y65218D02*
Y67218D01*
G01X351340Y60172D02*
Y62172D01*
G01X349340Y60172D02*
X351340D01*
G01D02*
X353340D01*
G01X350958Y72264D02*
Y74265D01*
G01D02*
Y76265D01*
G01X348957Y74265D02*
X350958D01*
G01D02*
X352958D01*
G01X350418Y67218D02*
Y69218D01*
G01X348418Y67218D02*
X350418D01*
G01D02*
X352419D01*
G01X350722Y92306D02*
Y83957D01*
G01X346884Y92490D02*
Y94491D01*
G01D02*
Y96491D01*
G01Y94491D02*
X348884D01*
G01X358484Y77752D02*
Y79752D01*
G01D02*
Y81753D01*
G01X356484Y79752D02*
X358484D01*
G01D02*
X360484D01*
G01X356460Y146990D02*
X361270Y151800D01*
X371600D01*
G01X366885Y69615D02*
Y61763D01*
X391430Y37218D01*
G01X401430D02*
X396300Y42348D01*
Y59900D01*
X390638Y65562D01*
X371238D01*
G01X367660Y87490D02*
Y89491D01*
G01D02*
Y91491D01*
G01X365660Y89491D02*
X367660D01*
G01D02*
X369660D01*
G01X367940Y92490D02*
Y94491D01*
G01D02*
Y96491D01*
G01X365940Y94491D02*
X367940D01*
G01D02*
X369940D01*
G01X367989Y97490D02*
Y99491D01*
G01D02*
Y101491D01*
G01X365989Y99491D02*
X367989D01*
G01D02*
X369989D01*
G01X368130Y102490D02*
Y104491D01*
G01X366130D02*
X368130D01*
G01X370900Y127100D02*
X372900D01*
G01X376028Y116272D02*
Y118272D01*
G01D02*
Y120272D01*
G01X374028Y118272D02*
X376028D01*
G01D02*
X378028D01*
G01X378000Y127000D02*
X380000D01*
G01X372900Y125100D02*
Y127100D01*
G01D02*
X374900D01*
G01X382900Y7100D02*
Y9100D01*
G01D02*
Y11100D01*
G01X380900Y9100D02*
X382900D01*
G01D02*
X384900D01*
G01X387477Y47218D02*
X391430D01*
G01X380000Y125000D02*
Y127000D01*
G01D02*
Y129000D01*
G01Y127000D02*
X382000D01*
G01X391430Y43265D02*
Y47218D01*
G01D02*
Y51171D01*
G01X401430Y43265D02*
Y47218D01*
G01D02*
Y51171D01*
G01Y47218D02*
X405383D01*
G01X400900Y62800D02*
Y64800D01*
G01D02*
Y66800D01*
G01X398900Y64800D02*
X400900D01*
G01D02*
X402900D01*
G01X401775Y186166D02*
X406319D01*
G01X400866Y191623D02*
Y196166D01*
G01D02*
Y200710D01*
G01X396323Y196166D02*
X400866D01*
G01D02*
X405410D01*
G01X411549Y8640D02*
X417471D01*
G01X408263Y98111D02*
Y100112D01*
G01X409917Y104917D02*
Y106917D01*
G01D02*
Y108917D01*
G01X407917Y106917D02*
X409917D01*
G01D02*
X411917D01*
G01X408263Y100112D02*
Y102112D01*
G01X406263Y100112D02*
X408263D01*
G01D02*
X410263D01*
G01X406319Y181623D02*
Y186166D01*
G01D02*
Y190710D01*
G01Y186166D02*
X410862D01*
G01X417471Y2718D02*
Y8640D01*
G01D02*
Y14561D01*
G01Y8640D02*
X423392D01*
G01X419014Y47975D02*
Y49975D01*
G01D02*
Y51975D01*
G01Y49975D02*
X421014D01*
G01X418670Y59225D02*
Y61225D01*
G01D02*
Y63225D01*
G01Y61225D02*
X420670D01*
G01X419234Y98078D02*
Y100078D01*
G01Y98078D02*
X421235D01*
G01X418999Y92227D02*
Y94227D01*
G01D02*
X421000D01*
G01X427740Y67032D02*
X429740D01*
G01Y65032D02*
Y67032D01*
G01X434407Y64858D02*
Y66858D01*
G01D02*
Y68858D01*
G01X432407Y66858D02*
X434407D01*
G01D02*
X436407D01*
G01X429740Y67032D02*
Y69032D01*
G01Y67032D02*
X431740D01*
G01X432817Y92187D02*
Y94187D01*
G01D02*
Y96188D01*
G01X430816Y94187D02*
X432817D01*
G01D02*
X434817D01*
G01X433154Y97121D02*
Y99121D01*
G01D02*
Y101121D01*
G01X431154Y99121D02*
X433154D01*
G01D02*
X435154D01*
G01X436460Y153037D02*
Y156990D01*
G01D02*
Y160943D01*
G01X432507Y156990D02*
X436460D01*
G01D02*
X440413D01*
G01X445437Y191166D02*
X455295D01*
G01X453000Y133600D02*
Y135600D01*
G01D02*
Y137600D01*
G01X451000Y135600D02*
X453000D01*
G01D02*
X455000D01*
G01X452507Y156990D02*
X456460D01*
G01X460912Y72990D02*
X462913D01*
G01X456460Y153037D02*
Y156990D01*
G01D02*
Y160943D01*
G01Y156990D02*
X460413D01*
G01X455295Y181308D02*
Y191166D01*
G01D02*
Y201025D01*
G01Y191166D02*
X465154D01*
G01X462913Y70990D02*
Y72990D01*
G01D02*
Y74991D01*
G01Y72990D02*
X464913D01*
G01X466460Y143037D02*
Y146990D01*
G01D02*
Y150943D01*
G01X462507Y146990D02*
X466460D01*
G01D02*
X470413D01*
G01X473064Y58634D02*
Y60634D01*
G01D02*
Y62634D01*
G01X471064Y60634D02*
X473064D01*
G01D02*
X475064D01*
G01X479669Y11811D02*
X489528D01*
G01X479669Y208661D02*
X489528D01*
G01Y1952D02*
Y11811D01*
G01D02*
Y21670D01*
G01Y11811D02*
X499386D01*
G01X492700Y168200D02*
X492663D01*
X488763Y164300D01*
G01X489528Y198803D02*
Y208661D01*
G01D02*
Y218520D01*
G01Y208661D02*
X499386D01*
G01X502400Y27400D02*
X504400D01*
G01Y25400D02*
Y27400D01*
G01D02*
Y29400D01*
G01Y27400D02*
X506400D01*
G54D17*
G01X138445Y196127D02*
X133502Y191184D01*
X86843D01*
X83917Y188258D01*
Y163396D01*
X95167Y152146D01*
X104322D01*
X107055Y154879D01*
G01X99049Y57800D02*
X120520D01*
X120707Y57987D01*
G01X154803Y186127D02*
X153699D01*
X138131Y170559D01*
X105066D01*
X97045Y162539D01*
Y157778D01*
X97274Y157549D01*
G01X94874Y183946D02*
Y156154D01*
X96482Y154546D01*
X98882D01*
G01X171216Y196073D02*
Y183740D01*
X167580Y180104D01*
X152831D01*
X140601Y167874D01*
X133672D01*
X123345Y157547D01*
G54D18*
G01X42370Y135902D02*
X53836D01*
X56713Y133025D01*
X96011D01*
G01X128155Y136612D02*
X124568Y133025D01*
X96011D01*
G01X95618Y137729D02*
Y133417D01*
X96011Y133025D01*
G01X448544Y174000D02*
X448644Y174100D01*
X465400D01*
X479700Y159800D01*
Y44300D01*
X465695Y30295D01*
X428405D01*
G54D19*
G01X180935Y8640D02*
X165006Y24568D01*
X43439D01*
X26858Y41150D01*
G01X200935Y8640D02*
Y10334D01*
X182642Y28626D01*
X85897D01*
X76858Y37665D01*
Y41150D01*
G01Y71150D02*
Y41150D01*
G01X297264Y186166D02*
Y190714D01*
X302716Y196166D01*
G01X457470Y8640D02*
X484306Y35476D01*
Y181794D01*
X455800Y210300D01*
X316850D01*
X302716Y196166D01*
G01X308169Y186166D02*
Y190714D01*
X302716Y196166D01*
G01X489528Y11811D02*
X497948Y20231D01*
G01Y200241D02*
X489528Y208661D01*
G01X497948Y20231D02*
Y200241D01*
M02*
