G04 ================== begin FILE IDENTIFICATION RECORD ==================*
G04 Layout Name:  F:/对外部分项目/信号发生器改版V2.0/Hardware/Pcb/DDS.brd*
G04 Film Name:    TOP*
G04 File Format:  Gerber RS274X*
G04 File Origin:  Cadence Allegro 16.6-2015-S066*
G04 Origin Date:  Sun May 07 11:08:12 2017*
G04 *
G04 Layer:  BOARD GEOMETRY/OUTLINE*
G04 Layer:  ETCH/TOP*
G04 Layer:  PIN/TOP*
G04 Layer:  VIA CLASS/TOP*
G04 *
G04 Offset:    (0.000 0.000)*
G04 Mirror:    No*
G04 Mode:      Positive*
G04 Rotation:  0*
G04 FullContactRelief:  No*
G04 UndefLineWidth:     6.000*
G04 ================== end FILE IDENTIFICATION RECORD ====================*
%FSLAX25Y25*MOIN*%
%IR0*IPPOS*OFA0.00000B0.00000*MIA0B0*SFA1.00000B1.00000*%
%ADD28R,.062992X.062992*%
%ADD27R,.068898X.026575*%
%ADD10C,.177165*%
%ADD29R,.127953X.07874*%
%ADD12C,.02*%
%ADD23R,.01X.059055*%
%ADD22R,.059055X.01*%
%ADD18R,.061024X.023622*%
%ADD25O,.021654X.049213*%
%ADD15R,.037402X.016732*%
%ADD13R,.016732X.037402*%
%ADD24R,.043307X.055118*%
%ADD21R,.023622X.03937*%
%ADD31R,.100394X.135827*%
%ADD20R,.03937X.023622*%
%ADD17O,.015748X.051181*%
%ADD11C,.059055*%
%ADD34R,.090551X.090551*%
%ADD19C,.070866*%
%ADD16R,.055118X.022638*%
%ADD26R,.022638X.055118*%
%ADD14C,.098425*%
%ADD30R,.076772X.023622*%
%ADD33R,.047244X.070866*%
%ADD32R,.070866X.047244*%
%ADD35C,.003937*%
%ADD36C,.01*%
%ADD37C,.012*%
%ADD38C,.015*%
%ADD39C,.025*%
%ADD40C,.035*%
%ADD51C,.11443*%
%ADD42C,.19317*%
%ADD43C,.036004*%
%ADD50C,.07506*%
%ADD45R,.05931X.071122*%
%ADD48R,.038642X.071122*%
%ADD41R,.071122X.038642*%
%ADD53R,.106554X.106554*%
%ADD47R,.053406X.032736*%
%ADD46R,.032736X.053406*%
%ADD49R,.084902X.04258*%
%ADD44C,.08687*%
%ADD54R,.039626X.055374*%
%ADD52R,.077028X.039626*%
G75*
%LPD*%
G75*
G36*
G01X489528Y227546D02*
G02X508412Y208661I0J-18885D01*
G01Y11811D01*
G02X489528Y-7074I-18885J0D01*
G01X17087D01*
G02X-1798Y11811I0J18885D01*
G01Y208661D01*
G02X17087Y227546I18885J0D01*
G01X489528D01*
G37*
%LPC*%
G75*
G36*
G01X238225Y116315D02*
G03X237548Y116603I-400J0D01*
G02Y119197I-1248J1297D01*
G03X238225Y119486I277J288D01*
G01Y131271D01*
X245731D01*
Y125365D01*
X255057D01*
X255524Y124899D01*
X255595Y124892D01*
G02X253693Y122618I-168J-1792D01*
G01X253652Y122765D01*
X250940D01*
G03X250657Y122082I0J-400D01*
G01X253600Y119138D01*
Y117847D01*
X253650Y117791D01*
G02X250501Y116543I-1350J-1191D01*
G01X250498Y116622D01*
X250261Y116859D01*
X245731D01*
Y110192D01*
G03X246073Y110050I200J0D01*
G01X246299Y110276D01*
X246303Y110352D01*
G02X248213Y108442I1797J-113D01*
G01X248137Y108437D01*
X248031Y108331D01*
G03X248314Y107649I283J-283D01*
G01X252439D01*
Y109788D01*
X253809D01*
Y114861D01*
X259026Y120078D01*
X260864D01*
Y121944D01*
X264138D01*
Y118980D01*
X265897Y117220D01*
Y113951D01*
X267563D01*
Y106839D01*
X261632D01*
Y113951D01*
X263297D01*
Y116143D01*
X262837Y116603D01*
X260864D01*
Y117478D01*
X260103D01*
X256409Y113784D01*
Y109788D01*
X257779D01*
Y106514D01*
X255311D01*
X254192Y105395D01*
X255311Y104276D01*
X257779D01*
Y101910D01*
G03X258494Y101663I400J0D01*
G02X260992Y101993I1417J-1111D01*
G03X261632Y102312I240J320D01*
G01Y104109D01*
X267563D01*
Y97242D01*
X269506D01*
Y104109D01*
X275437D01*
Y96997D01*
X273118D01*
X270764Y94642D01*
X269216D01*
Y90290D01*
G03X269899Y90007I400J0D01*
G01X271507Y91615D01*
X321899D01*
X325117Y94833D01*
G03X324834Y95516I-283J283D01*
G01X323922D01*
Y100857D01*
X324232D01*
Y102071D01*
X323896D01*
Y107411D01*
X324218D01*
Y110360D01*
X321667D01*
Y114323D01*
X329370D01*
Y110360D01*
X326819D01*
Y107411D01*
X327170D01*
Y102071D01*
X326833D01*
Y100857D01*
X327195D01*
Y97877D01*
G03X327878Y97594I400J0D01*
G01X333573Y103289D01*
X335483D01*
G02X336615Y103785I1245J-1300D01*
G01X336691Y103790D01*
X338182Y105281D01*
Y106472D01*
X345884D01*
Y102509D01*
X339087D01*
X338529Y101951D01*
X338525Y101876D01*
G02X338506Y101704I-1797J113D01*
G01X338503Y101688D01*
Y101472D01*
X345884D01*
Y100791D01*
X348349D01*
X352023Y97118D01*
Y93551D01*
G02X352274Y91394I-1300J-1245D01*
G03X352619Y90791I345J-203D01*
G01X357685D01*
X358759Y89717D01*
G03X359442Y90000I283J283D01*
G01Y91472D01*
X367144D01*
Y91266D01*
X367360D01*
X367376Y91268D01*
G02Y87713I284J-1778D01*
G01X367360Y87715D01*
X367144D01*
Y87509D01*
X361932D01*
G03X361649Y86826I0J-400D01*
G01X366053Y82423D01*
X368521D01*
Y81053D01*
X373625D01*
X376983Y77694D01*
Y60211D01*
X380759Y56435D01*
X402457D01*
X420574Y38319D01*
G03X421257Y38602I283J283D01*
G01Y41562D01*
X424530D01*
Y36097D01*
X425498D01*
X426355Y36954D01*
Y38892D01*
G02X426650Y39951I2050J0D01*
G01Y45551D01*
X426710Y45611D01*
Y50372D01*
X427280Y50942D01*
Y53531D01*
X431144D01*
Y51966D01*
X439559D01*
G03X439842Y52649I0J400D01*
G01X434822Y57669D01*
X434426D01*
Y58065D01*
X434202Y58289D01*
X431144D01*
Y57669D01*
X427280D01*
Y60258D01*
X424937Y62600D01*
G03X424255Y62317I-283J-283D01*
G01Y57669D01*
X420390D01*
Y59465D01*
G03X419750Y59785I-400J0D01*
G02Y62665I-1080J1440D01*
G03X420390Y62985I240J320D01*
G01Y64781D01*
X421791D01*
G03X422074Y65464I0J400D01*
G01X419357Y68181D01*
Y69802D01*
X388705D01*
X375050Y83458D01*
Y111958D01*
X368924Y118084D01*
X364199D01*
Y118466D01*
X363170D01*
Y118419D01*
X357830D01*
Y118506D01*
X356970D01*
Y118419D01*
X351630D01*
Y120534D01*
X346372Y125791D01*
X342716D01*
Y120459D01*
X340602D01*
X340414Y120272D01*
G03X340697Y119589I283J-283D01*
G01X342608D01*
Y114248D01*
X342606D01*
G03X342443Y113933I0J-200D01*
G02X339500I-1472J-1037D01*
G03X339336Y114248I-163J115D01*
G01X339334D01*
Y118226D01*
G03X338652Y118509I-400J0D01*
G01X337096Y116954D01*
Y114248D01*
X333823D01*
Y115792D01*
X329370D01*
Y115360D01*
X321667D01*
Y119323D01*
X329370D01*
Y118892D01*
X333823D01*
Y119589D01*
X335347D01*
X335534Y119776D01*
G03X335251Y120459I-283J283D01*
G01X333931D01*
Y120792D01*
X329370D01*
Y120360D01*
X321667D01*
Y120594D01*
G03X321477Y120793I-200J0D01*
G02X318038Y124342I111J3549D01*
G01Y131886D01*
X317809D01*
Y137227D01*
X321082D01*
Y135112D01*
X321138Y135056D01*
Y124342D01*
G03X321370Y123948I451J0D01*
G01X321375Y123946D01*
G03X321423Y123923I213J397D01*
G01X321667D01*
Y124323D01*
X329370D01*
Y123892D01*
X333931D01*
Y125791D01*
X329370D01*
Y125360D01*
X321667D01*
Y129323D01*
X329370D01*
Y128892D01*
X347656D01*
X354856Y121693D01*
X356970D01*
Y121606D01*
X357830D01*
Y121693D01*
X363170D01*
Y121566D01*
X364199D01*
Y121948D01*
X371311D01*
Y120081D01*
X373550Y117843D01*
G03X374232Y118152I283J283D01*
G02X376620Y119972I1796J120D01*
G03X377151Y120350I131J378D01*
G01Y122222D01*
X385051D01*
Y114322D01*
X378036D01*
G03X377753Y113640I0J-400D01*
G01X378150Y113242D01*
Y84742D01*
X382659Y80233D01*
G03X383342Y80516I283J283D01*
G01Y88541D01*
X397738D01*
Y85854D01*
X401354D01*
X406325Y90824D01*
X409957D01*
Y90903D01*
X418448D01*
Y90824D01*
X423516D01*
X423575Y90765D01*
X429824D01*
X429863Y90726D01*
X435874D01*
X436288Y90313D01*
X440197Y94222D01*
G03X439914Y94905I-283J283D01*
G01X434994D01*
G03X434598Y94447I0J-400D01*
G02X432104Y92534I-1781J-260D01*
G01X432066Y92551D01*
X426345D01*
Y95824D01*
X432066D01*
X432104Y95840D01*
G02X434011Y95535I713J-1653D01*
G03X434676Y95834I265J299D01*
G01Y97228D01*
G03X434072Y97572I-400J0D01*
G02X432183Y97605I-918J1549D01*
G03X431568Y97268I-216J-337D01*
G01Y96251D01*
X426227D01*
Y99525D01*
X427759D01*
X429315Y101080D01*
G03X429032Y101763I-283J283D01*
G01X426227D01*
Y101899D01*
X425396D01*
Y101812D01*
X420056D01*
Y105086D01*
X421176D01*
Y109834D01*
X419032D01*
Y113797D01*
X427694D01*
Y114834D01*
X419032D01*
Y115515D01*
X418627D01*
X417378Y116765D01*
G03X416695Y116482I-283J-283D01*
G01Y114808D01*
X415325D01*
Y114066D01*
X416695D01*
Y110792D01*
X411354D01*
Y114066D01*
X412725D01*
Y114808D01*
X411354D01*
Y118082D01*
X415095D01*
G03X415378Y118764I0J400D01*
G01X413823Y120320D01*
X411354D01*
Y123593D01*
X416695D01*
Y121125D01*
X419023Y118797D01*
X427694D01*
Y119834D01*
X419032D01*
Y123797D01*
X427694D01*
Y124834D01*
X424199D01*
X424174Y124828D01*
G02X423671Y124765I-504J1987D01*
G01X408210D01*
X402767Y119322D01*
Y114322D01*
X397767D01*
X397078Y113633D01*
G03X397361Y112950I283J-283D01*
G01X397738D01*
Y103476D01*
X383342D01*
Y112950D01*
X390596D01*
X394868Y117222D01*
Y122222D01*
X399868D01*
X406512Y128866D01*
X423671D01*
G02X424174Y128803I0J-2050D01*
G01X424199Y128797D01*
X426651D01*
X429307Y131453D01*
Y135144D01*
X432581D01*
Y129803D01*
X432042D01*
X429829Y127590D01*
G03X430111Y126907I283J-283D01*
G01X437424D01*
G03X437707Y127590I0J400D01*
G01X435494Y129803D01*
X434819D01*
Y135144D01*
X438092D01*
Y131589D01*
X440884Y128797D01*
X447995D01*
Y124834D01*
X439333D01*
Y123797D01*
X442828D01*
X442852Y123803D01*
G02X443356Y123866I504J-1987D01*
G01X456926D01*
X459751Y126690D01*
Y134446D01*
X470406D01*
Y131169D01*
X490031D01*
X498067Y123132D01*
G03X498750Y123415I283J283D01*
G01Y167603D01*
X463387Y202966D01*
X345132D01*
X339592Y197426D01*
X339622Y197314D01*
G02Y195019I-4189J-1147D01*
G01X339592Y194907D01*
X342936Y191563D01*
Y189996D01*
G02X338350Y189693I-2050J-3829D01*
G03X338400Y190301I-233J325D01*
G01X336692Y192008D01*
X336580Y191977D01*
G02X334286I-1147J4189D01*
G01X334174Y192008D01*
X332467Y190301D01*
G03X332516Y189693I283J-283D01*
G02X327930Y189996I-2536J-3527D01*
G01Y191563D01*
X331274Y194907D01*
X331244Y195019D01*
G02X336580Y200356I4189J1147D01*
G01X336692Y200325D01*
X343433Y207066D01*
X465085D01*
X502850Y169301D01*
Y47451D01*
X469186Y13787D01*
X461336D01*
G03X461083Y13076I0J-400D01*
G02X453858I-3613J-4437D01*
G03X453605Y13787I-253J310D01*
G01X445517D01*
X442698Y10968D01*
X442750Y10845D01*
G02X439675Y13919I-5280J-2205D01*
G01X439799Y13868D01*
X443818Y17887D01*
X467488D01*
X498750Y49149D01*
Y116651D01*
X488332Y127068D01*
X470406D01*
Y123791D01*
X462650D01*
X458624Y119765D01*
X443356D01*
G02X442852Y119828I0J2050D01*
G01X442828Y119834D01*
X439333D01*
Y118797D01*
X447995D01*
Y118621D01*
X451237D01*
Y118708D01*
X456577D01*
Y115434D01*
X451237D01*
Y115521D01*
X447995D01*
Y114834D01*
X439333D01*
Y113797D01*
X447995D01*
Y109834D01*
X438717D01*
Y111724D01*
X428310D01*
Y109834D01*
X424276D01*
Y105086D01*
X425396D01*
Y104999D01*
X426227D01*
Y105037D01*
X431568D01*
Y104299D01*
G03X432251Y104016I400J0D01*
G01X435448Y107214D01*
X441745D01*
X448390Y100568D01*
X452030D01*
Y96606D01*
X446965D01*
X446611Y96251D01*
G03X446894Y95568I283J-283D01*
G01X452030D01*
Y91606D01*
X444328D01*
Y93002D01*
G03X443645Y93285I-400J0D01*
G01X440813Y90453D01*
X440915Y90206D01*
X441001D01*
Y85637D01*
X448179D01*
G02X448682Y85574I0J-2050D01*
G01X448706Y85568D01*
X452030D01*
Y81606D01*
X448706D01*
X448682Y81600D01*
G02X448179Y81537I-504J1987D01*
G01X441001D01*
Y81519D01*
X434676D01*
Y86126D01*
X434176Y86625D01*
X429015D01*
G02X428634Y86661I0J2050D01*
G01X428616Y86665D01*
X422726D01*
G02X422259Y86718I0J2050D01*
G01X422237Y86724D01*
X418448D01*
Y86645D01*
X409957D01*
Y86724D01*
X408023D01*
X403053Y81753D01*
X397738D01*
Y79066D01*
X384792D01*
G03X384509Y78384I0J-400D01*
G01X389989Y72903D01*
X419770D01*
Y74023D01*
X421084D01*
X426698Y79637D01*
X442447D01*
X447289Y74795D01*
X448056D01*
X458899Y85637D01*
X469439D01*
G02X469942Y85574I0J-2050D01*
G01X469966Y85568D01*
X473290D01*
Y81606D01*
X469966D01*
X469942Y81600D01*
G02X469439Y81537I-504J1987D01*
G01X460597D01*
X453766Y74706D01*
G03X454049Y74023I283J-283D01*
G01X455820D01*
Y68682D01*
X452546D01*
Y69802D01*
X452137D01*
Y68470D01*
X443450D01*
Y72836D01*
X440749Y75536D01*
X428396D01*
X427566Y74706D01*
G03X427848Y74023I283J-283D01*
G01X428556D01*
Y69088D01*
G03X429098Y68714I400J0D01*
G02X429678Y68831I641J-1682D01*
G03X430064Y69231I-14J400D01*
G01Y74795D01*
X438751D01*
Y68470D01*
X436244D01*
G03X435910Y67850I0J-400D01*
G02X432904I-1503J-991D01*
G03X432571Y68470I-334J220D01*
G01X431680D01*
G03X431327Y67881I0J-400D01*
G02X428259Y68055I-1587J-849D01*
G03X427930Y68682I-329J227D01*
G01X425620D01*
G03X425337Y68000I0J-400D01*
G01X428556Y64781D01*
X431144D01*
Y62389D01*
X434426D01*
Y63009D01*
X437700D01*
Y61574D01*
G02X438113Y60339I-1637J-1235D01*
G01Y60176D01*
X439255Y59035D01*
G03X439938Y59317I283J283D01*
G01Y63009D01*
X443211D01*
Y57669D01*
X441587D01*
G03X441304Y56986I0J-400D01*
G01X442202Y56088D01*
X445336D01*
X447477Y58228D01*
Y63009D01*
X450751D01*
Y57669D01*
X450664D01*
Y57030D01*
X450404Y56770D01*
G03X450687Y56088I283J-283D01*
G01X469469D01*
G02X470450Y55838I0J-2050D01*
G01X488763D01*
G02Y52237I0J-1800D01*
G01X475134D01*
G03X474852Y51554I0J-400D01*
G01X475626Y50780D01*
Y38625D01*
X469866Y32866D01*
X463474D01*
G02X462971Y32928I0J2050D01*
G01X462947Y32934D01*
X459623D01*
Y36897D01*
X462947D01*
X462971Y36903D01*
G02X463474Y36966I504J-1987D01*
G01X468168D01*
X471525Y40324D01*
Y49082D01*
X468620Y51987D01*
X467326D01*
Y47934D01*
X464002D01*
X463978Y47928D01*
G02X463474Y47866I-504J1987D01*
G01X457688D01*
X453567Y51987D01*
X446066D01*
Y47934D01*
X442742D01*
X442718Y47928D01*
G02X442214Y47866I-504J1987D01*
G01X431144D01*
Y46966D01*
X442214D01*
G02X442718Y46903I0J-2050D01*
G01X442742Y46897D01*
X446066D01*
Y42934D01*
X442742D01*
X442718Y42928D01*
G02X442214Y42866I-504J1987D01*
G01X430750D01*
Y38338D01*
X430455Y38043D01*
Y36105D01*
G02X429955Y34764I-2050J0D01*
G01Y31210D01*
G02X426830Y31166I-1550J-915D01*
G01X426855Y31212D01*
Y31997D01*
X422796D01*
X402055Y11256D01*
Y5110D01*
X397064Y118D01*
X390754D01*
X390051Y-585D01*
X45236D01*
X38390Y6261D01*
Y17786D01*
X18790Y37386D01*
Y137965D01*
X25832Y145008D01*
X41660D01*
X55939Y130729D01*
X123755D01*
X125019Y131993D01*
X133692D01*
X134423Y132724D01*
G03X134141Y133407I-283J283D01*
G01X129949D01*
Y134853D01*
G03X129376Y135214I-400J0D01*
G02X129189Y135139I-669J1398D01*
G02X126451Y137194I-1035J1473D01*
G03X126033Y137721I-378J129D01*
G02X124854Y138086I-157J1580D01*
G03X124339I-258J-306D01*
G02X122295I-1022J1215D01*
G03X121780I-257J-306D01*
G02X119736I-1022J1215D01*
G03X119221I-258J-306D01*
G02X117177I-1022J1215D01*
G03X116662I-258J-306D01*
G02X114618I-1022J1215D01*
G03X114103I-258J-306D01*
G02X112059I-1022J1215D01*
G03X111544I-257J-306D01*
G02X109500I-1022J1215D01*
G03X108985I-258J-306D01*
G02X106941I-1022J1215D01*
G03X106426I-258J-306D01*
G02X104382I-1022J1215D01*
G03X103866I-258J-306D01*
G02X101822I-1022J1215D01*
G03X101308I-257J-306D01*
G02X99264I-1022J1215D01*
G03X98748I-258J-306D01*
G02X97621Y137717I-1022J1215D01*
G03X97409Y137539I-13J-200D01*
G02X94427Y136379I-1790J190D01*
G03X93763Y136079I-265J-300D01*
G01Y133816D01*
X88422D01*
Y137090D01*
X93100D01*
G03X93383Y137772I0J400D01*
G01X91828Y139328D01*
X88422D01*
Y139564D01*
X86893D01*
Y139301D01*
G02X84945Y137755I-1588J0D01*
G03X84471Y137251I-91J-390D01*
G02X81022I-1725J-516D01*
G03X80548Y137755I-383J115D01*
G02X79165Y138086I-360J1546D01*
G03X78650I-258J-306D01*
G02X76606I-1022J1215D01*
G03X76091I-257J-306D01*
G02X74047I-1022J1215D01*
G03X73532I-258J-306D01*
G02X71488I-1022J1215D01*
G03X70973I-257J-306D01*
G02X68929I-1022J1215D01*
G03X68414I-258J-306D01*
G02X66370I-1022J1215D01*
G03X65855I-257J-306D01*
G02X63811I-1022J1215D01*
G03X63296I-258J-306D01*
G02X61987Y137740I-1022J1215D01*
G03X61514Y137354I-72J-393D01*
G02X57915I-1800J35D01*
G03X57442Y137740I-400J-8D01*
G02X55568Y139301I-287J1561D01*
G01Y142844D01*
G02X55922Y143844I1588J0D01*
G02X56033Y146563I1233J1311D01*
G03X55784Y147276I-249J313D01*
G01X54041D01*
X50916Y150401D01*
X48590D01*
Y153674D01*
X53930D01*
Y151347D01*
X54223Y151055D01*
G03X54564Y151196I141J141D01*
G01Y153674D01*
X59905D01*
Y152384D01*
X60197Y152092D01*
G03X60538Y152233I141J141D01*
G01Y153674D01*
X65879D01*
Y151347D01*
X66171Y151055D01*
G03X66513Y151196I141J141D01*
G01Y153674D01*
X71853D01*
Y151196D01*
G03X72195Y151055I200J0D01*
G01X72487Y151347D01*
Y153674D01*
X77828D01*
Y151196D01*
G03X78169Y151055I200J0D01*
G01X78462Y151347D01*
Y153674D01*
X83802D01*
Y152464D01*
G03X84144Y152323I200J0D01*
G01X84436Y152615D01*
Y153674D01*
X89777D01*
Y150401D01*
X86182D01*
X84404Y148622D01*
G03X84687Y147940I283J-283D01*
G01X89100D01*
X90878Y149718D01*
G03X90595Y150401I-283J283D01*
G01X90410D01*
Y153674D01*
X95751D01*
Y150401D01*
X94481D01*
Y149360D01*
X90260Y145139D01*
X83927D01*
X83568Y144780D01*
G03X83628Y144164I283J-283D01*
G02X83768Y144059I-883J-1320D01*
G03X84283I258J306D01*
G02X86893Y142844I1022J-1215D01*
G01Y142365D01*
X88422D01*
Y142601D01*
X93763D01*
Y141777D01*
X95456Y140084D01*
G03X96139Y140367I283J283D01*
G01Y142845D01*
G02X96586Y143949I1588J0D01*
G03X96558Y144532I-287J278D01*
G02X98074Y147668I1168J1370D01*
G03X98539Y148158I77J392D01*
G02X100337Y150395I1746J438D01*
G03X100749Y150794I12J400D01*
G01Y152906D01*
G03X100082Y153204I-400J0D01*
G02X97219Y155237I-1200J1342D01*
G03X96927Y155783I-369J153D01*
G02X96194Y156109I347J1767D01*
G01X96140Y156149D01*
X95751D01*
Y155912D01*
X90410D01*
Y158390D01*
G03X90069Y158532I-200J0D01*
G01X89777Y158239D01*
Y155912D01*
X84436D01*
Y158390D01*
G03X84095Y158532I-200J0D01*
G01X83802Y158239D01*
Y155912D01*
X78462D01*
Y158390D01*
G03X78120Y158532I-200J0D01*
G01X77828Y158239D01*
Y155912D01*
X72487D01*
Y158390D01*
G03X72146Y158532I-200J0D01*
G01X71853Y158239D01*
Y155912D01*
X66513D01*
Y158390D01*
G03X66171Y158532I-200J0D01*
G01X65879Y158239D01*
Y155912D01*
X60538D01*
Y158104D01*
G03X60197Y158246I-200J0D01*
G01X59905Y157953D01*
Y155912D01*
X54564D01*
Y159186D01*
X57177D01*
X70715Y172724D01*
X80113D01*
X87970Y180580D01*
Y182016D01*
G02X92761Y188841I1400J4112D01*
G03X93473Y189091I312J250D01*
G01Y189279D01*
X95299Y191105D01*
G03X95000Y191787I-283J283D01*
G02X97981Y193145I-178J4340D01*
G03X98272Y192471I291J-275D01*
G01X102279D01*
G03X102570Y193145I0J400D01*
G02X108886I3158J2982D01*
G03X109177Y192471I291J-275D01*
G01X113185D01*
G03X113476Y193145I0J400D01*
G02X119792I3158J2982D01*
G03X120083Y192471I291J-275D01*
G01X121903D01*
X123642Y194210D01*
G02X125622Y192230I3897J1917D01*
G01X124004Y190612D01*
G03X124102Y189975I283J-283D01*
G02X120294Y182171I-2015J-3848D01*
G01X120168Y182228D01*
X103122Y165182D01*
G03X103404Y164499I283J-283D01*
G01X109385D01*
X129093Y184208D01*
X129036Y184334D01*
G02X131199Y182171I3956J1793D01*
G01X131073Y182228D01*
X112028Y163182D01*
G03X112311Y162499I283J-283D01*
G01X118289D01*
X139998Y184208D01*
X139941Y184334D01*
G02X147079Y189084I3956J1793D01*
G03X147772Y189356I293J272D01*
G01Y192081D01*
G02X150873Y192059I1578J4047D01*
G01Y189295D01*
G03X151570Y189028I400J0D01*
G02X158341Y188647I3233J-2901D01*
G03X159067Y188879I326J232D01*
G01Y191950D01*
G02X161668Y192020I1189J4178D01*
G01Y189167D01*
G03X162374Y188911I400J0D01*
G02Y183343I3334J-2784D01*
G03X161668Y183087I-307J-256D01*
G01Y182692D01*
X154799Y175824D01*
X154794Y175748D01*
G02X151586Y174744I-1797J113D01*
G03X150873Y174495I-314J-248D01*
G01Y161477D01*
G03X151555Y161194I400J0D01*
G01X166061Y175700D01*
X184261D01*
X184499Y175937D01*
X184503Y176013D01*
G02X187835Y174959I1797J-113D01*
G03X188005Y174388I341J-209D01*
G02X188524Y171500I-767J-1628D01*
G03Y171220I143J-140D01*
G02X188630Y168819I-1286J-1260D01*
G03X188672Y168268I309J-253D01*
G02X188986Y167895I-1207J-1335D01*
G03X189690Y167947I338J214D01*
G02X193038Y166633I1646J-730D01*
G03X193359Y166108I378J-130D01*
G02X194631Y165273I-259J-1781D01*
G03X195342Y165333I340J210D01*
G02X198808Y164772I1669J-674D01*
G01X198812Y164697D01*
X199211Y164298D01*
Y156912D01*
G03X199914Y156651I400J0D01*
G02X206418Y153372I2844J-2449D01*
G03X207091Y153001I390J-88D01*
G01X209091Y155000D01*
X209104Y155056D01*
G02X216493Y153832I3655J-854D01*
G03X217174Y153509I398J-39D01*
G01X221585Y157920D01*
X221589Y157996D01*
G02X223499Y156086I1797J-113D01*
G01X223424Y156082D01*
X210011Y142669D01*
Y141401D01*
X225127D01*
Y143839D01*
G02X226972Y148294I6300J0D01*
G01X229602Y150924D01*
G02X234057Y152769I4455J-4455D01*
G01X264901D01*
G02X269356Y150924I0J-6300D01*
G01X283292Y136987D01*
G02X285138Y132532I-4455J-4455D01*
G01Y116437D01*
G03X286221Y113821I3700J0D01*
G01X293747Y106295D01*
G03X294430Y106578I283J283D01*
G01Y108381D01*
X299770D01*
Y105107D01*
X295901D01*
G03X295618Y104424I0J-400D01*
G01X300908Y99134D01*
G03X304840Y98591I2325J2325D01*
G01Y100886D01*
X308114D01*
Y95545D01*
X304840D01*
Y95736D01*
X304617D01*
X304594Y95730D01*
G02X299069Y97296I-1361J5729D01*
G01X284383Y111982D01*
G02X282537Y116437I4455J4455D01*
G01Y132532D01*
G03X281453Y135148I-3700J0D01*
G01X267517Y149085D01*
G03X264900Y150169I-2616J-2616D01*
G01X234057D01*
G03X231441Y149085I0J-3700D01*
G01X228811Y146455D01*
G03X227921Y145020I2616J-2616D01*
G03X228273Y144840I190J-64D01*
G02X228941Y145627I5123J-3668D01*
G01X231111Y147797D01*
G02X235566Y149643I4455J-4455D01*
G01X262696D01*
G02X267150Y147797I0J-6300D01*
G01X279882Y135066D01*
G02X281727Y130611I-4455J-4455D01*
G01Y114976D01*
G03X282811Y112361I3700J0D01*
G01X299100Y96072D01*
G03X301716Y94988I2616J2616D01*
G01X313477D01*
G03X316093Y96072I0J3700D01*
G01X318410Y98388D01*
Y100857D01*
X321683D01*
Y95516D01*
X319215D01*
X317932Y94233D01*
G02X313478Y92388I-4455J4455D01*
G01X301715D01*
G02X297261Y94233I0J6300D01*
G01X280972Y110522D01*
G02X279127Y114976I4455J4455D01*
G01Y123961D01*
G03X278577Y124332I-400J0D01*
G02X276103Y125887I-677J1668D01*
G01X276099Y125963D01*
X259145Y142917D01*
X233436D01*
X232602Y142084D01*
G03X232885Y141401I283J-283D01*
G01X235601D01*
Y133895D01*
X213948D01*
Y127588D01*
X222587Y118949D01*
X225155D01*
G02X228197Y117546I1245J-1300D01*
G03X228536Y117128I399J-23D01*
G02X229816Y114442I-274J-1779D01*
G03X230162Y113840I345J-202D01*
G01X234566Y113839D01*
X234623Y113889D01*
G02X234622Y111189I1190J-1350D01*
G01X234565Y111239D01*
X234232D01*
G03X233950Y110556I0J-400D01*
G01X235522Y108984D01*
X235597Y108979D01*
G02X233688Y107070I-113J-1797D01*
G01X233683Y107145D01*
X232011Y108817D01*
X222588D01*
G03X222305Y108134I0J-400D01*
G01X226937Y103501D01*
X227013Y103497D01*
G02X225103Y101587I-113J-1797D01*
G01X225099Y101663D01*
X219744Y107017D01*
X180730D01*
G03X180484Y106301I0J-400D01*
G02X180446Y103430I-1105J-1421D01*
G03X180436Y102793I237J-322D01*
G02X177529Y101263I-1111J-1417D01*
G01X177524Y101339D01*
X175783Y103080D01*
X161479D01*
Y99775D01*
X171528D01*
X171578Y99902D01*
G02X173367Y97448I1676J-657D01*
G01X173292Y97443D01*
X173023Y97174D01*
X170569D01*
G03X170184Y96665I0J-400D01*
G02X166935Y95206I-1732J-491D01*
G01X161479D01*
Y92642D01*
G03X162029Y92271I400J0D01*
G02Y88930I672J-1670D01*
G03X161479Y88559I-149J-371D01*
G01Y87964D01*
X218555D01*
G02Y85363I1245J-1300D01*
G01X161479D01*
Y68278D01*
X162695D01*
X170001Y75584D01*
X203155D01*
G02X206095Y73678I1245J-1300D01*
G03X206472Y73144I377J-134D01*
G01X209484D01*
X219693Y62935D01*
Y59447D01*
G02X220112Y57667I-1300J-1245D01*
G03X220494Y57149I382J-119D01*
G01X221190D01*
Y77734D01*
X231870Y88414D01*
X231875Y88489D01*
G02X233784Y86580I1797J-113D01*
G01X233709Y86575D01*
X223790Y76657D01*
Y57149D01*
X235601D01*
Y48523D01*
X233633Y46554D01*
Y40822D01*
X234166D01*
Y43690D01*
X243139Y52662D01*
X251483D01*
X251523Y52810D01*
G02X251989Y53615I1738J-468D01*
G01X254205Y55832D01*
G03X254136Y56453I-283J283D01*
G02X253297Y57864I958J1524D01*
G01X253293Y57939D01*
X251460Y59773D01*
X241978D01*
G02X241963Y59773I1J1300D01*
G01X238225D01*
Y90615D01*
G03X237539Y90894I-400J0D01*
G02Y93404I-1290J1255D01*
G03X238225Y93683I287J279D01*
G01Y116315D01*
G37*
G36*
G01X76923Y182066D02*
X76802Y182112D01*
X53930Y159240D01*
Y155912D01*
X48590D01*
Y159186D01*
X49915D01*
X74695Y183965D01*
X74625Y184096D01*
G02X76923Y182066I3839J2031D01*
G37*
G36*
G01X491785Y166650D02*
X481758D01*
X475558Y172850D01*
X470842D01*
X469381Y171388D01*
Y166430D01*
X469294D01*
Y159450D01*
G02X466018Y160717I-2834J-2460D01*
G01X466194Y160738D01*
Y166430D01*
X466107D01*
Y171770D01*
X466194D01*
Y172586D01*
X469558Y175950D01*
X476842D01*
X483042Y169750D01*
X491785D01*
G02Y166650I915J-1550D01*
G37*
G36*
G01X446994Y161141D02*
Y166430D01*
X446907D01*
Y167550D01*
X436493D01*
Y166430D01*
X433219D01*
Y171770D01*
X436493D01*
Y170650D01*
X446907D01*
Y171770D01*
X446994D01*
Y173085D01*
G02X450094I1550J915D01*
G01Y171770D01*
X450181D01*
Y166430D01*
X450094D01*
Y158432D01*
X449975Y158313D01*
X450015Y158195D01*
G02Y155786I-3554J-1205D01*
G01X449975Y155668D01*
X455138Y150505D01*
X455256Y150545D01*
G02X452947Y148311I1205J-3554D01*
G01X447781Y153477D01*
G02X446581Y160742I-1321J3513D01*
G03X446994Y161141I13J400D01*
G37*
G36*
G01X321181Y142015D02*
Y141089D01*
X317907D01*
Y146429D01*
X321181D01*
Y145503D01*
G03X321825Y145186I400J0D01*
G02Y142332I1098J-1427D01*
G03X321181Y142015I-244J-317D01*
G37*
G36*
G01X294293Y122942D02*
Y119555D01*
X291019D01*
Y124895D01*
X292339D01*
G03X292622Y125578I0J400D01*
G01X292455Y125745D01*
X291246D01*
Y131086D01*
X294519D01*
Y128066D01*
X296074Y126510D01*
G03X296757Y126793I283J283D01*
G01Y131086D01*
X300031D01*
Y129323D01*
X304048D01*
X305039Y130314D01*
G03X305801Y131660I-2051J2050D01*
G01Y137177D01*
X309075D01*
Y131837D01*
X308968D01*
X308947Y131660D01*
G02X308110Y129239I-5959J703D01*
G01Y125360D01*
X300407D01*
Y125791D01*
X299831D01*
Y125745D01*
X297805D01*
G03X297522Y125063I0J-400D01*
G01X297690Y124895D01*
X299805D01*
Y123892D01*
X300407D01*
Y124323D01*
X308110D01*
Y120360D01*
X300407D01*
Y120792D01*
X299805D01*
Y119555D01*
X296531D01*
Y121669D01*
X294976Y123225D01*
G03X294293Y122942I-283J-283D01*
G37*
G36*
G01X268391Y159699D02*
G02X268724Y160768I1883J0D01*
G01Y161799D01*
X270759Y163835D01*
G03X270441Y164516I-283J283D01*
G02X268394Y166281I-167J1875D01*
G01X268383Y166469D01*
X266130D01*
Y166193D01*
X260789D01*
Y169466D01*
X266130D01*
Y169070D01*
X268383D01*
X268394Y169258D01*
G02X271964Y169977I1880J-111D01*
G03X272324I180J88D01*
G02X272435Y170172I1691J-829D01*
G01Y171498D01*
X275844Y174907D01*
X281663D01*
Y174994D01*
X287004D01*
Y174907D01*
X289650D01*
Y174994D01*
X294991D01*
Y174890D01*
X297101D01*
Y175469D01*
X305592D01*
Y175267D01*
G03X305933Y175125I200J0D01*
G01X306619Y175811D01*
Y182109D01*
G02X309720I1550J4057D01*
G01Y174527D01*
X306982Y171790D01*
X305592D01*
Y171211D01*
X297101D01*
Y171790D01*
X294991D01*
Y171720D01*
X289650D01*
Y171807D01*
X287004D01*
Y171720D01*
X281663D01*
Y171807D01*
X277128D01*
X275553Y170232D01*
G02X275705Y169977I-1539J-1084D01*
G03X276064I180J88D01*
G02X279637Y169148I1691J-829D01*
G01Y166392D01*
G02X276064Y165563I-1883J0D01*
G03X275705I-180J-88D01*
G02X275564Y165323I-1691J829D01*
G01Y164255D01*
X271925Y160616D01*
X271983Y160489D01*
G02X272157Y159699I-1709J-790D01*
G01Y156943D01*
G02X272071Y156380I-1883J0D01*
G03X272453Y155860I382J-120D01*
G01X273455D01*
X275872Y158277D01*
Y159699D01*
G02X279637I1883J0D01*
G01Y157390D01*
X280566Y156461D01*
X281209D01*
Y156995D01*
X288321D01*
Y156616D01*
X289650D01*
Y156703D01*
X294991D01*
Y153429D01*
X289650D01*
Y153516D01*
X288987D01*
G03X288846Y153174I0J-200D01*
G01X289205Y152815D01*
Y146756D01*
X289587D01*
Y139644D01*
X289194D01*
Y137570D01*
X289281D01*
Y132230D01*
X289194D01*
Y115898D01*
X291286Y113806D01*
X294430D01*
Y113893D01*
X299770D01*
Y113806D01*
X300407D01*
Y114323D01*
X308110D01*
Y110360D01*
X300407D01*
Y110706D01*
X299770D01*
Y110619D01*
X294430D01*
Y110706D01*
X290002D01*
X286094Y114614D01*
Y132230D01*
X286007D01*
Y137570D01*
X286094D01*
Y139644D01*
X285723D01*
Y146756D01*
X286105D01*
Y151530D01*
X284505Y153131D01*
X281209D01*
Y153361D01*
X279282D01*
X277575Y155067D01*
X277508Y155076D01*
G02X276802Y155318I246J1867D01*
G01X276669Y155397D01*
X274532Y153260D01*
X266036D01*
X262159Y157136D01*
Y160681D01*
X260789D01*
Y163955D01*
X266130D01*
Y160681D01*
X264760D01*
Y158213D01*
X267113Y155860D01*
X268096D01*
G03X268477Y156380I0J400D01*
G02X268391Y156943I1797J563D01*
G01Y159699D01*
G37*
G36*
G01X411031Y105503D02*
G02Y108332I-1114J1414D01*
G03X411354Y108489I124J157D01*
G01Y108554D01*
X416695D01*
Y105280D01*
X411354D01*
Y105346D01*
G03X411031Y105503I-200J0D01*
G37*
G36*
G01X367651Y102755D02*
G03X367169Y102509I-107J-386D01*
G01X359442D01*
Y106472D01*
X367169D01*
G03X367651Y106226I375J139D01*
G02Y102755I479J-1735D01*
G37*
G36*
G01X367625Y97728D02*
G03X367184Y97509I-81J-392D01*
G01X359442D01*
Y101472D01*
X367184D01*
G03X367625Y101254I360J173D01*
G02Y97728I364J-1763D01*
G37*
G36*
G01X313210Y102071D02*
Y100886D01*
X313625D01*
Y95545D01*
X310352D01*
Y100886D01*
X310610D01*
Y102071D01*
X310273D01*
Y107411D01*
X310610D01*
Y114420D01*
X308988Y116042D01*
X308110D01*
Y115360D01*
X300407D01*
Y119323D01*
X308110D01*
Y118642D01*
X310065D01*
X313210Y115497D01*
Y107411D01*
X313547D01*
Y102071D01*
X313210D01*
G37*
G36*
G01X367616Y92720D02*
G03X367189Y92509I-72J-393D01*
G01X359442D01*
Y96472D01*
X367189D01*
G03X367616Y96261I356J183D01*
G02Y92720I324J-1771D01*
G37*
G36*
G01X464387Y74023D02*
X467631D01*
Y69831D01*
G03X468313Y69549I400J0D01*
G01X469869Y71104D01*
Y74023D01*
X473142D01*
Y73876D01*
G03X473825Y73593I400J0D01*
G01X475514Y75282D01*
Y85226D01*
X473702Y87037D01*
X473290D01*
Y86606D01*
X465587D01*
Y90568D01*
X473290D01*
Y90137D01*
X474987D01*
X478614Y86510D01*
Y73997D01*
X474419Y69802D01*
X473142D01*
Y68682D01*
X471832D01*
X468886Y65737D01*
X462055D01*
X459109Y68682D01*
X458058D01*
Y74023D01*
X461438D01*
G02X464387I1475J-1033D01*
G37*
G36*
G01X459544Y61889D02*
Y64190D01*
X463408D01*
Y57078D01*
X459544D01*
Y58789D01*
X456262D01*
Y57669D01*
X452989D01*
Y63009D01*
X456262D01*
Y61889D01*
X459544D01*
G37*
G36*
G01X419813Y48362D02*
G02Y51588I-799J1613D01*
G03X420390Y51946I178J358D01*
G01Y53531D01*
X424255D01*
Y46419D01*
X420390D01*
Y48003D01*
G03X419813Y48362I-400J0D01*
G37*
G36*
G01X8907Y46192D02*
G02X6518I-1195J-3558D01*
G03Y46950I-127J379D01*
G02Y54066I1195J3558D01*
G03Y54824I-127J379D01*
G02X8907I1195J3558D01*
G03Y54066I127J-379D01*
G02Y46950I-1195J-3558D01*
G03Y46192I127J-379D01*
G37*
G36*
G01Y80532D02*
G02X6518I-1195J-3558D01*
G03Y81291I-127J379D01*
G02Y88406I1195J3558D01*
G03Y89165I-127J379D01*
G02X8907I1195J3558D01*
G03Y88406I127J-379D01*
G02Y81291I-1195J-3558D01*
G03Y80532I127J-379D01*
G37*
G36*
G01X418232Y95855D02*
G03X418274Y96555I-171J362D01*
G02X417473Y97707I960J1523D01*
G01X417440Y97865D01*
X409957D01*
Y98333D01*
G03X409322Y98656I-400J0D01*
G02Y101567I-1059J1456D01*
G03X409957Y101890I235J323D01*
G01Y102123D01*
X418448D01*
Y100244D01*
G03X418918Y99850I400J0D01*
G02X420236Y99574I316J-1772D01*
G01X425396D01*
Y96301D01*
X419499D01*
Y95962D01*
X419629Y95913D01*
G02X419712Y95880I-630J-1686D01*
G01X419750Y95864D01*
X425396D01*
Y92590D01*
X419750D01*
X419712Y92574D01*
G02X418232Y95855I-713J1653D01*
G37*
G36*
G01X304097Y103390D02*
G02Y106092I-1190J1351D01*
G03X304761Y106392I264J300D01*
G01Y107411D01*
X308035D01*
Y102071D01*
X304761D01*
Y103090D01*
G03X304097Y103390I-400J0D01*
G37*
G36*
G01X318384Y102071D02*
Y103210D01*
G03X317697Y103488I-400J0D01*
G02Y105994I-1293J1253D01*
G03X318384Y106272I287J278D01*
G01Y107411D01*
X321658D01*
Y102071D01*
X318384D01*
G37*
G36*
G01X8907Y114873D02*
G02X6518I-1195J-3558D01*
G03Y115631I-127J379D01*
G02Y122747I1195J3558D01*
G03Y123505I-127J379D01*
G02X8907I1195J3558D01*
G03Y122747I127J-379D01*
G02Y115631I-1195J-3558D01*
G03Y114873I127J-379D01*
G37*
G36*
G01X362400Y135975D02*
G03X362942Y135600I400J0D01*
G02X363350Y135702I636J-1684D01*
G03X363700Y136099I-50J397D01*
G02X366883Y137253I1800J1D01*
G01X405614D01*
X409900Y141539D01*
Y144161D01*
G03X409207Y144433I-400J0D01*
G02X403972Y149800I-2747J2557D01*
G03X403707Y150500I-265J299D01*
G01X399213D01*
G03X398948Y149800I0J-400D01*
G02X393972I-2488J-2810D01*
G03X393707Y150500I-265J299D01*
G01X389213D01*
G03X388948Y149800I0J-400D01*
G02X383972I-2488J-2810D01*
G03X383707Y150500I-265J299D01*
G01X379213D01*
G03X378948Y149800I0J-400D01*
G02X373972I-2488J-2810D01*
G03X373707Y150500I-265J299D01*
G01X372845D01*
G02Y153100I-1245J1300D01*
G01X374209D01*
G03X374426Y153836I0J400D01*
G02X378494I2034J3154D01*
G03X378711Y153100I217J-336D01*
G01X384209D01*
G03X384426Y153836I0J400D01*
G02X388494I2034J3154D01*
G03X388711Y153100I217J-336D01*
G01X394209D01*
G03X394426Y153836I0J400D01*
G02X398494I2034J3154D01*
G03X398711Y153100I217J-336D01*
G01X404209D01*
G03X404426Y153836I0J400D01*
G02X409963Y155643I2034J3154D01*
G01X410291Y155430D01*
X410700Y155839D01*
Y162339D01*
X418761Y170400D01*
X427707D01*
Y171770D01*
X430981D01*
Y166430D01*
X427707D01*
Y167800D01*
X419839D01*
X413300Y161261D01*
Y160094D01*
G03X413966Y159795I400J0D01*
G02X413646Y154507I2494J-2804D01*
G03X413064Y154525I-300J-265D01*
G01X409039Y150500D01*
X408422D01*
Y150192D01*
X408513Y150132D01*
G02X409207Y149548I-2053J-3142D01*
G03X409900Y149820I293J273D01*
G01Y150039D01*
X412404Y152543D01*
X418605D01*
X422721Y156659D01*
X422715Y156750D01*
G02X428347Y153746I3745J241D01*
G03X428548Y153000I201J-346D01*
G01X432289D01*
X434888Y150401D01*
X435012Y150453D01*
G02X432998Y148438I1448J-3462D01*
G01X433050Y148562D01*
X431212Y150400D01*
X429322D01*
G03X429046Y149710I0J-400D01*
G02X425012Y143528I-2586J-2720D01*
G01X424888Y143580D01*
X411408Y130100D01*
X369745D01*
G02X366793Y131973I-1245J1300D01*
G03X366414Y132500I-379J127D01*
G01X364688D01*
G02X363350Y132131I-1111J1417D01*
G03X362900Y131728I-51J-397D01*
G02X361755Y130023I-1800J-28D01*
G03X361618Y129368I146J-373D01*
G01X364414Y126572D01*
X364512Y126585D01*
G02X363036Y124242I235J-1785D01*
G01X363021Y124288D01*
X362308Y125001D01*
G03X361630Y124778I-283J-283D01*
G02X358053Y124937I-1780J272D01*
G01X358049Y125013D01*
X357799Y125263D01*
X357595Y125059D01*
X357599Y124972D01*
G02X354015Y125135I-1799J-72D01*
G01X354028Y125233D01*
X335996Y143266D01*
X335930Y143275D01*
G02X339138Y144361I531J3715D01*
G03X339141Y143798I285J-280D01*
G01X344477Y138462D01*
G03X345160Y138744I283J283D01*
G01Y143470D01*
G02X347760I1300J3521D01*
G01Y138978D01*
X359887Y126851D01*
X359963Y126847D01*
G02X359967Y126846I-140J-1795D01*
G01X360057Y126841D01*
X360262Y127046D01*
X350700Y136609D01*
Y151061D01*
X348133Y153628D01*
X348007Y153571D01*
G02X349963Y155644I-1547J3419D01*
G01X349916Y155522D01*
X353300Y152139D01*
Y150094D01*
G03X353966Y149795I400J0D01*
G02X359117Y149641I2494J-2804D01*
G03X359800Y149924I283J283D01*
G01Y153839D01*
X362714Y156752D01*
X362710Y156840D01*
G02X364030Y154131I3750J150D01*
G01X363889Y154250D01*
X362400Y152762D01*
Y148953D01*
G03X363153Y148764I400J0D01*
G02Y145217I3307J-1774D01*
G03X362400Y145028I-352J-189D01*
G01Y135975D01*
G37*
G36*
G01X387149Y168734D02*
X324389D01*
G03X320182Y166992I0J-5950D01*
G01X305376Y152186D01*
G03X303634Y147978I4207J-4207D01*
G01Y146528D01*
X303720D01*
Y141187D01*
X303634D01*
Y134022D01*
X303563Y133952D01*
Y131837D01*
X300289D01*
Y137177D01*
X300533D01*
Y141187D01*
X300447D01*
Y146528D01*
X300533D01*
Y147980D01*
G02X300534Y148114I9050J-1D01*
G03X300181Y148245I-200J3D01*
G02X300228Y150496I-1381J1155D01*
G03X300928Y150622I317J244D01*
G02X303184Y154378I8656J-2644D01*
G01X317990Y169184D01*
G02X324389Y171835I6399J-6400D01*
G01X387149D01*
G03X391356Y173578I0J5950D01*
G01X397645Y179866D01*
G03X399256Y182829I-4207J4207D01*
G03X398574Y183187I-391J84D01*
G02X399171Y188345I-3160J2980D01*
G03X399895Y188413I346J201D01*
G02X401450Y191177I8543J-2988D01*
G03X401118Y191830I-309J254D01*
G02X405205Y195975I-251J4336D01*
G03X405888Y195675I400J-18D01*
G01X406450Y196237D01*
G02X407520Y197053I3571J-3572D01*
G02X408505Y193304I4252J-887D01*
G03X407921Y193323I-301J-264D01*
G01X405784Y191186D01*
G03X406088Y190504I283J-283D01*
G02X403117Y183232I231J-4337D01*
G03X402425Y183008I-295J-270D01*
G02X399837Y177674I-8988J1065D01*
G01X393548Y171385D01*
G02X387149Y168734I-6400J6400D01*
G37*
G36*
G01X309232Y146528D02*
Y145955D01*
G03X309753Y145573I400J0D01*
G02X311687Y145002I544J-1716D01*
G03X312396Y145256I309J254D01*
G01Y146429D01*
X312482D01*
Y146760D01*
G02X314846Y152467I8071J0D01*
G01X325703Y163324D01*
G02X332102Y165975I6400J-6400D01*
G01X393734D01*
G03X397942Y167717I0J5950D01*
G01X413762Y183538D01*
X413666Y183675D01*
G02X416592Y181869I3558J2491D01*
G01X416493Y181884D01*
X400134Y165525D01*
G02X393735Y162874I-6400J6400D01*
G01X332102D01*
G03X327895Y161131I0J-5950D01*
G01X317039Y150275D01*
G03X315582Y146760I3515J-3515D01*
G01Y146429D01*
X315669D01*
Y141089D01*
X315582D01*
Y134013D01*
X315571Y134001D01*
Y131886D01*
X312297D01*
Y137227D01*
X312482D01*
Y141089D01*
X312396D01*
Y142458D01*
G03X311687Y142713I-400J0D01*
G02X309753Y142142I-1389J1145D01*
G03X309232Y141760I-121J-381D01*
G01Y141187D01*
X305958D01*
Y146528D01*
X309232D01*
G37*
G54D51*
X417471Y8640D03*
G54D42*
X17087Y11811D03*
Y208661D03*
X51299Y191127D03*
X236496D03*
X270098Y191166D03*
X455295D03*
X489528Y11811D03*
Y208661D03*
G54D43*
X8428Y175547D03*
X72000Y206200D03*
X176500Y81700D03*
X184500Y96300D03*
X203830Y222303D03*
X212700Y78800D03*
X213100Y95600D03*
X209500Y208600D03*
X220600Y145900D03*
X217800Y158800D03*
X232300Y72200D03*
X232333Y124433D03*
X278986Y98627D03*
X278100Y147900D03*
X283900Y206900D03*
X312500Y155200D03*
X332700Y224100D03*
X372900Y127100D03*
X380000Y127000D03*
X400900Y64800D03*
X453000Y135600D03*
X473064Y60634D03*
X504400Y27400D03*
G54D50*
X336460Y156990D03*
X356460D03*
X436460D03*
X446460Y146990D03*
X456460Y156990D03*
X466460Y146990D03*
G54D45*
X272471Y110395D03*
G54D48*
X294545Y143200D03*
X468366Y60634D03*
G54D41*
X367755Y113126D03*
X284765Y161953D03*
G54D53*
X465078Y109827D03*
G54D47*
X284334Y167845D03*
X292321Y160578D03*
Y167845D03*
X354300Y114544D03*
X360500Y114544D03*
X453907Y111559D03*
G54D46*
X268013Y119273D03*
X293156Y134900D03*
X454056Y169100D03*
X473256D03*
G54D49*
X301346Y162119D03*
G54D44*
X83917Y196127D03*
X138445D03*
X176614Y186127D03*
X171161Y196127D03*
X182067D03*
X187520Y186127D03*
X192972Y196127D03*
X198425Y186127D03*
X209331D03*
X203878Y196127D03*
X297264Y186166D03*
X302716Y196166D03*
X313622D03*
X319075Y186166D03*
X324528Y196166D03*
X346339D03*
X351791Y186166D03*
X357244Y196166D03*
X362697Y186166D03*
X373602D03*
X368150Y196166D03*
X379055D03*
X384508Y186166D03*
X389961Y196166D03*
X422677D03*
X428130Y186166D03*
G54D52*
X442214Y34916D03*
Y39916D03*
X448179Y88587D03*
X463474Y39916D03*
Y44916D03*
X469439Y98587D03*
Y93587D03*
%LPD*%
G75*
G36*
G01X163404Y59773D02*
X163421Y59789D01*
G02X164103Y59506I283J-283D01*
G01Y49643D01*
X170009D01*
Y47324D01*
X169863Y47283D01*
G03X172078Y45046I487J-1733D01*
G02X172745Y45216I384J-112D01*
G01X173399Y44563D01*
X173403Y44487D01*
G03X175313Y46397I1797J113D01*
G01X175237Y46401D01*
X174578Y47061D01*
Y49643D01*
X177883D01*
Y44041D01*
X175754Y41911D01*
X150655D01*
X143795Y48772D01*
X131979D01*
G02X131672Y49428I0J400D01*
G03X131643Y51776I-1379J1157D01*
G01X131593Y51833D01*
Y52190D01*
X131930D01*
Y57531D01*
X131593D01*
Y59030D01*
X131930D01*
Y64371D01*
X129461D01*
X129210Y64623D01*
Y67017D01*
X129891D01*
Y72554D01*
X125928D01*
Y67017D01*
X126609D01*
Y64371D01*
X123288D01*
G02X122922Y64933I0J400D01*
G03X121388Y67457I-1647J727D01*
G01X121312Y67461D01*
X117926Y70847D01*
X117001D01*
Y72218D01*
X113727D01*
Y66877D01*
X117001D01*
Y67130D01*
G02X117684Y67412I400J0D01*
G01X119473Y65622D01*
X119478Y65547D01*
G03X119534Y65200I1797J113D01*
G02X119148Y64698I-387J-102D01*
G01X114062D01*
Y64493D01*
X113847D01*
X113831Y64496D01*
G03X111757Y62640I-276J-1779D01*
G01X111761Y62552D01*
X111558Y62348D01*
X111153Y62753D01*
Y66877D01*
X111489D01*
Y72218D01*
X108216D01*
Y66877D01*
X108552D01*
Y61676D01*
X108588Y61640D01*
G02X108305Y60958I-283J-283D01*
G01X105007D01*
Y58046D01*
X97711Y50751D01*
X93543D01*
Y54736D01*
X97824D01*
X99086Y55998D01*
X99161Y56003D01*
G03X97252Y57912I-113J1797D01*
G01X97247Y57837D01*
X96747Y57337D01*
X93543D01*
Y62117D01*
X93207D01*
Y63470D01*
X93543D01*
Y65938D01*
X94546Y66941D01*
X96637D01*
G03Y69541I1245J1300D01*
G01X93468D01*
X92738Y68811D01*
X90270D01*
Y63888D01*
G02X89587Y63605I-400J0D01*
G01X89103Y64089D01*
X88032D01*
Y68811D01*
X84758D01*
Y64089D01*
X81889D01*
X77508Y59708D01*
X74049D01*
G03Y57108I-1245J-1300D01*
G01X78586D01*
X82966Y61488D01*
X84758D01*
Y56776D01*
X87613D01*
G02X87896Y56094I0J-400D01*
G01X87226Y55424D01*
X84758D01*
Y54054D01*
X66003D01*
X61152Y49203D01*
X32840D01*
X31048Y47411D01*
X30973Y47406D01*
G03X32882Y45496I113J-1797D01*
G01X32887Y45572D01*
X33917Y46602D01*
X62230D01*
X63817Y48190D01*
G02X64500Y47906I283J-283D01*
G03X65258Y46432I1800J-6D01*
G02X65026Y45706I-232J-326D01*
G01X48919D01*
X32240Y29027D01*
X22390Y38878D01*
Y55190D01*
X27873Y60673D01*
X47424D01*
X59334Y72583D01*
Y79103D01*
X59571D01*
Y81218D01*
X61126Y82773D01*
G02X61809Y82490I283J-283D01*
G01Y79103D01*
X65083D01*
Y80223D01*
X67449D01*
Y79103D01*
X70722D01*
Y81218D01*
X72278Y82773D01*
G02X72960Y82490I283J-283D01*
G01Y79103D01*
X76234D01*
Y84444D01*
X74914D01*
G02X74631Y85126I0J400D01*
G01X76147Y86643D01*
Y88207D01*
X76234D01*
Y90322D01*
X79462Y93550D01*
X87405D01*
Y97513D01*
X79702D01*
Y97082D01*
X78609D01*
X75075Y93548D01*
X72960D01*
Y88207D01*
X72978D01*
X73047Y88041D01*
Y87927D01*
X71568Y86448D01*
G02X70885Y86721I-283J283D01*
G03X70429Y87874I-1800J-44D01*
G01X70379Y88007D01*
G02X70578Y88207I200J0D01*
G01X70722D01*
Y93548D01*
X67449D01*
Y88207D01*
X67592D01*
G02X67792Y88007I0J-200D01*
G01X67742Y87874D01*
G03X69525Y84931I1344J-1198D01*
G01X69635Y84958D01*
X69857Y84737D01*
X69563Y84444D01*
X67449D01*
Y83323D01*
X65083D01*
Y84444D01*
X63762D01*
G02X63479Y85126I0J400D01*
G01X64996Y86643D01*
Y88207D01*
X65083D01*
Y93548D01*
X61809D01*
Y88207D01*
X61826D01*
X61896Y88041D01*
Y87927D01*
X58412Y84444D01*
X56297D01*
Y79103D01*
X56534D01*
Y73743D01*
X46264Y63473D01*
X26713D01*
X23073Y59833D01*
G02X22390Y60116I-283J283D01*
G01Y75022D01*
X26646Y79277D01*
X29114D01*
Y84618D01*
X25840D01*
Y83248D01*
X25189D01*
X25132Y83298D01*
G03X22999Y83482I-1191J-1350D01*
G02X22390Y83822I-209J341D01*
G01Y106017D01*
X22678Y106305D01*
X22862Y106120D01*
X22874Y106061D01*
G03X25295Y104731I1766J348D01*
G02X25840Y104359I145J-373D01*
G01Y103738D01*
X29114D01*
Y109079D01*
X26417D01*
G02X26135Y109762I0J400D01*
G01X26226Y109853D01*
X29114D01*
Y115194D01*
X25840D01*
Y113824D01*
X24726D01*
G03X22916Y114233I-1245J-1300D01*
G02X22390Y114612I-126J380D01*
G01Y136474D01*
X22700Y136784D01*
X22880Y136603D01*
X22894Y136549D01*
G03X25295Y135307I1747J435D01*
G02X25840Y134935I145J-373D01*
G01Y134314D01*
X29114D01*
Y139655D01*
X26536D01*
G02X26254Y140338I0J400D01*
G01X27323Y141407D01*
X40169D01*
X54448Y127128D01*
X93136D01*
X95179Y125085D01*
Y123080D01*
X94679Y122580D01*
G02X93996Y122863I-283J283D01*
G01Y124492D01*
X88656D01*
Y121218D01*
X92352D01*
G02X92634Y120536I0J-400D01*
G01X91079Y118980D01*
X88656D01*
Y118744D01*
X87075D01*
X86893Y118926D01*
Y120305D01*
G03X84283Y121520I-1588J0D01*
G02X83768I-258J306D01*
G03X81724I-1022J-1215D01*
G02X81209I-258J306D01*
G03X79165I-1022J-1215D01*
G02X78650I-258J306D01*
G03X76606I-1022J-1215D01*
G02X76091I-257J306D01*
G03X74047I-1022J-1215D01*
G02X73532I-258J306D01*
G03X71488I-1022J-1215D01*
G02X70973I-257J306D01*
G03X68929I-1022J-1215D01*
G02X68414I-258J306D01*
G03X66370I-1022J-1215D01*
G02X65855I-257J306D01*
G03X63811I-1022J-1215D01*
G02X63296I-258J306D01*
G03X61252I-1022J-1215D01*
G02X60737I-257J306D01*
G03X58693I-1022J-1215D01*
G02X58178I-258J306D01*
G03X55568Y120305I-1022J-1215D01*
G01Y116762D01*
G03X57842Y115330I1588J0D01*
G02X58414Y114969I173J-361D01*
G01Y112534D01*
G03X60975Y110003I1300J-1245D01*
G02X61255I140J-143D01*
G03X63775I1260J1286D01*
G02X64055I140J-143D01*
G03X66575I1260J1286D01*
G02X66855I140J-143D01*
G03X69375I1260J1286D01*
G02X69655I140J-143D01*
G03X72175I1260J1286D01*
G02X72455I140J-143D01*
G03X74975I1260J1286D01*
G02X75255I140J-143D01*
G03X77775I1260J1286D01*
G02X78055I140J-143D01*
G03X80615Y112534I1260J1286D01*
G01Y114128D01*
X80225Y114517D01*
G02X80443Y115195I283J283D01*
G03X80793Y115294I-256J1567D01*
G02X81346Y114925I153J-370D01*
G01Y114379D01*
X83249Y112476D01*
X88439D01*
X91669Y115706D01*
X93996D01*
Y117937D01*
X95456Y119397D01*
G02X96139Y119114I283J-283D01*
G01Y116762D01*
G03X98412Y115330I1588J0D01*
G02X98985Y114969I173J-361D01*
G01Y114063D01*
G03X98766Y113784I1300J-1245D01*
G02X98071Y113820I-338J215D01*
G03X97980Y112048I-1610J-806D01*
G02X98676Y112012I338J-215D01*
G03X101545Y111532I1610J806D01*
G02X101825I140J-143D01*
G03X104345I1260J1286D01*
G02X104625I140J-143D01*
G03X107186Y114063I1260J1286D01*
G01Y114810D01*
G02X107662Y115203I400J0D01*
G03X108985Y115547I301J1559D01*
G02X109500I258J-306D01*
G03X111544I1022J1215D01*
G02X112059I257J-306D01*
G03X114103I1022J1215D01*
G02X114618I258J-306D01*
G03X116662I1022J1215D01*
G02X117177I257J-306D01*
G03X119221I1022J1215D01*
G02X119736I258J-306D01*
G03X121364Y115294I1022J1215D01*
G02X121917Y114925I153J-370D01*
G01Y113488D01*
X124242Y111163D01*
X131832D01*
X134235Y113566D01*
Y121214D01*
X135505D01*
Y124488D01*
X130215D01*
X125703Y129000D01*
X126096Y129393D01*
X130164D01*
Y126726D01*
X135840D01*
X135878Y126710D01*
G03X137632Y126895I713J1653D01*
G02X138231Y126726I231J-326D01*
G01X143604D01*
Y127060D01*
X143707D01*
G03X143919Y129835I1245J1300D01*
G02X143604Y129998I-115J164D01*
G01Y129999D01*
X138231D01*
G02X137632Y129831I-368J157D01*
G03X136519Y130161I-1042J-1468D01*
G02X136220Y130844I-16J400D01*
G01X137834Y132457D01*
Y138695D01*
X138339Y139200D01*
X138730D01*
Y138919D01*
X144070D01*
Y139256D01*
X144668D01*
X144716Y139227D01*
G03X147059Y139649I932J1540D01*
G02X147772Y139401I314J-248D01*
G01Y122500D01*
G02X146030Y118293I-5950J0D01*
G01X125039Y97302D01*
G02X121773Y95949I-3267J3266D01*
G01X120554D01*
Y97070D01*
X117281D01*
Y91729D01*
X120554D01*
Y92849D01*
X121773D01*
G03X127232Y95110I0J7720D01*
G01X148222Y116101D01*
G03X149214Y117278I-6400J6399D01*
G02X149886Y117249I327J-231D01*
G03X150154Y116899I1553J910D01*
G02Y116619I-143J-140D01*
G03Y114099I1286J-1260D01*
G02Y113819I-143J-140D01*
G03X150560Y110989I1286J-1260D01*
G02X150645Y110355I-195J-349D01*
G03X153271Y107896I1265J-1281D01*
G02X153973Y107634I302J-262D01*
G01Y103712D01*
X149376D01*
X147713Y102049D01*
X147199D01*
X147142Y102099D01*
G03X144666Y99488I-1191J-1350D01*
G02Y99208I-143J-140D01*
G03X147197Y96648I1286J-1260D01*
G01X148790D01*
X151285Y99143D01*
X153973D01*
Y95838D01*
X152702D01*
X147713Y90849D01*
X147199D01*
X147142Y90899D01*
G03X144666Y88288I-1191J-1350D01*
G02Y88008I-143J-140D01*
G03X145120Y85152I1286J-1260D01*
G01X145166Y85128D01*
X145306Y84920D01*
X144861Y84620D01*
X144786Y84630D01*
G03X144536Y81045I-232J-1785D01*
G02X144734Y80847I-2J-200D01*
G03X146466Y79066I1800J18D01*
G02X146850Y78641I-15J-400D01*
G03X150060Y77413I1797J-113D01*
G02X150762Y77263I314J-248D01*
G03X150974Y76762I1745J441D01*
G02X150633Y76153I-341J-209D01*
G01X149316D01*
G02X146700Y77236I0J3700D01*
G01X136509Y87427D01*
G03X132054Y89273I-4455J-4455D01*
G01X120554D01*
Y90643D01*
X117281D01*
Y85302D01*
X120554D01*
Y86672D01*
X132054D01*
G02X134670Y85588I0J-3700D01*
G01X144861Y75398D01*
G03X149316Y73552I4455J4455D01*
G01X153973D01*
Y72216D01*
X146217D01*
G03X144577Y69261I-1364J-1175D01*
G02X144909Y68791I-61J-395D01*
G03X148286Y67647I1768J-338D01*
G01X153973D01*
Y65172D01*
G02X153474Y64785I-400J0D01*
G03Y61298I-449J-1743D01*
G02X153973Y60910I100J-387D01*
G01Y59773D01*
X163404D01*
G37*
G36*
G01X79420Y35110D02*
X65882D01*
X47824Y17052D01*
Y14214D01*
X47674Y14175D01*
G03X43584Y7212I1449J-5535D01*
G02X42913Y6830I-387J-100D01*
G01X41990Y7753D01*
Y19278D01*
X34220Y27047D01*
X50079Y42906D01*
X68249D01*
X70464Y45120D01*
G02X71129Y44953I283J-283D01*
G03X73234Y43712I1724J519D01*
G02X73660Y43112I85J-391D01*
G03X79769Y43519I3199J-1963D01*
G02X80079Y44172I310J253D01*
G01X87915D01*
G02X88198Y43489I0J-400D01*
G01X87978Y43270D01*
X85510D01*
Y41201D01*
X79420Y35110D01*
G37*
G36*
G01X52315Y3016D02*
G02X52106Y3757I0J400D01*
G03X50574Y14175I-2982J4883D01*
G01X50424Y14214D01*
Y15975D01*
X66959Y32510D01*
X80497D01*
X82655Y34668D01*
G02X83337Y34357I283J-283D01*
G03X86929Y34111I1796J-126D01*
G02X87328Y34484I399J-27D01*
G01X89068D01*
G02X89351Y33801I0J-400D01*
G01X86485Y30935D01*
X70002D01*
X58068Y19002D01*
Y5439D01*
X59809Y3698D01*
G02X59527Y3016I-283J-283D01*
G01X52315D01*
G37*
G36*
G01X64170D02*
X60669Y6517D01*
Y17925D01*
X71079Y28335D01*
X87563D01*
X93760Y34533D01*
X94167D01*
G02X94308Y34192I0J-200D01*
G01X72984Y12867D01*
X72843Y12987D01*
G03X66142Y3757I-3719J-4348D01*
G02X65933Y3016I-208J-341D01*
G01X64170D01*
G37*
G36*
G01X68090Y47713D02*
G03X66295Y49700I-1790J187D01*
G02X66010Y50383I-1J400D01*
G01X67081Y51453D01*
X83753D01*
G02X84036Y50770I0J-400D01*
G01X83440Y50175D01*
X71558D01*
X68771Y47388D01*
G02X68090Y47713I-283J283D01*
G37*
G36*
G01X72106Y3757D02*
G03X74514Y10558I-2982J4883D01*
G01X74472Y10678D01*
X91078Y27284D01*
G02X91761Y27001I283J-283D01*
G01Y14214D01*
X91612Y14175D01*
G03X90079Y3757I1450J-5535D01*
G02X89870Y3016I-208J-341D01*
G01X72315D01*
G02X72106Y3757I0J400D01*
G37*
G36*
G01X74098Y46772D02*
G03X73798Y47004I-1245J-1300D01*
G01X73904Y47374D01*
X83878D01*
G03X85151Y48191I0J1400D01*
G01X85166Y48223D01*
X87026Y50083D01*
X88032D01*
Y52551D01*
X89587Y54107D01*
G02X90270Y53824I283J-283D01*
G01Y50083D01*
X90391D01*
G02X90533Y49742I0J-200D01*
G01X87563Y46772D01*
X74098D01*
G37*
G36*
G01X100001Y36228D02*
G02X99318Y36511I-283J283D01*
G01Y37806D01*
X93744D01*
Y38240D01*
X95548Y40045D01*
X99318D01*
Y43318D01*
X93977D01*
Y42151D01*
X91143Y39317D01*
Y37758D01*
X86710D01*
G02X86427Y38440I0J400D01*
G01X87983Y39996D01*
X90851D01*
Y42464D01*
X94558Y46171D01*
X108978D01*
G02X109260Y45488I0J-400D01*
G01X106865Y43093D01*
X103542D01*
Y39770D01*
X100001Y36228D01*
G37*
G36*
G01X88032Y57195D02*
Y60517D01*
G02X88714Y60800I400J0D01*
G01X90270Y59245D01*
Y57337D01*
X89139D01*
X88714Y56912D01*
G02X88032Y57195I-283J283D01*
G37*
G36*
G01X92691Y170621D02*
G03X90895Y172600I-1791J179D01*
G02X90611Y173283I-1J400D01*
G01X97120Y179792D01*
G02X97802Y179489I283J-283D01*
G03X99691Y177602I1798J-89D01*
G02X99994Y176920I20J-399D01*
G01X93372Y170298D01*
G02X92691Y170621I-283J283D01*
G37*
G36*
G01X86792Y168499D02*
G02X86510Y169182I0J400D01*
G01X88417Y171089D01*
G02X89100Y170805I283J-283D01*
G03X91719Y169197I1800J-5D01*
G01X91848Y169263D01*
X92093Y169019D01*
X91573Y168499D01*
X86792D01*
G37*
G36*
G01X108862Y34308D02*
Y30732D01*
X102149Y24019D01*
Y6919D01*
X105370Y3698D01*
G02X105087Y3016I-283J-283D01*
G01X96252D01*
G02X96043Y3757I0J400D01*
G03X94511Y14175I-2982J4883D01*
G01X94361Y14214D01*
Y26911D01*
X103200Y35751D01*
G02X103542Y35609I141J-141D01*
G01Y35222D01*
G03X106000Y33844I681J-1666D01*
G02X106395Y34308I395J64D01*
G01X108862D01*
G37*
G36*
G01X135972Y140511D02*
G02X135289Y140794I-283J283D01*
G01Y142193D01*
X129949D01*
Y141942D01*
X127464Y141930D01*
Y142844D01*
G03X124854Y144059I-1588J0D01*
G02X124339I-258J306D01*
G03X122295I-1022J-1215D01*
G02X121780I-257J306D01*
G03X119736I-1022J-1215D01*
G02X119221I-258J306D01*
G03X117177I-1022J-1215D01*
G02X116662I-258J306D01*
G03X114618I-1022J-1215D01*
G02X114103I-258J306D01*
G03X112059I-1022J-1215D01*
G02X111544I-257J306D01*
G03X110840Y144400I-1022J-1215D01*
G02X110637Y145075I80J392D01*
G01X111437Y145874D01*
X116455D01*
X120441Y149860D01*
Y150399D01*
X121711D01*
Y153672D01*
X116371D01*
Y150399D01*
X116536D01*
G02X116678Y150057I0J-200D01*
G01X115295Y148675D01*
X110815D01*
G02X110533Y149357I0J400D01*
G01X111573Y150398D01*
X113900D01*
Y153672D01*
X109102D01*
G02X108730Y154219I0J400D01*
G03X108837Y154624I-1675J661D01*
G01X108847Y154690D01*
X110066Y155910D01*
X113900D01*
Y159184D01*
X108560D01*
Y158364D01*
X106866Y156671D01*
X106800Y156661D01*
G03X106592Y156619I255J-1782D01*
G02X106090Y157005I-103J387D01*
G01Y159184D01*
X100749D01*
Y158393D01*
X99753Y157397D01*
G02X99071Y157656I-283J283D01*
G03X98365Y158981I-1797J-107D01*
G02X98608Y159699I243J318D01*
G01X119449D01*
X141979Y182228D01*
X142105Y182171D01*
G03X147079Y183170I1793J3956D01*
G02X147772Y182898I293J-272D01*
G01Y142134D01*
G02X147059Y141885I-400J0D01*
G03X144408Y142073I-1411J-1118D01*
G01X144350Y142018D01*
X144070D01*
Y142193D01*
X138730D01*
Y141800D01*
X137261D01*
X135972Y140511D01*
G37*
G36*
G01X94499Y166499D02*
G02X94216Y167182I0J400D01*
G01X105927Y178893D01*
G02X106608Y178572I283J-283D01*
G03X108228Y180192I1792J-172D01*
G02X107907Y180873I-38J398D01*
G01X109262Y182228D01*
X109388Y182171D01*
G03X114434Y189005I1793J3956D01*
G02X114734Y189670I300J265D01*
G01X118534D01*
G02X118834Y189005I0J-400D01*
G03X118130Y184334I3253J-2878D01*
G01X118188Y184208D01*
X100478Y166499D01*
X94499D01*
G37*
G36*
G01X101398Y179309D02*
G03X98947Y181078I-1798J91D01*
G01X98826Y181030D01*
X98592Y181264D01*
X99236Y181908D01*
X99343Y181885D01*
G03X103529Y189005I932J4242D01*
G02X103828Y189670I300J265D01*
G01X107628D01*
G02X107928Y189005I0J-400D01*
G03X107225Y184334I3253J-2878D01*
G01X107282Y184208D01*
X102080Y179006D01*
G02X101398Y179309I-283J283D01*
G37*
G36*
G01X109730Y3016D02*
X104749Y7997D01*
Y22942D01*
X111078Y29271D01*
G02X111761Y28988I283J-283D01*
G01Y14214D01*
X111612Y14175D01*
G03X110079Y3757I1450J-5535D01*
G02X109870Y3016I-208J-341D01*
G01X109730D01*
G37*
G36*
G01X100375Y48772D02*
G02X100092Y49454I0J400D01*
G01X107633Y56995D01*
X110544D01*
Y58718D01*
G02X111227Y59001I400J0D01*
G01X114062Y56166D01*
Y53255D01*
X119599D01*
Y55903D01*
G02X120128Y56282I400J0D01*
G03X122489Y57732I579J1705D01*
G01X122498Y57798D01*
X123731Y59030D01*
X126418D01*
Y62771D01*
G02X127101Y63054I400J0D01*
G01X128656Y61499D01*
Y59030D01*
X128993D01*
Y57531D01*
X128656D01*
Y52190D01*
X128993D01*
Y51833D01*
X128943Y51776D01*
G03X128914Y49428I1350J-1191D01*
G02X128607Y48772I-306J-257D01*
G01X100375D01*
G37*
G36*
G01X116252Y3016D02*
G02X116043Y3757I0J400D01*
G03X114510Y14175I-2982J4883D01*
G01X114361Y14214D01*
Y33689D01*
X114813Y34141D01*
X117281D01*
Y37414D01*
X113180D01*
G02X112897Y38097I0J400D01*
G01X114452Y39653D01*
X117281D01*
Y39806D01*
G02X117946Y40106I400J0D01*
G03X120304Y40085I1191J1350D01*
G02X120633Y39933I130J-152D01*
G01Y39820D01*
X125703D01*
X125735Y39659D01*
G03X126150Y38821I1765J353D01*
G01X126200Y38764D01*
Y38418D01*
X125363Y37581D01*
X120633D01*
Y34308D01*
X122003D01*
Y29670D01*
X135699Y15975D01*
Y14214D01*
X135549Y14175D01*
G03X134017Y3757I1450J-5535D01*
G02X133808Y3016I-208J-341D01*
G01X116252D01*
G37*
G36*
G01X116688Y57218D02*
X113188Y60718D01*
X113391Y60922D01*
X113479Y60918D01*
G03X113831Y60938I77J1799D01*
G01X113847Y60940D01*
X114062D01*
Y60735D01*
X119599D01*
Y63867D01*
G02X120231Y64193I400J0D01*
G03X122477Y64320I1043J1467D01*
G02X123144Y64022I267J-298D01*
G01Y62404D01*
X120518Y59778D01*
X120452Y59769D01*
G03X118932Y57685I255J-1782D01*
G02X118538Y57218I-394J-67D01*
G01X116688D01*
G37*
G36*
G01X140190Y3016D02*
G02X139981Y3757I0J400D01*
G03X138448Y14175I-2982J4883D01*
G01X138299Y14214D01*
Y17052D01*
X124604Y30748D01*
Y34308D01*
X125974D01*
Y34644D01*
X126104D01*
X128496Y37036D01*
G02X129179Y36754I283J-283D01*
G01Y34307D01*
X134520D01*
Y34644D01*
X137030D01*
X155699Y15975D01*
Y14214D01*
X155549Y14175D01*
G03X154017Y3757I1450J-5535D01*
G02X153808Y3016I-208J-341D01*
G01X140190D01*
G37*
G36*
G01X160190D02*
G02X159981Y3757I0J400D01*
G03X162456Y6920I-2982J4883D01*
G02X163194Y6982I382J-120D01*
G03X163404Y8942I1603J819D01*
G02X162697Y9159I-309J254D01*
G03X158448Y14175I-5698J-519D01*
G01X158299Y14214D01*
Y17052D01*
X138107Y37244D01*
X134520D01*
Y37581D01*
X128800D01*
Y38766D01*
G03X129265Y39658I-1300J1245D01*
G01X129297Y39819D01*
X134520D01*
Y40156D01*
X136591D01*
X173048Y3698D01*
G02X172766Y3016I-283J-283D01*
G01X160190D01*
G37*
G36*
G01X135233Y136681D02*
X131919D01*
G02X131635Y137363I0J400D01*
G01X133179Y138919D01*
X135233D01*
Y136681D01*
G37*
G36*
G01X177409Y3016D02*
X137668Y42756D01*
X134520D01*
Y43476D01*
X142042D01*
X148007Y37511D01*
X177833D01*
X181137Y40814D01*
G02X181820Y40532I283J-283D01*
G01Y40241D01*
X193399Y28663D01*
X193403Y28587D01*
G03X195313Y30497I1797J113D01*
G01X195237Y30501D01*
X184420Y41318D01*
Y44375D01*
G02X185103Y44658I400J0D01*
G01X196899Y32863D01*
X196903Y32787D01*
G03X200499Y32953I1797J113D01*
G02X201182Y33247I400J12D01*
G01X202792Y31638D01*
X253469D01*
X257313Y35481D01*
X259781D01*
Y36267D01*
G02X260387Y36610I400J0D01*
G03X261822Y36424I929J1542D01*
G02X262334Y36040I112J-384D01*
G01Y35481D01*
X265608D01*
Y39222D01*
G02X266291Y39505I400J0D01*
G01X267846Y37950D01*
Y35481D01*
X270719D01*
G02X271002Y34799I0J-400D01*
G01X266472Y30269D01*
X237576D01*
X224359Y17052D01*
Y14214D01*
X224210Y14175D01*
G03X222677Y3757I1450J-5535D01*
G02X222469Y3016I-208J-341D01*
G01X204126D01*
G02X203917Y3757I0J400D01*
G03X197953I-2982J4883D01*
G02X197744Y3016I-208J-341D01*
G01X184126D01*
G02X183917Y3757I0J400D01*
G03X177953I-2982J4883D01*
G02X177744Y3016I-208J-341D01*
G01X177409D01*
G37*
G36*
G01X161479Y123397D02*
Y131271D01*
X153973D01*
Y125365D01*
X153126D01*
X151555Y123794D01*
G02X150873Y124077I-283J283D01*
G01Y147423D01*
G02X151555Y147706I400J0D01*
G01X156575Y142686D01*
X169938D01*
X170540Y142084D01*
G02X170257Y141401I-283J-283D01*
G01X164103D01*
Y130158D01*
X170182Y124080D01*
G02X169899Y123397I-283J-283D01*
G01X161479D01*
G37*
G36*
G01X165930Y110287D02*
G03X164713Y113297I-1330J1213D01*
G01X164637Y113301D01*
X164385Y113554D01*
X161479D01*
Y116859D01*
X165902D01*
X169461Y113300D01*
X172630D01*
X172664Y113286D01*
G03X173131Y113200I467J1213D01*
G01X184755D01*
G03X187586Y115352I1245J1300D01*
G02X187666Y115622I176J95D01*
G03X186673Y118996I-866J1578D01*
G02X186246Y119423I-28J399D01*
G03X185879Y120645I-1796J127D01*
G02X186197Y121288I318J243D01*
G01X187239D01*
X198227Y110300D01*
G02X197944Y109617I-283J-283D01*
G01X194588D01*
G02X194262Y110250I0J400D01*
G03X191338I-1463J1050D01*
G02X191012Y109617I-325J-233D01*
G01X166225D01*
G02X165930Y110287I0J400D01*
G37*
G36*
G01X165988Y151192D02*
G02X165677Y151843I0J400D01*
G03X162062Y157890I-2919J2359D01*
G02X161704Y158566I-74J393D01*
G01X168772Y165633D01*
X181125D01*
G02X181408Y164950I0J-400D01*
G01X176540Y160083D01*
Y156612D01*
G02X175815Y156380I-400J0D01*
G03X169839Y151843I-3056J-2178D01*
G02X169528Y151192I-311J-251D01*
G01X165988D01*
G37*
G36*
G01X179229Y57490D02*
X179437Y57699D01*
X179513Y57703D01*
G03X180826Y60599I-113J1797D01*
G02X181142Y61243I317J244D01*
G01X193746D01*
X195599Y59390D01*
Y57149D01*
X189021D01*
G02X188643Y57680I0J400D01*
G03X185242I-1700J591D01*
G02X184864Y57149I-378J-131D01*
G01X179370D01*
G02X179229Y57490I0J200D01*
G37*
G36*
G01X220937Y113842D02*
X202159Y113845D01*
X186389Y129620D01*
Y133895D01*
X190911D01*
G02X191284Y133350I0J-400D01*
G03X194641I1679J-650D01*
G02X195014Y133895I373J145D01*
G01X203474D01*
Y131788D01*
X221079Y114183D01*
G02X220937Y113842I-141J-141D01*
G37*
G36*
G01X200168Y57149D02*
Y62792D01*
X197333Y65627D01*
G02X197615Y66310I283J283D01*
G01X203380D01*
X204244Y65446D01*
X204246Y65366D01*
G03X207827Y65666I1800J40D01*
G02X208505Y66006I396J58D01*
G01X212667Y61845D01*
X212671Y61769D01*
G03X216264Y61752I1797J113D01*
G02X216945Y62005I399J-29D01*
G01X217093Y61858D01*
Y59447D01*
G03X216674Y57667I1300J-1245D01*
G02X216292Y57149I-382J-119D01*
G01X208803D01*
G02X208428Y57689I0J400D01*
G03X205056I-1686J631D01*
G02X204681Y57149I-375J-140D01*
G01X200168D01*
G37*
G36*
G01X213649Y36169D02*
X210011Y39807D01*
Y49643D01*
X231032D01*
Y43915D01*
G02X230509Y43534I-400J0D01*
G03X228302Y41109I-555J-1713D01*
G01X228318Y41071D01*
Y36169D01*
X225765D01*
Y40822D01*
X225428D01*
Y42314D01*
G03X222828I-1300J1245D01*
G01Y40822D01*
X222491D01*
Y36169D01*
X220253D01*
Y40822D01*
X216979D01*
Y40005D01*
G02X216364Y39668I-400J0D01*
G03X214144Y36856I-970J-1517D01*
G02X213866Y36169I-278J-288D01*
G01X213649D01*
G37*
G36*
G01X238653Y27669D02*
X263631D01*
G02X263914Y26986I0J-400D01*
G01X249661Y12733D01*
X249520Y12862D01*
G03X242677Y3757I-3861J-4222D01*
G02X242469Y3016I-208J-341D01*
G01X228850D01*
G02X228642Y3757I0J400D01*
G03X227109Y14175I-2982J4883D01*
G01X226960Y14214D01*
Y15975D01*
X238653Y27669D01*
G37*
G36*
G01X243613Y36798D02*
G02X242930Y37081I-283J283D01*
G01Y40822D01*
X239657D01*
Y40338D01*
G02X239212Y39941I-400J0D01*
G03X237778Y39462I-200J-1789D01*
G02X237103Y39753I-274J291D01*
G01Y40822D01*
X236767D01*
Y42613D01*
X244216Y50062D01*
X248177D01*
G02X248459Y49379I0J-400D01*
G01X245505Y46424D01*
Y40822D01*
X245168D01*
Y38354D01*
X243613Y36798D01*
G37*
G36*
G01X260222Y145517D02*
X232991D01*
G02X232850Y145858I0J200D01*
G01X232950Y145959D01*
G02X235566Y147042I2616J-2616D01*
G01X262696D01*
G02X263431Y146968I0J-3700D01*
G02X263560Y146235I-79J-392D01*
G03X266230Y144201I940J-1535D01*
G02X266897Y144373I384J-111D01*
G01X278043Y133228D01*
G02X279127Y130611I-2616J-2616D01*
G01Y128039D01*
G02X278577Y127668I-400J0D01*
G03X278013Y127797I-677J-1668D01*
G01X277937Y127801D01*
X260222Y145517D01*
G37*
G36*
G01X245413Y34921D02*
X245974Y35481D01*
X248442D01*
Y36228D01*
G02X249036Y36578I400J0D01*
G03X250471Y36441I874J1574D01*
G02X250996Y36061I125J-380D01*
G01Y35481D01*
X252669D01*
G02X252952Y34799I0J-400D01*
G01X252392Y34238D01*
X245696D01*
G02X245413Y34921I0J400D01*
G37*
G36*
G01X261489Y56435D02*
G02X261167Y57073I0J400D01*
G03X261477Y57753I-1447J1070D01*
G02X262147Y57953I390J-87D01*
G03X263517Y61038I1257J1288D01*
G01X263442Y61042D01*
X258174Y66310D01*
X245731D01*
Y69615D01*
X277564D01*
X278669Y68510D01*
Y66042D01*
X279637D01*
X281145Y64535D01*
G02X280862Y63852I-283J-283D01*
G01X278669D01*
Y63106D01*
G02X278075Y62756I-400J0D01*
G03Y59607I-872J-1575D01*
G02X278669Y59257I194J-350D01*
G01Y58511D01*
X279006D01*
Y57932D01*
X279820Y57118D01*
G02X279537Y56435I-283J-283D01*
G01X261489D01*
G37*
G36*
G01X323135D02*
X320791Y58779D01*
Y63852D01*
X317518D01*
Y63063D01*
G02X317008Y62678I-400J0D01*
G03X315706Y62553I-491J-1732D01*
G02X315126Y62910I-180J357D01*
G01Y75832D01*
X311390Y79568D01*
X307154D01*
Y84108D01*
X303880D01*
Y80367D01*
G02X303197Y80085I-400J0D01*
G01X301642Y81640D01*
Y84108D01*
X298368D01*
Y83505D01*
G02X297831Y83129I-400J0D01*
G03Y79747I-617J-1691D01*
G02X298368Y79371I137J-376D01*
G01Y78768D01*
X300837D01*
X301566Y78039D01*
G02X301283Y77356I-283J-283D01*
G01X298368D01*
Y76756D01*
G02X297833Y76380I-400J0D01*
G03Y72992I-609J-1694D01*
G02X298368Y72615I135J-376D01*
G01Y72016D01*
X300042D01*
G02X300325Y71333I0J-400D01*
G01X299596Y70604D01*
X298368D01*
Y70091D01*
G02X297890Y69699I-400J0D01*
G03X296956Y69637I-352J-1765D01*
G02X296427Y70016I-129J379D01*
G01Y70618D01*
X293176Y73869D01*
X287455D01*
Y74304D01*
G02X288044Y74656I400J0D01*
G03Y77827I853J1585D01*
G02X287455Y78180I-189J352D01*
G01Y78912D01*
X284181D01*
Y75226D01*
G02X283498Y74943I-400J0D01*
G01X281943Y76498D01*
Y78912D01*
X278669D01*
Y78319D01*
G02X278137Y77941I-400J0D01*
G03Y74542I-593J-1700D01*
G02X278669Y74164I132J-378D01*
G01Y73571D01*
X281192D01*
X283495Y71269D01*
X284181D01*
Y66304D01*
X283053D01*
X281943Y67414D01*
Y71382D01*
X279474D01*
X278641Y72216D01*
X245731D01*
Y79458D01*
X249277D01*
X253626Y75109D01*
X253630Y75034D01*
G03X257097Y74474I1797J113D01*
G02X257786Y74566I371J-149D01*
G03X260811Y74814I1433J1089D01*
G02X261477Y74877I354J-187D01*
G03X262998Y77796I1408J1122D01*
G01X262922Y77800D01*
X257446Y83277D01*
G02X257729Y83960I283J283D01*
G01X270284D01*
X273508Y87184D01*
X322874D01*
G02X323266Y86703I0J-400D01*
G03X323376Y85626I1763J-365D01*
G01X323392Y85588D01*
Y79836D01*
X323982D01*
Y72384D01*
X324040D01*
Y65122D01*
X327905D01*
Y67378D01*
X328545D01*
X330734Y65190D01*
Y58624D01*
X332240Y57118D01*
G02X331957Y56435I-283J-283D01*
G01X323135D01*
G37*
G36*
G01X253809Y101003D02*
Y98252D01*
X260431Y91630D01*
Y89162D01*
X263704D01*
Y91630D01*
X265260Y93186D01*
G02X265943Y92903I283J-283D01*
G01Y89162D01*
X268572D01*
G02X268713Y88821I0J-200D01*
G01X268461Y88569D01*
X259367D01*
X257835Y90101D01*
X245731D01*
Y91269D01*
X249421D01*
G03Y93869I1245J1300D01*
G01X245731D01*
Y103080D01*
X252439D01*
Y101003D01*
X253809D01*
G37*
G36*
G01X248850Y3016D02*
G02X248642Y3757I0J400D01*
G03X251117Y10358I-2982J4883D01*
G01X251080Y10474D01*
X266275Y25670D01*
X282918D01*
G02X283201Y24987I0J-400D01*
G01X270574Y12360D01*
G02X269988Y12381I-283J283D01*
G03X262677Y3757I-4329J-3741D01*
G02X262469Y3016I-208J-341D01*
G01X248850D01*
G37*
G36*
G01X248105Y45347D02*
X253299Y50540D01*
X253374Y50545D01*
G03X254534Y51069I-113J1797D01*
G01X256300Y52835D01*
X258418D01*
G02X258700Y52152I0J-400D01*
G01X256844Y50295D01*
Y40822D01*
X256507D01*
Y38354D01*
X254952Y36798D01*
G02X254269Y37081I-283J283D01*
G01Y40822D01*
X250996D01*
Y40242D01*
G02X250471Y39862I-400J0D01*
G03X249036Y39726I-561J-1711D01*
G02X248442Y40075I-194J350D01*
G01Y40822D01*
X248105D01*
Y45347D01*
G37*
G36*
G01X270314Y40822D02*
X268651D01*
X264341Y45132D01*
X264327Y45155D01*
G03X263163Y42500I-1560J-898D01*
G01X263270Y42525D01*
X264290Y41505D01*
G02X264008Y40822I-283J-283D01*
G01X262334D01*
Y40264D01*
G02X261822Y39880I-400J0D01*
G03X260387Y39693I-505J-1728D01*
G02X259781Y40036I-207J343D01*
G01Y40822D01*
X259444D01*
Y49218D01*
X263061Y52835D01*
X273766D01*
Y44274D01*
X270314Y40822D01*
G37*
G36*
G01X261236Y94503D02*
X256409Y99330D01*
Y101003D01*
X257711D01*
G02X258111Y100594I0J-400D01*
G03X260992Y99113I1800J-41D01*
G02X261632Y98793I240J-320D01*
G01Y96997D01*
X264428D01*
G02X264710Y96314I0J-400D01*
G01X262899Y94503D01*
X261236D01*
G37*
G36*
G01X268850Y3016D02*
G02X268642Y3757I0J400D01*
G03X271338Y9338I-2982J4883D01*
G01X271326Y9435D01*
X290668Y28776D01*
X297910D01*
X306999Y37866D01*
Y43164D01*
X307336D01*
Y48404D01*
X311767Y52835D01*
X316049D01*
G02X316310Y52131I0J-400D01*
G03X316181Y49519I1171J-1367D01*
G01Y48505D01*
X315881D01*
Y43164D01*
X316218D01*
Y41860D01*
X315881D01*
Y36520D01*
X316218D01*
Y35209D01*
X306182Y25173D01*
X296417D01*
X288296Y17052D01*
Y14214D01*
X288147Y14175D01*
G03X286614Y3757I1450J-5535D01*
G02X286406Y3016I-208J-341D01*
G01X268850D01*
G37*
G36*
G01X269116Y28270D02*
G02X268834Y28953I0J400D01*
G01X277683Y37802D01*
X280513D01*
Y36520D01*
X283787D01*
Y41860D01*
X283362D01*
Y43164D01*
X283698D01*
Y48882D01*
G03X280412Y49096I-1595J834D01*
G01X280425Y49063D01*
Y43164D01*
X280761D01*
Y41860D01*
X280513D01*
Y40402D01*
X276605D01*
X271802Y35599D01*
G02X271120Y35882I-283J283D01*
G01Y37950D01*
X276367Y43197D01*
Y52835D01*
X307124D01*
G02X307406Y52152I0J-400D01*
G01X304399Y49144D01*
Y48505D01*
X304062D01*
Y43164D01*
X304399D01*
Y38943D01*
X296833Y31376D01*
X290441D01*
G02X290158Y32059I0J400D01*
G01X294619Y36520D01*
X295517D01*
Y41860D01*
X295180D01*
Y43164D01*
X295517D01*
Y48505D01*
X292243D01*
Y48146D01*
G02X291662Y47790I-400J0D01*
G03X289834Y47676I-817J-1604D01*
G02X289210Y48008I-224J331D01*
G01Y48505D01*
X285936D01*
Y43164D01*
X289210D01*
Y44365D01*
G02X289834Y44696I400J0D01*
G03X291662Y44582I1010J1490D01*
G02X292243Y44226I182J-356D01*
G01Y43164D01*
X292580D01*
Y41860D01*
X292244D01*
Y37822D01*
X282691Y28270D01*
X269116D01*
G37*
G36*
G01X287411Y57021D02*
G03X287471Y58571I-1594J837D01*
G01X287455Y58609D01*
Y61286D01*
G02X288137Y61568I400J0D01*
G01X288799Y60906D01*
Y57350D01*
X289031Y57118D01*
G02X288749Y56435I-283J-283D01*
G01X287765D01*
G02X287411Y57021I0J400D01*
G37*
G36*
G01X283358Y57257D02*
X281943Y58672D01*
Y63703D01*
X284181D01*
Y58609D01*
X284165Y58571D01*
G03X284036Y57598I1653J-713D01*
G02X283358Y57257I-396J-58D01*
G37*
G36*
G01X293392Y56435D02*
X291400Y58427D01*
Y61984D01*
X287455Y65929D01*
Y67108D01*
G02X288128Y67400I400J0D01*
G03Y70025I1232J1313D01*
G02X287455Y70316I-274J292D01*
G01Y71269D01*
X292099D01*
X293827Y69541D01*
Y57282D01*
X293991Y57118D01*
G02X293708Y56435I-283J-283D01*
G01X293392D01*
G37*
G36*
G01X292787Y3016D02*
G02X292579Y3757I0J400D01*
G03X291046Y14175I-2982J4883D01*
G01X290897Y14214D01*
Y15975D01*
X297494Y22573D01*
X307259D01*
X318818Y34132D01*
Y36520D01*
X319155D01*
Y41860D01*
X318818D01*
Y43164D01*
X319155D01*
Y48505D01*
X318781D01*
Y49519D01*
G03X318652Y52131I-1300J1245D01*
G02X318912Y52835I260J304D01*
G01X333029D01*
G02X333345Y52190I0J-400D01*
G03X333468Y49842I1423J-1102D01*
G01Y48505D01*
X333212D01*
Y43164D01*
X333548D01*
Y41860D01*
X333212D01*
Y36474D01*
X310940Y14202D01*
X310833Y14226D01*
G03X306614Y3757I-1237J-5586D01*
G02X306406Y3016I-208J-341D01*
G01X292787D01*
G37*
G36*
G01X303466Y66010D02*
X301642Y67834D01*
Y68972D01*
X303197Y70527D01*
G02X303880Y70245I283J-283D01*
G01Y66010D01*
X303466D01*
G37*
G36*
G01X311767Y56435D02*
X310480Y57722D01*
Y63278D01*
X308305Y65454D01*
G02X308565Y66136I283J283D01*
G03X307719Y69572I-100J1797D01*
G02X307154Y69936I-166J364D01*
G01Y70604D01*
X304239D01*
G02X303956Y71287I0J400D01*
G01X304685Y72016D01*
X307154D01*
Y76968D01*
X310313D01*
X312525Y74755D01*
Y56909D01*
X312658Y56777D01*
G02X312516Y56435I-141J-141D01*
G01X311767D01*
G37*
G36*
G01X339856Y43164D02*
Y20738D01*
X332618Y13501D01*
X332485Y13578D01*
G03X326614Y3757I-2889J-4939D01*
G02X326406Y3016I-208J-341D01*
G01X312787D01*
G02X312579Y3757I0J400D01*
G03X313654Y12674I-2982J4883D01*
G02X313654Y13239I284J282D01*
G01X336149Y35733D01*
Y36520D01*
X336485D01*
Y41860D01*
X336149D01*
Y43164D01*
X336485D01*
Y48505D01*
X336068D01*
Y49842D01*
G03X336191Y52190I-1300J1245D01*
G02X336507Y52835I316J245D01*
G01X343227D01*
G02X343510Y52152I0J-400D01*
G01X339862Y48505D01*
X339519D01*
Y43164D01*
X339856D01*
G37*
G36*
G01X336600Y56435D02*
X333334Y59701D01*
Y66267D01*
X329622Y69978D01*
X327905D01*
Y72234D01*
X327846D01*
Y79496D01*
X326666D01*
Y85588D01*
X326682Y85626D01*
G03X325792Y87969I-1653J713D01*
G02X325679Y88614I170J362D01*
G01X335256Y98190D01*
X338182D01*
Y97509D01*
X345884D01*
Y98190D01*
X347272D01*
X349422Y96040D01*
Y93551D01*
G03X349171Y91394I1300J-1245D01*
G02X348826Y90791I-345J-203D01*
G01X345884D01*
Y91472D01*
X338182D01*
Y87478D01*
X335122Y84418D01*
Y82413D01*
X334785D01*
Y77072D01*
X338059D01*
Y82413D01*
X337722D01*
Y83341D01*
X341890Y87509D01*
X345884D01*
Y88190D01*
X353109D01*
Y82413D01*
X352772D01*
Y77072D01*
X356046D01*
Y82413D01*
X355709D01*
Y87406D01*
X356494Y88190D01*
X356608D01*
X361693Y83106D01*
G02X361410Y82423I-283J-283D01*
G01X359736D01*
Y81781D01*
G02X359181Y81412I-400J0D01*
G03Y78093I-697J-1660D01*
G02X359736Y77724I155J-369D01*
G01Y77082D01*
X363010D01*
Y80823D01*
G02X363692Y81106I400J0D01*
G01X365248Y79550D01*
Y78371D01*
X362204Y75327D01*
X359736D01*
Y69987D01*
X363010D01*
Y72455D01*
X364565Y74010D01*
G02X365248Y73728I283J-283D01*
G01Y70366D01*
X365232Y70328D01*
G03X365433Y68550I1653J-713D01*
G01X365472Y68432D01*
G02X365272Y68232I-200J0D01*
G01X365248D01*
Y62892D01*
X368521D01*
Y64262D01*
X369993D01*
G03Y66862I1245J1300D01*
G01X368521D01*
Y68232D01*
X368497D01*
G02X368297Y68432I0J200D01*
G01X368336Y68550D01*
G03X368538Y70328I-1451J1065D01*
G01X368521Y70366D01*
Y75327D01*
X366848D01*
G02X366565Y76010I0J400D01*
G01X367637Y77082D01*
X368521D01*
Y78452D01*
X372548D01*
X374383Y76617D01*
Y59133D01*
X376398Y57118D01*
G02X376116Y56435I-283J-283D01*
G01X362903D01*
X359255Y60084D01*
Y68394D01*
X355416Y72233D01*
X352433D01*
G02X352165Y72929I0J400D01*
G03X350124Y75860I-1207J1335D01*
G02X349539Y76215I-185J355D01*
G01Y77072D01*
X350534D01*
Y79540D01*
X352023Y81029D01*
Y82712D01*
G03X349372Y82766I-1300J1245D01*
G01X349422Y82709D01*
Y82413D01*
X347260D01*
Y76935D01*
X346265D01*
Y72233D01*
X345156D01*
X344027Y73361D01*
Y76935D01*
X343571D01*
Y82807D01*
X343580Y82836D01*
G03X340297Y82491I-1717J542D01*
G01Y77072D01*
X340753D01*
Y75565D01*
X339923D01*
G03Y72964I-1245J-1300D01*
G01X340753D01*
Y71594D01*
X342116D01*
X343139Y70571D01*
G02X342856Y69888I-283J-283D01*
G01X340753D01*
Y68283D01*
X340033D01*
X339976Y68333D01*
G03Y65633I-1191J-1350D01*
G01X340033Y65683D01*
X340753D01*
Y64548D01*
X344027D01*
Y69632D01*
X346265D01*
Y64548D01*
X349539D01*
Y65071D01*
G02X350026Y65461I400J0D01*
G03Y68975I392J1757D01*
G02X349539Y69365I-87J390D01*
G01Y69632D01*
X354339D01*
X356654Y67317D01*
Y59006D01*
X358543Y57118D01*
G02X358260Y56435I-283J-283D01*
G01X346047D01*
X344027Y58455D01*
Y62842D01*
X340753D01*
Y61472D01*
X340308D01*
X340251Y61522D01*
G03Y58822I-1191J-1350D01*
G01X340308Y58872D01*
X340753D01*
Y57502D01*
X341303D01*
X341686Y57118D01*
G02X341404Y56435I-283J-283D01*
G01X336600D01*
G37*
G36*
G01X369024Y36520D02*
Y13806D01*
X369534Y13297D01*
G02X369531Y12728I-283J-283D01*
G03X370551Y3757I4003J-4088D01*
G02X370343Y3016I-208J-341D01*
G01X356724D01*
G02X356516Y3757I0J400D01*
G03X358472Y11528I-2982J4883D01*
G01X358394Y11662D01*
X359786Y13054D01*
Y36520D01*
X360123D01*
Y41860D01*
X359786D01*
Y43164D01*
X360123D01*
Y48505D01*
X359716D01*
Y49115D01*
X359766Y49171D01*
G03X357065I-1350J1191D01*
G01X357115Y49115D01*
Y48505D01*
X356849D01*
Y43164D01*
X357186D01*
Y41860D01*
X356849D01*
Y36520D01*
X357186D01*
Y14131D01*
X356556Y13501D01*
X356422Y13578D01*
G03X350551Y3757I-2889J-4939D01*
G02X350343Y3016I-208J-341D01*
G01X332787D01*
G02X332579Y3757I0J400D01*
G03X334535Y11528I-2982J4883D01*
G01X334457Y11662D01*
X342456Y19660D01*
Y43164D01*
X342792D01*
Y47757D01*
X347870Y52835D01*
X379673D01*
G02X379956Y52152I0J-400D01*
G01X376309Y48505D01*
X374975D01*
Y48458D01*
G02X374415Y48092I-400J0D01*
G03X372503Y47792I-721J-1649D01*
G01X372446Y47742D01*
X371961D01*
Y48505D01*
X368688D01*
Y43164D01*
X369024D01*
Y41860D01*
X368688D01*
Y36520D01*
X369024D01*
G37*
G36*
G01X375312Y43164D02*
Y25023D01*
X388673Y11662D01*
X388595Y11528D01*
G03X389676Y4414I4939J-2889D01*
G02X389407Y3719I-270J-295D01*
G01X389263D01*
X388560Y3016D01*
X376724D01*
G02X376516Y3757I0J400D01*
G03X372390Y14246I-2982J4883D01*
G01X372284Y14224D01*
X371625Y14884D01*
Y36520D01*
X371961D01*
Y41860D01*
X371625D01*
Y43164D01*
X371961D01*
Y45142D01*
X372446D01*
X372503Y45092D01*
G03X374415Y44793I1191J1350D01*
G02X374975Y44426I160J-366D01*
G01Y43164D01*
X375312D01*
G37*
G36*
G01X398454Y12747D02*
G02X397759Y12497I-399J20D01*
G03X390645Y13578I-4226J-3857D01*
G01X390512Y13501D01*
X377912Y26100D01*
Y43164D01*
X378249D01*
Y46767D01*
X379804Y48323D01*
G02X380487Y48040I283J-283D01*
G01Y43164D01*
X383760D01*
Y48505D01*
X380952D01*
G02X380669Y49188I0J400D01*
G01X384316Y52835D01*
X400966D01*
X402172Y51629D01*
G02X401845Y50948I-283J-283D01*
G03X405160Y47634I-415J-3730D01*
G02X405840Y47961I398J44D01*
G01X419754Y34047D01*
X398454Y12747D01*
G37*
G36*
G01X441001Y95991D02*
Y102608D01*
G02X441684Y102890I400J0D01*
G01X444328Y100246D01*
Y98352D01*
X441684Y95709D01*
G02X441001Y95991I-283J283D01*
G37*
%LPC*%
G75*
G36*
G01X34626Y128199D02*
X31352D01*
Y133540D01*
X31689D01*
Y134314D01*
X31352D01*
Y139655D01*
X34626D01*
Y138363D01*
X35375D01*
X35432Y138413D01*
G02Y135713I1191J-1350D01*
G01X35375Y135763D01*
X34626D01*
Y134314D01*
X34289D01*
Y133540D01*
X34626D01*
Y132876D01*
G03X35190Y132512I400J0D01*
G02Y129227I737J-1642D01*
G03X34626Y128862I-164J-365D01*
G01Y128199D01*
G37*
G36*
G01X25840D02*
Y128820D01*
G03X25295Y129192I-400J0D01*
G02Y132546I-654J1677D01*
G03X25840Y132919I145J373D01*
G01Y133540D01*
X29114D01*
Y128199D01*
X25840D01*
G37*
G36*
G01X25840Y122084D02*
Y122704D01*
G03X25295Y123077I-400J0D01*
G02Y126431I-654J1677D01*
G03X25840Y126804I145J373D01*
G01Y127424D01*
X29114D01*
Y122084D01*
X25840D01*
G37*
G36*
G01X36014Y123405D02*
X34626D01*
Y122084D01*
X34289D01*
Y121309D01*
X34626D01*
Y119939D01*
X35238D01*
X35295Y119989D01*
G02Y117289I1191J-1350D01*
G01X35238Y117339D01*
X34626D01*
Y115969D01*
X31352D01*
Y121309D01*
X31689D01*
Y122084D01*
X31352D01*
Y127424D01*
X34626D01*
Y126005D01*
X36014D01*
G02Y123405I1245J-1300D01*
G37*
G36*
G01X25840Y115969D02*
Y116589D01*
G03X25295Y116962I-400J0D01*
G02Y120316I-654J1677D01*
G03X25840Y120688I145J373D01*
G01Y121309D01*
X29114D01*
Y115969D01*
X25840D01*
G37*
G36*
G01X34626Y110475D02*
Y109853D01*
X31352D01*
Y115194D01*
X34626D01*
Y114572D01*
G03X35172Y114200I400J0D01*
G02Y110848I657J-1676D01*
G03X34626Y110475I-146J-372D01*
G37*
G36*
G01X35206Y105107D02*
X35150Y105157D01*
X34626D01*
Y103738D01*
X34289D01*
Y102964D01*
X34626D01*
Y101594D01*
X35120D01*
X35177Y101644D01*
G02Y98943I1191J-1350D01*
G01X35120Y98993D01*
X34626D01*
Y97623D01*
X31352D01*
Y102964D01*
X31689D01*
Y103738D01*
X31352D01*
Y109079D01*
X34626D01*
Y107758D01*
X35150D01*
X35206Y107808D01*
G02Y105107I1191J-1350D01*
G37*
G36*
G01X25840Y97623D02*
Y98244D01*
G03X25295Y98616I-400J0D01*
G02Y101970I-654J1677D01*
G03X25840Y102343I145J373D01*
G01Y102964D01*
X29114D01*
Y97623D01*
X25840D01*
G37*
G36*
G01X67756Y97806D02*
G02X64644I-1556J-906D01*
G03X64299Y98407I-346J201D01*
G01X63530D01*
Y101681D01*
X68870D01*
Y98407D01*
X68101D01*
G03X67756Y97806I0J-400D01*
G37*
G36*
G01X25840Y91508D02*
Y92128D01*
G03X25295Y92501I-400J0D01*
G02Y95855I-654J1677D01*
G03X25840Y96228I145J373D01*
G01Y96848D01*
X29114D01*
Y91508D01*
X25840D01*
G37*
G36*
G01X34626Y85392D02*
X31352D01*
Y90733D01*
X31689D01*
Y91508D01*
X31352D01*
Y96848D01*
X34626D01*
Y95547D01*
X35456D01*
G02Y92946I1245J-1300D01*
G01X34626D01*
Y91508D01*
X34289D01*
Y90733D01*
X34626D01*
Y90180D01*
G03X35135Y89795I400J0D01*
G02Y86331I491J-1732D01*
G03X34626Y85946I-109J-385D01*
G01Y85392D01*
G37*
G36*
G01X25840D02*
Y86013D01*
G03X25295Y86386I-400J0D01*
G02Y89740I-654J1677D01*
G03X25840Y90112I145J373D01*
G01Y90733D01*
X29114D01*
Y85392D01*
X25840D01*
G37*
G36*
G01X92936Y89983D02*
Y98216D01*
G03X91921Y99231I-1016J0D01*
G01X87405D01*
Y98550D01*
X79702D01*
Y102513D01*
X87405D01*
Y101832D01*
X91921D01*
G02X95537Y98216I0J-3616D01*
G01Y89984D01*
G03X96716Y88804I1179J0D01*
G01X100962D01*
Y92513D01*
X108664D01*
Y88804D01*
X111769D01*
Y90643D01*
X115042D01*
Y85302D01*
X111769D01*
Y86204D01*
X96716D01*
G02X92936Y89983I0J3780D01*
G37*
G36*
G01X138098Y73815D02*
X138094Y73890D01*
X134443Y77541D01*
X133631D01*
Y76072D01*
X129668D01*
Y81610D01*
X133631D01*
Y80141D01*
X135520D01*
X139932Y75729D01*
X140008Y75724D01*
G02X138098Y73815I-113J-1797D01*
G37*
G36*
G01X73582Y74102D02*
X69012D01*
X67996Y73085D01*
X67991Y73010D01*
G02X66081Y74919I-1797J113D01*
G01X66157Y74924D01*
X67935Y76703D01*
X76001D01*
X78632Y79334D01*
G03X78428Y80009I-283J283D01*
G02X80549Y82130I356J1765D01*
G03X81224Y81926I392J79D01*
G01X83536Y84238D01*
X89035D01*
X91075Y82197D01*
X93543D01*
Y76857D01*
X93207D01*
Y75504D01*
X93543D01*
Y74144D01*
X96049D01*
G02Y71543I1245J-1300D01*
G01X93543D01*
Y70163D01*
X90270D01*
Y75504D01*
X90606D01*
Y76857D01*
X90270D01*
Y79325D01*
X88714Y80880D01*
G03X88032Y80598I-283J-283D01*
G01Y76857D01*
X84758D01*
Y80817D01*
G03X84075Y81100I-400J0D01*
G01X78221Y75246D01*
G03X78345Y74595I283J-283D01*
G02X73898Y73456I-1487J-3446D01*
G03X73582Y74102I-315J246D01*
G37*
G36*
G01X46439Y133502D02*
Y114700D01*
X52420Y108720D01*
G02X52877Y107944I-1273J-1273D01*
G01X52891Y107895D01*
X53691Y107095D01*
X55644D01*
Y107477D01*
X62756D01*
Y107095D01*
X63530D01*
Y107193D01*
X68870D01*
Y107106D01*
X70130D01*
Y107193D01*
X75470D01*
Y107082D01*
X79702D01*
Y107513D01*
X87405D01*
Y107082D01*
X100962D01*
Y107513D01*
X108664D01*
Y103550D01*
X100962D01*
Y103981D01*
X87405D01*
Y103550D01*
X79702D01*
Y103981D01*
X75470D01*
Y103919D01*
X70130D01*
Y104006D01*
X68870D01*
Y103919D01*
X63530D01*
Y103995D01*
X62756D01*
Y103613D01*
X55644D01*
Y103995D01*
X52406D01*
X51455Y104946D01*
G03X50773Y104663I-283J-283D01*
G01Y81583D01*
X40603Y71414D01*
X40607Y71326D01*
G02X39125Y74141I-3749J-176D01*
G01X39264Y74035D01*
X47972Y82743D01*
Y108075D01*
X42839Y113209D01*
Y133502D01*
G02X46439I1800J0D01*
G37*
G36*
G01X111044Y94480D02*
G02X109159Y93782I-1461J1051D01*
G03X108696Y93550I-94J-389D01*
G01X100923D01*
G03X100479Y93770I-361J-172D01*
G02Y97293I-371J1762D01*
G03X100923Y97513I82J391D01*
G01X108696D01*
G03X109159Y97281I368J157D01*
G02X111044Y96583I424J-1750D01*
G03X111769Y96816I325J234D01*
G01Y97070D01*
X111855D01*
Y97452D01*
X110326Y98981D01*
X108664D01*
Y98550D01*
X100962D01*
Y102513D01*
X108664D01*
Y102082D01*
X111611D01*
X114956Y98737D01*
Y97070D01*
X115042D01*
Y91729D01*
X111769D01*
Y94247D01*
G03X111044Y94480I-400J0D01*
G37*
G36*
G01X57160Y96723D02*
X55644D01*
Y100587D01*
X62756D01*
Y96723D01*
X61241D01*
G03X60870Y96173I0J-400D01*
G02X59714Y93775I-1670J-673D01*
G01X59571Y93732D01*
Y88207D01*
X56297D01*
Y89173D01*
G03X55644Y89483I-400J0D01*
G02Y92272I-1139J1394D01*
G03X56297Y92582I253J310D01*
G01Y93548D01*
X57641D01*
G03X57924Y94230I0J400D01*
G02X57531Y96173I1276J1270D01*
G03X57160Y96723I-371J150D01*
G37*
G36*
G01X34626Y84618D02*
Y83302D01*
G03X35341Y83056I400J0D01*
G02Y80840I1419J-1108D01*
G03X34626Y80593I-315J-246D01*
G01Y79277D01*
X31352D01*
Y84618D01*
X34626D01*
G37*
G36*
G01X145270Y159184D02*
Y155910D01*
X139929D01*
Y159184D01*
X141299D01*
Y160161D01*
G02X143900I1300J1245D01*
G01Y159184D01*
X145270D01*
G37*
G36*
G01X129455Y150398D02*
Y148706D01*
G02X126854I-1300J-1245D01*
G01Y150398D01*
X125484D01*
Y153672D01*
X130825D01*
Y150398D01*
X129455D01*
G37*
G36*
G01X138048D02*
X132707D01*
Y152725D01*
X129522Y155910D01*
X125484D01*
Y156200D01*
G03X124768Y156444I-400J0D01*
G02X122265Y156107I-1423J1103D01*
G01X122212Y156147D01*
X121711D01*
Y155910D01*
X116371D01*
Y159184D01*
X121711D01*
Y158947D01*
X122212D01*
X122265Y158987D01*
G02X124768Y158650I1080J-1440D01*
G03X125484Y158895I316J245D01*
G01Y159184D01*
X130825D01*
Y158568D01*
X132024Y157368D01*
G03X132707Y157651I283J283D01*
G01Y159184D01*
X133260D01*
G03X133645Y159693I0J400D01*
G02X137109I1732J491D01*
G03X137494Y159184I385J-109D01*
G01X138048D01*
Y155910D01*
X134448D01*
G03X134165Y155227I0J-400D01*
G01X135721Y153672D01*
X138048D01*
Y153435D01*
X139929D01*
Y153672D01*
X145270D01*
Y150398D01*
X139929D01*
Y150635D01*
X138048D01*
Y150398D01*
G37*
G36*
G01X126418Y57531D02*
Y51560D01*
X126423Y51538D01*
G02X123144Y52108I-1757J-392D01*
G01Y57531D01*
X126418D01*
G37*
G36*
G01X287642Y81469D02*
Y80944D01*
X284368D01*
Y86284D01*
X287642D01*
Y85759D01*
G03X288131Y85369I400J0D01*
G02Y81859I401J-1755D01*
G03X287642Y81469I-89J-390D01*
G37*
G36*
G01X282130Y86284D02*
Y80944D01*
X278856D01*
Y82098D01*
X278264D01*
X278207Y82048D01*
G02Y84748I-1191J1350D01*
G01X278264Y84698D01*
X278856D01*
Y86284D01*
X282130D01*
G37*
G36*
G01X321015Y65122D02*
X317151D01*
Y72384D01*
X317092D01*
Y79496D01*
X317880D01*
Y80180D01*
G03X317286Y80530I-400J0D01*
G02X317433Y83587I-873J1574D01*
G01X317485Y83552D01*
X317880D01*
Y85177D01*
X321154D01*
Y79836D01*
X320956D01*
Y72234D01*
X321015D01*
Y65122D01*
G37*
G36*
G01X326303Y59322D02*
Y58511D01*
X323029D01*
Y63852D01*
X326303D01*
Y63041D01*
G03X326917Y62703I400J0D01*
G02Y59660I962J-1522D01*
G03X326303Y59322I-214J-338D01*
G37*
G36*
G01X301029Y47899D02*
Y43164D01*
X297755D01*
Y48505D01*
X299799D01*
G03X300136Y49120I0J400D01*
G02X301470Y48297I1518J968D01*
G03X301029Y47899I-41J-398D01*
G37*
G36*
G01X346394Y92759D02*
G03X345908Y92509I-109J-385D01*
G01X338182D01*
Y96472D01*
X345908D01*
G03X346394Y96223I376J136D01*
G02Y92759I491J-1732D01*
G37*
G36*
G01X350194Y61560D02*
G02Y58784I1146J-1388D01*
G03X349539Y58476I-255J-308D01*
G01Y57502D01*
X346265D01*
Y62842D01*
X349539D01*
Y61868D01*
G03X350194Y61560I400J0D01*
G37*
G54D43*
X61054Y58526D03*
X120824Y73539D03*
X120758Y109449D03*
X153900Y51100D03*
X51274Y32536D03*
X57400Y33300D03*
X72187Y20119D03*
X83182Y11486D03*
X123317Y147004D03*
X144060Y147431D03*
X108378Y19424D03*
X123700Y17700D03*
X144628Y18924D03*
X170000Y34300D03*
X156200Y134500D03*
X189316Y130046D03*
X201700Y127100D03*
X236700Y11700D03*
X272058Y66767D03*
X249165Y98509D03*
X256200Y6900D03*
X280500Y12000D03*
X299500Y10800D03*
X319500Y9700D03*
X346900Y37900D03*
X382900Y9100D03*
G54D50*
X26858Y41150D03*
Y71150D03*
X36858Y41150D03*
X391430Y37218D03*
Y47218D03*
X401430Y37218D03*
G54D47*
X72800Y100044D03*
X140934Y122851D03*
X141400Y135044D03*
G54D46*
X86395Y72834D03*
X311211Y45835D03*
X287662Y39190D03*
X299392Y39190D03*
X323030D03*
X329337D03*
X323030Y45835D03*
X329337D03*
X361373Y65562D03*
X346668Y45835D03*
X352974Y39190D03*
X352974Y45835D03*
X364813Y39190D03*
Y45835D03*
G54D54*
X124169Y78841D03*
G54D52*
X83553Y90532D03*
%LPD*%
G75*
G54D10*
X17087Y11811D03*
Y208661D03*
X51299Y191127D03*
X236496D03*
X270098Y191166D03*
X455295D03*
X489528Y11811D03*
Y208661D03*
G54D11*
X7713Y42634D03*
Y50508D03*
Y58382D03*
Y76974D03*
Y84848D03*
Y92722D03*
Y111315D03*
Y127063D03*
Y119189D03*
X26858Y41150D03*
Y71150D03*
X36858Y41150D03*
Y71150D03*
X76858Y41150D03*
Y71150D03*
X162758Y154202D03*
X172758D03*
X182758D03*
X192758D03*
X202758D03*
X212758D03*
X336460Y146990D03*
Y156990D03*
X346460Y146990D03*
Y156990D03*
X356460Y146990D03*
Y156990D03*
X366460Y146990D03*
Y156990D03*
X376460Y146990D03*
Y156990D03*
X386460Y146990D03*
Y156990D03*
X391430Y37218D03*
Y47218D03*
X396460Y146990D03*
Y156990D03*
X401430Y37218D03*
Y47218D03*
X406460Y146990D03*
Y156990D03*
X416460Y146990D03*
Y156990D03*
X426460Y146990D03*
Y156990D03*
X436460Y146990D03*
Y156990D03*
X446460Y146990D03*
Y156990D03*
X456460Y146990D03*
Y156990D03*
X466460Y146990D03*
Y156990D03*
G54D20*
X107776Y58976D03*
X116831Y55236D03*
Y62717D03*
G54D30*
X423671Y111815D03*
Y116815D03*
Y121815D03*
Y126815D03*
X443356Y116815D03*
Y111815D03*
Y121815D03*
Y126815D03*
G54D21*
X124169Y78841D03*
X127909Y69786D03*
X131650Y78841D03*
G54D12*
G01X20590Y55370D02*
Y38132D01*
X31958Y26764D01*
G01X20590Y55370D02*
Y75215D01*
G01D02*
Y106732D01*
G01D02*
Y137220D01*
X26578Y143207D01*
X40914D01*
X55194Y128929D01*
X93316D01*
G01X64131Y1215D02*
X45982D01*
X40190Y7007D01*
Y18532D01*
X31958Y26764D01*
G01X51147Y107447D02*
X49372Y109221D01*
G01X44639Y133502D02*
Y113954D01*
X49372Y109221D01*
G01X109691Y1215D02*
X64131D01*
G01X93316Y128929D02*
X123794D01*
G01X177370Y1215D02*
X109691D01*
G01X177370D02*
X389305D01*
X390008Y1918D01*
X396318D01*
X400255Y5855D01*
Y12002D01*
X422300Y34047D01*
G01X253261Y52342D02*
X255555Y54635D01*
X263022D01*
G01D02*
X275066D01*
G01D02*
X284141D01*
G01D02*
X293353D01*
G01D02*
X298312D01*
G01D02*
X304447D01*
G01D02*
X311728D01*
G01D02*
X316638D01*
G01D02*
X323096D01*
G01D02*
X336561D01*
G01D02*
X346009D01*
G01D02*
X347831D01*
G01D02*
X362865D01*
G01D02*
X380720D01*
G01X384278D02*
X380720D01*
G01X422300Y34047D02*
X401712Y54635D01*
X384278D01*
G01X469469Y54037D02*
X488763D01*
X8428Y175547D03*
X23942Y81948D03*
X24640Y88063D03*
X24640Y94178D03*
X24641Y100293D03*
X24640Y106408D03*
X23481Y112524D03*
X24640Y118639D03*
X24640Y124754D03*
X24641Y130869D03*
X24640Y136984D03*
X31086Y45609D03*
X36760Y81948D03*
X35626Y88063D03*
X36368Y100293D03*
X36701Y94246D03*
X36397Y106457D03*
X35829Y112524D03*
X36485Y118639D03*
X37260Y124705D03*
X35927Y130869D03*
X36623Y137063D03*
X44639Y133502D03*
X51274Y32536D03*
X57400Y33300D03*
X54505Y90878D03*
X59200Y95500D03*
X57155Y145156D03*
X66300Y47900D03*
X61054Y58526D03*
X66194Y73123D03*
X66200Y96900D03*
X65315Y111289D03*
X62515D03*
X59715D03*
Y137389D03*
X72187Y20119D03*
X72853Y45472D03*
X72804Y58408D03*
X69085Y86676D03*
X73715Y111289D03*
X70915D03*
X68115D03*
X72000Y206200D03*
X83182Y11486D03*
X78784Y81773D03*
X79315Y111289D03*
X76515D03*
X82746Y136735D03*
X85133Y34232D03*
X90900Y170800D03*
X99049Y57800D03*
X97294Y72843D03*
X97882Y68241D03*
X100108Y95532D03*
X100285Y112818D03*
X96461Y113014D03*
X95618Y137729D03*
X100285Y148595D03*
X97726Y145902D03*
X97274Y157549D03*
X98882Y154546D03*
X99600Y179400D03*
X94874Y183946D03*
X108378Y19424D03*
X104223Y33555D03*
X103085Y112818D03*
X105885D03*
X107055Y154879D03*
X108400Y178400D03*
X113556Y62716D03*
X109583Y95532D03*
X123700Y17700D03*
X119137Y41456D03*
X120707Y57987D03*
X124666Y51146D03*
X121275Y65660D03*
X120824Y73539D03*
X120758Y109449D03*
X123317Y147004D03*
X123345Y157547D03*
X127500Y40011D03*
X130293Y50585D03*
X128155Y136612D03*
Y147461D03*
X139895Y73928D03*
X136590Y128363D03*
X135377Y160184D03*
X144628Y18924D03*
X144854Y71040D03*
X146677Y68453D03*
X144555Y82845D03*
X146535Y80865D03*
X148646Y78528D03*
X145952Y89548D03*
Y86748D03*
Y97948D03*
Y100748D03*
X144952Y128360D03*
X145648Y140767D03*
X144060Y147431D03*
X142600Y161406D03*
X153900Y51100D03*
X153025Y63041D03*
X152508Y77704D03*
X152527Y87308D03*
X151439Y115359D03*
Y112559D03*
X151910Y109074D03*
X151439Y118159D03*
X156200Y134500D03*
X152998Y175861D03*
X164797Y7801D03*
X162700Y90600D03*
X164600Y111500D03*
X170000Y34300D03*
X170350Y45550D03*
X170525Y60244D03*
X173254Y99245D03*
X168452Y96174D03*
X168700Y131000D03*
X175200Y44600D03*
X175295Y62548D03*
X175246Y59500D03*
X179400D03*
X176500Y81700D03*
X179379Y104880D03*
X179325Y101376D03*
X179900Y128800D03*
X176800Y131400D03*
X186943Y58271D03*
X184500Y96300D03*
X186000Y114500D03*
X184450Y119550D03*
X186800Y117200D03*
X189316Y130046D03*
X187464Y166933D03*
X187238Y169960D03*
Y172760D03*
X186300Y175900D03*
X195200Y28700D03*
X198700Y32900D03*
X192800Y111300D03*
X192963Y132700D03*
X193168Y147500D03*
X197011Y164660D03*
X193099Y164326D03*
X191335Y167217D03*
X205100Y37400D03*
X206742Y58320D03*
X206045Y65406D03*
X204400Y74284D03*
X201700Y127100D03*
X203830Y222303D03*
X215394Y38152D03*
X214468Y61882D03*
X212700Y78800D03*
X213100Y95600D03*
X209100Y131900D03*
X209500Y208600D03*
X218393Y58202D03*
X219800Y86663D03*
X220600Y145900D03*
X223386Y157883D03*
X217800Y158800D03*
X229955Y41822D03*
X224128Y43559D03*
X226900Y101700D03*
X228262Y115349D03*
X226400Y117649D03*
X236700Y11700D03*
X239012Y38152D03*
X232300Y72200D03*
X236248Y92149D03*
X233671Y88376D03*
X235484Y107183D03*
X235813Y112539D03*
X232333Y124433D03*
X236300Y117900D03*
X248100Y110239D03*
X256200Y6900D03*
X249910Y38152D03*
X255094Y57977D03*
X255427Y75146D03*
X250666Y92569D03*
X249165Y98509D03*
X252300Y116600D03*
X255427Y123100D03*
X261317Y38152D03*
X262767Y44257D03*
X263404Y59241D03*
X259720Y58143D03*
X259220Y75656D03*
X262885Y75999D03*
X259911Y100553D03*
X264500Y144700D03*
X272058Y66767D03*
X280500Y12000D03*
X277203Y61182D03*
X277544Y76242D03*
X277016Y83398D03*
X278986Y98627D03*
X277900Y126000D03*
X278100Y147900D03*
X282103Y49715D03*
X285818Y57859D03*
X289360Y68712D03*
X288532Y83614D03*
X288896Y76242D03*
X283900Y206900D03*
X290844Y46186D03*
X297440Y61182D03*
X297224Y74686D03*
X297538Y67934D03*
X297215Y81438D03*
X299500Y10800D03*
X301654Y50088D03*
X305517Y57759D03*
X302907Y104741D03*
X298800Y149400D03*
X308465Y67934D03*
X310297Y143858D03*
X312500Y155200D03*
X319500Y9700D03*
X317481Y50764D03*
X316518Y60946D03*
X316413Y82104D03*
X316404Y104741D03*
X327879Y61182D03*
X325029Y86338D03*
X322922Y143759D03*
X334768Y51087D03*
X338786Y66983D03*
X339060Y60172D03*
X338678Y74265D03*
X336728Y101989D03*
X332700Y224100D03*
X346900Y37900D03*
X341863Y83378D03*
X346884Y94491D03*
X340971Y112896D03*
X351340Y60172D03*
X350418Y67218D03*
X350958Y74265D03*
X350722Y83957D03*
Y92306D03*
X358415Y50362D03*
X358484Y79752D03*
X355800Y124900D03*
X359850Y125050D03*
X361100Y131700D03*
X363578Y133916D03*
X371238Y65562D03*
X366885Y69615D03*
X367660Y89491D03*
X367989Y99491D03*
X367940Y94491D03*
X368130Y104491D03*
X364747Y124800D03*
X368500Y131400D03*
X365500Y136100D03*
X371600Y151800D03*
X373694Y46442D03*
X376028Y118272D03*
X372900Y127100D03*
X380000Y127000D03*
X382900Y9100D03*
X400900Y64800D03*
X408263Y100112D03*
X409917Y106917D03*
X419014Y49975D03*
X418670Y61225D03*
X418999Y94227D03*
X419234Y98078D03*
X428405Y30295D03*
X434407Y66858D03*
X429740Y67032D03*
X433154Y99121D03*
X432817Y94187D03*
X453000Y135600D03*
X448544Y174000D03*
X462913Y72990D03*
X473064Y60634D03*
X488763Y54037D03*
X492700Y168200D03*
X504400Y27400D03*
G54D40*
G01X433300Y24469D02*
X417471Y8640D01*
G01X426718Y-608D02*
X417471Y8640D01*
G01X477109Y-608D02*
X426718D01*
G01X482277Y93587D02*
X494600Y81264D01*
Y52000D01*
X467069Y24469D01*
X433300D01*
G01D02*
Y37000D01*
X436200Y39900D01*
G01D02*
X442199D01*
X442214Y39916D01*
G01X466037Y109827D02*
X482277Y93587D01*
G01X489528Y11811D02*
X477109Y-608D01*
G54D31*
X433514Y119315D03*
G54D13*
X32989Y81948D03*
X27477D03*
X27477Y88063D03*
X32989D03*
X32989Y94178D03*
X27477D03*
X27477Y100293D03*
X32989D03*
X32989Y106408D03*
X27477D03*
X32989Y112524D03*
X27477D03*
X32989Y124754D03*
X27477D03*
X27477Y118639D03*
X32989D03*
X27477Y130869D03*
X32989D03*
X32989Y136984D03*
X27477D03*
X57934Y81773D03*
Y90878D03*
X63446Y81773D03*
Y90878D03*
X69085Y81773D03*
X74597D03*
Y90878D03*
X69085D03*
X91906Y52753D03*
X86395D03*
Y59447D03*
X91906D03*
Y66140D03*
X86395D03*
X91906Y72834D03*
X86395D03*
Y79527D03*
X91906D03*
X115364Y69547D03*
X109852D03*
X113406Y87972D03*
Y94399D03*
X124781Y54861D03*
Y61701D03*
X118917Y87972D03*
Y94399D03*
X130293Y54861D03*
Y61701D03*
X218616Y38152D03*
X229955D03*
X224128D03*
X235467D03*
X246805D03*
X241293D03*
X252632D03*
X258144D03*
X263971D03*
X262068Y91832D03*
X262501Y119273D03*
X269483Y38152D03*
X267580Y91832D03*
X268013Y119273D03*
X280306Y61182D03*
Y68712D03*
Y76242D03*
X280493Y83614D03*
X287662Y39190D03*
X282150D03*
X282061Y45835D03*
X287573D03*
X285818Y61182D03*
Y68712D03*
Y76242D03*
X286005Y83614D03*
X287644Y134900D03*
X293880Y39190D03*
X293880Y45835D03*
X292656Y122225D03*
X292882Y128416D03*
X293156Y134900D03*
X299392Y39190D03*
X299392Y45835D03*
X305699D03*
X300005Y61182D03*
X305517D03*
X300005Y67934D03*
X305517D03*
Y74686D03*
X300005D03*
Y81438D03*
X305517D03*
X298168Y122225D03*
X298394Y128416D03*
X301926Y134507D03*
X302084Y143858D03*
X311211Y45835D03*
X306477Y98215D03*
X311989D03*
X311910Y104741D03*
X306398D03*
X307438Y134507D03*
X313934Y134556D03*
X307595Y143858D03*
X314032Y143759D03*
X317518Y39190D03*
X317518Y45835D03*
X319154Y61182D03*
X319517Y82506D03*
X320047Y98186D03*
X320021Y104741D03*
X319446Y134556D03*
X319544Y143759D03*
X323030Y39190D03*
X329337D03*
X323030Y45835D03*
X329337D03*
X324666Y61182D03*
X325029Y82506D03*
X325558Y98186D03*
X325533Y104741D03*
X334848Y39190D03*
Y45835D03*
X336422Y79742D03*
X335460Y116918D03*
X335568Y123129D03*
X346668Y45835D03*
X341156D03*
X342390Y60172D03*
Y67218D03*
Y74265D03*
X341934Y79742D03*
X340971Y116918D03*
X341080Y123129D03*
X352974Y39190D03*
X352974Y45835D03*
X347902Y60172D03*
Y67218D03*
Y74265D03*
X348897Y79742D03*
X354409D03*
X358486Y39190D03*
X358486Y45835D03*
X361373Y65562D03*
Y72657D03*
Y79752D03*
X364813Y39190D03*
X370324D03*
Y45835D03*
X364813D03*
X366885Y65562D03*
Y72657D03*
Y79752D03*
X376612Y45835D03*
X382124D03*
X422893Y38892D03*
X428405D03*
X426919Y71353D03*
X421407D03*
X429344Y169100D03*
X436063Y60339D03*
X436456Y132473D03*
X430944D03*
X434856Y169100D03*
X441574Y60339D03*
X449114D03*
X454056Y169100D03*
X448544D03*
X454626Y60339D03*
X454183Y71353D03*
X459695D03*
X465994D03*
X467744Y169100D03*
X471506Y71353D03*
X473256Y169100D03*
G54D22*
X157726Y61073D03*
Y63041D03*
Y65010D03*
Y66978D03*
Y68947D03*
Y70915D03*
Y72884D03*
Y74852D03*
Y76821D03*
Y78789D03*
Y80758D03*
Y82726D03*
Y84695D03*
Y86663D03*
Y88632D03*
Y90600D03*
Y92569D03*
Y94537D03*
Y96506D03*
Y98474D03*
Y100443D03*
Y102412D03*
Y104380D03*
Y106348D03*
Y108317D03*
Y110286D03*
Y112254D03*
Y114222D03*
Y116191D03*
Y118160D03*
Y120128D03*
Y122096D03*
Y124065D03*
Y126034D03*
Y128002D03*
Y129970D03*
X241978Y66978D03*
Y65010D03*
Y63041D03*
Y61073D03*
Y74852D03*
Y72884D03*
Y70915D03*
Y68947D03*
Y82726D03*
Y80758D03*
Y78789D03*
Y76821D03*
Y90600D03*
Y88632D03*
Y86663D03*
Y84695D03*
Y98474D03*
Y96506D03*
Y94537D03*
Y92569D03*
Y106348D03*
Y104380D03*
Y102412D03*
Y100443D03*
Y116191D03*
Y114222D03*
Y112254D03*
Y110286D03*
Y108317D03*
Y124065D03*
Y122096D03*
Y120128D03*
Y118160D03*
Y129970D03*
Y128002D03*
Y126034D03*
G54D32*
X434407Y71632D03*
X447793D03*
G54D14*
X49124Y8640D03*
X69124D03*
X93061D03*
X113061D03*
X136999D03*
X156999D03*
X180935D03*
X200935D03*
X225659D03*
X245659D03*
X265659D03*
X289597D03*
X309596D03*
X329596D03*
X353534D03*
X373534D03*
X393534D03*
X417471D03*
X437470D03*
X457470D03*
G54D23*
X165404Y53396D03*
Y137648D03*
X173278Y53396D03*
X171309D03*
X169341D03*
X167372D03*
Y137648D03*
X169341D03*
X171309D03*
X173278D03*
X181152Y53396D03*
X179183D03*
X177215D03*
X175246D03*
Y137648D03*
X177215D03*
X179183D03*
X181152D03*
X189026Y53396D03*
X187057D03*
X185089D03*
X183120D03*
Y137648D03*
X185089D03*
X187057D03*
X189026D03*
X196900Y53396D03*
X194931D03*
X192963D03*
X190994D03*
Y137648D03*
X192963D03*
X194931D03*
X196900D03*
X206742Y53396D03*
X204774D03*
X202805D03*
X200837D03*
X198868D03*
Y137648D03*
X200837D03*
X202805D03*
X204774D03*
X206742D03*
X214616Y53396D03*
X212648D03*
X210679D03*
X208711D03*
Y137648D03*
X210679D03*
X212648D03*
X214616D03*
X222490Y53396D03*
X220522D03*
X218553D03*
X216585D03*
Y137648D03*
X218553D03*
X220522D03*
X222490D03*
X230364Y53396D03*
X228396D03*
X226427D03*
X224459D03*
Y137648D03*
X226427D03*
X228396D03*
X230364D03*
X234301Y53396D03*
X232333D03*
Y137648D03*
X234301D03*
G54D33*
X437838Y85863D03*
Y99248D03*
G54D24*
X264597Y100553D03*
Y110395D03*
X272471Y100553D03*
Y110395D03*
G54D15*
X51260Y152037D03*
Y157549D03*
X57234Y152037D03*
Y157549D03*
X66200Y100044D03*
Y105556D03*
X63209Y152037D03*
Y157549D03*
X72800Y100044D03*
Y105556D03*
X69183Y152037D03*
Y157549D03*
X75158Y152037D03*
Y157549D03*
X81132Y152037D03*
Y157549D03*
X88180Y36121D03*
Y41633D03*
X91326Y117343D03*
Y122855D03*
X91092Y140965D03*
Y135453D03*
X87106Y152037D03*
Y157549D03*
X96648Y36170D03*
Y41682D03*
X93081Y152037D03*
Y157549D03*
X106212Y35944D03*
Y41456D03*
X103419Y157547D03*
Y152035D03*
X114611Y35778D03*
Y41289D03*
X111230Y157547D03*
Y152035D03*
X123304Y41456D03*
Y35944D03*
X119041Y157547D03*
Y152035D03*
X131849Y35944D03*
Y41456D03*
X132835Y122851D03*
Y128363D03*
X132619Y140556D03*
Y135044D03*
X128155Y152035D03*
Y157547D03*
X140934Y122851D03*
Y128363D03*
X141400Y140556D03*
Y135044D03*
X135377Y157547D03*
Y152035D03*
X142600D03*
Y157547D03*
X255109Y102639D03*
Y108151D03*
X263460Y162318D03*
Y167830D03*
X284334Y167845D03*
Y173357D03*
X297100Y106744D03*
Y112256D03*
X292321Y155066D03*
Y160578D03*
Y167845D03*
Y173357D03*
X354300Y114544D03*
Y120056D03*
X360500Y114544D03*
Y120056D03*
X414025Y106917D03*
Y116445D03*
Y112429D03*
Y121956D03*
X422726Y88715D03*
X429015Y88676D03*
X422726Y94227D03*
Y97937D03*
X428897Y97888D03*
X429015Y94187D03*
X422726Y103449D03*
X428897Y103400D03*
X453907Y111559D03*
Y117071D03*
G54D16*
X59200Y98655D03*
Y105545D03*
X284765Y155063D03*
Y161953D03*
X367755Y113126D03*
Y120016D03*
G54D34*
X465078Y109827D03*
Y129118D03*
G54D25*
X270274Y158321D03*
Y167770D03*
X277754Y158321D03*
X274014Y167770D03*
X277754D03*
G54D35*
G01X17087Y-7874D02*
X489528D01*
G03X509213Y11811I0J19685D01*
G01Y208661D01*
G03X489528Y228346I-19685J0D01*
G01X17087D01*
G03X-2598Y208661I0J-19685D01*
G01Y11811D01*
G03X17087Y-7874I19685J0D01*
G54D26*
X287655Y143200D03*
X294545D03*
X319083Y68678D03*
X319024Y75940D03*
X325972Y68678D03*
X325914Y75940D03*
X422322Y49975D03*
X429212D03*
X422322Y61225D03*
X429212D03*
X461476Y60634D03*
X468366D03*
G54D17*
X57155Y118533D03*
Y141073D03*
X64833Y118533D03*
X62274D03*
X59715D03*
Y141073D03*
X62274D03*
X64833D03*
X75069Y118533D03*
X72510D03*
X69951D03*
X67392D03*
Y141073D03*
X69951D03*
X72510D03*
X75069D03*
X82746Y118533D03*
X80187D03*
X77628D03*
Y141073D03*
X80187D03*
X82746D03*
X85305Y118533D03*
Y141073D03*
X97726Y118533D03*
Y141073D03*
X107963Y118533D03*
X105404D03*
X102844D03*
X100286D03*
Y141073D03*
X102844D03*
X105404D03*
X107963D03*
X115640Y118533D03*
X113081D03*
X110522D03*
Y141073D03*
X113081D03*
X115640D03*
X123317Y118533D03*
X120758D03*
X118199D03*
Y141073D03*
X120758D03*
X123317D03*
X125876Y118533D03*
Y141073D03*
G54D36*
G01X7228Y11811D02*
X17087D01*
G01X8428Y173547D02*
Y175547D01*
G01D02*
Y177548D01*
G01X6428Y175547D02*
X8428D01*
G01D02*
X10428D01*
G01X7228Y208661D02*
X17087D01*
G01Y1952D02*
Y11811D01*
G01D02*
Y21670D01*
G01Y11811D02*
X26945D01*
G01X17087Y198803D02*
Y208661D01*
G01D02*
Y218520D01*
G01Y208661D02*
X26945D01*
G01X20590Y75215D02*
X20744D01*
X27477Y81948D01*
G01D02*
X23942D01*
G01X27477Y88063D02*
X24640D01*
G01Y86063D02*
Y88063D01*
G01D02*
Y90063D01*
G01X27477Y94178D02*
X24640D01*
G01X24641Y98293D02*
Y100293D01*
G01X24640Y92178D02*
Y94178D01*
G01D02*
Y96178D01*
G01X20590Y106732D02*
X21266D01*
X27058Y112524D01*
G01X27477Y106408D02*
X24640D01*
G01X27477Y100293D02*
X24641D01*
G01D02*
Y102294D01*
G01X27058Y112524D02*
X23481D01*
G01X27477Y118639D02*
X24640D01*
G01X24640Y122754D02*
Y124754D01*
G01X24640Y116639D02*
Y118639D01*
G01D02*
Y120639D01*
G01X27477Y130869D02*
X24641D01*
G01X27477Y124754D02*
X24640D01*
G01X24641Y128869D02*
Y130869D01*
G01D02*
Y132869D01*
G01X24640Y124754D02*
Y126754D01*
G01X27477Y136984D02*
X24640D01*
G01X86395Y52753D02*
Y51291D01*
X83878Y48774D01*
G01X31086Y45609D02*
X33379Y47902D01*
X61691D01*
X66542Y52753D01*
X86395D01*
G01X32989Y81948D02*
X36760D01*
G01X32989Y79077D02*
Y81948D01*
G01D02*
Y84818D01*
G01X31152Y81948D02*
X32989D01*
G01X32989Y88063D02*
Y94178D01*
G01X35626Y88063D02*
X32989D01*
G01X27477Y91308D02*
Y94178D01*
G01X27477Y85192D02*
Y88063D01*
G01D02*
Y90933D01*
G01Y88063D02*
X29314D01*
G01X36701Y94246D02*
X33057D01*
X32989Y94178D01*
G01X27477Y97423D02*
Y100293D01*
G01X27477Y94178D02*
Y97048D01*
G01Y94178D02*
X29314D01*
G01X32989Y106408D02*
Y100293D01*
G01X36397Y106457D02*
X33038D01*
X32989Y106408D01*
G01X32989Y100293D02*
X36368D01*
G01X27477Y103538D02*
Y106408D01*
G01D02*
Y109279D01*
G01Y106408D02*
X29314D01*
G01X27477Y100293D02*
Y103164D01*
G01Y100293D02*
X29314D01*
G01X27477Y112524D02*
X27058D01*
G01X32989D02*
X35829D01*
G01X27477Y115769D02*
Y118639D01*
G01X32989Y109653D02*
Y112524D01*
G01D02*
Y115394D01*
G01X31152Y112524D02*
X32989D01*
G01Y124754D02*
Y118639D01*
G01X37260Y124705D02*
X33038D01*
X32989Y124754D01*
G01X32989Y118639D02*
X36485D01*
G01X27477D02*
Y121509D01*
G01Y118639D02*
X29314D01*
G01X27477Y121884D02*
Y124754D01*
G01X32989Y136984D02*
Y130869D01*
G01X32989Y130869D02*
X35927D01*
G01X27477Y127999D02*
Y130869D01*
G01D02*
Y133740D01*
G01Y130869D02*
X29314D01*
G01X27477Y124754D02*
Y127624D01*
G01Y124754D02*
X29314D01*
G01X36623Y137063D02*
X33067D01*
X32989Y136984D01*
G01X27477Y134114D02*
Y136984D01*
G01D02*
Y139855D01*
G01Y136984D02*
X29314D01*
G01X36760Y79947D02*
Y81948D01*
G01D02*
Y83948D01*
G01Y81948D02*
X38760D01*
G01X35829Y110523D02*
Y112524D01*
G01D02*
Y114524D01*
G01Y112524D02*
X37829D01*
G01X41441Y191127D02*
X51299D01*
G01X49124Y8640D02*
Y16514D01*
X66420Y33810D01*
X79958D01*
X87781Y41633D01*
X88180D01*
G01X49273Y32536D02*
X51274D01*
G01X57400Y31300D02*
Y33300D01*
G01D02*
Y35300D01*
G01X55400Y33300D02*
X57400D01*
G01D02*
X59400D01*
G01X51274Y30536D02*
Y32536D01*
G01D02*
Y34536D01*
G01Y32536D02*
X53274D01*
G01X57934Y90878D02*
X54505D01*
G01Y88877D02*
Y90878D01*
G01D02*
Y92878D01*
G01X52505Y90878D02*
X54505D01*
G01X57934Y88007D02*
Y90878D01*
G01D02*
Y93748D01*
G01Y90878D02*
X59771D01*
G01X55444Y98655D02*
X59200D01*
G01X57200Y95500D02*
X59200D01*
G01X57155Y114974D02*
Y118533D01*
G01X55368D02*
X57155D01*
G01X57714Y137389D02*
X59715D01*
G01X57155Y137514D02*
Y141073D01*
G01X55368D02*
X57155D01*
G01X51299Y181269D02*
Y191127D01*
G01D02*
Y200986D01*
G01Y191127D02*
X61158D01*
G01X64131Y1215D02*
X59368Y5978D01*
Y18463D01*
X70541Y29635D01*
X87024D01*
X92443Y35055D01*
Y38779D01*
X95346Y41682D01*
X96648D01*
G01X66300Y47900D02*
Y49900D01*
G01X64300Y47900D02*
X66300D01*
G01D02*
X68300D01*
G01X61054Y56525D02*
Y58526D01*
G01D02*
Y60526D01*
G01X59054Y58526D02*
X61054D01*
G01D02*
X63054D01*
G01X91906Y79527D02*
X88496Y82937D01*
X84074D01*
X76539Y75402D01*
X68474D01*
X66194Y73123D01*
G01X59200Y98655D02*
Y95500D01*
G01X66200Y100044D02*
Y96900D01*
G01Y94900D02*
Y96900D01*
G01X64200D02*
X66200D01*
G01D02*
X68200D01*
G01X59200Y98655D02*
Y100787D01*
G01Y98655D02*
X62956D01*
G01X59200Y95500D02*
X61200D01*
G01X66200Y100044D02*
Y101881D01*
G01X63330Y100044D02*
X66200D01*
G01D02*
X69070D01*
G01X64833Y118533D02*
Y114071D01*
X65315Y113589D01*
Y111289D01*
G01X62274Y118533D02*
Y113830D01*
X62515Y113589D01*
Y111289D01*
G01X59715Y118533D02*
Y111289D01*
G01Y135389D02*
Y137389D01*
G01X69124Y8640D02*
X70595D01*
X96648Y34692D01*
Y36170D01*
G01X72187Y18119D02*
Y20119D01*
G01D02*
Y22120D01*
G01X70187Y20119D02*
X72187D01*
G01D02*
X74187D01*
G01X72853Y45472D02*
X88102D01*
X92081Y49451D01*
X98250D01*
X107776Y58976D01*
G01X91906Y59447D02*
X88565Y62789D01*
X82428D01*
X78047Y58408D01*
X72804D01*
G01X74597Y78903D02*
Y81773D01*
G01X72760D02*
X74597D01*
G01X67085Y86676D02*
X69085D01*
G01D02*
X71086D01*
G01X69085Y90878D02*
Y93748D01*
G01X67249Y90878D02*
X69085D01*
G01D02*
X70922D01*
G01X72800Y98207D02*
Y100044D01*
G01D02*
Y101881D01*
G01X69930Y100044D02*
X72800D01*
G01D02*
X75670D01*
G01X75069Y118533D02*
Y115035D01*
X76515Y113589D01*
Y111289D01*
G01X72510Y118533D02*
Y114794D01*
X73715Y113589D01*
Y111289D01*
G01X69951Y118533D02*
Y114553D01*
X70915Y113589D01*
Y111289D01*
G01X67392Y118533D02*
Y114312D01*
X68115Y113589D01*
Y111289D01*
G01X72000Y204200D02*
Y206200D01*
G01D02*
Y208200D01*
G01X70000Y206200D02*
X72000D01*
G01D02*
X74000D01*
G01X83182Y9485D02*
Y11486D01*
G01D02*
Y13486D01*
G01X81182Y11486D02*
X83182D01*
G01D02*
X85183D01*
G01X83133Y34232D02*
X85133D01*
G01X79502Y90532D02*
X83553D01*
G01X77628Y118533D02*
X77628Y118534D01*
Y115276D01*
X79315Y113589D01*
Y111289D01*
G01X82746Y134734D02*
Y136735D01*
G01X80746D02*
X82746D01*
G01D02*
X84746D01*
G01X79374Y196127D02*
X83917D01*
G01X88180Y36121D02*
X87022D01*
X85133Y34232D01*
G01Y32231D02*
Y34232D01*
G01X179183Y53396D02*
Y43502D01*
X176292Y40611D01*
X150116D01*
X143256Y47471D01*
X94019D01*
X88180Y41633D01*
G01Y34284D02*
Y36121D01*
G01D02*
Y37958D01*
G01X85133Y34232D02*
X87133D01*
G01X86395Y52753D02*
X89678Y56036D01*
X97285D01*
X99049Y57800D01*
G01X86395Y56576D02*
Y59447D01*
G01X90070Y52753D02*
X91906D01*
G01X86395Y66140D02*
Y69011D01*
G01X84558Y66140D02*
X86395D01*
G01D02*
X88232D01*
G01X84558Y59447D02*
X86395D01*
G01D02*
X88232D01*
G01X86395Y79527D02*
Y72834D01*
G01Y69963D02*
Y72834D01*
G01X84558D02*
X86395D01*
G01D02*
X88232D01*
G01X84558Y79527D02*
X86395D01*
G01D02*
X88232D01*
G01X83553Y88350D02*
Y90532D01*
G01D02*
Y92713D01*
G01Y90532D02*
X87605D01*
G01X83553Y100532D02*
X91921D01*
G02X94237Y98216I0J-2316D01*
G01Y89984D01*
G03X96716Y87504I2479J0D01*
G01X112937D01*
X113406Y87972D01*
G01X91326Y121018D02*
Y122855D01*
G01D02*
Y124692D01*
G01X88456Y122855D02*
X91326D01*
G01D02*
X94196D01*
G01X91092Y133616D02*
Y135453D01*
G01D02*
Y137290D01*
G01X88222Y135453D02*
X91092D01*
G01D02*
X93963D01*
G01X90900Y170800D02*
Y172800D01*
G01X88900Y170800D02*
X90900D01*
G01D02*
X92900D01*
G01X90279Y196127D02*
X94823D01*
G01X83917Y191584D02*
Y196127D01*
G01D02*
Y200671D01*
G01Y196127D02*
X88461D01*
G01X93061Y8640D02*
Y27450D01*
X106212Y40601D01*
G01X91906Y52753D02*
X93743D01*
G01X91906Y66140D02*
Y59447D01*
G01X97882Y68241D02*
X94007D01*
X91906Y66140D01*
G01Y79527D02*
Y72834D01*
G01X97294Y72843D02*
X91916D01*
X91906Y72834D01*
G01X98108Y95532D02*
X100108D01*
G01X96461Y111014D02*
Y113014D01*
G01D02*
Y115014D01*
G01X94461Y113014D02*
X96461D01*
G01X97726Y145902D02*
Y147902D01*
G01X95726Y145902D02*
X97726D01*
G01X98285Y148595D02*
X100285D01*
G01X99600Y177400D02*
Y179400D01*
G01X97600D02*
X99600D01*
G01D02*
X101600D01*
G01X94823Y191584D02*
Y196127D01*
G01D02*
Y200671D01*
G01Y196127D02*
X99366D01*
G01X109691Y1215D02*
X103449Y7458D01*
Y23481D01*
X110162Y30194D01*
Y37201D01*
X114250Y41289D01*
X114611D01*
G01X106378Y19424D02*
X108378D01*
G01X106212Y35944D02*
Y35544D01*
X104223Y33555D01*
G01Y31555D02*
Y33555D01*
G01X102223D02*
X104223D01*
G01D02*
X106223D01*
G01X181152Y53396D02*
Y42668D01*
X177295Y38811D01*
X148546D01*
X142580Y44776D01*
X110387D01*
X106212Y40601D01*
G01D02*
Y41456D01*
G01X104813Y93350D02*
Y95532D01*
G01D02*
Y97713D01*
G01X100108Y93531D02*
Y95532D01*
G01D02*
Y97532D01*
G01X100286Y118533D02*
X100285Y118534D01*
Y112818D01*
G01X102844Y118533D02*
Y115359D01*
X103085Y115118D01*
Y112818D01*
G01X105404Y118533D02*
X105404Y118534D01*
Y115600D01*
X105885Y115118D01*
Y112818D01*
G01X100285Y148595D02*
Y150596D01*
G01X106400Y178400D02*
X108400D01*
G01X113061Y8640D02*
Y34228D01*
X114611Y35778D01*
G01X108378Y17423D02*
Y19424D01*
G01D02*
Y21424D01*
G01Y19424D02*
X110378D01*
G01X109852Y69547D02*
Y62215D01*
X116831Y55236D01*
G01Y62717D02*
Y62716D01*
X113556D01*
G01X115364Y69547D02*
X117388D01*
X121275Y65660D01*
G01X109583Y93531D02*
Y95532D01*
G01D02*
Y97532D01*
G01X108400Y176400D02*
Y178400D01*
G01D02*
Y180400D01*
G01Y178400D02*
X110400D01*
G01X123700Y15700D02*
Y17700D01*
G01D02*
Y19700D01*
G01X121700Y17700D02*
X123700D01*
G01D02*
X125700D01*
G01X136999Y8640D02*
Y16514D01*
X123304Y30209D01*
Y35944D01*
G01X127500Y40011D02*
Y37879D01*
X125565Y35944D01*
X123304D01*
G01Y41456D02*
X119137Y41456D01*
G01X124781Y54861D02*
X124782D01*
Y51262D01*
X124666Y51146D01*
G01X122666D02*
X124666D01*
G01X122944Y54861D02*
X124781D01*
G01X116831Y62717D02*
Y64898D01*
G01Y62717D02*
X119799D01*
G01X124169Y78841D02*
X124169Y76884D01*
X120824Y73539D01*
G01Y71539D02*
Y73539D01*
G01D02*
Y75540D01*
G01X118824Y73539D02*
X120824D01*
G01D02*
X122824D01*
G01X124169Y75872D02*
Y78841D01*
G01D02*
Y81810D01*
G01X121988Y78841D02*
X124169D01*
G01D02*
X126351D01*
G01X157726Y74852D02*
X149316D01*
G02X145780Y76317I0J5000D01*
G01X135589Y86508D01*
G03X132054Y87972I-3536J-3536D01*
G01X118917D01*
G01X120758Y107449D02*
Y109449D01*
G01X118758D02*
X120758D01*
G01D02*
X122758D01*
G01X141400Y140556D02*
X141344Y140500D01*
X137800D01*
X136534Y139234D01*
Y132996D01*
X134231Y130693D01*
X125558D01*
X123794Y128929D01*
G01X123317Y147004D02*
Y149004D01*
G01X121317Y147004D02*
X123317D01*
G01D02*
X125317D01*
G01X131849Y41456D02*
X137130D01*
X177370Y1215D01*
G01X131849Y35944D02*
X137568D01*
X156999Y16514D01*
Y8640D01*
G01X130293Y61701D02*
Y54861D01*
G01D02*
Y50585D01*
G01X124666Y51146D02*
X126666D01*
G01X124781Y54861D02*
Y57731D01*
G01X127909Y69786D02*
Y64084D01*
X130293Y61701D01*
G01X131650Y78841D02*
X134982Y78841D01*
X139895Y73928D01*
G01X132835Y126526D02*
Y128363D01*
G01X129964D02*
X132835D01*
G01X132619Y133207D02*
Y135044D01*
G01D02*
Y136881D01*
G01X128155Y152035D02*
Y147461D01*
G01X140934Y121014D02*
Y122851D01*
G01D02*
Y124688D01*
G01X138064Y122851D02*
X140934D01*
G01D02*
X143804D01*
G01X136590Y126362D02*
Y128363D01*
G01D02*
Y130363D01*
G01X144952Y128360D02*
X140936D01*
X140934Y128363D01*
G01X138530Y135044D02*
X141400D01*
G01X135377Y155710D02*
Y157547D01*
G01D02*
Y160184D01*
G01D02*
Y162184D01*
G01X133377Y160184D02*
X135377D01*
G01D02*
X137377D01*
G01X135377Y157547D02*
X138248D01*
G01X144628Y16923D02*
Y18924D01*
G01D02*
Y20924D01*
G01X142628Y18924D02*
X144628D01*
G01D02*
X146628D01*
G01X144854Y71040D02*
X144979Y70915D01*
X157726D01*
G01Y68947D02*
X147170D01*
X146677Y68453D01*
G01X157726Y84695D02*
X147189D01*
X146965Y84471D01*
X144555Y82845D01*
G01X146535Y80865D02*
X148396Y82726D01*
X157726D01*
G01Y80758D02*
X150877D01*
X148646Y78528D01*
G01X157726Y94537D02*
X153240D01*
X148252Y89548D01*
X145952D01*
G01Y86748D02*
X148006D01*
X153826Y92569D01*
X157726D01*
G01Y100443D02*
X150746Y100443D01*
X148252Y97948D01*
X145952D01*
G01X157726Y102412D02*
Y102411D01*
X149915D01*
X148252Y100748D01*
X145952D01*
G01X141400Y140556D02*
X145436D01*
X145648Y140767D01*
G01X141400Y133207D02*
Y135044D01*
G01D02*
Y136881D01*
G01Y135044D02*
X144270D01*
G01X144060Y145431D02*
Y147431D01*
G01D02*
Y149431D01*
G01X142060Y147431D02*
X144060D01*
G01D02*
X146060D01*
G01X142600Y157547D02*
Y161406D01*
G01X153900Y49100D02*
Y51100D01*
G01D02*
Y53100D01*
G01X151900Y51100D02*
X153900D01*
G01D02*
X155900D01*
G01X157726Y63041D02*
X153025Y63041D01*
G01Y61041D02*
Y63041D01*
G01D02*
Y65042D01*
G01X151025Y63041D02*
X153025D01*
G01X157726Y78789D02*
X153593D01*
X152508Y77704D01*
G01X157726Y88632D02*
X153851D01*
X152527Y87308D01*
G01X151910Y107074D02*
Y109074D01*
G01X179379Y104880D02*
X177993Y106267D01*
X157804Y106272D01*
X157726Y106348D01*
G01Y116191D02*
X153826Y116191D01*
X152995Y115359D01*
X151439D01*
G01X157726Y114222D02*
X154404Y114222D01*
X152741Y112559D01*
X151439D01*
G01X157726Y110286D02*
Y110285D01*
X153121D01*
X151910Y109074D01*
G01X149910D02*
X151910D01*
G01X151439Y118159D02*
Y121839D01*
X153665Y124065D01*
X157726D01*
G01X156200Y132500D02*
Y134500D01*
G01D02*
Y136500D01*
G01X154200Y134500D02*
X156200D01*
G01D02*
X158200D01*
G01X175246Y137648D02*
Y142872D01*
X172163Y145954D01*
X157846D01*
X154343Y149457D01*
Y158943D01*
X167700Y172300D01*
X186778D01*
X187238Y172760D01*
G01X173278Y137648D02*
Y141185D01*
X170476Y143986D01*
X157114D01*
X152374Y148726D01*
Y160174D01*
X166600Y174400D01*
X184800D01*
X186300Y175900D01*
G01X177215Y137648D02*
Y144000D01*
X173292Y147923D01*
X158964D01*
X156311Y150576D01*
Y157711D01*
X168333Y169733D01*
X187011D01*
X187238Y169960D01*
G01X152998Y175861D02*
X160367Y183231D01*
Y196016D01*
X160256Y196127D01*
G01X164797Y5801D02*
Y7801D01*
G01D02*
Y9801D01*
G01Y7801D02*
X166797D01*
G01X206045Y65406D02*
Y65483D01*
X203918Y67610D01*
X172715D01*
X165404Y60299D01*
Y53396D01*
G01X214468Y61882D02*
X206770Y69580D01*
X171373D01*
X162866Y61073D01*
X157726D01*
G01X218393Y58202D02*
Y62397D01*
X208946Y71844D01*
X170922D01*
X164088Y65010D01*
X157726D01*
G01X204400Y74284D02*
X170540D01*
X163234Y66978D01*
X157726D01*
G01Y86663D02*
X219800D01*
G01X157726Y90600D02*
X162700D01*
G01X173254Y99245D02*
X172484Y98474D01*
X157726D01*
G01X168452Y96174D02*
X168121Y96506D01*
X157726D01*
G01X179325Y101376D02*
X176321Y104380D01*
X157726D01*
G01X226900Y101700D02*
X220283Y108317D01*
X157726D01*
G01Y112254D02*
X163846D01*
X164600Y111500D01*
G01X184450Y119550D02*
X184200Y119300D01*
X173000D01*
X170204Y122096D01*
X157726D01*
G01X186800Y117200D02*
X171100D01*
X168172Y120128D01*
X157726D01*
G01X186000Y114500D02*
X185900Y114600D01*
X170000D01*
X166440Y118160D01*
X157726D01*
G01X165404Y137648D02*
Y130696D01*
X173512Y122588D01*
X187778D01*
X200249Y110117D01*
X232550D01*
X235484Y107183D01*
G01X162758Y154202D02*
Y158155D01*
G01Y154202D02*
X166711D01*
G01X187464Y166933D02*
X168233D01*
X158280Y156980D01*
Y151469D01*
X159857Y149892D01*
X174724D01*
X179183Y145432D01*
Y137648D01*
G01X170000Y32300D02*
Y34300D01*
G01D02*
Y36300D01*
G01X168000Y34300D02*
X170000D01*
G01D02*
X172000D01*
G01X170350Y45550D02*
X171309Y46509D01*
Y53396D01*
G01X173278D02*
Y46522D01*
X175200Y44600D01*
G01X198868Y53396D02*
Y62253D01*
X195882Y65239D01*
X174695D01*
X170525Y61069D01*
Y60244D01*
G01X186000Y114500D02*
X173131D01*
G01X179900Y128800D02*
X174153D01*
X169341Y133612D01*
Y137648D01*
G01X171309D02*
Y134325D01*
X174234Y131400D01*
X176800D01*
G01X168700Y131000D02*
X167372Y132328D01*
Y137648D01*
G01X172071Y186127D02*
X176614D01*
G01X175246Y53396D02*
Y59500D01*
G01X177215Y53396D02*
Y57315D01*
X179400Y59500D01*
G01X175295Y62548D02*
X175300Y62544D01*
X194285D01*
X196900Y59929D01*
Y53396D01*
G01X176500Y79700D02*
Y81700D01*
G01D02*
Y83700D01*
G01X174500Y81700D02*
X176500D01*
G01D02*
X178500D01*
G01X191335Y167217D02*
X188072Y163954D01*
X182251D01*
X177841Y159544D01*
Y150685D01*
X181152Y147374D01*
Y137648D01*
G01X176614Y181584D02*
Y186127D01*
G01D02*
Y190671D01*
G01Y186127D02*
X181158D01*
G01X183120Y53396D02*
Y40780D01*
X195200Y28700D01*
G01X185089Y53396D02*
Y46511D01*
X198700Y32900D01*
G01X189026Y53396D02*
Y47243D01*
X203330Y32938D01*
X252930D01*
X258144Y38152D01*
G01X187057Y53396D02*
Y58157D01*
X186943Y58271D01*
G01D02*
Y60271D01*
G01X184942Y58271D02*
X186943D01*
G01D02*
X188943D01*
G01X184500Y94300D02*
Y96300D01*
G01D02*
Y98300D01*
G01X182500Y96300D02*
X184500D01*
G01D02*
X186500D01*
G01X235813Y112539D02*
X201620Y112544D01*
X185089Y129082D01*
Y137648D01*
G01X187057D02*
Y132305D01*
G01D02*
X189316Y130046D01*
G01Y128046D02*
Y130046D01*
G01D02*
Y132046D01*
G01X187316Y130046D02*
X189316D01*
G01D02*
X191317D01*
G01X189026Y137648D02*
Y147474D01*
X191501Y149949D01*
X194520D01*
X197911Y153340D01*
Y163760D01*
X197011Y164660D01*
G01X193099Y164326D02*
Y163846D01*
X187797Y158544D01*
Y151479D01*
X183120Y146801D01*
Y137648D01*
G01X187520Y181584D02*
Y186127D01*
G01D02*
Y190671D01*
G01X182976Y186127D02*
X187520D01*
G01D02*
X192063D01*
G01X192800Y111300D02*
Y113300D01*
G01X190800Y111300D02*
X192800D01*
G01D02*
X194800D01*
G01X192963Y137648D02*
Y132700D01*
G01X196900Y137648D02*
Y140970D01*
X210131Y154202D01*
X212758D01*
G01X194931Y137648D02*
Y141648D01*
X202758Y149476D01*
Y154202D01*
G01X190994Y137648D02*
Y145326D01*
X193168Y147500D01*
G01X198425Y181584D02*
Y186127D01*
G01D02*
Y190671D01*
G01X193882Y186127D02*
X198425D01*
G01D02*
X202969D01*
G01X200837Y53396D02*
Y41663D01*
X205100Y37400D01*
G01X206742Y53396D02*
X206742Y58320D01*
G01D02*
Y60320D01*
G01X204742Y58320D02*
X206742D01*
G01D02*
X208742D01*
G01X228262Y115349D02*
X221751D01*
X204774Y132327D01*
Y137648D01*
G01X201700Y125100D02*
Y127100D01*
G01D02*
Y129100D01*
G01X199700Y127100D02*
X201700D01*
G01D02*
X203700D01*
G01X206742Y137648D02*
Y134258D01*
X209100Y131900D01*
G01X204787Y186127D02*
X209331D01*
G01X203830Y220303D02*
Y222303D01*
G01D02*
Y224303D01*
G01X201830Y222303D02*
X203830D01*
G01D02*
X205830D01*
G01X246805Y38152D02*
X243522Y34868D01*
X213111D01*
X208711Y39268D01*
Y53396D01*
G01X213394Y38152D02*
X215394D01*
G01X212700Y76800D02*
Y78800D01*
G01D02*
Y80800D01*
G01X210700Y78800D02*
X212700D01*
G01D02*
X214700D01*
G01X213100Y93600D02*
Y95600D01*
G01D02*
Y97600D01*
G01X211100Y95600D02*
X213100D01*
G01D02*
X215100D01*
G01X226400Y117649D02*
X222048D01*
X212648Y127050D01*
Y137648D01*
G01X223386Y157883D02*
X208711Y143208D01*
Y137648D01*
G01X209331Y181584D02*
Y186127D01*
G01D02*
Y190671D01*
G01Y186127D02*
X213874D01*
G01X209500Y206600D02*
Y208600D01*
G01D02*
Y210600D01*
G01X207500Y208600D02*
X209500D01*
G01D02*
X211500D01*
G01X218616Y38152D02*
X215394D01*
G01X218616D02*
Y41022D01*
G01Y38152D02*
X220453D01*
G01X215394D02*
Y40152D01*
G01X222490Y53396D02*
Y77195D01*
X233671Y88376D01*
G01X220600Y143900D02*
Y145900D01*
G01D02*
Y147900D01*
G01X218600Y145900D02*
X220600D01*
G01D02*
X222600D01*
G01X217800Y156800D02*
Y158800D01*
G01D02*
Y160800D01*
G01X215800Y158800D02*
X217800D01*
G01D02*
X219800D01*
G01X282150Y39190D02*
X282062Y39102D01*
X277144D01*
X267011Y28969D01*
X238115D01*
X225659Y16514D01*
Y8640D01*
G01X229955Y38152D02*
Y41822D01*
G01D02*
Y43822D01*
G01X227955Y41822D02*
X229955D01*
G01X224128Y38152D02*
X224128Y43559D01*
G01X230300Y72200D02*
X232300D01*
G01X230332Y124433D02*
X232333D01*
G01X277900Y126000D02*
X259683Y144217D01*
X232897D01*
X230364Y141684D01*
Y137648D01*
G01X306477Y98215D02*
G02X299988Y98215I-3244J3244D01*
G01X285302Y112902D01*
G02X283837Y116437I3535J3536D01*
G01Y132532D01*
G03X282373Y136067I-5000J0D01*
G01X268436Y150004D01*
G03X264900Y151469I-3536J-3536D01*
G01X234057D01*
G03X230521Y150004I0J-5000D01*
G01X227892Y147375D01*
G03X226427Y143839I3536J-3536D01*
G01Y137648D01*
G01X320047Y98186D02*
X317013Y95152D01*
G02X313477Y93688I-3535J3536D01*
G01X301716D01*
G02X298180Y95152I0J5000D01*
G01X281891Y111441D01*
G02X280427Y114977I3536J3535D01*
G01Y130611D01*
G03X278963Y134147I-5000J0D01*
G01X266231Y146878D01*
G03X262696Y148342I-3536J-3536D01*
G01X235566D01*
G03X232030Y146878I0J-5000D01*
G01X229860Y144708D01*
G03X228396Y141172I3536J-3536D01*
G01Y137648D01*
G01X226638Y191127D02*
X236496D01*
G01X236700Y9700D02*
Y11700D01*
G01D02*
Y13700D01*
G01X234700Y11700D02*
X236700D01*
G01D02*
X238700D01*
G01X232333Y47093D02*
Y40225D01*
X234406Y38152D01*
X235467D01*
G01X252282Y51362D02*
X243677D01*
X235467Y43152D01*
Y38152D01*
G01X241293D02*
X239012D01*
G01X232333Y53396D02*
Y47093D01*
G01D02*
X234301Y49061D01*
Y53396D01*
G01X232300Y70200D02*
Y72200D01*
G01D02*
Y74200D01*
G01Y72200D02*
X234300D01*
G01X236248Y92149D02*
X237798Y90600D01*
G01D02*
X241978D01*
G01X236248Y90149D02*
Y92149D01*
G01D02*
Y94149D01*
G01X234248Y92149D02*
X236248D01*
G01X236300Y115900D02*
Y117900D01*
G01X232333Y137648D02*
Y124433D01*
G01X241978Y120128D02*
X238528D01*
X236300Y117900D01*
G01D02*
Y119900D01*
G01X234300Y117900D02*
X236300D01*
G01X232333Y122433D02*
Y124433D01*
G01D02*
X234333D01*
G01X236496Y181269D02*
Y191127D01*
G01D02*
Y200986D01*
G01Y191127D02*
X246355D01*
G01X293880Y39190D02*
Y37620D01*
X283230Y26970D01*
X265737D01*
X246986Y8218D01*
X246081D01*
X245659Y8640D01*
G01X246805Y38152D02*
Y45886D01*
X252282Y51362D01*
G01X241293Y38152D02*
Y41022D01*
G01Y38152D02*
X243130D01*
G01X241978Y65010D02*
X257635Y65010D01*
X263404Y59241D01*
G01X241978Y63041D02*
X254822Y63041D01*
X259720Y58143D01*
G01X241978Y61073D02*
X251998Y61073D01*
X255094Y57977D01*
G01X241978Y70915D02*
X278103D01*
X280306Y68712D01*
G01X241978Y80758D02*
X249816D01*
X255427Y75146D01*
G01X241978Y82726D02*
X252149D01*
X259220Y75656D01*
G01X241978Y84695D02*
X254189D01*
X262885Y75999D01*
G01X342033Y99491D02*
X334717D01*
X323711Y88484D01*
X272969D01*
X269745Y85260D01*
X256907D01*
X255503Y86663D01*
X241978D01*
G01Y88632D02*
X242147Y88800D01*
X257297D01*
X258828Y87269D01*
X269000D01*
X272046Y90315D01*
X322438D01*
X334111Y101989D01*
X336728D01*
G01X241978Y92569D02*
X250666D01*
G01X247165Y98509D02*
X249165D01*
G01X248100Y110239D02*
X246178Y108317D01*
X241978D01*
G01X241978Y106348D02*
X253306Y106348D01*
X255109Y108151D01*
G01X241978Y104380D02*
X253369Y104380D01*
X255109Y102639D01*
G01X255427Y123100D02*
Y123157D01*
X254519Y124065D01*
X241978D01*
G01X252300Y116600D02*
X252299Y116658D01*
X250800Y118160D01*
X241978D01*
G01Y122096D02*
X248804D01*
X252300Y118600D01*
X252300Y116600D01*
G01X256200Y4900D02*
Y6900D01*
G01D02*
Y8900D01*
G01X254200Y6900D02*
X256200D01*
G01D02*
X258200D01*
G01X252632Y38152D02*
X249910D01*
G01Y36151D02*
Y38152D01*
G01D02*
Y40152D01*
G01X252632Y35281D02*
Y38152D01*
G01D02*
Y41022D01*
G01Y38152D02*
X254469D01*
G01X252282Y51362D02*
X253261Y52342D01*
G01X249165Y96509D02*
Y98509D01*
G01D02*
Y100510D01*
G01Y98509D02*
X251165D01*
G01X255109Y102639D02*
Y98791D01*
X262068Y91832D01*
G01X255109Y108151D02*
Y114322D01*
X259565Y118778D01*
X262501D01*
G01X258144Y38152D02*
Y49757D01*
X263022Y54635D01*
G01X263971Y38152D02*
X261317D01*
G01Y36151D02*
Y38152D01*
G01D02*
Y40152D01*
G01X263971Y35281D02*
Y38152D01*
G01D02*
Y41022D01*
G01Y38152D02*
X265808D01*
G01X269483D02*
X263377Y44257D01*
X262767D01*
G01X262068Y91832D02*
X266178Y95942D01*
X270225D01*
X272471Y98188D01*
Y100553D01*
G01X259911Y98553D02*
Y100553D01*
G01X264597Y100553D02*
X259911Y100553D01*
G01D02*
Y102553D01*
G01X257911Y100553D02*
X259911D01*
G01X262501Y118778D02*
Y119273D01*
G01X264597Y110395D02*
X264597Y116682D01*
X262501Y118778D01*
G01X264500Y142700D02*
Y144700D01*
G01X262500D02*
X264500D01*
G01X277754Y158321D02*
X273994Y154560D01*
X266574D01*
X263460Y157675D01*
Y162318D01*
G01X270274Y167770D02*
X263520D01*
X263460Y167830D01*
G01X260240Y191166D02*
X270098D01*
G01X305699Y45835D02*
Y38404D01*
X297371Y30076D01*
X290129D01*
X268780Y8728D01*
X265747D01*
X265659Y8640D01*
G01X269483Y38152D02*
X275066Y43735D01*
Y54635D01*
G01X272058Y64767D02*
Y66767D01*
G01D02*
Y68767D01*
G01X270058Y66767D02*
X272058D01*
G01D02*
X274058D01*
G01X272471Y106639D02*
Y110395D01*
G01X264597Y100553D02*
Y104309D01*
G01Y100553D02*
X267763D01*
G01X272471Y110395D02*
Y114151D01*
G01X269306Y110395D02*
X272471D01*
G01D02*
X275637D01*
G01X268013Y116403D02*
Y119273D01*
G01D02*
Y122144D01*
G01X266176Y119273D02*
X268013D01*
G01D02*
X269849D01*
G01X270098Y181308D02*
Y191166D01*
G01D02*
Y201025D01*
G01Y191166D02*
X279957D01*
G01X280500Y10000D02*
Y12000D01*
G01D02*
Y14000D01*
G01X278500Y12000D02*
X280500D01*
G01D02*
X282500D01*
G01X280306Y61182D02*
Y58470D01*
X284141Y54635D01*
G01X280306Y61182D02*
X277203D01*
G01X293353Y54635D02*
X290100Y57889D01*
Y61445D01*
X286541Y65004D01*
X282515D01*
X280306Y67212D01*
Y68712D01*
G01X298312Y54635D02*
X295127Y57820D01*
Y70080D01*
X292638Y72569D01*
X284034D01*
X280361Y76242D01*
X280306D01*
G01D02*
X277544D01*
G01X277016Y83398D02*
X280277D01*
X280493Y83614D01*
G01X278986Y96627D02*
Y98627D01*
G01D02*
Y100627D01*
G01X276986Y98627D02*
X278986D01*
G01D02*
X280986D01*
G01X278100Y145900D02*
Y147900D01*
G01D02*
Y149900D01*
G01X276100Y147900D02*
X278100D01*
G01D02*
X280100D01*
G01X277754Y164309D02*
Y167770D01*
G01D02*
Y171231D01*
G01X282061Y45835D02*
Y39279D01*
X282150Y39190D01*
G01X287662Y36320D02*
Y39190D01*
G01D02*
Y42060D01*
G01X285825Y39190D02*
X287662D01*
G01D02*
X289499D01*
G01X282103Y49715D02*
Y45876D01*
X282061Y45835D01*
G01X287573Y42964D02*
Y45835D01*
G01D02*
Y48705D01*
G01X285736Y45835D02*
X287573D01*
G01X285818Y61182D02*
Y57859D01*
G01X283818D02*
X285818D01*
G01D02*
X287818D01*
G01X283981Y61182D02*
X285818D01*
G01D02*
X287654D01*
G01X285818Y68712D02*
X289360D01*
G01X285818Y76242D02*
X288896D01*
G01D02*
Y78242D01*
G01Y76242D02*
X290897D01*
G01X288532Y81614D02*
Y83614D01*
G01X286005Y80744D02*
Y83614D01*
G01X285818Y76242D02*
Y79112D01*
G01X283981Y76242D02*
X285818D01*
G01X286005Y83614D02*
X288532D01*
G01D02*
Y85614D01*
G01Y83614D02*
X290532D01*
G01X286005D02*
Y86484D01*
G01X284168Y83614D02*
X286005D01*
G01X284765Y159821D02*
Y161953D01*
G01D02*
Y164085D01*
G01X281009Y161953D02*
X284765D01*
G01D02*
X288521D01*
G01X284334Y166008D02*
Y167845D01*
G01D02*
Y169682D01*
G01X281463Y167845D02*
X284334D01*
G01X283900Y204900D02*
Y206900D01*
G01D02*
Y208900D01*
G01X281900Y206900D02*
X283900D01*
G01D02*
X285900D01*
G01X317518Y39190D02*
Y34670D01*
X306720Y23873D01*
X296956D01*
X289597Y16514D01*
Y8640D01*
G01X293880Y39190D02*
Y45835D01*
G01X290844Y46186D02*
X293529D01*
X293880Y45835D01*
G01X300005Y61182D02*
X297440D01*
G01X289360Y66712D02*
Y68712D01*
G01X300005Y74686D02*
X297224D01*
G01X289360Y68712D02*
Y70712D01*
G01Y68712D02*
X291360D01*
G01X300005Y81438D02*
X297215D01*
G01X297100Y104907D02*
Y106744D01*
G01D02*
Y108581D01*
G01X294230Y106744D02*
X297100D01*
G01D02*
X299970D01*
G01X292656Y119355D02*
Y122225D01*
G01X290819D02*
X292656D01*
G01D02*
X294493D01*
G01X293156Y132030D02*
Y134900D01*
G01D02*
Y137770D01*
G01X291319Y134900D02*
X293156D01*
G01D02*
X294993D01*
G01X294545Y139444D02*
Y143200D01*
G01D02*
Y146956D01*
G01X292413Y143200D02*
X294545D01*
G01D02*
X296677D01*
G01X296800Y149400D02*
X298800D01*
G01X292321Y158741D02*
Y160578D01*
G01D02*
Y162414D01*
G01Y166008D02*
Y167845D01*
G01D02*
Y169682D01*
G01Y167845D02*
X295191D01*
G01X299500Y8800D02*
Y10800D01*
G01D02*
Y12800D01*
G01X297500Y10800D02*
X299500D01*
G01D02*
X301500D01*
G01X299392Y36320D02*
Y39190D01*
G01D02*
Y42060D01*
G01X297555Y39190D02*
X299392D01*
G01D02*
X301229D01*
G01X305699Y45835D02*
Y48606D01*
X311728Y54635D01*
G01X301654Y50088D02*
X299392Y47826D01*
G01D02*
Y48705D01*
G01Y47826D02*
Y45835D01*
G01X301654Y48088D02*
Y50088D01*
G01D02*
Y52088D01*
G01X299654Y50088D02*
X301654D01*
G01D02*
X303654D01*
G01X299392Y42964D02*
Y45835D01*
G01X297555D02*
X299392D01*
G01D02*
X301229D01*
G01X300005Y61182D02*
Y59076D01*
X304447Y54635D01*
G01X305517Y61182D02*
Y57759D01*
G01X311728Y54635D02*
X309180Y57183D01*
Y62740D01*
X307210Y64709D01*
X302928D01*
X300005Y67632D01*
Y67934D01*
G01D02*
Y69174D01*
X305517Y74686D01*
G01X300005Y67934D02*
X297538D01*
G01X305517D02*
X308465D01*
G01X305517D02*
Y70804D01*
G01X303680Y67934D02*
X305517D01*
G01X316638Y54635D02*
X313826Y57448D01*
Y75293D01*
X310851Y78268D01*
X303176D01*
X300005Y81438D01*
G01X305517D02*
Y84308D01*
G01X303680Y81438D02*
X305517D01*
G01D02*
X307354D01*
G01X306398Y104741D02*
X302907D01*
G01Y102741D02*
Y104741D01*
G01D02*
Y106741D01*
G01X300906Y104741D02*
X302907D01*
G01X311910D02*
Y114959D01*
X309527Y117342D01*
X304259D01*
G01X298800Y147400D02*
Y149400D01*
G01D02*
Y151400D01*
G01X301346Y159790D02*
Y162119D01*
G01D02*
Y164448D01*
G01X334848Y39190D02*
Y36272D01*
X309596Y11020D01*
Y8640D01*
G01X311211Y42964D02*
Y45835D01*
G01D02*
Y48705D01*
G01X309374Y45835D02*
X311211D01*
G01D02*
X313048D01*
G01X308465Y67934D02*
Y69934D01*
G01Y67934D02*
X310465D01*
G01X311910Y104741D02*
Y98294D01*
X311989Y98215D01*
G01X306398Y101871D02*
Y104741D01*
G01D02*
Y107611D01*
G01Y104741D02*
X308235D01*
G01X307595Y140987D02*
Y143858D01*
G01X310297Y141857D02*
Y143858D01*
G01D02*
Y145858D01*
G01X307595Y143858D02*
Y146728D01*
G01X305758Y143858D02*
X307595D01*
G01X312500Y153200D02*
Y155200D01*
G01D02*
Y157200D01*
G01X310500Y155200D02*
X312500D01*
G01D02*
X314500D01*
G01X313622Y191623D02*
Y196166D01*
G01D02*
Y200710D01*
G01X309078Y196166D02*
X313622D01*
G01X319500Y7700D02*
Y9700D01*
G01D02*
Y11700D01*
G01X317500Y9700D02*
X319500D01*
G01D02*
X321500D01*
G01X317518Y45835D02*
Y39190D01*
G01X321193Y39190D02*
X323030D01*
G01X317481Y50764D02*
Y45872D01*
X317518Y45835D01*
G01X321193D02*
X323030D01*
G01X319154Y61182D02*
Y58577D01*
X323096Y54635D01*
G01X316518Y60946D02*
X316716D01*
X316912Y60750D01*
X318723D01*
X319154Y61182D01*
G01X319024Y75940D02*
Y68737D01*
X319083Y68678D01*
G01X319517Y82506D02*
X319372Y82361D01*
G01D02*
Y76289D01*
X319024Y75940D01*
G01X316413Y82104D02*
X316559Y82252D01*
X319262D01*
X319372Y82361D01*
G01X320021Y104741D02*
X316404D01*
G01Y102741D02*
Y104741D01*
G01D02*
Y106741D01*
G01X314404Y104741D02*
X316404D01*
G01X320021Y101871D02*
Y104741D01*
G01D02*
Y107611D01*
G01Y104741D02*
X321858D01*
G01X319544Y140889D02*
Y143759D01*
G01D02*
Y146629D01*
G01X317707Y143759D02*
X319544D01*
G01X314531Y186166D02*
X319075D01*
G01D02*
X323618D01*
G01X341156Y45835D02*
Y20199D01*
X329596Y8640D01*
G01X329337Y36320D02*
Y39190D01*
G01D02*
Y42060D01*
G01X327500Y39190D02*
X329337D01*
G01D02*
X331174D01*
G01X323030Y36320D02*
Y39190D01*
G01D02*
Y42060D01*
G01Y39190D02*
X324866D01*
G01X329337Y42964D02*
Y45835D01*
G01D02*
Y48705D01*
G01X327500Y45835D02*
X329337D01*
G01D02*
X331174D01*
G01X323030Y42964D02*
Y45835D01*
G01D02*
Y48705D01*
G01Y45835D02*
X324867D01*
G01X324666Y58311D02*
Y61182D01*
G01D02*
X327879D01*
G01Y59181D02*
Y61182D01*
G01D02*
Y63182D01*
G01Y61182D02*
X329879D01*
G01X324666D02*
Y64052D01*
G01X322829Y61182D02*
X324666D01*
G01X336561Y54635D02*
X332034Y59163D01*
Y65729D01*
X329084Y68678D01*
X325972D01*
G01X325029Y82506D02*
Y86338D01*
G01X323192Y82506D02*
X325029D01*
G01D02*
X326866D01*
G01X323782Y75940D02*
X325914D01*
G01D02*
X328046D01*
G01X323028Y86338D02*
X325029D01*
G01D02*
X327029D01*
G01X325533Y104741D02*
Y98212D01*
X325558Y98186D01*
G01X325518Y112342D02*
Y104755D01*
X325533Y104741D01*
G01X322922Y141759D02*
Y143759D01*
G01D02*
Y145759D01*
G01Y143759D02*
X324923D01*
G01X324528Y191623D02*
Y196166D01*
G01D02*
X329071D01*
G01X334848Y45835D02*
Y39190D01*
G01X334768Y51087D02*
Y45915D01*
X334848Y45835D01*
G01X336422Y79742D02*
X336422Y83880D01*
X342033Y89491D01*
G01X337982Y94491D02*
X342033D01*
G01X336728Y101989D02*
X339230Y104491D01*
X342033D01*
G01X355800Y124900D02*
Y125300D01*
X336460Y144640D01*
Y146990D01*
G01X332700Y222100D02*
Y224100D01*
G01D02*
Y226100D01*
G01X330700Y224100D02*
X332700D01*
G01D02*
X334700D01*
G01X344900Y37900D02*
X346900D01*
G01X341156Y45835D02*
Y47959D01*
X347831Y54635D01*
G01X346668Y42964D02*
Y45835D01*
G01D02*
Y48705D01*
G01X344831Y45835D02*
X346668D01*
G01D02*
X348504D01*
G01X342390Y60172D02*
Y58253D01*
X346009Y54635D01*
G01X338786Y66983D02*
X342155D01*
X342390Y67218D01*
G01Y60172D02*
X339060D01*
G01X346065D02*
X347902D01*
G01X342390Y74265D02*
Y73159D01*
X344617Y70932D01*
X354878D01*
X357955Y67855D01*
Y59545D01*
X362865Y54635D01*
G01X342390Y74265D02*
X338678D01*
G01X346065Y67218D02*
X347902D01*
G01X341863Y83378D02*
Y79813D01*
X341934Y79742D01*
G01X342033Y89491D02*
X355956D01*
G01X350722Y92306D02*
Y96579D01*
X347811Y99491D01*
X342033D01*
G01Y94491D02*
X346884D01*
G01X342033Y92309D02*
Y94491D01*
G01D02*
Y96672D01*
G01X340971Y110896D02*
Y112896D01*
G01X338971D02*
X340971D01*
G01D02*
X342972D01*
G01X340971Y116918D02*
Y119789D01*
G01X339134Y116918D02*
X340971D01*
G01D02*
X342808D01*
G01X359850Y125050D02*
X346460Y138440D01*
Y146990D01*
G01X364747Y124800D02*
X364347D01*
X352000Y137147D01*
Y151600D01*
X346610Y156990D01*
X346460D01*
G01X358486Y39190D02*
Y13593D01*
X353534Y8640D01*
G01X352974Y36320D02*
Y39190D01*
G01D02*
Y42060D01*
G01X351138Y39190D02*
X352974D01*
G01D02*
X354811D01*
G01X346900Y35900D02*
Y37900D01*
G01D02*
Y39900D01*
G01Y37900D02*
X348900D01*
G01X352974Y42964D02*
Y45835D01*
G01D02*
Y48705D01*
G01X351138Y45835D02*
X352974D01*
G01D02*
X354811D01*
G01X351340Y58172D02*
Y60172D01*
G01X347902Y57302D02*
Y60172D01*
G01D02*
X351340D01*
G01X350418Y65218D02*
Y67218D01*
G01X351340Y60172D02*
Y62172D01*
G01Y60172D02*
X353340D01*
G01X347902Y64348D02*
Y67218D01*
G01Y60172D02*
Y63042D01*
G01Y67218D02*
X350418D01*
G01X347902Y74265D02*
X350958D01*
G01D02*
Y76265D01*
G01Y74265D02*
X352958D01*
G01X350418Y67218D02*
X352419D01*
G01X354409Y79742D02*
X354409Y87944D01*
X355956Y89491D01*
G01X350722Y83957D02*
Y81568D01*
X348897Y79742D01*
G01X346884Y92490D02*
Y94491D01*
G01D02*
Y96491D01*
G01Y94491D02*
X348884D01*
G01X354300Y112707D02*
Y114544D01*
G01D02*
Y116381D01*
G01X351430Y114544D02*
X354300D01*
G01D02*
X357170D01*
G01X358486Y45835D02*
Y39190D01*
G01X362976Y39190D02*
X364813D01*
G01X358415Y50362D02*
Y45905D01*
X358486Y45835D01*
G01X362976D02*
X364813D01*
G01X361373Y62692D02*
Y65562D01*
G01D02*
Y68432D01*
G01Y65562D02*
X363210D01*
G01X366885Y79752D02*
Y78168D01*
X361373Y72657D01*
G01Y79752D02*
X358484D01*
G01Y77752D02*
Y79752D01*
G01D02*
Y81753D01*
G01X361373Y76882D02*
Y79752D01*
G01D02*
Y82623D01*
G01Y79752D02*
X363210D01*
G01X355956Y89491D02*
X357146D01*
X366885Y79752D01*
G01X359242Y94491D02*
X363293D01*
G01X359242Y99491D02*
X363293D01*
G01X359242Y104491D02*
X363293D01*
G01X360500Y112707D02*
Y114544D01*
G01D02*
Y116381D01*
G01X357630Y114544D02*
X360500D01*
G01D02*
X363370D01*
G01X361100Y131700D02*
Y153300D01*
X364790Y156990D01*
X366460D01*
G01X370324Y39190D02*
Y14345D01*
X373534Y11136D01*
Y8640D01*
G01X370324Y45835D02*
Y39190D01*
G01X364813Y36320D02*
Y39190D01*
G01D02*
Y42060D01*
G01Y39190D02*
X366650D01*
G01X373694Y46442D02*
X370932D01*
X370324Y45835D01*
G01X364813Y42964D02*
Y45835D01*
G01D02*
Y48705D01*
G01Y45835D02*
X366650D01*
G01X366885Y65562D02*
X371238D01*
G01X366885Y72657D02*
Y69615D01*
G01X380720Y54635D02*
X375683Y59672D01*
Y77156D01*
X373086Y79752D01*
X366885D01*
G01X363293Y89491D02*
X367660D01*
G01Y87490D02*
Y89491D01*
G01D02*
Y91491D01*
G01Y89491D02*
X369660D01*
G01X363293Y87309D02*
Y89491D01*
G01D02*
Y91672D01*
G01Y99491D02*
X367989D01*
G01X363293Y94491D02*
X367940D01*
G01Y92490D02*
Y94491D01*
G01D02*
Y96491D01*
G01Y94491D02*
X369940D01*
G01X367989Y97490D02*
Y99491D01*
G01D02*
Y101491D01*
G01Y99491D02*
X369989D01*
G01X363293Y92309D02*
Y94491D01*
G01D02*
Y96672D01*
G01Y97309D02*
Y99491D01*
G01D02*
Y101672D01*
G01Y104491D02*
X368130D01*
G01Y102490D02*
Y104491D01*
G01D02*
Y106491D01*
G01Y104491D02*
X370130D01*
G01X363293Y102309D02*
Y104491D01*
G01D02*
Y106672D01*
G01X367755Y110994D02*
Y113126D01*
G01D02*
Y115258D01*
G01X363999Y113126D02*
X367755D01*
G01D02*
X371511D01*
G01X370900Y127100D02*
X372900D01*
G01X368500Y131400D02*
X410870D01*
X426460Y146990D01*
G01X365500Y136100D02*
X365647Y135953D01*
X406153D01*
X411200Y141000D01*
Y149500D01*
X412943Y151243D01*
X419143D01*
X424890Y156990D01*
X426460D01*
G01X436460Y146990D02*
X431751Y151700D01*
X424300D01*
X421800Y149200D01*
Y145700D01*
X409900Y133800D01*
X363800D01*
X363684Y133916D01*
X363578D01*
G01X376612Y45835D02*
Y25561D01*
X393534Y8640D01*
G01X376612Y45835D02*
Y46969D01*
X384278Y54635D01*
G01X381101Y118272D02*
X376028D01*
G01D02*
Y120272D01*
G01X374028Y118272D02*
X376028D01*
G01X378000Y127000D02*
X380000D01*
G01X372900Y125100D02*
Y127100D01*
G01D02*
Y129100D01*
G01Y127100D02*
X374900D01*
G01X429344Y169100D02*
X419300D01*
X412000Y161800D01*
Y155300D01*
X408500Y151800D01*
X371600D01*
G01X382900Y7100D02*
Y9100D01*
G01D02*
Y11100D01*
G01X380900Y9100D02*
X382900D01*
G01D02*
X384900D01*
G01X387477Y47218D02*
X391430D01*
G01X382124Y42964D02*
Y45835D01*
G01D02*
Y48705D01*
G01X380287Y45835D02*
X382124D01*
G01D02*
X383960D01*
G01X381101Y114122D02*
Y118272D01*
G01D02*
Y122422D01*
G01Y118272D02*
X385251D01*
G01X380000Y125000D02*
Y127000D01*
G01D02*
Y129000D01*
G01Y127000D02*
X382000D01*
G01X391430Y43265D02*
Y47218D01*
G01D02*
Y51171D01*
G01Y47218D02*
X395383D01*
G01X401430Y43265D02*
Y47218D01*
G01D02*
Y51171D01*
G01X397477Y47218D02*
X401430D01*
G01D02*
X405383D01*
G01X400900Y62800D02*
Y64800D01*
G01D02*
Y66800D01*
G01X398900Y64800D02*
X400900D01*
G01D02*
X402900D01*
G01X400866Y191623D02*
Y196166D01*
G01D02*
Y200710D01*
G01X396323Y196166D02*
X400866D01*
G01D02*
X405410D01*
G01X411549Y8640D02*
X417471D01*
G01X408263Y98111D02*
Y100112D01*
G01X414025Y106917D02*
X409917D01*
G01Y104917D02*
Y106917D01*
G01D02*
Y108917D01*
G01X407917Y106917D02*
X409917D01*
G01X408263Y100112D02*
Y102112D01*
G01X406263Y100112D02*
X408263D01*
G01X406319Y181623D02*
Y186166D01*
G01D02*
Y190710D01*
G01Y186166D02*
X410862D01*
G01X417471Y8640D02*
Y14561D01*
G01Y8640D02*
X423392D01*
G01X419014Y47975D02*
Y49975D01*
G01D02*
Y51975D01*
G01X417013Y49975D02*
X419014D01*
G01X418670Y59225D02*
Y61225D01*
G01D02*
Y63225D01*
G01X416670Y61225D02*
X418670D01*
G01X418999Y92227D02*
Y94227D01*
G01X416999D02*
X418999D01*
G01X414202Y97665D02*
Y99994D01*
G01X414025Y105080D02*
Y106917D01*
G01D02*
Y108754D01*
G01Y106917D02*
X416895D01*
G01X414202Y99994D02*
Y102323D01*
G01Y99994D02*
X418648D01*
G01X414025Y116445D02*
Y112429D01*
G01X423671Y116815D02*
X419166D01*
X414025Y121956D01*
G01X422893Y38892D02*
Y41762D01*
G01X421057Y38892D02*
X422893D01*
G01D02*
X424730D01*
G01X422322Y46219D02*
Y49975D01*
G01D02*
Y53731D01*
G01Y49975D02*
X424455D01*
G01X422322Y57469D02*
Y61225D01*
G01D02*
X424455D01*
G01X427740Y67032D02*
X429740D01*
G01X429015Y92351D02*
Y94187D01*
G01X426145D02*
X429015D01*
G01X422726Y96101D02*
Y97937D01*
G01D02*
Y99774D01*
G01Y97937D02*
X425596D01*
G01X422726Y92390D02*
Y94227D01*
G01D02*
Y96064D01*
G01Y94227D02*
X425596D01*
G01X427494Y119315D02*
X433514D01*
G01X434407Y64858D02*
Y66858D01*
G01X432407D02*
X434407D01*
G01D02*
X436407D01*
G01X434407Y71632D02*
Y74995D01*
G01X429864Y71632D02*
X434407D01*
G01D02*
X438951D01*
G01X429740Y67032D02*
Y69032D01*
G01Y67032D02*
X431740D01*
G01X432817Y92187D02*
Y94187D01*
G01D02*
Y96188D01*
G01Y94187D02*
X434817D01*
G01X433514Y111524D02*
Y119315D01*
G01D02*
Y127107D01*
G01X436460Y153037D02*
Y156990D01*
G01D02*
Y160943D01*
G01X432507Y156990D02*
X436460D01*
G01D02*
X440413D01*
G01X442214Y37734D02*
Y39916D01*
G01D02*
Y42097D01*
G01X438163Y39916D02*
X442214D01*
G01X441574Y57469D02*
Y60339D01*
G01D02*
Y63209D01*
G01X439738Y60339D02*
X441574D01*
G01D02*
X443411D01*
G01X444128Y88587D02*
X448179D01*
G01X437838Y94705D02*
Y99248D01*
G01D02*
X441201D01*
G01X443356Y109634D02*
Y111815D01*
G01D02*
Y113997D01*
G01X445437Y191166D02*
X455295D01*
G01X448179Y91406D02*
Y93587D01*
G01Y86406D02*
Y88587D01*
G01D02*
Y90768D01*
G01Y93587D02*
Y95768D01*
G01X451037Y111559D02*
X453907D01*
G01X453000Y133600D02*
Y135600D01*
G01D02*
Y137600D01*
G01X451000Y135600D02*
X453000D01*
G01D02*
X455000D01*
G01X452507Y156990D02*
X456460D01*
G01X452219Y169100D02*
X454056D01*
G01X459551Y109827D02*
X465078D01*
G01X453907Y109723D02*
Y111559D01*
G01D02*
Y113396D01*
G01Y111559D02*
X456778D01*
G01X456460Y153037D02*
Y156990D01*
G01D02*
Y160943D01*
G01Y156990D02*
X460413D01*
G01X454056Y166230D02*
Y169100D01*
G01D02*
Y171970D01*
G01Y169100D02*
X455893D01*
G01X455295Y181308D02*
Y191166D01*
G01D02*
Y201025D01*
G01Y191166D02*
X465154D01*
G01X463474Y37734D02*
Y39916D01*
G01D02*
Y42097D01*
G01Y39916D02*
X467526D01*
G01X463474Y42734D02*
Y44916D01*
G01D02*
Y47097D01*
G01Y44916D02*
X467526D01*
G01X468366Y56878D02*
Y60634D01*
G01D02*
Y64390D01*
G01X466234Y60634D02*
X468366D01*
G01X465994Y71353D02*
Y74223D01*
G01Y71353D02*
X467831D01*
G01X469439Y91406D02*
Y93587D01*
G01D02*
Y95768D01*
G01X465078Y104299D02*
Y109827D01*
G01D02*
Y115355D01*
G01X466460Y143037D02*
Y146990D01*
G01D02*
Y150943D01*
G01X462507Y146990D02*
X466460D01*
G01D02*
X470413D01*
G01X467744Y158274D02*
X466460Y156990D01*
G01X473064Y58634D02*
Y60634D01*
G01D02*
Y62634D01*
G01Y60634D02*
X475064D01*
G01X473256Y166230D02*
Y169100D01*
G01D02*
Y171970D01*
G01X471419Y169100D02*
X473256D01*
G01D02*
X475093D01*
G01X479669Y11811D02*
X489528D01*
G01X479669Y208661D02*
X489528D01*
G01Y1952D02*
Y11811D01*
G01D02*
Y21670D01*
G01Y11811D02*
X499386D01*
G01X489528Y198803D02*
Y208661D01*
G01D02*
Y218520D01*
G01Y208661D02*
X499386D01*
G01X502400Y27400D02*
X504400D01*
G01Y25400D02*
Y27400D01*
G01D02*
Y29400D01*
G01Y27400D02*
X506400D01*
G54D18*
X83553Y90532D03*
Y95532D03*
Y100532D03*
Y105532D03*
X104813Y90532D03*
Y100532D03*
Y95532D03*
Y105532D03*
X304259Y112342D03*
Y117342D03*
Y122342D03*
Y127342D03*
X325518Y112342D03*
Y122342D03*
Y117342D03*
Y127342D03*
X342033Y89491D03*
Y94491D03*
Y99491D03*
Y104491D03*
X363293Y89491D03*
Y99491D03*
Y94491D03*
Y104491D03*
X442214Y34916D03*
Y39916D03*
Y44916D03*
Y49916D03*
X448179Y83587D03*
Y88587D03*
Y93587D03*
Y98587D03*
X463474Y39916D03*
Y34916D03*
Y49916D03*
Y44916D03*
X469439Y83587D03*
Y88587D03*
Y98587D03*
Y93587D03*
G54D27*
X301346Y162119D03*
Y173340D03*
X414202Y88774D03*
Y99994D03*
G54D37*
G01X57934Y81773D02*
Y73163D01*
X46844Y62073D01*
X27293D01*
X20590Y55370D01*
G01X83878Y48774D02*
X72138D01*
X67669Y44306D01*
X49499D01*
X31958Y26764D01*
G01X49372Y109221D02*
Y82163D01*
X38359Y71150D01*
X36858D01*
G01X57155Y125045D02*
Y118533D01*
G01Y141073D02*
Y145156D01*
G01X51260Y152037D02*
X54621Y148676D01*
X58261D01*
X62274Y144663D01*
Y141073D01*
G01X89370Y186127D02*
Y180000D01*
X80693Y171324D01*
X71295D01*
X57521Y157549D01*
X57234D01*
G01X78465Y186127D02*
Y185755D01*
X51260Y158550D01*
Y157549D01*
G01X64833Y141073D02*
Y145476D01*
X58271Y152037D01*
X57234D01*
G01X59715Y141073D02*
Y137389D01*
G01X67392Y141073D02*
Y147854D01*
X63209Y152037D01*
G01X100276Y186127D02*
Y184928D01*
X84446Y169099D01*
X74759D01*
X63209Y157549D01*
G01X75069Y141073D02*
Y145974D01*
X81132Y152037D01*
G01X69951Y141073D02*
Y151270D01*
X69183Y152037D01*
G01X72510Y141073D02*
Y149390D01*
X75158Y152037D01*
G01X111181Y186127D02*
X92153Y167099D01*
X78733D01*
X69183Y157549D01*
G01X122087Y186127D02*
X101058Y165099D01*
X82708D01*
X75158Y157549D01*
G01X91326Y117343D02*
X87859Y113876D01*
X83829D01*
X82746Y114959D01*
Y118534D01*
X82746Y118533D01*
G01X87106Y152037D02*
X85839D01*
X77628Y143827D01*
Y141073D01*
G01X93081Y152037D02*
Y149940D01*
X89680Y146539D01*
X83347D01*
X80187Y143379D01*
Y141073D01*
G01X132992Y186127D02*
X109965Y163099D01*
X86682D01*
X81132Y157549D01*
G01X93316Y128929D02*
X96579Y125665D01*
Y122500D01*
X91422Y117343D01*
X91326D01*
G01D02*
X86495D01*
X85305Y118534D01*
Y118533D01*
G01X91092Y140965D02*
X85413D01*
X85305Y141073D01*
G01X143898Y186127D02*
X118869Y161099D01*
X90656D01*
X87106Y157549D01*
G01X97726Y118533D02*
Y114279D01*
X96461Y113014D01*
G01X97726Y141073D02*
Y145902D01*
G01X93081Y157549D02*
X97274D01*
G01X103419Y157547D02*
X101885Y157549D01*
X98882Y154546D01*
G01X127539Y196127D02*
X122483Y191070D01*
X98228D01*
X98140Y190982D01*
X97157D01*
X94874Y188699D01*
Y183946D01*
G01X105404Y141073D02*
X105404Y146209D01*
X111230Y152035D01*
G01X102844Y141073D02*
Y151460D01*
X103419Y152035D01*
G01X107963Y141073D02*
Y144380D01*
X110857Y147274D01*
X115875D01*
X119041Y150440D01*
Y152035D01*
G01X100286Y141073D02*
X100285D01*
Y148595D01*
G01X111230Y157547D02*
X109723Y157547D01*
X107055Y154879D01*
G01X120707Y57987D02*
X124421Y61701D01*
X124781D01*
G01X149322Y196099D02*
X149350Y196127D01*
G01X132835Y120741D02*
Y114146D01*
X131252Y112563D01*
X124822D01*
X123317Y114068D01*
Y118533D01*
G01X120758D02*
Y109449D01*
G01X123794Y128929D02*
X129872Y122851D01*
X132835D01*
G01X123317Y141073D02*
Y147004D01*
G01X119041Y157547D02*
X123345D01*
G01X132835Y122851D02*
Y120741D01*
G01X125876Y118533D02*
Y118534D01*
X130627D01*
X132835Y120741D01*
G01Y128363D02*
X136590D01*
G01X132619Y140556D02*
X126424Y140524D01*
X125876Y141073D01*
G01X128155Y157547D02*
X129865Y157547D01*
X135377Y152035D01*
G01D02*
X142600D01*
G54D19*
X78465Y186127D03*
X83917Y196127D03*
X89370Y186127D03*
X100276D03*
X94823Y196127D03*
X111181Y186127D03*
X105728Y196127D03*
X116634D03*
X122087Y186127D03*
X127539Y196127D03*
X132992Y186127D03*
X143898D03*
X138445Y196127D03*
X149350D03*
X154803Y186127D03*
X160256Y196127D03*
X165709Y186127D03*
X176614D03*
X171161Y196127D03*
X182067D03*
X187520Y186127D03*
X192972Y196127D03*
X198425Y186127D03*
X209331D03*
X203878Y196127D03*
X297264Y186166D03*
X308169D03*
X302716Y196166D03*
X313622D03*
X319075Y186166D03*
X324528Y196166D03*
X329980Y186166D03*
X340886D03*
X335433Y196166D03*
X346339D03*
X351791Y186166D03*
X357244Y196166D03*
X362697Y186166D03*
X373602D03*
X368150Y196166D03*
X379055D03*
X384508Y186166D03*
X389961Y196166D03*
X395413Y186166D03*
X406319D03*
X400866Y196166D03*
X411772D03*
X417224Y186166D03*
X422677Y196166D03*
X428130Y186166D03*
G54D28*
X381101Y118272D03*
X398818D03*
G54D38*
G01X59200Y105545D02*
X53048D01*
X51147Y107447D01*
G01X63446Y90878D02*
Y87285D01*
X57934Y81773D01*
G01X80187Y122722D02*
X77969Y124940D01*
X57260D01*
X57155Y125045D01*
G01X63446Y81773D02*
X69085D01*
G01X72800Y105556D02*
X66200D01*
G01X59200Y105545D02*
X66189D01*
X66200Y105556D01*
G01X74597Y90878D02*
Y87285D01*
X69085Y81773D01*
G01X74597D02*
X78784D01*
G01X83553Y95532D02*
X79251D01*
X74597Y90878D01*
G01X69085D02*
Y86676D01*
G01X83553Y105532D02*
X72824D01*
X72800Y105556D01*
G01X83553Y105532D02*
X104813D01*
G01X80187Y118533D02*
Y122722D01*
G01X82746Y141073D02*
X82746Y136735D01*
G01X91092Y140965D02*
X92383D01*
X95618Y137729D01*
G01X104813Y95532D02*
X100108D01*
G01X104813D02*
X109583D01*
G01X113406Y94399D02*
Y98094D01*
X110968Y100532D01*
X104813D01*
G01X118917Y94399D02*
X121773D01*
G03X126135Y96206I0J6170D01*
G01X147126Y117197D01*
G03X149322Y122500I-5304J5303D01*
G01Y196099D01*
G01X123317Y141073D02*
Y135638D01*
G01D02*
X125411Y133544D01*
G01X132619Y140556D02*
X128707Y136612D01*
X128155D01*
G01X125411Y133544D02*
X130556D01*
X132024Y135013D01*
X132619Y135044D01*
G01X267580Y91832D02*
X270664D01*
G01D02*
X271197Y92365D01*
X272724D01*
G01D02*
X278986Y98627D01*
G01X274014Y167770D02*
Y164897D01*
X270274Y161157D01*
Y158321D01*
G01X284765Y155063D02*
X284613Y154911D01*
X279924D01*
X277754Y157080D01*
Y158321D01*
G01X284334Y173357D02*
X276486D01*
X273985Y170856D01*
Y167799D01*
X274014Y167770D01*
G01X284334Y167845D02*
X284258Y167770D01*
X277754D01*
G01X287644Y134900D02*
Y115256D01*
X290644Y112256D01*
X297100D01*
G01X287644Y134900D02*
Y143189D01*
X287655Y143200D01*
G01D02*
Y152173D01*
X284765Y155063D01*
G01X292321Y155066D02*
X284768D01*
X284765Y155063D01*
G01X292321Y160578D02*
X286140D01*
X284765Y161953D01*
G01X284334Y173357D02*
X292321D01*
G01X284334Y167845D02*
X292321D01*
G01X304259Y112342D02*
X304173Y112256D01*
X297100D01*
G01X292882Y128416D02*
Y127510D01*
X298168Y122225D01*
G01X301346Y162119D02*
X298970D01*
X297429Y160578D01*
X292321D01*
G01X301346Y173340D02*
X292338D01*
X292321Y173357D01*
G01X304259Y122342D02*
X298285D01*
X298168Y122225D01*
G01X304259Y127342D02*
X299468D01*
X298394Y128416D01*
G01X304259Y127342D02*
X306135Y129217D01*
G03X307438Y132364I-3147J3146D01*
G01Y134507D01*
G01X302084Y143858D02*
Y134665D01*
X301926Y134507D01*
G01X302084Y143858D02*
Y147978D01*
G02X304280Y153282I7500J0D01*
G01X319086Y168088D01*
G02X324390Y170285I5303J-5304D01*
G01X387149D01*
G03X392452Y172481I0J7500D01*
G01X398741Y178770D01*
G03X400938Y184073I-5304J5303D01*
G01Y185426D01*
G02X403134Y190729I7500J0D01*
G01X407546Y195141D01*
G02X410022Y196166I2475J-2475D01*
G01X411772D01*
G01X306819Y162119D02*
X301346D01*
G01Y173340D02*
X306340D01*
X308169Y175169D01*
Y186166D01*
G01X314032Y143759D02*
Y134655D01*
X313934Y134556D01*
G01X314032Y143759D02*
Y146760D01*
G02X315942Y151371I6521J0D01*
G01X326799Y162228D01*
G02X332102Y164424I5303J-5303D01*
G01X393734D01*
G03X399038Y166621I0J7500D01*
G01X417224Y184808D01*
Y186166D01*
G01X307595Y143858D02*
X310297D01*
G01X319075Y174375D02*
X306819Y162119D01*
G01X319446Y134556D02*
X319588Y134414D01*
Y124342D01*
G03X321589Y122342I2001J0D01*
G01X325518D01*
G01X319544Y143759D02*
X322922D01*
G01X319075Y186166D02*
Y174375D01*
G01X325518Y117342D02*
X335036D01*
X335459Y116918D01*
X335460D01*
G01X335568Y123129D02*
X334780Y122342D01*
X325518D01*
G01Y127342D02*
X347014D01*
X354300Y120056D01*
G01X335460Y116918D02*
X335459D01*
Y117509D01*
X341080Y123129D01*
G01X340971Y116918D02*
Y112896D01*
G01X354300Y120056D02*
X360500D01*
G01X367755Y120016D02*
X360540D01*
X360500Y120056D01*
G01X367755Y120016D02*
X369184D01*
X376600Y112600D01*
Y84100D01*
X389347Y71353D01*
X421407D01*
G01X414202Y99994D02*
X414202Y99995D01*
X408380D01*
X408263Y100112D01*
G01X422322Y49975D02*
X419014D01*
G01X422322Y61225D02*
X418670D01*
G01X422726Y94227D02*
X418999D01*
G01X422726Y97937D02*
X419375D01*
X419234Y98078D01*
G01X428405Y36105D02*
Y30295D01*
G01X426919Y71353D02*
Y69853D01*
X429740Y67032D01*
G01X448179Y98587D02*
X441102Y105664D01*
X436090D01*
X428897Y98471D01*
Y97888D01*
G01X429015Y94187D02*
X432817D01*
G01X422726Y103449D02*
X428848D01*
X428897Y103400D01*
G01X423671Y111815D02*
X422726Y110870D01*
Y103449D01*
G01X430944Y132473D02*
Y130897D01*
X426862Y126815D01*
X423671D01*
G01X448179Y98587D02*
X446754D01*
X437838Y89671D01*
Y85863D01*
G01X433154Y99121D02*
X433282Y99248D01*
X437838D01*
G01X443356Y126815D02*
X440673D01*
X436456Y131033D01*
Y132473D01*
G01X448544Y169100D02*
X434856D01*
G01X449114Y60339D02*
Y57672D01*
X445478Y54037D01*
G01X453907Y117071D02*
X443612D01*
X443356Y116815D01*
G01X454183Y71353D02*
X448073D01*
X447793Y71632D01*
G01X456460Y146990D02*
X446460Y156990D01*
G01D02*
X448544Y159074D01*
Y169100D01*
G01Y174000D02*
Y169100D01*
G01X454626Y60339D02*
X461181D01*
X461476Y60634D01*
G01X471506Y71353D02*
Y70548D01*
X468244Y67287D01*
X462697D01*
X459695Y70289D01*
Y71353D01*
G01X468366Y60634D02*
X473064D01*
G01X465994Y71353D02*
X464550D01*
X462913Y72990D01*
G01X469439Y88587D02*
X474345D01*
X477064Y85868D01*
Y74639D01*
X473777Y71353D01*
X471506D01*
G01X467744Y169100D02*
Y158274D01*
G01X492700Y168200D02*
X482400D01*
X476200Y174400D01*
X470200D01*
X467744Y171944D01*
Y169100D01*
G54D29*
X390540Y83804D03*
Y108213D03*
G54D39*
G01X32700Y-3802D02*
X17087Y11811D01*
G01X406926Y-3802D02*
X32700D01*
G01X324528Y196166D02*
X313622D01*
G01X319075Y190714D02*
X313622Y196166D01*
G01X327185Y209730D02*
X313622Y196166D01*
G01X319075Y186166D02*
Y190714D01*
G01X329980Y186166D02*
Y190714D01*
X335433Y196166D01*
G01X324528D02*
Y196265D01*
X337992Y209730D01*
G01D02*
X327185D01*
G01X340886Y186166D02*
Y190714D01*
X335433Y196166D01*
G01X500800Y117500D02*
Y168452D01*
X464236Y205016D01*
X344282D01*
X335433Y196166D01*
G01X337992Y209730D02*
X488459D01*
X489528Y208661D01*
G01X414202Y88774D02*
X407174D01*
X402204Y83804D01*
X390540D01*
G01Y108213D02*
Y109994D01*
X398818Y118272D01*
G01X423671Y126815D02*
X407361D01*
X398818Y118272D01*
G01X417471Y8640D02*
Y6742D01*
X406926Y-3802D01*
G01X421407Y71353D02*
Y69030D01*
X429212Y61225D01*
G01X447793Y71632D02*
X447552D01*
X441598Y77587D01*
X427547D01*
X421407Y71447D01*
Y71353D01*
G01X422726Y88715D02*
X422667Y88774D01*
X414202D01*
G01X428405Y36105D02*
X426347Y34047D01*
X422300D01*
G01X428914Y44916D02*
X428700Y44701D01*
Y39187D01*
X428405Y38892D01*
G01Y36105D02*
Y38892D01*
G01X442214Y49916D02*
X429271D01*
X429212Y49975D01*
G01D02*
X428760Y49522D01*
Y45070D01*
X428914Y44916D01*
G01D02*
X442214D01*
G01X429212Y61225D02*
X430098Y60339D01*
X436063D01*
G01X437838Y85863D02*
X435025Y88676D01*
X429015D01*
G01X422726Y88715D02*
G01Y88715D02*
X428976D01*
X429015Y88676D01*
G01X500800Y117500D02*
Y48300D01*
X468337Y15837D01*
X444668D01*
X437470Y8640D01*
G01X436063Y60339D02*
Y59327D01*
X441353Y54037D01*
X445478D01*
G01X434407Y71632D02*
Y66858D01*
G01X448179Y83587D02*
X440114D01*
X437838Y85863D01*
G01X443356Y111815D02*
X440437D01*
X436521Y115731D01*
Y117715D01*
X434921Y119315D01*
X433514D01*
G01X456343Y39916D02*
X442214D01*
G01X454416Y54037D02*
X445478D01*
G01X443356Y111815D02*
X454129D01*
X454146Y111798D01*
X463107D01*
X465078Y109827D01*
G01Y129118D02*
X457775Y121815D01*
X443356D01*
G01X463474Y49916D02*
X458538D01*
X454416Y54037D01*
G01X469469D02*
X454416D01*
G01X469439Y83587D02*
X459748D01*
X447793Y71632D01*
G01X448179Y88587D02*
X455434D01*
G01X448179Y93587D02*
X460434D01*
G01X463474Y39916D02*
X456343D01*
G01D02*
X461343Y44916D01*
X463474D01*
G01X455434Y88587D02*
X460434Y93587D01*
G01D02*
X469439D01*
G01X463474Y34916D02*
X469017D01*
X473575Y39474D01*
Y49931D01*
X469469Y54037D01*
G01X482277Y93587D02*
X469439D01*
G01X465078Y129118D02*
X489181D01*
X500800Y117500D01*
M02*
